<?xml version="1.0" encoding="utf-8"?>
<!-- Generator: Adobe Illustrator 15.0.0, SVG Export Plug-In  -->
<!DOCTYPE svg PUBLIC "-//W3C//DTD SVG 1.1//EN" "http://www.w3.org/Graphics/SVG/1.1/DTD/svg11.dtd" [
	<!ENTITY ns_flows "http://ns.adobe.com/Flows/1.0/">
]>
<svg version="1.1"
	 xmlns="http://www.w3.org/2000/svg" xmlns:xlink="http://www.w3.org/1999/xlink" xmlns:a="http://ns.adobe.com/AdobeSVGViewerExtensions/3.0/"
	 x="0px" y="0px" width="97px" height="51px" viewBox="-4.5 0 97 51" enable-background="new -4.5 0 97 51" xml:space="preserve">
<defs>
</defs>
<path d="M79.6601563,39.7685547L62.5029297,48.8125c0.1845703,0.0576172,0.3730469,0.1064453,0.5634766,0.1435547
	l9.4101563,1.7675781c2.7333984,0.5136719,5.3671875-1.2890625,5.8828125-4.0224609L79.6601563,39.7685547z M0,0h10.9541016
	v0.0292969h3.8017578v5.0380859H9.6728516l0.0019531,13.6567383l6.8876953,6.887207l-0.0371094-7.7001953l7.2070313,1.6601563
	l0.1865234-0.9970703L92.5,31.4521484L58.0175781,48.5556641l-38.375-7.2050781l0.2001953-1.0712891l-3.2167969-0.6044922
	l-0.0361328-7.4892578l-0.2919922,0.2900391L4.6357422,20.8134766V5.0390625H0V0L0,0z"/>
</svg>
