<?xml version="1.0" encoding="utf-8"?>
<!-- Generator: Adobe Illustrator 15.0.0, SVG Export Plug-In  -->
<!DOCTYPE svg PUBLIC "-//W3C//DTD SVG 1.1//EN" "http://www.w3.org/Graphics/SVG/1.1/DTD/svg11.dtd" [
	<!ENTITY ns_flows "http://ns.adobe.com/Flows/1.0/">
]>
<svg version="1.1"
	 xmlns="http://www.w3.org/2000/svg" xmlns:xlink="http://www.w3.org/1999/xlink" xmlns:a="http://ns.adobe.com/AdobeSVGViewerExtensions/3.0/"
	 x="0px" y="0px" width="97px" height="51px" viewBox="0 0 97 51" enable-background="new 0 0 97 51" xml:space="preserve">
<defs>
</defs>
<path d="M12.8398438,39.7685547L29.9970703,48.8125c-0.1850586,0.0576172-0.3730469,0.1064453-0.5639648,0.1435547
	l-9.4101563,1.7675781c-2.7329102,0.5136719-5.3671875-1.2890625-5.8818359-4.0224609L12.8398438,39.7685547z M92.5,0H81.5458984
	v0.0292969h-3.8017578v5.0380859h5.0830078l-0.0019531,13.6567383L75.9375,25.6113281l0.0371094-7.7001953l-7.2070313,1.6601563
	l-0.1865234-0.9970703L0,31.4521484l34.4829102,17.1035156l38.3745117-7.2050781l-0.2001953-1.0712891l3.2167969-0.6044922
	l0.0361328-7.4892578l0.2919922,0.2900391l11.6621094-11.6621094V5.0390625H92.5V0L92.5,0z"/>
</svg>
