<?xml version="1.0" encoding="utf-8"?>
<!-- Generator: Adobe Illustrator 15.0.0, SVG Export Plug-In  -->
<!DOCTYPE svg PUBLIC "-//W3C//DTD SVG 1.1//EN" "http://www.w3.org/Graphics/SVG/1.1/DTD/svg11.dtd" [
	<!ENTITY ns_flows "http://ns.adobe.com/Flows/1.0/">
]>
<svg version="1.1"
	 xmlns="http://www.w3.org/2000/svg" xmlns:xlink="http://www.w3.org/1999/xlink" xmlns:a="http://ns.adobe.com/AdobeSVGViewerExtensions/3.0/"
	 x="0px" y="0px" width="272px" height="210px" viewBox="-72.628418 -45.2519531 272 210"
	 enable-background="new -72.628418 -45.2519531 272 210" xml:space="preserve">
<defs>
</defs>
<path fill="#9B2924" d="M121.871582,99.7480469c0,6.6269531-5.3730469,12-12,12h-92.5c-6.6274414,0-12-5.3730469-12-12v-34
	c0-6.6274414,5.3725586-12,12-12h92.5c6.6269531,0,12,5.3725586,12,12V99.7480469z"/>
<path d="M113.5219727,47.2539063H95.4731445V47.253418H82.0844727l0.0039063,0.0058594H44.6416016l0.0039063-0.0058594H31.2631836
	l-0.0004883,0.0004883h-18.043457C5.909668,47.2539063,0,53.1796875,0,60.4785156v45.7958984
	c0,7.3037109,5.9204102,13.2216797,13.2192383,13.2216797h100.3105469c7.3027344,0,13.2128906-5.9179688,13.2128906-13.2216797
	V60.4833984C126.7426758,53.1762695,120.8188477,47.2539063,113.5219727,47.2539063z M31.21875,78.3964844h-5.8164063v-4.1972656
	c0-2.8027344-1.2280273-3.8574219-3.1923828-3.8574219c-1.9570313,0-3.1884766,1.0546875-3.1884766,3.8574219v21.1533203
	c0,2.796875,1.2314453,3.8085938,3.1884766,3.8085938c1.9643555,0,3.1923828-1.0048828,3.1923828-3.8085938v-5.5888672H31.21875
	v5.2001953c0,6.2705078-3.1308594,9.8535156-9.175293,9.8535156c-6.0405273,0-9.1796875-3.5751953-9.1796875-9.8535156v-20.375
	c0-6.2636719,3.1352539-9.8447266,9.1796875-9.8447266s9.175293,3.5810547,9.175293,9.8447266V78.3964844z M34.9804688,104.3632813
	V65.1894531h6.1542969V98.765625h10.1279297l0.0039063,5.5976563H34.9804688z M72.1489258,94.9570313
	c0,6.2705078-3.296875,9.8525391-9.340332,9.8525391c-6.0449219,0-9.3496094-3.5751953-9.3496094-9.8525391V74.5888672
	c0-6.2636719,3.3046875-9.8525391,9.3496094-9.8525391c6.043457,0,9.340332,3.5820313,9.340332,9.8525391V94.9570313z
	 M84.3618164,104.8095703c-6.0390625,0-9.1679688-3.5751953-9.1679688-9.8525391v-2.40625h5.8144531v2.7949219
	c0,2.8037109,1.2304688,3.8085938,3.1894531,3.8085938c1.9550781,0,3.1875-1.0048828,3.1875-3.8085938
	c0-8.0585938-12.0273438-9.5673828-12.0273438-20.7607422c0-6.2646484,3.0839844-9.8554688,9.0644531-9.8554688
	c5.984375,0,9.0703125,3.5810547,9.0703125,9.8554688v1.2421875h-5.8222656v-1.6279297
	c0-2.8027344-1.125-3.8574219-3.078125-3.8574219c-1.9609375,0-3.0859375,1.0546875-3.0859375,3.8574219
	c0,8.0615234,12.0351563,9.5771484,12.0351563,20.7578125C93.5415039,101.2275391,90.4067383,104.8095703,84.3618164,104.8095703z
	 M113.8754883,70.78125H103.230957v10.9140625h8.4511719v5.5917969h-8.4511719V98.765625h10.6445313v5.5976563H97.0883789
	V65.1894531h16.7871094V70.78125z"/>
<path d="M67.2407227,94.8105469c0,2.7958984-1.9277344,5.0625-4.3061523,5.0625l0,0
	c-2.3779297,0-4.3056641-2.2666016-4.3056641-5.0625v-19.25c0-2.7958984,1.9277344-5.0625,4.3056641-5.0625l0,0
	c2.378418,0,4.3061523,2.2666016,4.3061523,5.0625V94.8105469z"/>
<path d="M34.6450195,42.456543h13.3823242l11.1230469-15.7783203c1.3291016,0.4321289,2.7480469,0.6708984,4.2158203,0.6708984
	c1.4702148,0,2.8842773-0.2285156,4.2104492-0.6708984L78.7026367,42.456543H92.090332L75.7954102,19.3476563
	c0.7929688-1.7363281,1.2441406-3.6542969,1.2441406-5.6713867C77.0395508,6.1240234,70.9204102,0,63.3701172,0
	c-7.5566406,0-13.6728516,6.1240234-13.6728516,13.6762695c0,2.0297852,0.4501953,3.9458008,1.2426758,5.6679688
	L34.6450195,42.456543z M63.3710938,6.1293945c3.6567383,0,6.6196289,2.9633789,6.6196289,6.6186523
	s-2.9628906,6.6186523-6.6196289,6.6186523c-3.6552734,0-6.6181641-2.9633789-6.6181641-6.6186523
	S59.7158203,6.1293945,63.3710938,6.1293945z"/>
</svg>
