<?xml version="1.0" encoding="utf-8"?>
<!-- Generator: Adobe Illustrator 15.0.0, SVG Export Plug-In  -->
<!DOCTYPE svg PUBLIC "-//W3C//DTD SVG 1.1//EN" "http://www.w3.org/Graphics/SVG/1.1/DTD/svg11.dtd" [
	<!ENTITY ns_flows "http://ns.adobe.com/Flows/1.0/">
]>
<svg version="1.1"
	 xmlns="http://www.w3.org/2000/svg" xmlns:xlink="http://www.w3.org/1999/xlink" xmlns:a="http://ns.adobe.com/AdobeSVGViewerExtensions/3.0/"
	 x="0px" y="0px" width="500px" height="500px" viewBox="-79.845 -3.263 500 500" enable-background="new -79.845 -3.263 500 500"
	 xml:space="preserve">
<defs>
</defs>
<path fill="#919191" d="M325.684,35.399H249.33c-5.357-5.896-13.04-9.68-21.632-9.68h-29.412v-4.983
	C198.286,9.946,183.834,0,170.156,0c-13.678,0-28.13,9.946-28.13,20.736v4.983h-29.413c-8.592,0-16.273,3.784-21.632,9.68H14.594
	C6.495,35.399,0,41.953,0,50.019v428.829c0,8.049,6.479,14.627,14.594,14.627h311.091c8.08,0,14.625-6.527,14.625-14.627V50.019
	C340.311,41.953,333.766,35.399,325.684,35.399z M311.026,464.238H29.205V64.636H71.49v0.003h13.47
	c3.971,11.538,14.772,19.893,27.668,19.893h57.528h57.527c12.896,0,23.697-8.354,27.668-19.893h13.471v-0.003h42.204V464.238
	L311.026,464.238z"/>
<rect x="56.519" y="114.818" fill="#919191" width="227.273" height="22.729"/>
<rect x="56.519" y="164.818" fill="#919191" width="227.273" height="22.729"/>
<rect x="56.519" y="214.818" fill="#919191" width="227.273" height="22.729"/>
<rect x="56.519" y="264.818" fill="#919191" width="227.273" height="22.729"/>
<path fill="#844646" d="M223.094,345.328l-34.405,34.409l34.405,34.409c5.117,5.117,5.117,13.41,0,18.529
	c-2.558,2.558-5.91,3.837-9.263,3.837c-3.354,0-6.707-1.277-9.262-3.837l-34.413-34.41l-34.409,34.41
	c-2.559,2.558-5.911,3.837-9.264,3.837c-3.353,0-6.704-1.277-9.262-3.837c-5.118-5.115-5.118-13.41,0-18.529l34.403-34.409
	l-34.405-34.409c-5.118-5.117-5.118-13.41,0-18.53c5.118-5.113,13.407-5.113,18.524,0l34.413,34.411l34.409-34.411
	c5.119-5.113,13.41-5.113,18.526,0C228.211,331.918,228.211,340.211,223.094,345.328z"/>
</svg>
