<?xml version="1.0" encoding="utf-8"?>
<!-- Generator: Adobe Illustrator 15.0.0, SVG Export Plug-In  -->
<!DOCTYPE svg PUBLIC "-//W3C//DTD SVG 1.1//EN" "http://www.w3.org/Graphics/SVG/1.1/DTD/svg11.dtd" [
	<!ENTITY ns_flows "http://ns.adobe.com/Flows/1.0/">
]>
<svg version="1.1"
	 xmlns="http://www.w3.org/2000/svg" xmlns:xlink="http://www.w3.org/1999/xlink" xmlns:a="http://ns.adobe.com/AdobeSVGViewerExtensions/3.0/"
	 x="0px" y="0px" width="70px" height="60px" viewBox="-10.9609375 -14.1171875 70 60"
	 enable-background="new -10.9609375 -14.1171875 70 60" xml:space="preserve">
<defs>
</defs>
<path fill="#246031" d="M24.4731445,20.421875c-2.4453125,0-4.4379883,1.9882813-4.4379883,4.4355469
	c0,2.4482422,1.9916992,4.4384766,4.4379883,4.4384766c2.4467773,0,4.4379883-1.9902344,4.4379883-4.4384766
	C28.9111328,22.4101563,26.9199219,20.421875,24.4731445,20.421875z M24.4731445,28.7011719
	c-2.1171875,0-3.8442383-1.7265625-3.8442383-3.84375s1.7270508-3.84375,3.8442383-3.84375
	c2.1186523,0,3.8413086,1.7265625,3.8413086,3.84375C28.3144531,26.9765625,26.5917969,28.7011719,24.4731445,28.7011719z"/>
<path fill="#246031" d="M24.4731445,29.7958984c-2.7226563,0-4.9379883-2.2158203-4.9379883-4.9384766
	c0-2.7216797,2.215332-4.9355469,4.9379883-4.9355469c2.7231445,0,4.9379883,2.2138672,4.9379883,4.9355469
	C29.4111328,27.5800781,27.1962891,29.7958984,24.4731445,29.7958984z M24.4731445,21.5136719
	c-1.8442383,0-3.3442383,1.5-3.3442383,3.34375s1.5,3.34375,3.3442383,3.34375c1.8422852,0,3.3413086-1.5,3.3413086-3.34375
	S26.3154297,21.5136719,24.4731445,21.5136719z"/>
<rect fill="#246031" width="48.078125" height="4.5209961"/>
<path fill="#246031" d="M24.0390625,31.765625c12.6855469,0,22.9707031-10.2851563,22.9707031-22.9707031H1.0678711
	C1.0678711,21.4804688,11.3530273,31.765625,24.0390625,31.765625z M18.5620117,16.515625
	c0-3.2304688,2.6210938-5.8496094,5.8500977-5.8496094c3.2363281,0,5.8515625,2.6191406,5.8515625,5.8496094V24.9375
	c0,3.2304688-2.6152344,5.8544922-5.8515625,5.8544922c-3.2290039,0-5.8500977-2.6230469-5.8500977-5.8544922V16.515625z"/>
<circle fill="#246031" cx="24.4731445" cy="24.8588867" r="1.7397461"/>
<path fill="#246031" d="M24.4731445,27.0986328c-1.2353516,0-2.2402344-1.0048828-2.2402344-2.2392578
	c0-1.2353516,1.0048828-2.2402344,2.2402344-2.2402344c1.2348633,0,2.2397461,1.0048828,2.2397461,2.2402344
	C26.7128906,26.09375,25.7080078,27.0986328,24.4731445,27.0986328z M24.4731445,23.6191406
	c-0.684082,0-1.2402344,0.5566406-1.2402344,1.2402344s0.5561523,1.2392578,1.2402344,1.2392578
	c0.6831055,0,1.2397461-0.5556641,1.2397461-1.2392578S25.15625,23.6191406,24.4731445,23.6191406z"/>
</svg>
