<?xml version="1.0" encoding="utf-8"?>
<!-- Generator: Adobe Illustrator 15.0.0, SVG Export Plug-In  -->
<!DOCTYPE svg PUBLIC "-//W3C//DTD SVG 1.1//EN" "http://www.w3.org/Graphics/SVG/1.1/DTD/svg11.dtd" [
	<!ENTITY ns_flows "http://ns.adobe.com/Flows/1.0/">
]>
<svg version="1.1"
	 xmlns="http://www.w3.org/2000/svg" xmlns:xlink="http://www.w3.org/1999/xlink" xmlns:a="http://ns.adobe.com/AdobeSVGViewerExtensions/3.0/"
	 x="0px" y="0px" width="40px" height="32px" viewBox="0 0 40 32" enable-background="new 0 0 40 32" xml:space="preserve">
<defs>
</defs>
<path fill="#818181" d="M36.809,5.6C36.587,4.72,35.5,4,34.391,4H20.762c-1.109,0-2.659-0.635-3.444-1.412l-1.191-1.177
	C15.342,0.635,13.792,0,12.685,0H6.172C5.064,0,4.058,0.895,3.936,1.988L3.351,7.2h33.862L36.809,5.6z"/>
<path fill="#818181" d="M17.91,25.242l7.324-3.737c0.548-0.277,0.548-0.73,0-1.01l-7.324-3.734
	c-0.546-0.279-0.992-0.051-0.992,0.511v7.455C16.918,25.291,17.361,25.521,17.91,25.242z"/>
<path fill="#818181" d="M38.141,10H1.86c-1.842,0-1.934,0.896-1.833,1.992l1.65,18.016C1.778,31.104,2.038,32,3.876,32h32.248
	c1.876,0,2.099-0.896,2.196-1.991l1.65-18.017C40.074,10.896,39.981,10,38.141,10z M20,28.682c-4.243,0-7.682-3.439-7.682-7.682
	s3.439-7.682,7.682-7.682c4.242,0,7.682,3.439,7.682,7.682S24.243,28.682,20,28.682z"/>
</svg>
