<?xml version="1.0" encoding="utf-8"?>
<!-- Generator: Adobe Illustrator 15.0.0, SVG Export Plug-In  -->
<!DOCTYPE svg PUBLIC "-//W3C//DTD SVG 1.1//EN" "http://www.w3.org/Graphics/SVG/1.1/DTD/svg11.dtd" [
	<!ENTITY ns_flows "http://ns.adobe.com/Flows/1.0/">
]>
<svg version="1.1"
	 xmlns="http://www.w3.org/2000/svg" xmlns:xlink="http://www.w3.org/1999/xlink" xmlns:a="http://ns.adobe.com/AdobeSVGViewerExtensions/3.0/"
	 x="0px" y="0px" width="26px" height="26px" viewBox="-4.064 -4.696 26 26" enable-background="new -4.064 -4.696 26 26"
	 xml:space="preserve">
<defs>
</defs>
<path fill="#333333" d="M10.733,0c0,0-3.86,0-5.145,0C3.283,0,1.112,1.747,1.112,3.771c0,2.067,1.571,3.736,3.917,3.736
	c0.163,0,0.322-0.002,0.476-0.014c-0.151,0.292-0.262,0.62-0.262,0.96c0,0.575,0.31,1.041,0.701,1.421
	c-0.295,0-0.579,0.009-0.893,0.009C2.198,9.883,0,11.703,0,13.587c0,1.858,2.409,3.021,5.266,3.021c3.256,0,5.053-1.847,5.053-3.704
	c0-1.489-0.439-2.382-1.797-3.345C8.057,9.232,7.167,8.43,7.167,7.961c0-0.552,0.157-0.825,0.987-1.472
	C9.005,5.824,9.607,4.89,9.607,3.803c0-1.293-0.576-2.554-1.659-2.972h1.63L10.733,0z M8.935,12.583
	c0.04,0.172,0.063,0.349,0.063,0.528c0,1.503-0.967,2.675-3.744,2.675c-1.974,0-3.399-1.252-3.399-2.751
	c0-1.471,1.77-2.695,3.742-2.675c0.46,0.006,0.891,0.079,1.279,0.205C7.948,11.314,8.719,11.732,8.935,12.583z M5.774,6.983
	C4.449,6.945,3.19,5.502,2.961,3.76c-0.229-1.739,0.66-3.072,1.984-3.031c1.324,0.037,2.584,1.435,2.813,3.175
	C7.987,5.645,7.099,7.022,5.774,6.983z M14.986,3.99V1.105h-0.962V3.99h-2.883v0.96h2.883v2.885h0.962V4.95h2.886V3.99H14.986z"/>
</svg>
