<?xml version="1.0" encoding="utf-8"?>
<!-- Generator: Adobe Illustrator 15.0.0, SVG Export Plug-In . SVG Version: 6.00 Build 0)  -->
<!DOCTYPE svg PUBLIC "-//W3C//DTD SVG 1.1//EN" "http://www.w3.org/Graphics/SVG/1.1/DTD/svg11.dtd">
<svg version="1.1" id="Layer_1" xmlns="http://www.w3.org/2000/svg" xmlns:xlink="http://www.w3.org/1999/xlink" x="0px" y="0px"
	 width="600px" height="576.5px" viewBox="0 0 600 576.5" enable-background="new 0 0 600 576.5" xml:space="preserve">
<g>
	<polygon fill="#444444" points="175.226,32.008 173.602,29.709 181.449,25.072 182.827,27.368 	"/>
	<path fill="#444444" d="M204.934,1.445c-0.196-0.094-0.424-0.082-0.608,0.031L163.73,26.709c-0.152,0.094-0.256,0.249-0.287,0.424
		c-0.031,0.175,0.014,0.356,0.124,0.497c1.306,1.667,2.843,2.512,4.567,2.512c1.846,0,3.202-1.01,3.239-1.039
		c0.073-0.052,7.395-5.146,10.672-6.675c3.139-1.464,4.694-5.009,5.064-5.963c12.304-6.794,18.51-11.487,18.446-13.949
		C205.542,1.942,205.211,1.581,204.934,1.445z"/>
	<path fill="#484848" d="M209.912,4.87c0.174,0.786,0.885,5.372-4.845,9.645c-5.731,4.275-15.981,10.996-18.475,12.623l-2.003-3.506
		c1.072-0.545,2.934-2.015,3.387-5.727l15.799-9.094c0.178-0.12,4.103-2.801,3.648-5.72l0.841-0.327L209.912,4.87z"/>
	<path fill="#444444" d="M217.453,24.563v3.102c0,0.347-0.281,0.627-0.628,0.627h-5.512c-0.167,0-0.327-0.066-0.444-0.184
		l-2.986-2.986c-0.138-0.138-0.204-0.33-0.179-0.522c0.015-0.119,0.026-0.241,0.026-0.365c-0.014-0.531-1.296-3.257-2.593-5.735
		l-5.76,4.802c2.357,1.815,5.001,3.653,5.573,3.736l0.081-0.007c0.153-0.018,0.334,0.064,0.455,0.184l4.812,4.812h6.526
		c0.347,0,0.628,0.281,0.628,0.627v2.99h3.398v-11.08L217.453,24.563L217.453,24.563z M204.243,25.682
		c-1.247,0-2.263-1.015-2.263-2.263c0-1.249,1.015-2.264,2.263-2.264s2.263,1.016,2.263,2.264S205.491,25.682,204.243,25.682z"/>
	<circle fill="#444444" cx="204.243" cy="23.419" r="1.007"/>
	<path fill="#444444" d="M80.917,120.069c3.618,2.918,6.387,3.005,6.722,3.005l0,0c0.372-0.007,0.708-0.235,0.85-0.581
		c0.625-1.495,4.024-2.123,6.356-2.207c2.942,5.138,2.58,6.822,2.391,7.223c-0.103,0.221-0.242,0.264-0.381,0.283
		c-0.312,0.059-7.736,1.476-14.826,5.021c-2.747,1.375-4.364,3.081-4.808,5.071c-0.529,2.369,0.852,4.205,0.869,4.205l0,0
		l11.393,21.645l-2.461,1.933l-4.43,0.443c-0.418,0.042-0.757,0.354-0.832,0.768l-0.47,2.587c-0.051,0.273,0.024,0.557,0.203,0.77
		c0.178,0.217,0.442,0.34,0.722,0.34h16.696c0.267,0,0.521-0.112,0.7-0.313c0.179-0.196,0.264-0.463,0.235-0.729l-0.706-6.584
		c-0.005-0.064-0.021-0.129-0.042-0.191c-0.156-0.474-3.83-11.684-6.453-15.736c-0.848-1.312-0.988-2.124-0.833-2.447
		c0.126-0.267,0.546-0.331,0.521-0.334h10.163c1.454,1.589,8.178,8.983,10.275,12.052c1.664,2.439,4.847,2.95,7.22,2.95
		c1.465,0,2.553-0.195,2.598-0.202c0.09-0.015,0.174-0.044,0.254-0.085l15.836-7.918l3.348,3.537l-1.203,3.211
		c-0.109,0.288-0.068,0.611,0.107,0.865c0.175,0.254,0.463,0.404,0.771,0.404h3.057c0.439,0,0.82-0.303,0.918-0.731l1.295-5.644
		c0.039-0.18,0.027-0.367-0.039-0.544l-4.352-11.522c-0.178-0.467-0.691-0.72-1.17-0.563l-8.039,2.602l-8.539,3.233h-4.148
		l-2.447-4.164l1.338-6.704c0.025-0.125,0.025-0.256-0.002-0.379l-3.322-15.608l-2.195-6.363l0.615-0.877h7.98
		c0.129,0,0.258-0.027,0.375-0.078l3.449-1.505c0.295-0.128,0.504-0.398,0.555-0.715l1.018-6.349c0.029-0.195,0-0.394-0.09-0.573
		l-5.643-11.17c-0.113-0.224-0.313-0.394-0.551-0.47l-10.582-3.411c-0.236-0.077-0.498-0.056-0.721,0.06l-6.681,3.468l-2.812,1.909
		l-0.068-2.537l0.92-1.518c0.246-0.404,0.152-0.93-0.219-1.223l-5.173-4.115c-0.165-0.135-0.373-0.206-0.585-0.206H84.559
		c-0.481,0-0.886,0.364-0.937,0.843l-0.618,5.953h-1.973c-0.519,0-0.94,0.422-0.94,0.94v1.411c0,0.519,0.422,0.939,0.94,0.939h2.822
		v3.058c0,0.521,0.421,0.94,0.94,0.94h1.176v1.905c0,0.521,0.421,0.94,0.94,0.94h3.39l0.388,0.861l-4.586,3.545
		c-0.22,0.168-0.354,0.428-0.365,0.705l-0.21,5.174l-1.302,0.881l-3.576-1.491l-3.344-1.187l0.154-0.432
		c0.025-0.072,0.043-0.147,0.05-0.223l0.235-2.352c0.04-0.398-0.177-0.779-0.54-0.946l-3.998-1.857
		c-0.317-0.15-0.696-0.106-0.975,0.112l-3.292,2.563c-0.229,0.178-0.363,0.452-0.363,0.742v2.963c0,0.268,0.113,0.521,0.313,0.701
		l3.567,3.207L80.917,120.069z"/>
	<g>
		<g>
			<line fill="none" stroke="#58595B" stroke-miterlimit="10" x1="300" y1="402.342" x2="300" y2="406.842"/>
			
				<line fill="none" stroke="#58595B" stroke-miterlimit="10" stroke-dasharray="9.7201,9.7201" x1="300" y1="416.562" x2="300" y2="450.583"/>
			<line fill="none" stroke="#58595B" stroke-miterlimit="10" x1="300" y1="455.442" x2="300" y2="459.942"/>
		</g>
	</g>
	<g>
		<g>
			<line fill="none" stroke="#58595B" stroke-miterlimit="10" x1="247.741" y1="335.766" x2="243.241" y2="335.766"/>
			
				<line fill="none" stroke="#58595B" stroke-miterlimit="10" stroke-dasharray="9.2422,9.2422" x1="233.999" y1="335.766" x2="90.745" y2="335.766"/>
			<line fill="none" stroke="#58595B" stroke-miterlimit="10" x1="86.124" y1="335.766" x2="81.624" y2="335.766"/>
		</g>
	</g>
	<g>
		<g>
			<line fill="none" stroke="#58595B" stroke-miterlimit="10" x1="518.376" y1="335.766" x2="513.876" y2="335.766"/>
			
				<line fill="none" stroke="#58595B" stroke-miterlimit="10" stroke-dasharray="9.2228,9.2228" x1="504.653" y1="335.766" x2="361.699" y2="335.766"/>
			<line fill="none" stroke="#58595B" stroke-miterlimit="10" x1="357.088" y1="335.766" x2="352.588" y2="335.766"/>
		</g>
	</g>
	<g>
		<g>
			<line fill="none" stroke="#58595B" stroke-miterlimit="10" x1="81.624" y1="335.766" x2="81.624" y2="340.266"/>
			
				<line fill="none" stroke="#58595B" stroke-miterlimit="10" stroke-dasharray="8.8598,8.8598" x1="81.624" y1="349.126" x2="81.624" y2="451.013"/>
			<line fill="none" stroke="#58595B" stroke-miterlimit="10" x1="81.624" y1="455.442" x2="81.624" y2="459.942"/>
		</g>
	</g>
	<g>
		<g>
			<line fill="none" stroke="#58595B" stroke-miterlimit="10" x1="518.376" y1="335.766" x2="518.376" y2="340.266"/>
			
				<line fill="none" stroke="#58595B" stroke-miterlimit="10" stroke-dasharray="8.8598,8.8598" x1="518.376" y1="349.126" x2="518.376" y2="451.013"/>
			<line fill="none" stroke="#58595B" stroke-miterlimit="10" x1="518.376" y1="455.442" x2="518.376" y2="459.942"/>
		</g>
	</g>
	<g>
		<g>
			<line fill="none" stroke="#414042" stroke-miterlimit="10" x1="300.165" y1="283.317" x2="300.165" y2="278.817"/>
			
				<line fill="none" stroke="#414042" stroke-miterlimit="10" stroke-dasharray="9.0435,9.0435" x1="300.165" y1="269.774" x2="300.165" y2="39.165"/>
			<line fill="none" stroke="#414042" stroke-miterlimit="10" x1="300.165" y1="34.643" x2="300.165" y2="30.143"/>
		</g>
	</g>
	<g>
		<g>
			<line fill="none" stroke="#414042" stroke-miterlimit="10" x1="220.852" y1="30.143" x2="225.352" y2="30.143"/>
			
				<line fill="none" stroke="#414042" stroke-miterlimit="10" stroke-dasharray="10.0711,10.0711" x1="235.423" y1="30.143" x2="290.814" y2="30.143"/>
			<line fill="none" stroke="#414042" stroke-miterlimit="10" x1="295.85" y1="30.143" x2="300.35" y2="30.143"/>
		</g>
	</g>
	<rect x="219.448" y="383.854" fill="none" width="161.104" height="14"/>
	<g>
		<path fill="#484848" d="M320.854,301.657h-41.708c-0.75,0-1.355,0.606-1.355,1.355v12.327c0,0.749,0.605,1.354,1.355,1.354h41.708
			c0.75,0,1.355-0.606,1.355-1.354v-12.326C322.209,302.265,321.604,301.657,320.854,301.657z M300,312.389h-17.801v-7.121H300
			V312.389z M320.854,319.841h-41.708c-0.75,0-1.355,0.607-1.355,1.355v12.326c0,0.75,0.605,1.356,1.355,1.356h41.708
			c0.75,0,1.355-0.607,1.355-1.356v-12.326C322.209,320.448,321.604,319.841,320.854,319.841z M300,330.389h-17.801v-7.12H300
			V330.389z M320.854,337.85h-41.708c-0.75,0-1.355,0.607-1.355,1.356v12.327c0,0.749,0.605,1.355,1.355,1.355h41.708
			c0.75,0,1.355-0.606,1.355-1.355v-12.327C322.209,338.457,321.604,337.85,320.854,337.85z M300,348.93h-17.801v-7.121H300V348.93z
			 M309.406,365.621h10.639v1.941h-10.621v0.093c0,1.227-0.992,2.22-2.219,2.22h-14.412c-1.226,0-2.221-0.993-2.221-2.22v-0.093
			h-10.62v-1.941h10.64c0.095-1.14,1.038-2.035,2.201-2.035h4.423v-4.439c0-1.226,0.993-2.22,2.22-2.22h1.109
			c1.227,0,2.219,0.995,2.219,2.22v4.439h4.44C308.367,363.586,309.311,364.483,309.406,365.621z"/>
		<path fill="#414042" d="M375.213,377.523h-43.424c13.041-9.889,20.799-25.388,20.799-41.782c0-28.907-23.518-52.424-52.423-52.424
			c-28.907,0-52.424,23.517-52.424,52.424c0,16.389,7.759,31.896,20.797,41.782h-43.751c-7.142,0-12.953,5.678-12.953,12.655
			c0,6.979,5.811,12.656,12.953,12.656h150.427c7.144,0,12.953-5.678,12.953-12.656
			C388.167,383.201,382.355,377.523,375.213,377.523z M375.213,401.836H224.786c-6.591,0-11.953-5.229-11.953-11.656
			s5.362-11.655,11.953-11.655h46.605l-1.203-0.963l0.016-0.021c-13.439-9.649-21.463-25.275-21.463-41.799
			c0-28.355,23.069-51.424,51.424-51.424c28.354,0,51.423,23.069,51.423,51.424c0,16.521-8.016,32.13-21.447,41.782h-0.016l-1.266,1
			h46.354c6.592,0,11.953,5.229,11.953,11.655C387.166,396.606,381.805,401.836,375.213,401.836z"/>
		<g enable-background="new    ">
			<path fill="#444444" d="M233.261,393.798h0.62c0.295-0.36,0.586-0.993,0.872-1.9s0.454-2.153,0.504-3.739l0.157-3.603h4.683
				v9.242h0.964l-0.068,3.124h-0.745v-2.413h-6.166v2.413h-0.697L233.261,393.798z M234.739,393.798h4.537v-8.518h-3.083
				l-0.116,2.878c-0.049,1.299-0.197,2.433-0.442,3.401C235.389,392.527,235.091,393.273,234.739,393.798z"/>
			<path fill="#444444" d="M242.168,392.54c0-0.688,0.242-1.236,0.725-1.645c0.483-0.407,1.137-0.611,1.962-0.611h1.292v-0.909
				c0-0.524-0.132-0.935-0.396-1.23s-0.633-0.444-1.107-0.444c-0.442,0-0.806,0.142-1.09,0.424s-0.427,0.629-0.427,1.039
				l-0.766-0.007l-0.014-0.041c-0.023-0.556,0.188-1.052,0.632-1.487c0.444-0.435,1.013-0.652,1.706-0.652
				c0.684,0,1.235,0.209,1.654,0.625c0.419,0.418,0.629,1.014,0.629,1.788v3.63c0,0.305,0.016,0.572,0.049,0.803
				c0.033,0.231,0.065,0.461,0.098,0.688h-0.844c-0.035-0.253-0.065-0.463-0.088-0.631c-0.023-0.167-0.035-0.333-0.035-0.497
				c-0.223,0.369-0.514,0.673-0.872,0.913c-0.358,0.238-0.755,0.358-1.193,0.358c-0.611,0-1.083-0.19-1.415-0.571
				C242.334,393.701,242.168,393.188,242.168,392.54z M242.988,392.567c0,0.396,0.105,0.72,0.314,0.971s0.503,0.376,0.882,0.376
				c0.456,0,0.86-0.131,1.213-0.394c0.353-0.262,0.603-0.596,0.749-1.001v-1.6h-1.313c-0.561,0-1.008,0.158-1.343,0.476
				C243.156,391.712,242.988,392.103,242.988,392.567z"/>
			<path fill="#444444" d="M248.108,387.83v-0.718h5.1v0.718h-2.174v6.679h-0.82v-6.679H248.108z"/>
			<path fill="#444444" d="M254.09,392.54c0-0.688,0.242-1.236,0.725-1.645c0.483-0.407,1.137-0.611,1.962-0.611h1.292v-0.909
				c0-0.524-0.132-0.935-0.396-1.23s-0.633-0.444-1.107-0.444c-0.442,0-0.806,0.142-1.09,0.424s-0.427,0.629-0.427,1.039
				l-0.766-0.007l-0.014-0.041c-0.023-0.556,0.188-1.052,0.632-1.487c0.444-0.435,1.013-0.652,1.706-0.652
				c0.684,0,1.235,0.209,1.654,0.625c0.419,0.418,0.629,1.014,0.629,1.788v3.63c0,0.305,0.016,0.572,0.049,0.803
				c0.033,0.231,0.065,0.461,0.098,0.688h-0.844c-0.035-0.253-0.065-0.463-0.088-0.631c-0.023-0.167-0.035-0.333-0.035-0.497
				c-0.223,0.369-0.514,0.673-0.872,0.913c-0.358,0.238-0.755,0.358-1.193,0.358c-0.611,0-1.083-0.19-1.415-0.571
				C254.256,393.701,254.09,393.188,254.09,392.54z M254.91,392.567c0,0.396,0.105,0.72,0.314,0.971s0.503,0.376,0.882,0.376
				c0.456,0,0.86-0.131,1.213-0.394c0.353-0.262,0.603-0.596,0.749-1.001v-1.6h-1.313c-0.561,0-1.008,0.158-1.343,0.476
				C255.078,391.712,254.91,392.103,254.91,392.567z"/>
			<path fill="#444444" d="M260.146,390.626v-0.711h2.728v0.711H260.146z"/>
			<path fill="#444444" d="M264.2,394.509v-7.396h0.82v6.686h3.117v-6.686h0.82v6.686h0.67l-0.075,2.905h-0.745v-2.194H264.2z"/>
			<path fill="#444444" d="M270.66,391.46v-1.23c0-0.935,0.254-1.71,0.763-2.328c0.509-0.617,1.121-0.926,1.838-0.926
				c0.773,0,1.374,0.277,1.802,0.83c0.428,0.555,0.642,1.298,0.642,2.232v0.813h-4.225v0.608c0,0.711,0.17,1.303,0.512,1.773
				c0.341,0.473,0.803,0.708,1.385,0.708c0.405,0,0.754-0.07,1.048-0.212c0.293-0.142,0.544-0.342,0.754-0.602l0.335,0.581
				c-0.223,0.287-0.511,0.517-0.864,0.687c-0.353,0.172-0.777,0.257-1.273,0.257c-0.798,0-1.451-0.3-1.957-0.899
				C270.913,393.154,270.66,392.39,270.66,391.46z M271.48,390.141h3.404v-0.314c0-0.61-0.144-1.118-0.43-1.521
				c-0.287-0.404-0.685-0.605-1.194-0.605c-0.514,0-0.936,0.234-1.266,0.704S271.494,389.452,271.48,390.141z"/>
			<path fill="#444444" d="M277.182,394.509v-7.396h0.82v3.309h3.117v-3.309h0.82v7.396h-0.82v-3.377h-3.117v3.377H277.182z"/>
			<path fill="#444444" d="M283.225,387.83v-0.718h5.1v0.718h-2.174v6.679h-0.82v-6.679H283.225z"/>
			<path fill="#444444" d="M289.575,397.353v-10.24h0.697l0.084,1.019c0.205-0.369,0.464-0.654,0.779-0.854
				c0.314-0.2,0.68-0.301,1.099-0.301c0.738,0,1.316,0.315,1.733,0.947c0.417,0.631,0.625,1.473,0.625,2.525v1.012
				c0,0.971-0.208,1.745-0.622,2.324s-0.986,0.868-1.716,0.868c-0.415,0-0.777-0.087-1.087-0.26s-0.567-0.424-0.772-0.752v3.712
				H289.575z M290.396,392.745c0.15,0.374,0.36,0.666,0.629,0.879c0.269,0.211,0.604,0.317,1.005,0.317
				c0.574,0,1.008-0.227,1.302-0.681c0.294-0.453,0.441-1.054,0.441-1.801v-1.012c0-0.807-0.148-1.464-0.444-1.973
				c-0.296-0.508-0.731-0.762-1.306-0.762c-0.406,0-0.742,0.121-1.008,0.362s-0.473,0.556-0.619,0.943V392.745z"/>
			<path fill="#444444" d="M296.261,394.509v-7.396h0.82v2.68h1.679c0.709,0,1.264,0.218,1.662,0.652
				c0.398,0.436,0.597,1,0.597,1.692c0,0.702-0.199,1.272-0.597,1.712c-0.398,0.44-0.953,0.66-1.662,0.66H296.261z M297.081,393.798
				h1.682c0.483,0,0.843-0.156,1.08-0.469c0.237-0.312,0.355-0.702,0.355-1.172c0-0.451-0.12-0.839-0.359-1.162
				s-0.598-0.485-1.077-0.485h-1.682V393.798z M302.317,394.509v-7.396h0.82v7.396H302.317z"/>
			<path fill="#444444" d="M307.943,390.913v-2.755c0-1.189,0.27-2.111,0.811-2.765c0.541-0.654,1.268-0.981,2.18-0.981
				c0.889,0,1.58,0.251,2.076,0.752s0.748,1.249,0.758,2.242l-0.021,0.041h-0.759c-0.023-0.788-0.205-1.37-0.546-1.747
				c-0.341-0.375-0.845-0.563-1.509-0.563c-0.682,0-1.215,0.258-1.597,0.772s-0.573,1.258-0.573,2.229v2.775
				c0,0.989,0.191,1.741,0.573,2.256s0.915,0.772,1.597,0.772c0.664,0,1.168-0.184,1.509-0.55c0.341-0.367,0.522-0.959,0.546-1.774
				h0.759l0.021,0.041c-0.01,0.971-0.264,1.712-0.765,2.226c-0.501,0.512-1.19,0.769-2.069,0.769c-0.916,0-1.645-0.323-2.183-0.971
				S307.943,392.111,307.943,390.913z"/>
			<path fill="#444444" d="M315.121,392.54c0-0.688,0.242-1.236,0.725-1.645c0.482-0.407,1.137-0.611,1.962-0.611h1.292v-0.909
				c0-0.524-0.133-0.935-0.396-1.23s-0.633-0.444-1.107-0.444c-0.441,0-0.806,0.142-1.09,0.424
				c-0.285,0.282-0.428,0.629-0.428,1.039l-0.766-0.007l-0.014-0.041c0-0.027,0-0.055,0-0.082c0-0.524,0.209-0.991,0.629-1.401
				c0.447-0.438,1.016-0.656,1.709-0.656c0.684,0,1.234,0.209,1.654,0.625c0.42,0.418,0.629,1.014,0.629,1.788v3.63
				c0,0.305,0.016,0.572,0.049,0.803c0.033,0.231,0.065,0.461,0.098,0.688h-0.844c-0.035-0.253-0.064-0.463-0.088-0.631
				c-0.023-0.167-0.035-0.333-0.035-0.497c-0.223,0.369-0.514,0.673-0.871,0.913c-0.358,0.238-0.756,0.358-1.193,0.358
				c-0.611,0-1.082-0.19-1.415-0.571C315.287,393.701,315.121,393.188,315.121,392.54z M315.941,392.567
				c0,0.396,0.105,0.72,0.314,0.971s0.504,0.376,0.882,0.376c0.456,0,0.86-0.131,1.214-0.394c0.353-0.262,0.602-0.596,0.748-1.001
				v-1.6h-1.313c-0.561,0-1.008,0.158-1.344,0.476C316.109,391.712,315.941,392.103,315.941,392.567z"/>
			<path fill="#444444" d="M321.772,394.509v-7.396h0.725l0.068,1.148c0.196-0.41,0.456-0.727,0.779-0.95s0.704-0.335,1.142-0.335
				c0.447,0,0.822,0.131,1.128,0.393c0.306,0.263,0.528,0.66,0.67,1.193c0.183-0.492,0.44-0.88,0.776-1.162
				c0.334-0.282,0.738-0.424,1.213-0.424c0.645,0,1.146,0.264,1.502,0.789c0.357,0.527,0.535,1.335,0.535,2.424v4.32h-0.82v-4.334
				c0-0.907-0.123-1.545-0.369-1.914s-0.598-0.554-1.053-0.554c-0.479,0-0.852,0.205-1.121,0.615s-0.434,0.925-0.492,1.545v0.191
				v4.45h-0.82v-4.327c0-0.889-0.127-1.522-0.379-1.9c-0.254-0.378-0.605-0.567-1.057-0.567c-0.434,0-0.78,0.131-1.043,0.393
				c-0.262,0.263-0.449,0.621-0.563,1.077v5.325H321.772z"/>
			<path fill="#444444" d="M331.534,390.626v-0.711h2.728v0.711H331.534z"/>
			<path fill="#444444" d="M335.738,394.509v-9.953h0.82l4.45,8.333l0.041-0.007v-8.326h0.82v9.953h-0.82l-4.45-8.333l-0.041,0.007
				v8.326H335.738z"/>
			<path fill="#444444" d="M343.593,391.46v-1.23c0-0.935,0.255-1.71,0.763-2.328c0.51-0.617,1.121-0.926,1.838-0.926
				c0.773,0,1.375,0.277,1.803,0.83c0.428,0.555,0.642,1.298,0.642,2.232v0.813h-4.225v0.608c0,0.711,0.171,1.303,0.512,1.773
				c0.341,0.473,0.803,0.708,1.385,0.708c0.405,0,0.754-0.07,1.048-0.212c0.293-0.142,0.545-0.342,0.754-0.602l0.335,0.581
				c-0.224,0.287-0.511,0.517-0.864,0.687c-0.352,0.172-0.776,0.257-1.272,0.257c-0.798,0-1.45-0.3-1.957-0.899
				C343.846,393.154,343.593,392.39,343.593,391.46z M344.413,390.141h3.404v-0.314c0-0.61-0.144-1.118-0.43-1.521
				c-0.286-0.404-0.685-0.605-1.194-0.605c-0.514,0-0.936,0.234-1.266,0.704C344.599,388.874,344.427,389.452,344.413,390.141z"/>
			<path fill="#444444" d="M349.424,387.803v-0.69h1.032v-1.887h0.82v1.887h1.292v0.69h-1.292v4.799
				c0,0.479,0.068,0.818,0.205,1.019s0.317,0.301,0.54,0.301c0.109,0,0.217-0.007,0.321-0.021s0.224-0.034,0.355-0.062l0.109,0.629
				c-0.109,0.055-0.252,0.1-0.427,0.133c-0.176,0.035-0.353,0.052-0.53,0.052c-0.437,0-0.778-0.164-1.024-0.492
				c-0.247-0.328-0.37-0.848-0.37-1.559v-4.799H349.424z"/>
			<path fill="#444444" d="M354.188,394.509v-1.162h0.889v1.162H354.188z"/>
			<path fill="#444444" d="M357.128,394.509v-7.396h0.725l0.096,1.224c0.173-0.429,0.402-0.763,0.687-1.001
				c0.285-0.24,0.619-0.359,1.002-0.359c0.086,0,0.174,0.008,0.26,0.023c0.086,0.017,0.154,0.033,0.205,0.052l-0.109,0.8
				l-0.54-0.041c-0.383,0-0.7,0.129-0.95,0.387c-0.25,0.257-0.436,0.611-0.554,1.063v5.25H357.128z"/>
			<path fill="#444444" d="M361.216,391.405v-4.293h0.82v4.307c0,0.897,0.117,1.539,0.353,1.924
				c0.234,0.386,0.574,0.578,1.021,0.578c0.469,0,0.852-0.127,1.145-0.379c0.295-0.254,0.506-0.601,0.633-1.043v-5.387h0.82v7.396
				h-0.738l-0.055-1.155c-0.195,0.415-0.455,0.735-0.779,0.96c-0.324,0.227-0.701,0.339-1.135,0.339
				c-0.656,0-1.168-0.263-1.535-0.79C361.399,393.337,361.216,392.518,361.216,391.405z"/>
		</g>
	</g>
	<g>
		<path fill="#414042" d="M369.633,547.217h-40.201c12.071-9.154,19.256-23.503,19.256-38.683c0-26.762-21.772-48.533-48.534-48.533
			c-26.763,0-48.534,21.771-48.534,48.533c0,15.173,7.183,29.528,19.254,38.683h-40.505c-6.612,0-11.992,5.256-11.992,11.717
			c0,6.46,5.38,11.717,11.992,11.717h139.265c6.612,0,11.991-5.257,11.991-11.717C381.624,552.473,376.245,547.217,369.633,547.217z
			 M369.633,569.725H230.368c-6.103,0-11.066-4.841-11.066-10.791s4.964-10.791,11.066-10.791h43.146l-1.114-0.891l0.015-0.021
			c-12.442-8.934-19.87-23.398-19.87-38.696c0-26.251,21.356-47.607,47.608-47.607c26.251,0,47.607,21.356,47.607,47.607
			c0,15.296-7.422,29.746-19.855,38.683h-0.014l-1.173,0.926h42.914c6.103,0,11.065,4.841,11.065,10.791
			S375.734,569.725,369.633,569.725z"/>
		<path fill="#484848" d="M309.952,532.813c0,0-1.129-0.956-1.751-1.575c-0.62-0.622-0.789-1.385-0.789-1.385l-0.49-5.268h-13.688
			l-0.493,5.27c0,0-0.17,0.808-0.791,1.428c-0.621,0.621-1.75,1.561-1.75,1.561s-1.016,0.717,0.508,0.942
			c0.873,0.13,4.767,0.223,7.895,0.223h2.954c3.192,0,7.02-0.104,7.894-0.232C310.973,533.549,309.952,532.813,309.952,532.813"/>
		<path fill="#484848" d="M331.025,483.821h-61.946c-0.888,0-1.672,0.818-1.672,1.715v36.381c0,0.896,0.784,1.708,1.672,1.708
			h22.917h1.317h13.528h1.38h22.805c0.888,0,1.566-0.813,1.566-1.708v-36.381C332.593,484.64,331.913,483.821,331.025,483.821
			 M329.9,520.741h-59.993v-34.035H329.9V520.741z"/>
		<g enable-background="new    ">
			<path fill="#444444" d="M280.994,559.434v-2.789c0-1.208,0.274-2.132,0.823-2.772c0.548-0.64,1.305-0.96,2.27-0.96
				c0.981,0,1.754,0.321,2.32,0.964c0.566,0.643,0.849,1.565,0.849,2.769v2.789c0,1.208-0.282,2.13-0.845,2.765
				c-0.563,0.637-1.335,0.954-2.316,0.954c-0.965,0-1.723-0.317-2.274-0.954C281.27,561.563,280.994,560.642,280.994,559.434z
				 M281.814,559.434c0,0.998,0.196,1.745,0.587,2.242c0.392,0.497,0.956,0.745,1.693,0.745c0.755,0,1.334-0.248,1.737-0.745
				c0.402-0.497,0.604-1.244,0.604-2.242v-2.81c0-0.984-0.203-1.725-0.607-2.222c-0.405-0.497-0.985-0.745-1.741-0.745
				c-0.732,0-1.294,0.248-1.686,0.745c-0.391,0.497-0.587,1.237-0.587,2.222V559.434z"/>
			<path fill="#444444" d="M288.931,563.009v-7.396h0.82v3.309h3.117v-3.309h0.82v7.396h-0.82v-3.377h-3.117v3.377H288.931z"/>
			<path fill="#444444" d="M294.96,563.009l0.014-0.752l0.219-0.007c0.41,0,0.704-0.248,0.882-0.745s0.267-1.372,0.267-2.625v-3.268
				h4.067v7.396h-0.82v-6.665h-2.427v2.536c0,1.454-0.146,2.506-0.438,3.154c-0.292,0.65-0.791,0.975-1.497,0.975H294.96z"/>
			<path fill="#444444" d="M302.063,561.04c0-0.688,0.242-1.236,0.725-1.645c0.482-0.407,1.137-0.611,1.962-0.611h1.292v-0.909
				c0-0.524-0.133-0.935-0.396-1.23s-0.633-0.444-1.107-0.444c-0.441,0-0.806,0.142-1.09,0.424
				c-0.285,0.282-0.428,0.629-0.428,1.039l-0.766-0.007l-0.014-0.041c-0.023-0.556,0.188-1.052,0.633-1.487
				c0.443-0.435,1.012-0.652,1.705-0.652c0.684,0,1.234,0.209,1.654,0.625c0.42,0.418,0.629,1.014,0.629,1.788v3.63
				c0,0.305,0.016,0.572,0.049,0.803c0.033,0.231,0.065,0.461,0.098,0.688h-0.844c-0.035-0.253-0.064-0.463-0.088-0.631
				c-0.023-0.167-0.035-0.333-0.035-0.497c-0.223,0.369-0.514,0.673-0.871,0.913c-0.358,0.238-0.756,0.358-1.193,0.358
				c-0.611,0-1.082-0.19-1.415-0.571C302.229,562.201,302.063,561.688,302.063,561.04z M302.883,561.067
				c0,0.396,0.105,0.72,0.314,0.971s0.504,0.376,0.882,0.376c0.456,0,0.86-0.131,1.214-0.394c0.353-0.262,0.602-0.596,0.748-1.001
				v-1.6h-1.313c-0.561,0-1.008,0.158-1.344,0.476C303.051,560.212,302.883,560.603,302.883,561.067z"/>
			<path fill="#444444" d="M308.775,563.009v-7.396h0.82v5.817l0.052,0.007l3.062-5.824h0.824v7.396h-0.82v-5.811l-0.047-0.007
				l-3.063,5.817H308.775z M309.432,552.714l0.021-0.041h0.676c0,0.341,0.081,0.615,0.242,0.823
				c0.162,0.208,0.421,0.312,0.776,0.312c0.337,0,0.589-0.106,0.755-0.318c0.167-0.213,0.25-0.484,0.25-0.816h0.676l0.021,0.041
				c0.014,0.511-0.134,0.926-0.442,1.248c-0.31,0.32-0.729,0.481-1.26,0.481c-0.54,0-0.966-0.161-1.276-0.481
				C309.56,553.64,309.414,553.225,309.432,552.714z"/>
			<path fill="#444444" d="M315.488,563.009v-7.396h0.82v3.309h3.117v-3.309h0.82v7.396h-0.82v-3.377h-3.117v3.377H315.488z"/>
		</g>
	</g>
	<rect x="443.204" y="554.549" fill="none" width="150.344" height="14.066"/>
	<g>
		<path fill="#414042" d="M588.009,547.217h-40.202c12.072-9.154,19.256-23.503,19.256-38.683c0-26.762-21.771-48.533-48.532-48.533
			c-26.764,0-48.534,21.771-48.534,48.533c0,15.173,7.184,29.528,19.254,38.683h-40.505c-6.612,0-11.991,5.256-11.991,11.717
			c0,6.46,5.379,11.717,11.991,11.717H588.01c6.612,0,11.991-5.257,11.991-11.717C600,552.473,594.621,547.217,588.009,547.217z
			 M588.009,569.725H448.744c-6.104,0-11.065-4.841-11.065-10.791s4.963-10.791,11.065-10.791h43.146l-1.113-0.891l0.015-0.021
			c-12.442-8.934-19.87-23.398-19.87-38.696c0-26.251,21.357-47.607,47.608-47.607s47.606,21.356,47.606,47.607
			c0,15.296-7.422,29.746-19.854,38.683h-0.016l-1.172,0.926h42.914c6.103,0,11.065,4.841,11.065,10.791
			S594.11,569.725,588.009,569.725z"/>
		<path fill="#484848" d="M518.377,503.426c-1.152,0-2.087-0.935-2.087-2.088c0-1.151,0.935-2.085,2.087-2.085
			s2.087,0.934,2.087,2.085C520.464,502.492,519.529,503.426,518.377,503.426z M536.871,484.732v45.896
			c0,0.504-0.408,0.912-0.912,0.912h-35.165c-0.503,0-0.912-0.407-0.912-0.912v-45.896c0-0.504,0.409-0.911,0.912-0.911h35.165
			C536.463,483.822,536.871,484.229,536.871,484.732z M501.4,487.545c0,1.175,0.952,2.128,2.128,2.128
			c1.175,0,2.128-0.953,2.128-2.128c0-1.176-0.953-2.128-2.128-2.128C502.353,485.417,501.4,486.369,501.4,487.545z
			 M505.656,527.666c0-1.175-0.953-2.127-2.128-2.127c-1.176,0-2.128,0.952-2.128,2.127c0,1.176,0.952,2.128,2.128,2.128
			C504.703,529.794,505.656,528.841,505.656,527.666z M506.391,520.753c1.638,0,2.964-1.327,2.964-2.965
			c0-1.637-1.326-2.964-2.964-2.964s-2.965,1.327-2.965,2.964S504.753,520.753,506.391,520.753z M528.622,526.146h-20.535v3.345
			h20.535V526.146z M529.316,524.057c1.155,0,2.244-0.452,3.063-1.268c1.688-1.689,1.689-4.438-0.001-6.128
			c-0.247-0.247-0.529-0.465-0.839-0.65l-5.072-3.839c3.388-2.488,5.588-6.5,5.588-11.026c0-7.553-6.124-13.678-13.678-13.678
			s-13.678,6.125-13.678,13.678c0,7.556,6.124,13.679,13.678,13.679c0.754,0,1.491-0.063,2.211-0.182l4.853,7.009
			c0.211,0.426,0.483,0.808,0.813,1.139C527.071,523.605,528.159,524.057,529.316,524.057z M535.747,527.666
			c0-1.175-0.952-2.127-2.128-2.127c-1.175,0-2.127,0.952-2.127,2.127c0,1.176,0.952,2.128,2.127,2.128
			C534.795,529.794,535.747,528.841,535.747,527.666z M535.747,487.545c0-1.176-0.952-2.128-2.128-2.128
			c-1.175,0-2.127,0.952-2.127,2.128c0,1.175,0.952,2.128,2.127,2.128C534.795,489.673,535.747,488.719,535.747,487.545z
			 M519.873,513.095c0.06,0.084,0.069,0.194,0.025,0.288s-0.134,0.158-0.237,0.169c-0.425,0.045-0.856,0.067-1.284,0.067
			c-6.771,0-12.279-5.509-12.279-12.281c0-6.771,5.509-12.28,12.279-12.28c6.771,0,12.279,5.511,12.279,12.28
			c0,4.032-1.982,7.81-5.306,10.107c-0.104,0.071-0.242,0.068-0.345-0.009l-7.837-5.93c-0.035-0.026-0.072-0.048-0.109-0.067
			c-0.062-0.034-0.106-0.091-0.132-0.152c-0.041,0.021-0.09,0.038-0.14,0.033c-0.02-0.001-0.041-0.001-0.063-0.006
			c-0.344-0.067-0.699,0.036-0.947,0.274c-0.383,0.366-0.442,0.95-0.141,1.387L519.873,513.095z M517.284,504.899
			c0.354,0.11,0.723,0.164,1.093,0.164c2.053,0,3.724-1.67,3.724-3.724c0-2.053-1.671-3.724-3.724-3.724s-3.724,1.671-3.724,3.724
			c0,1.472,0.864,2.804,2.209,3.402c0.094,0.021,0.171,0.089,0.205,0.179c0.041-0.022,0.087-0.034,0.133-0.034
			C517.228,504.887,517.256,504.891,517.284,504.899z M519.102,513.01l-3.945-5.7c-0.466-0.674-0.376-1.576,0.217-2.144
			c0.145-0.14,0.311-0.248,0.49-0.324c-1.112-0.801-1.798-2.095-1.798-3.502c0-2.378,1.935-4.313,4.312-4.313
			c2.378,0,4.312,1.935,4.312,4.313c0,2.377-1.934,4.311-4.311,4.311c-0.015,0-0.031,0-0.046,0l6.86,5.189
			c3.059-2.197,4.879-5.733,4.879-9.502c0-6.446-5.246-11.692-11.693-11.692c-6.446,0-11.693,5.246-11.693,11.692
			c0,6.448,5.247,11.694,11.693,11.694C518.618,513.033,518.859,513.024,519.102,513.01z M531.525,517.738
			c-0.193-0.192-0.407-0.352-0.636-0.479l-14.255-10.786l10.104,14.599c0.144,0.311,0.339,0.603,0.596,0.858
			c1.156,1.157,3.034,1.157,4.19,0C532.684,520.771,532.684,518.896,531.525,517.738z M506.391,515.894
			c-1.047,0-1.896,0.849-1.896,1.895c0,1.047,0.849,1.895,1.896,1.895c1.046,0,1.895-0.847,1.895-1.895
			C508.284,516.742,507.437,515.894,506.391,515.894z"/>
		<g enable-background="new    ">
			<path fill="#444444" d="M459.387,560.295l0.018-0.035h0.65c0,0.543,0.165,0.992,0.493,1.348c0.33,0.355,0.755,0.533,1.276,0.533
				c0.59,0,1.049-0.162,1.377-0.486s0.492-0.766,0.492-1.324c0-0.598-0.153-1.037-0.46-1.318c-0.308-0.281-0.764-0.422-1.37-0.422
				h-0.827v-0.621h0.829c0.588,0,1.022-0.145,1.302-0.434c0.281-0.289,0.421-0.693,0.421-1.213c0-0.516-0.147-0.933-0.444-1.251
				c-0.295-0.318-0.735-0.478-1.319-0.478c-0.471,0-0.866,0.162-1.188,0.486c-0.32,0.324-0.481,0.74-0.481,1.248h-0.668
				l-0.012-0.035c-0.02-0.688,0.2-1.246,0.659-1.676s1.023-0.645,1.69-0.645c0.762,0,1.363,0.206,1.805,0.618
				s0.662,0.997,0.662,1.755c0,0.422-0.112,0.804-0.336,1.146s-0.534,0.597-0.932,0.765c0.448,0.152,0.788,0.402,1.022,0.75
				s0.351,0.781,0.351,1.301c0,0.766-0.237,1.364-0.712,1.796s-1.095,0.647-1.86,0.647c-0.668,0-1.245-0.21-1.731-0.63
				S459.371,561.092,459.387,560.295z"/>
			<path fill="#444444" d="M465.475,560.939c0-0.59,0.207-1.06,0.621-1.409s0.975-0.524,1.682-0.524h1.107v-0.779
				c0-0.449-0.113-0.801-0.34-1.055s-0.543-0.381-0.949-0.381c-0.379,0-0.69,0.121-0.935,0.363s-0.366,0.539-0.366,0.891
				l-0.656-0.006l-0.012-0.035c-0.02-0.477,0.161-0.901,0.542-1.274s0.868-0.56,1.462-0.56c0.586,0,1.059,0.179,1.418,0.536
				s0.539,0.868,0.539,1.532v3.111c0,0.261,0.015,0.49,0.042,0.688c0.028,0.198,0.057,0.395,0.084,0.589h-0.724
				c-0.03-0.217-0.056-0.396-0.075-0.54c-0.021-0.144-0.03-0.286-0.03-0.427c-0.191,0.316-0.44,0.577-0.747,0.782
				s-0.647,0.308-1.022,0.308c-0.523,0-0.928-0.163-1.213-0.489S465.475,561.494,465.475,560.939z M466.178,560.963
				c0,0.34,0.09,0.617,0.27,0.832s0.432,0.322,0.756,0.322c0.391,0,0.737-0.112,1.04-0.337s0.517-0.511,0.642-0.858v-1.371h-1.125
				c-0.48,0-0.864,0.136-1.151,0.407S466.178,560.564,466.178,560.963z"/>
			<path fill="#444444" d="M471.229,562.627v-6.34h4.078v6.34h-0.703v-5.713h-2.672v5.713H471.229z"/>
			<path fill="#444444" d="M476.982,562.627v-6.34h0.703v4.986l0.035,0.006l2.637-4.992h0.703v6.34h-0.703v-4.98l-0.035-0.006
				l-2.637,4.986H476.982z"/>
			<path fill="#444444" d="M482.432,559.955v-0.984c0-0.816,0.196-1.487,0.589-2.013s0.954-0.788,1.685-0.788
				c0.59,0,1.077,0.206,1.462,0.618s0.571,0.954,0.56,1.626l-0.012,0.029h-0.627c0-0.504-0.132-0.905-0.396-1.204
				s-0.593-0.448-0.987-0.448c-0.547,0-0.945,0.206-1.195,0.618s-0.375,0.933-0.375,1.562v0.984c0,0.637,0.125,1.16,0.375,1.57
				s0.648,0.615,1.195,0.615c0.367,0,0.689-0.132,0.967-0.396s0.416-0.628,0.416-1.093h0.621l0.018,0.035
				c0.012,0.586-0.186,1.076-0.592,1.471s-0.883,0.592-1.43,0.592c-0.73,0-1.292-0.261-1.685-0.782S482.432,560.775,482.432,559.955
				z"/>
			<path fill="#444444" d="M488.051,562.627v-6.34h0.703v2.297h1.438c0.609,0,1.084,0.187,1.425,0.56s0.512,0.856,0.512,1.45
				c0,0.602-0.171,1.091-0.512,1.468c-0.342,0.377-0.816,0.565-1.425,0.565H488.051z M488.754,562.018h1.441
				c0.414,0,0.723-0.134,0.926-0.401s0.305-0.603,0.305-1.005c0-0.387-0.103-0.719-0.308-0.996s-0.513-0.416-0.923-0.416h-1.441
				V562.018z"/>
			<path fill="#444444" d="M495.773,560.939c0-0.59,0.207-1.06,0.621-1.409s0.975-0.524,1.682-0.524h1.107v-0.779
				c0-0.449-0.113-0.801-0.34-1.055s-0.543-0.381-0.949-0.381c-0.379,0-0.69,0.121-0.935,0.363s-0.366,0.539-0.366,0.891
				l-0.656-0.006l-0.012-0.035c-0.02-0.477,0.161-0.901,0.542-1.274s0.868-0.56,1.462-0.56c0.586,0,1.059,0.179,1.418,0.536
				s0.539,0.868,0.539,1.532v3.111c0,0.261,0.015,0.49,0.042,0.688c0.028,0.198,0.057,0.395,0.084,0.589h-0.724
				c-0.03-0.217-0.056-0.396-0.075-0.54c-0.021-0.144-0.03-0.286-0.03-0.427c-0.191,0.316-0.44,0.577-0.747,0.782
				s-0.647,0.308-1.022,0.308c-0.523,0-0.928-0.163-1.213-0.489S495.773,561.494,495.773,560.939z M496.477,560.963
				c0,0.34,0.09,0.617,0.27,0.832s0.432,0.322,0.756,0.322c0.391,0,0.737-0.112,1.04-0.337s0.517-0.511,0.642-0.858v-1.371h-1.125
				c-0.48,0-0.864,0.136-1.151,0.407S496.477,560.564,496.477,560.963z"/>
			<path fill="#444444" d="M501.492,565.064v-8.777h0.598l0.072,0.873c0.175-0.316,0.397-0.561,0.667-0.732s0.584-0.258,0.942-0.258
				c0.633,0,1.128,0.271,1.485,0.812s0.536,1.263,0.536,2.165v0.867c0,0.832-0.178,1.496-0.533,1.992s-0.846,0.744-1.471,0.744
				c-0.355,0-0.666-0.074-0.932-0.223s-0.486-0.363-0.662-0.645v3.182H501.492z M502.195,561.115
				c0.129,0.32,0.309,0.571,0.539,0.753s0.518,0.272,0.861,0.272c0.492,0,0.864-0.194,1.116-0.583s0.378-0.903,0.378-1.544v-0.867
				c0-0.691-0.127-1.255-0.381-1.69s-0.627-0.653-1.119-0.653c-0.348,0-0.636,0.104-0.864,0.311s-0.405,0.477-0.53,0.809V561.115z"
				/>
			<path fill="#444444" d="M506.572,562.627l1.828-3.223l-1.758-3.117h0.82l1.313,2.578l1.324-2.578h0.826l-1.752,3.117l1.822,3.223
				h-0.82l-1.389-2.684l-1.389,2.684H506.572z"/>
			<path fill="#444444" d="M512.133,562.627v-6.34h0.703v4.986l0.035,0.006l2.637-4.992h0.703v6.34h-0.703v-4.98l-0.035-0.006
				l-2.637,4.986H512.133z"/>
			<path fill="#444444" d="M517.904,562.627v-6.34h1.975c0.664,0,1.182,0.142,1.553,0.425s0.557,0.706,0.557,1.269
				c0,0.324-0.083,0.609-0.249,0.855s-0.399,0.424-0.7,0.533c0.348,0.078,0.626,0.258,0.835,0.537
				c0.209,0.28,0.313,0.602,0.313,0.966c0,0.573-0.176,1.009-0.527,1.308c-0.352,0.298-0.834,0.447-1.447,0.447H517.904z
				 M518.607,559.111h1.313c0.445,0,0.784-0.093,1.017-0.278s0.349-0.462,0.349-0.829c0-0.371-0.118-0.647-0.354-0.829
				s-0.587-0.272-1.052-0.272h-1.271V559.111z M518.607,562.035h1.605c0.406,0,0.72-0.101,0.94-0.303
				c0.221-0.201,0.331-0.492,0.331-0.872c0-0.353-0.111-0.632-0.334-0.837c-0.223-0.206-0.535-0.309-0.938-0.309h-1.605V562.035z"/>
			<path fill="#444444" d="M523.342,560.939c0-0.59,0.207-1.06,0.621-1.409s0.975-0.524,1.682-0.524h1.107v-0.779
				c0-0.449-0.113-0.801-0.34-1.055s-0.543-0.381-0.949-0.381c-0.379,0-0.69,0.121-0.935,0.363s-0.366,0.539-0.366,0.891
				l-0.656-0.006l-0.012-0.035c-0.02-0.477,0.161-0.901,0.542-1.274s0.868-0.56,1.462-0.56c0.586,0,1.059,0.179,1.418,0.536
				s0.539,0.868,0.539,1.532v3.111c0,0.261,0.015,0.49,0.042,0.688c0.028,0.198,0.057,0.395,0.084,0.589h-0.724
				c-0.03-0.217-0.056-0.396-0.075-0.54c-0.021-0.144-0.03-0.286-0.03-0.427c-0.191,0.316-0.44,0.577-0.747,0.782
				s-0.647,0.308-1.022,0.308c-0.523,0-0.928-0.163-1.213-0.489S523.342,561.494,523.342,560.939z M524.045,560.963
				c0,0.34,0.09,0.617,0.27,0.832s0.432,0.322,0.756,0.322c0.391,0,0.737-0.112,1.04-0.337s0.517-0.511,0.642-0.858v-1.371h-1.125
				c-0.48,0-0.864,0.136-1.151,0.407S524.045,560.564,524.045,560.963z"/>
			<path fill="#444444" d="M528.668,564.139l0.328-1.641v-0.984h0.703v1.002l-0.581,1.623H528.668z"/>
			<path fill="#444444" d="M533.666,562.627v-6.34h0.703v2.836h2.672v-2.836h0.703v6.34h-0.703v-2.895h-2.672v2.895H533.666z"/>
			<path fill="#444444" d="M539.156,560.939c0-0.59,0.207-1.06,0.621-1.409s0.975-0.524,1.682-0.524h1.107v-0.779
				c0-0.449-0.113-0.801-0.34-1.055s-0.543-0.381-0.949-0.381c-0.379,0-0.69,0.121-0.935,0.363s-0.366,0.539-0.366,0.891
				l-0.656-0.006l-0.012-0.035c-0.02-0.477,0.161-0.901,0.542-1.274s0.868-0.56,1.462-0.56c0.586,0,1.059,0.179,1.418,0.536
				s0.539,0.868,0.539,1.532v3.111c0,0.261,0.015,0.49,0.042,0.688c0.028,0.198,0.057,0.395,0.084,0.589h-0.724
				c-0.03-0.217-0.056-0.396-0.075-0.54c-0.021-0.144-0.03-0.286-0.03-0.427c-0.191,0.316-0.44,0.577-0.747,0.782
				s-0.647,0.308-1.022,0.308c-0.523,0-0.928-0.163-1.213-0.489S539.156,561.494,539.156,560.939z M539.859,560.963
				c0,0.34,0.09,0.617,0.27,0.832s0.432,0.322,0.756,0.322c0.391,0,0.737-0.112,1.04-0.337s0.517-0.511,0.642-0.858v-1.371h-1.125
				c-0.48,0-0.864,0.136-1.151,0.407S539.859,560.564,539.859,560.963z"/>
			<path fill="#444444" d="M547.148,559.955v-0.984c0-0.816,0.196-1.487,0.589-2.013s0.954-0.788,1.685-0.788
				c0.59,0,1.077,0.206,1.462,0.618s0.571,0.954,0.56,1.626l-0.012,0.029h-0.627c0-0.504-0.132-0.905-0.396-1.204
				s-0.593-0.448-0.987-0.448c-0.547,0-0.945,0.206-1.195,0.618s-0.375,0.933-0.375,1.562v0.984c0,0.637,0.125,1.16,0.375,1.57
				s0.648,0.615,1.195,0.615c0.367,0,0.689-0.132,0.967-0.396s0.416-0.628,0.416-1.093h0.621l0.018,0.035
				c0.012,0.586-0.186,1.076-0.592,1.471s-0.883,0.592-1.43,0.592c-0.73,0-1.292-0.261-1.685-0.782S547.148,560.775,547.148,559.955
				z"/>
			<path fill="#444444" d="M552.434,560.014v-1.055c0-0.801,0.218-1.466,0.654-1.995s0.961-0.794,1.575-0.794
				c0.663,0,1.178,0.237,1.545,0.712c0.366,0.475,0.55,1.112,0.55,1.913v0.697h-3.621v0.521c0,0.609,0.146,1.116,0.438,1.521
				s0.688,0.606,1.188,0.606c0.347,0,0.646-0.061,0.897-0.182s0.467-0.293,0.646-0.516l0.287,0.498
				c-0.191,0.246-0.438,0.442-0.74,0.589s-0.666,0.22-1.091,0.22c-0.685,0-1.244-0.257-1.678-0.771
				C552.65,561.466,552.434,560.811,552.434,560.014z M553.137,558.883h2.918v-0.27c0-0.523-0.123-0.958-0.368-1.304
				c-0.246-0.346-0.587-0.519-1.023-0.519c-0.44,0-0.803,0.201-1.085,0.604S553.148,558.293,553.137,558.883z"/>
			<path fill="#444444" d="M557.988,565.064v-8.777h0.598l0.072,0.873c0.175-0.316,0.397-0.561,0.667-0.732s0.584-0.258,0.942-0.258
				c0.633,0,1.128,0.271,1.485,0.812s0.536,1.263,0.536,2.165v0.867c0,0.832-0.178,1.496-0.533,1.992s-0.846,0.744-1.471,0.744
				c-0.355,0-0.666-0.074-0.932-0.223s-0.486-0.363-0.662-0.645v3.182H557.988z M558.691,561.115
				c0.129,0.32,0.309,0.571,0.539,0.753s0.518,0.272,0.861,0.272c0.492,0,0.864-0.194,1.116-0.583s0.378-0.903,0.378-1.544v-0.867
				c0-0.691-0.127-1.255-0.381-1.69s-0.627-0.653-1.119-0.653c-0.348,0-0.636,0.104-0.864,0.311s-0.405,0.477-0.53,0.809V561.115z"
				/>
			<path fill="#444444" d="M563.719,562.627v-6.34h1.975c0.664,0,1.182,0.142,1.553,0.425s0.557,0.706,0.557,1.269
				c0,0.324-0.083,0.609-0.249,0.855s-0.399,0.424-0.7,0.533c0.348,0.078,0.626,0.258,0.835,0.537
				c0.209,0.28,0.313,0.602,0.313,0.966c0,0.573-0.176,1.009-0.527,1.308c-0.352,0.298-0.834,0.447-1.447,0.447H563.719z
				 M564.422,559.111h1.313c0.445,0,0.784-0.093,1.017-0.278s0.349-0.462,0.349-0.829c0-0.371-0.118-0.647-0.354-0.829
				s-0.587-0.272-1.052-0.272h-1.271V559.111z M564.422,562.035h1.605c0.406,0,0.72-0.101,0.94-0.303
				c0.221-0.201,0.331-0.492,0.331-0.872c0-0.353-0.111-0.632-0.334-0.837c-0.223-0.206-0.535-0.309-0.938-0.309h-1.605V562.035z"/>
			<path fill="#444444" d="M569.098,560.014v-1.055c0-0.801,0.218-1.466,0.654-1.995s0.961-0.794,1.575-0.794
				c0.663,0,1.178,0.237,1.545,0.712c0.366,0.475,0.55,1.112,0.55,1.913v0.697h-3.621v0.521c0,0.609,0.146,1.116,0.438,1.521
				s0.688,0.606,1.188,0.606c0.347,0,0.646-0.061,0.897-0.182s0.467-0.293,0.646-0.516l0.287,0.498
				c-0.191,0.246-0.438,0.442-0.74,0.589s-0.666,0.22-1.091,0.22c-0.685,0-1.244-0.257-1.678-0.771
				C569.314,561.466,569.098,560.811,569.098,560.014z M569.801,558.883h2.918v-0.27c0-0.523-0.123-0.958-0.368-1.304
				c-0.246-0.346-0.587-0.519-1.023-0.519c-0.44,0-0.803,0.201-1.085,0.604S569.813,558.293,569.801,558.883z"/>
			<path fill="#444444" d="M574.652,565.064v-8.777h0.598l0.072,0.873c0.175-0.316,0.397-0.561,0.667-0.732s0.584-0.258,0.942-0.258
				c0.633,0,1.128,0.271,1.485,0.812s0.536,1.263,0.536,2.165v0.867c0,0.832-0.178,1.496-0.533,1.992s-0.846,0.744-1.471,0.744
				c-0.355,0-0.666-0.074-0.932-0.223s-0.486-0.363-0.662-0.645v3.182H574.652z M575.355,561.115
				c0.129,0.32,0.309,0.571,0.539,0.753s0.518,0.272,0.861,0.272c0.492,0,0.864-0.194,1.116-0.583s0.378-0.903,0.378-1.544v-0.867
				c0-0.691-0.127-1.255-0.381-1.69s-0.627-0.653-1.119-0.653c-0.348,0-0.636,0.104-0.864,0.311s-0.405,0.477-0.53,0.809V561.115z"
				/>
		</g>
	</g>
	<rect x="6.19" y="552.513" fill="none" width="151.238" height="18.138"/>
	<g>
		<g>
			<path fill="#414042" d="M151.256,547.217h-40.202c12.072-9.154,19.256-23.503,19.256-38.683
				c0-26.762-21.772-48.533-48.533-48.533c-26.762,0-48.534,21.771-48.534,48.533c0,15.173,7.183,29.528,19.254,38.683H11.992
				C5.379,547.217,0,552.473,0,558.934c0,6.46,5.379,11.717,11.992,11.717h139.265c6.612,0,11.991-5.257,11.991-11.717
				C163.248,552.473,157.869,547.217,151.256,547.217z M151.256,569.725H11.992c-6.102,0-11.066-4.841-11.066-10.791
				s4.964-10.791,11.066-10.791h43.146l-1.114-0.891l0.014-0.021c-12.442-8.934-19.87-23.398-19.87-38.696
				c0-26.251,21.357-47.607,47.608-47.607s47.607,21.356,47.607,47.607c0,15.296-7.422,29.746-19.855,38.683h-0.015l-1.172,0.926
				h42.914c6.102,0,11.065,4.841,11.065,10.791S157.358,569.725,151.256,569.725z"/>
			<path fill="#484848" d="M94.672,485.961c0-2.078-1.683-3.761-3.76-3.761H72.336c-2.078,0-3.76,1.683-3.76,3.761v43.44
				c0,2.078,1.683,3.762,3.76,3.762h18.575c2.078,0,3.76-1.684,3.76-3.762L94.672,485.961L94.672,485.961z M84.233,486.517
				c0,0.328-0.265,0.596-0.595,0.596H79.61c-0.33,0-0.595-0.268-0.595-0.596v-0.039c0-0.328,0.265-0.595,0.595-0.595h4.028
				c0.33,0,0.595,0.267,0.595,0.595V486.517z M81.549,531.064c-1.357,0-2.456-1.1-2.456-2.456c0-1.354,1.099-2.455,2.456-2.455
				c1.356,0,2.456,1.101,2.456,2.455C84.005,529.965,82.905,531.064,81.549,531.064 M92.83,524.26H70.417v-33.465H92.83V524.26z"/>
		</g>
		<g enable-background="new    ">
			<path fill="#444444" d="M16.16,559.604v-2.391c0-1.035,0.235-1.827,0.706-2.376s1.119-0.823,1.946-0.823
				c0.841,0,1.503,0.275,1.988,0.826s0.728,1.342,0.728,2.373v2.391c0,1.035-0.242,1.825-0.725,2.37s-1.145,0.817-1.985,0.817
				c-0.827,0-1.477-0.272-1.949-0.817S16.16,560.639,16.16,559.604z M16.863,559.604c0,0.855,0.168,1.496,0.503,1.922
				c0.336,0.426,0.819,0.639,1.451,0.639c0.647,0,1.144-0.213,1.489-0.639c0.345-0.426,0.518-1.066,0.518-1.922v-2.408
				c0-0.844-0.174-1.479-0.521-1.904c-0.348-0.426-0.845-0.639-1.492-0.639c-0.628,0-1.109,0.213-1.445,0.639
				c-0.335,0.426-0.503,1.061-0.503,1.904V559.604z"/>
			<path fill="#444444" d="M22.395,556.943v-0.615h4.371v0.615h-1.863v5.725h-0.703v-5.725H22.395z"/>
			<path fill="#444444" d="M27.873,562.668v-6.34h4.078v6.34h-0.703v-5.713h-2.672v5.713H27.873z"/>
			<path fill="#444444" d="M33.592,565.105v-8.777h0.598l0.072,0.873c0.175-0.316,0.398-0.561,0.667-0.732
				c0.27-0.172,0.583-0.258,0.942-0.258c0.633,0,1.128,0.271,1.485,0.812c0.357,0.541,0.536,1.263,0.536,2.165v0.867
				c0,0.832-0.178,1.496-0.533,1.992s-0.846,0.744-1.471,0.744c-0.355,0-0.666-0.074-0.932-0.223s-0.486-0.363-0.662-0.645v3.182
				H33.592z M34.295,561.156c0.129,0.32,0.309,0.571,0.539,0.753s0.518,0.272,0.861,0.272c0.492,0,0.864-0.194,1.116-0.583
				s0.378-0.903,0.378-1.544v-0.867c0-0.691-0.127-1.255-0.381-1.69s-0.627-0.653-1.119-0.653c-0.348,0-0.636,0.104-0.864,0.311
				s-0.405,0.477-0.53,0.809V561.156z"/>
			<path fill="#444444" d="M39.047,560.98c0-0.59,0.207-1.06,0.621-1.409s0.975-0.524,1.682-0.524h1.107v-0.779
				c0-0.449-0.113-0.801-0.34-1.055s-0.543-0.381-0.949-0.381c-0.379,0-0.69,0.121-0.935,0.363s-0.366,0.539-0.366,0.891
				l-0.656-0.006l-0.012-0.035c-0.02-0.477,0.161-0.901,0.542-1.274s0.868-0.56,1.462-0.56c0.586,0,1.059,0.179,1.418,0.536
				s0.539,0.868,0.539,1.532v3.111c0,0.261,0.014,0.49,0.042,0.688c0.028,0.198,0.056,0.395,0.084,0.589h-0.724
				c-0.03-0.217-0.056-0.396-0.075-0.54c-0.021-0.144-0.03-0.286-0.03-0.427c-0.191,0.316-0.44,0.577-0.747,0.782
				s-0.647,0.308-1.022,0.308c-0.523,0-0.928-0.163-1.213-0.489S39.047,561.535,39.047,560.98z M39.75,561.004
				c0,0.34,0.09,0.617,0.27,0.832s0.432,0.322,0.756,0.322c0.391,0,0.737-0.112,1.04-0.337s0.517-0.511,0.642-0.858v-1.371h-1.125
				c-0.48,0-0.864,0.136-1.151,0.407S39.75,560.605,39.75,561.004z"/>
			<path fill="#444444" d="M44.818,562.668v-6.34h1.975c0.664,0,1.182,0.142,1.553,0.425s0.557,0.706,0.557,1.269
				c0,0.324-0.083,0.609-0.249,0.855s-0.399,0.424-0.7,0.533c0.348,0.078,0.626,0.258,0.835,0.537
				c0.209,0.28,0.313,0.602,0.313,0.966c0,0.573-0.176,1.009-0.527,1.308c-0.352,0.298-0.834,0.447-1.447,0.447H44.818z
				 M45.521,559.152h1.313c0.445,0,0.784-0.093,1.017-0.278s0.349-0.462,0.349-0.829c0-0.371-0.118-0.647-0.354-0.829
				s-0.587-0.272-1.052-0.272h-1.271V559.152z M45.521,562.076h1.605c0.406,0,0.72-0.101,0.94-0.303
				c0.221-0.201,0.331-0.492,0.331-0.872c0-0.353-0.111-0.632-0.334-0.837c-0.223-0.206-0.535-0.309-0.938-0.309h-1.605V562.076z"/>
			<path fill="#444444" d="M50.514,562.668v-6.34h0.703v2.807h0.727l1.857-2.807h0.873l-2.156,3.053l2.367,3.287h-0.908
				l-2.016-2.889h-0.744v2.889H50.514z"/>
			<path fill="#444444" d="M55.6,560.98c0-0.59,0.207-1.06,0.621-1.409s0.975-0.524,1.682-0.524h1.107v-0.779
				c0-0.449-0.113-0.801-0.34-1.055s-0.543-0.381-0.949-0.381c-0.379,0-0.69,0.121-0.935,0.363s-0.366,0.539-0.366,0.891
				l-0.656-0.006l-0.012-0.035c-0.02-0.477,0.161-0.901,0.542-1.274s0.868-0.56,1.462-0.56c0.586,0,1.059,0.179,1.418,0.536
				s0.539,0.868,0.539,1.532v3.111c0,0.261,0.014,0.49,0.042,0.688c0.028,0.198,0.056,0.395,0.084,0.589h-0.724
				c-0.03-0.217-0.056-0.396-0.075-0.54c-0.021-0.144-0.03-0.286-0.03-0.427c-0.191,0.316-0.44,0.577-0.747,0.782
				s-0.647,0.308-1.022,0.308c-0.523,0-0.928-0.163-1.213-0.489S55.6,561.535,55.6,560.98z M56.303,561.004
				c0,0.34,0.09,0.617,0.27,0.832s0.432,0.322,0.756,0.322c0.391,0,0.737-0.112,1.04-0.337s0.517-0.511,0.642-0.858v-1.371h-1.125
				c-0.48,0-0.864,0.136-1.151,0.407S56.303,560.605,56.303,561.004z"/>
			<path fill="#444444" d="M63.58,560.922l0.012-0.035h0.656c0.023,0.453,0.17,0.782,0.439,0.987s0.586,0.308,0.949,0.308
				c0.395,0,0.705-0.1,0.932-0.299s0.34-0.443,0.34-0.732s-0.095-0.538-0.284-0.747s-0.536-0.429-1.04-0.659
				c-0.645-0.266-1.116-0.536-1.415-0.812s-0.448-0.636-0.448-1.081c0-0.453,0.178-0.84,0.533-1.16s0.816-0.48,1.383-0.48
				c0.602,0,1.078,0.178,1.43,0.533c0.336,0.34,0.504,0.762,0.504,1.266c0,0.023,0,0.045,0,0.064l-0.012,0.035h-0.662
				c0-0.344-0.113-0.643-0.34-0.896s-0.533-0.381-0.92-0.381c-0.395,0-0.695,0.1-0.902,0.299s-0.311,0.432-0.311,0.697
				c0,0.281,0.082,0.507,0.246,0.677s0.516,0.384,1.055,0.642c0.633,0.254,1.105,0.53,1.418,0.829s0.469,0.677,0.469,1.134
				c0,0.504-0.181,0.91-0.542,1.219s-0.839,0.463-1.433,0.463c-0.652-0.004-1.162-0.189-1.529-0.557
				c-0.352-0.352-0.527-0.764-0.527-1.236C63.58,560.975,63.58,560.949,63.58,560.922z"/>
			<path fill="#444444" d="M68.912,562.668v-6.34h0.621l0.059,0.984c0.168-0.352,0.391-0.623,0.668-0.814s0.604-0.287,0.979-0.287
				c0.383,0,0.705,0.112,0.967,0.337s0.453,0.565,0.574,1.022c0.156-0.422,0.378-0.754,0.665-0.996s0.634-0.363,1.04-0.363
				c0.553,0,0.982,0.226,1.288,0.677s0.458,1.144,0.458,2.077v3.703h-0.703v-3.715c0-0.777-0.105-1.324-0.316-1.641
				s-0.512-0.475-0.902-0.475c-0.41,0-0.73,0.176-0.961,0.527s-0.371,0.793-0.422,1.324v0.164v3.814h-0.703v-3.709
				c0-0.762-0.108-1.305-0.325-1.629s-0.519-0.486-0.905-0.486c-0.371,0-0.669,0.112-0.894,0.337s-0.386,0.532-0.483,0.923v4.564
				H68.912z"/>
			<path fill="#444444" d="M77.525,560.922l0.012-0.035h0.656c0.023,0.453,0.17,0.782,0.439,0.987s0.586,0.308,0.949,0.308
				c0.395,0,0.705-0.1,0.932-0.299s0.34-0.443,0.34-0.732s-0.095-0.538-0.284-0.747s-0.536-0.429-1.04-0.659
				c-0.645-0.266-1.116-0.536-1.415-0.812s-0.448-0.636-0.448-1.081c0-0.453,0.178-0.84,0.533-1.16s0.816-0.48,1.383-0.48
				c0.602,0,1.078,0.178,1.43,0.533c0.336,0.34,0.504,0.762,0.504,1.266c0,0.023,0,0.045,0,0.064l-0.012,0.035h-0.662
				c0-0.344-0.113-0.643-0.34-0.896s-0.533-0.381-0.92-0.381c-0.395,0-0.695,0.1-0.902,0.299s-0.311,0.432-0.311,0.697
				c0,0.281,0.082,0.507,0.246,0.677s0.516,0.384,1.055,0.642c0.633,0.254,1.105,0.53,1.418,0.829s0.469,0.677,0.469,1.134
				c0,0.504-0.181,0.91-0.542,1.219s-0.839,0.463-1.433,0.463c-0.652-0.004-1.162-0.189-1.529-0.557
				c-0.352-0.352-0.527-0.764-0.527-1.236C77.525,560.975,77.525,560.949,77.525,560.922z"/>
			<path fill="#444444" d="M84.832,556.328h0.785l1.308,4.594l0.161,0.639l0.035-0.003l1.526-5.229h0.785l-2.261,7.354
				c-0.136,0.422-0.316,0.785-0.54,1.09c-0.224,0.305-0.544,0.457-0.961,0.457c-0.071,0-0.159-0.01-0.266-0.029
				c-0.106-0.02-0.185-0.037-0.236-0.053l0.077-0.604c0.04,0.008,0.104,0.017,0.195,0.026s0.157,0.015,0.201,0.015
				c0.238,0,0.43-0.111,0.579-0.334c0.148-0.223,0.267-0.497,0.356-0.825l0.246-0.844L84.832,556.328z"/>
			<path fill="#444444" d="M90.486,562.668v-6.34h1.975c0.664,0,1.182,0.142,1.553,0.425s0.557,0.706,0.557,1.269
				c0,0.324-0.083,0.609-0.249,0.855s-0.399,0.424-0.7,0.533c0.348,0.078,0.626,0.258,0.835,0.537
				c0.209,0.28,0.313,0.602,0.313,0.966c0,0.573-0.176,1.009-0.527,1.308c-0.352,0.298-0.834,0.447-1.447,0.447H90.486z
				 M91.189,559.152h1.313c0.445,0,0.784-0.093,1.017-0.278s0.349-0.462,0.349-0.829c0-0.371-0.118-0.647-0.354-0.829
				s-0.587-0.272-1.052-0.272h-1.271V559.152z M91.189,562.076h1.605c0.406,0,0.72-0.101,0.94-0.303
				c0.221-0.201,0.331-0.492,0.331-0.872c0-0.353-0.111-0.632-0.334-0.837c-0.223-0.206-0.535-0.309-0.938-0.309h-1.605V562.076z"/>
			<path fill="#444444" d="M95.865,560.055V559c0-0.801,0.218-1.466,0.654-1.995c0.436-0.529,0.961-0.794,1.575-0.794
				c0.663,0,1.178,0.237,1.545,0.712c0.366,0.475,0.55,1.112,0.55,1.913v0.697h-3.621v0.521c0,0.609,0.146,1.116,0.438,1.521
				s0.688,0.606,1.187,0.606c0.347,0,0.646-0.061,0.898-0.182s0.467-0.293,0.646-0.516l0.287,0.498
				c-0.191,0.246-0.438,0.442-0.74,0.589s-0.666,0.22-1.091,0.22c-0.684,0-1.244-0.257-1.677-0.771
				C96.082,561.507,95.865,560.852,95.865,560.055z M96.568,558.924h2.918v-0.27c0-0.523-0.123-0.958-0.368-1.304
				c-0.246-0.346-0.587-0.519-1.023-0.519c-0.44,0-0.802,0.201-1.085,0.604S96.58,558.334,96.568,558.924z"/>
			<path fill="#444444" d="M100.922,562.059h0.389c0.267-0.383,0.483-0.81,0.647-1.28c0.165-0.471,0.267-1.188,0.306-2.153
				l0.035-2.297h3.258v5.73h0.592l-0.064,2.473h-0.639v-1.863h-3.826v1.863h-0.639L100.922,562.059z M102.072,562.059h2.781v-5.086
				h-1.828l-0.059,1.633c-0.035,0.829-0.132,1.523-0.29,2.083S102.317,561.705,102.072,562.059z"/>
			<path fill="#444444" d="M107.045,559.967v-0.932c0-0.82,0.21-1.496,0.632-2.027s0.987-0.797,1.697-0.797s1.276,0.265,1.7,0.794
				c0.423,0.529,0.635,1.206,0.635,2.03v0.932c0,0.832-0.211,1.511-0.632,2.036c-0.421,0.525-0.987,0.788-1.697,0.788
				c-0.714,0-1.282-0.263-1.703-0.788S107.045,560.799,107.045,559.967z M107.748,559.967c0,0.633,0.141,1.16,0.423,1.582
				c0.282,0.422,0.685,0.633,1.209,0.633c0.513,0,0.912-0.212,1.197-0.636s0.429-0.95,0.429-1.579v-0.932
				c0-0.621-0.143-1.144-0.429-1.567s-0.687-0.636-1.203-0.636c-0.521,0-0.921,0.212-1.203,0.636
				c-0.282,0.424-0.423,0.946-0.423,1.567V559.967z"/>
			<path fill="#444444" d="M113.068,562.668v-6.34h0.92l1.945,5.32h0.035l1.951-5.32h0.873v6.34h-0.703v-4.869l-0.035-0.012
				l-1.857,4.881h-0.492l-1.898-4.998l-0.035,0.006v4.992H113.068z"/>
			<path fill="#444444" d="M119.889,562.668l0.012-0.645l0.188-0.006c0.352,0,0.604-0.213,0.756-0.639s0.229-1.176,0.229-2.25
				v-2.801h3.486v6.34h-0.703v-5.713h-2.08v2.174c0,1.246-0.125,2.147-0.375,2.704s-0.678,0.835-1.283,0.835H119.889z"/>
			<path fill="#444444" d="M125.918,560.055V559c0-0.801,0.218-1.466,0.654-1.995c0.436-0.529,0.961-0.794,1.575-0.794
				c0.663,0,1.178,0.237,1.545,0.712c0.366,0.475,0.55,1.112,0.55,1.913v0.697h-3.621v0.521c0,0.609,0.146,1.116,0.438,1.521
				s0.688,0.606,1.187,0.606c0.347,0,0.646-0.061,0.898-0.182s0.467-0.293,0.646-0.516l0.287,0.498
				c-0.191,0.246-0.438,0.442-0.74,0.589s-0.666,0.22-1.091,0.22c-0.684,0-1.244-0.257-1.677-0.771
				C126.135,561.507,125.918,560.852,125.918,560.055z M126.621,558.924h2.918v-0.27c0-0.523-0.123-0.958-0.368-1.304
				c-0.246-0.346-0.587-0.519-1.023-0.519c-0.44,0-0.802,0.201-1.085,0.604S126.633,558.334,126.621,558.924z"/>
			<path fill="#444444" d="M131.508,562.668v-6.34h0.703v2.836h2.672v-2.836h0.703v6.34h-0.703v-2.895h-2.672v2.895H131.508z"/>
			<path fill="#444444" d="M137.256,562.668v-6.34h0.703v4.986l0.035,0.006l2.637-4.992h0.703v6.34h-0.703v-4.98l-0.035-0.006
				l-2.637,4.986H137.256z"/>
			<path fill="#444444" d="M143.01,562.668v-6.34h0.703v4.986l0.044,0.006l2.624-4.992h0.707v6.34h-0.703v-4.98l-0.04-0.006
				l-2.625,4.986H143.01z M143.572,553.844l0.019-0.035h0.579c0,0.292,0.069,0.527,0.208,0.705c0.139,0.179,0.36,0.268,0.665,0.268
				c0.289,0,0.505-0.091,0.647-0.273c0.143-0.182,0.214-0.415,0.214-0.699h0.58l0.018,0.035c0.012,0.438-0.115,0.794-0.379,1.069
				s-0.625,0.413-1.08,0.413c-0.463,0-0.828-0.138-1.094-0.413S143.557,554.281,143.572,553.844z"/>
		</g>
	</g>
	<rect x="357" y="2.764" fill="none" width="208.667" height="271.938"/>
</g>
</svg>
