<svg xmlns="http://www.w3.org/2000/svg" xmlns:xlink="http://www.w3.org/1999/xlink" xmlns:a="http://ns.adobe.com/AdobeSVGViewerExtensions/3.0/" version="1.1" x="0px" y="0px" width="600px" height="577px" viewBox="0 -1.382 600 577" enable-background="new 0 -1.382 600 577" xml:space="preserve">
<style>
	.style0{
		fill:	#444444;
	}
	.style1{
		stroke:	#58595B;
		stroke-miterlimit:	10;
		fill:	none;
	}
	.style10{
		fill:	#484848;
	}
	.style11{
		fill:	#333333;
	}
	.style12{
		fill:	none;
	}
	.style13{
		font-size:	14;
		font-family:	'RobotoCondensed-Light';
		fill:	#444444;
	}
	.style14{
		font-size:	0.8em;
		font-family:	'RobotoCondensed-Light';
		fill:	#444444;
	}
	.style15{
		font-size:	12;
		font-family:	'RobotoCondensed-Light';
		fill:	#444444;
	}
	.style2{
		stroke-miterlimit:	10;
		stroke:	#58595B;
		stroke-dasharray:	9.7201;
		fill:	none;
	}
	.style3{
		stroke-miterlimit:	10;
		stroke:	#58595B;
		stroke-dasharray:	9.2422;
		fill:	none;
	}
	.style4{
		stroke-miterlimit:	10;
		stroke:	#58595B;
		stroke-dasharray:	9.2228;
		fill:	none;
	}
	.style5{
		stroke-miterlimit:	10;
		stroke:	#58595B;
		stroke-dasharray:	8.8598;
		fill:	none;
	}
	.style6{
		fill:	#414042;
	}
	.style7{
		stroke:	#414042;
		stroke-miterlimit:	10;
		fill:	none;
	}
	.style8{
		stroke-miterlimit:	10;
		stroke:	#414042;
		stroke-dasharray:	9.0435;
		fill:	none;
	}
	.style9{
		stroke-miterlimit:	10;
		stroke:	#414042;
		stroke-dasharray:	10.0711;
		fill:	none;
	}
</style><defs>
</defs>
<polygon points="175.226,30.626 173.602,28.327 181.449,23.69 182.827,25.986" class="style0"/>
<path d="M204.934 0.063c-0.196-0.094-0.424-0.082-0.608 0.031L163.73 25.327c-0.152 0.094-0.256 0.249-0.287 0.424 c-0.031 0.175 0.014 0.356 0.124 0.497c1.306 1.667 2.843 2.512 4.567 2.512c1.846 0 3.202-1.01 3.239-1.039 c0.073-0.052 7.395-5.146 10.672-6.675c3.139-1.464 4.694-5.009 5.064-5.963c12.304-6.794 18.51-11.487 18.446-13.949 C205.542 0.56 205.211 0.199 204.934 0.063z" class="style0"/>
<path d="M209.912 3.488c0.174 0.786 0.885 5.372-4.845 9.645c-5.731 4.275-15.981 10.996-18.475 12.623l-2.003-3.506 c1.072-0.545 2.934-2.015 3.387-5.727l15.799-9.094c0.178-0.12 4.103-2.801 3.648-5.72l0.841-0.327L209.912 3.488z" class="style0"/>
<path d="M217.453 23.181v3.102c0 0.347-0.281 0.627-0.628 0.627h-5.512c-0.167 0-0.327-0.066-0.444-0.184 l-2.986-2.986c-0.138-0.138-0.204-0.33-0.179-0.522c0.015-0.119 0.026-0.241 0.026-0.365c-0.014-0.531-1.296-3.257-2.593-5.735 l-5.76 4.802c2.357 1.815 5.001 3.653 5.573 3.736l0.081-0.007c0.153-0.018 0.334 0.064 0.455 0.184l4.812 4.812h6.526 c0.347 0 0.628 0.281 0.628 0.627v2.99h3.398v-11.08L217.453 23.181L217.453 23.181z M204.243 24.3 c-1.247 0-2.263-1.015-2.263-2.263c0-1.249 1.015-2.264 2.263-2.264s2.263 1.016 2.263 2.264S205.491 24.3 204.243 24.3z" class="style0"/>
<circle cx="204.243" cy="22.037" r="1.007" class="style0"/>
<path d="M80.917 118.687c3.618 2.918 6.387 3.005 6.722 3.005l0 0c0.372-0.007 0.708-0.235 0.85-0.581 c0.625-1.495 4.024-2.123 6.356-2.207c2.942 5.138 2.58 6.822 2.391 7.223c-0.103 0.221-0.242 0.264-0.381 0.283 c-0.312 0.059-7.736 1.476-14.826 5.021c-2.747 1.375-4.364 3.081-4.808 5.071c-0.529 2.369 0.852 4.205 0.869 4.205l0 0 l11.393 21.645l-2.461 1.933l-4.43 0.443c-0.418 0.042-0.757 0.354-0.832 0.768l-0.47 2.587c-0.051 0.273 0.024 0.557 0.203 0.77 c0.178 0.217 0.442 0.34 0.722 0.34h16.696c0.267 0 0.521-0.112 0.7-0.313c0.179-0.196 0.264-0.463 0.235-0.729l-0.706-6.584 c-0.005-0.064-0.021-0.129-0.042-0.191c-0.156-0.474-3.83-11.684-6.453-15.736c-0.848-1.312-0.988-2.124-0.833-2.447 c0.126-0.267 0.546-0.331 0.521-0.334h10.163c1.454 1.589 8.178 8.983 10.275 12.052c1.664 2.439 4.847 2.95 7.22 2.95 c1.465 0 2.553-0.195 2.598-0.202c0.09-0.015 0.174-0.044 0.254-0.085l15.836-7.918l3.348 3.537l-1.203 3.211 c-0.109 0.288-0.068 0.611 0.107 0.865c0.175 0.254 0.463 0.404 0.771 0.404h3.057c0.439 0 0.82-0.303 0.918-0.731l1.295-5.644 c0.039-0.18 0.027-0.367-0.039-0.544l-4.352-11.522c-0.178-0.467-0.691-0.72-1.17-0.563l-8.039 2.602l-8.539 3.233h-4.148 l-2.447-4.164l1.338-6.704c0.025-0.125 0.025-0.256-0.002-0.379l-3.322-15.608l-2.195-6.363l0.615-0.877h7.98 c0.129 0 0.258-0.027 0.375-0.078l3.449-1.505c0.295-0.128 0.504-0.398 0.555-0.715l1.018-6.349c0.029-0.195 0-0.394-0.09-0.573 l-5.643-11.17c-0.113-0.224-0.313-0.394-0.551-0.47l-10.582-3.411c-0.236-0.077-0.498-0.056-0.721 0.06l-6.681 3.468l-2.812 1.909 l-0.068-2.537l0.92-1.518c0.246-0.404 0.152-0.93-0.219-1.223l-5.173-4.115c-0.165-0.135-0.373-0.206-0.585-0.206H84.559 c-0.481 0-0.886 0.364-0.937 0.843l-0.618 5.953h-1.973c-0.519 0-0.94 0.422-0.94 0.94v1.411c0 0.519 0.422 0.939 0.94 0.939h2.822 v3.058c0 0.521 0.421 0.94 0.94 0.94h1.176v1.905c0 0.521 0.421 0.94 0.94 0.94h3.39l0.388 0.861l-4.586 3.545 c-0.22 0.168-0.354 0.428-0.365 0.705l-0.21 5.174l-1.302 0.881l-3.576-1.491l-3.344-1.187l0.154-0.432 c0.025-0.072 0.043-0.147 0.05-0.223l0.235-2.352c0.04-0.398-0.177-0.779-0.54-0.946l-3.998-1.857 c-0.317-0.15-0.696-0.106-0.975 0.112l-3.292 2.563c-0.229 0.178-0.363 0.452-0.363 0.742v2.963c0 0.268 0.113 0.521 0.313 0.701 l3.567 3.207L80.917 118.687z" class="style0"/>
<path d="M320.854 300.275h-41.708c-0.75 0-1.355 0.606-1.355 1.355v12.327c0 0.749 0.605 1.354 1.355 1.354h41.708 c0.75 0 1.355-0.606 1.355-1.354v-12.326C322.209 300.883 321.604 300.275 320.854 300.275z M300 311.007h-17.801v-7.121H300 V311.007z M320.854 318.459h-41.708c-0.75 0-1.355 0.607-1.355 1.355v12.326c0 0.75 0.605 1.356 1.355 1.356h41.708 c0.75 0 1.355-0.607 1.355-1.356v-12.326C322.209 319.066 321.604 318.459 320.854 318.459z M300 329.007h-17.801v-7.12H300V329.007 z M320.854 336.468h-41.708c-0.75 0-1.355 0.607-1.355 1.356v12.327c0 0.749 0.605 1.355 1.355 1.355h41.708 c0.75 0 1.355-0.606 1.355-1.355v-12.327C322.209 337.075 321.604 336.468 320.854 336.468z M300 347.548h-17.801v-7.121H300 V347.548z M309.406 364.239h10.639v1.941h-10.621v0.093c0 1.227-0.992 2.22-2.219 2.22h-14.412c-1.226 0-2.221-0.993-2.221-2.22 v-0.093h-10.62v-1.941h10.64c0.095-1.14 1.038-2.035 2.201-2.035h4.423v-4.439c0-1.226 0.993-2.22 2.22-2.22h1.109 c1.227 0 2.219 0.995 2.219 2.22v4.439h4.44C308.367 362.204 309.311 363.102 309.406 364.239z" class="style0"/>
<line x1="300" y1="400.96" x2="300" y2="405.46" class="style1"/>
<line x1="300" y1="415.18" x2="300" y2="449.201" class="style2"/>
<line x1="300" y1="454.061" x2="300" y2="458.561" class="style1"/>
<line x1="247.741" y1="334.384" x2="243.241" y2="334.384" class="style1"/>
<line x1="233.999" y1="334.384" x2="90.745" y2="334.384" class="style3"/>
<line x1="86.124" y1="334.384" x2="81.624" y2="334.384" class="style1"/>
<line x1="518.376" y1="334.384" x2="513.876" y2="334.384" class="style1"/>
<line x1="504.653" y1="334.384" x2="361.699" y2="334.384" class="style4"/>
<line x1="357.088" y1="334.384" x2="352.588" y2="334.384" class="style1"/>
<line x1="81.624" y1="334.384" x2="81.624" y2="338.884" class="style1"/>
<line x1="81.624" y1="347.744" x2="81.624" y2="449.631" class="style5"/>
<line x1="81.624" y1="454.061" x2="81.624" y2="458.561" class="style1"/>
<line x1="518.376" y1="334.384" x2="518.376" y2="338.884" class="style1"/>
<line x1="518.376" y1="347.744" x2="518.376" y2="449.631" class="style5"/>
<line x1="518.376" y1="454.061" x2="518.376" y2="458.561" class="style1"/>
<path d="M375.213 376.142h-43.424c13.041-9.889 20.799-25.388 20.799-41.782c0-28.907-23.518-52.424-52.423-52.424 c-28.907 0-52.424 23.517-52.424 52.424c0 16.389 7.759 31.896 20.797 41.782h-43.751c-7.142 0-12.953 5.678-12.953 12.655 c0 6.979 5.811 12.656 12.953 12.656h150.427c7.144 0 12.953-5.678 12.953-12.656C388.167 381.819 382.355 376.142 375.213 376.142z M375.213 400.454H224.786c-6.591 0-11.953-5.229-11.953-11.656s5.362-11.655 11.953-11.655h46.605l-1.203-0.963l0.016-0.021 c-13.439-9.649-21.463-25.275-21.463-41.799c0-28.355 23.069-51.424 51.424-51.424c28.354 0 51.423 23.069 51.423 51.424 c0 16.521-8.016 32.13-21.447 41.782h-0.016l-1.266 1h46.354c6.592 0 11.953 5.229 11.953 11.655 C387.166 395.225 381.805 400.454 375.213 400.454z" class="style6"/>
<path d="M369.633 545.835h-40.201c12.071-9.154 19.256-23.503 19.256-38.683c0-26.762-21.772-48.533-48.534-48.533 c-26.763 0-48.534 21.771-48.534 48.533c0 15.173 7.183 29.528 19.254 38.683h-40.505c-6.612 0-11.992 5.256-11.992 11.717 c0 6.46 5.38 11.717 11.992 11.717h139.265c6.612 0 11.991-5.257 11.991-11.717C381.624 551.091 376.245 545.835 369.633 545.835z M369.633 568.343H230.368c-6.103 0-11.066-4.841-11.066-10.791s4.964-10.791 11.066-10.791h43.146l-1.114-0.891l0.015-0.021 c-12.442-8.934-19.87-23.398-19.87-38.696c0-26.251 21.356-47.607 47.608-47.607c26.251 0 47.607 21.356 47.607 47.607 c0 15.296-7.422 29.746-19.855 38.683h-0.014l-1.173 0.926h42.914c6.103 0 11.065 4.841 11.065 10.791 S375.734 568.343 369.633 568.343z" class="style6"/>
<path d="M151.256 545.835h-40.202c12.072-9.154 19.256-23.503 19.256-38.683c0-26.762-21.772-48.533-48.533-48.533 c-26.762 0-48.534 21.771-48.534 48.533c0 15.173 7.183 29.528 19.254 38.683H11.992C5.379 545.835 0 551.091 0 557.552 c0 6.46 5.379 11.717 11.992 11.717h139.265c6.612 0 11.991-5.257 11.991-11.717C163.248 551.091 157.869 545.835 151.256 545.835z M151.256 568.343H11.992c-6.102 0-11.066-4.841-11.066-10.791s4.964-10.791 11.066-10.791h43.146l-1.114-0.891l0.014-0.021 c-12.442-8.934-19.87-23.398-19.87-38.696c0-26.251 21.357-47.607 47.608-47.607s47.607 21.356 47.607 47.607 c0 15.296-7.422 29.746-19.855 38.683h-0.015l-1.172 0.926h42.914c6.102 0 11.065 4.841 11.065 10.791 S157.358 568.343 151.256 568.343z" class="style6"/>
<path d="M588.009 545.835h-40.202c12.072-9.154 19.256-23.503 19.256-38.683c0-26.762-21.771-48.533-48.532-48.533 c-26.764 0-48.534 21.771-48.534 48.533c0 15.173 7.184 29.528 19.254 38.683h-40.505c-6.612 0-11.991 5.256-11.991 11.717 c0 6.46 5.379 11.717 11.991 11.717H588.01c6.612 0 11.991-5.257 11.991-11.717C600 551.091 594.621 545.835 588.009 545.835z M588.009 568.343H448.744c-6.104 0-11.065-4.841-11.065-10.791s4.963-10.791 11.065-10.791h43.146l-1.113-0.891l0.015-0.021 c-12.442-8.934-19.87-23.398-19.87-38.696c0-26.251 21.357-47.607 47.608-47.607s47.606 21.356 47.606 47.607 c0 15.296-7.422 29.746-19.854 38.683h-0.016l-1.172 0.926h42.914c6.103 0 11.065 4.841 11.065 10.791 S594.11 568.343 588.009 568.343z" class="style6"/>
<line x1="300.165" y1="281.935" x2="300.165" y2="277.435" class="style7"/>
<line x1="300.165" y1="268.392" x2="300.165" y2="37.783" class="style8"/>
<line x1="300.165" y1="33.261" x2="300.165" y2="28.761" class="style7"/>
<line x1="220.852" y1="28.761" x2="225.352" y2="28.761" class="style7"/>
<line x1="235.423" y1="28.761" x2="290.814" y2="28.761" class="style9"/>
<line x1="295.85" y1="28.761" x2="300.35" y2="28.761" class="style7"/>
<path d="M518.377 502.044c-1.152 0-2.087-0.935-2.087-2.088c0-1.151 0.935-2.085 2.087-2.085 s2.087 0.934 2.087 2.085C520.464 501.11 519.529 502.044 518.377 502.044z M536.871 483.351v45.896 c0 0.504-0.408 0.912-0.912 0.912h-35.165c-0.503 0-0.912-0.407-0.912-0.912v-45.896c0-0.504 0.409-0.911 0.912-0.911h35.165 C536.463 482.44 536.871 482.847 536.871 483.351z M501.4 486.163c0 1.175 0.952 2.128 2.128 2.128c1.175 0 2.128-0.953 2.128-2.128 c0-1.176-0.953-2.128-2.128-2.128C502.353 484.035 501.4 484.987 501.4 486.163z M505.656 526.284c0-1.175-0.953-2.127-2.128-2.127 c-1.176 0-2.128 0.952-2.128 2.127c0 1.176 0.952 2.128 2.128 2.128C504.703 528.412 505.656 527.459 505.656 526.284z M506.391 519.371c1.638 0 2.964-1.327 2.964-2.965c0-1.637-1.326-2.964-2.964-2.964s-2.965 1.327-2.965 2.964 S504.753 519.371 506.391 519.371z M528.622 524.764h-20.535v3.345h20.535V524.764z M529.316 522.675 c1.155 0 2.244-0.452 3.063-1.268c1.688-1.689 1.689-4.438-0.001-6.128c-0.247-0.247-0.529-0.465-0.839-0.65l-5.072-3.839 c3.388-2.488 5.588-6.5 5.588-11.026c0-7.553-6.124-13.678-13.678-13.678s-13.678 6.125-13.678 13.678 c0 7.556 6.124 13.679 13.678 13.679c0.754 0 1.491-0.063 2.211-0.182l4.853 7.009c0.211 0.426 0.483 0.808 0.813 1.139 C527.071 522.224 528.159 522.675 529.316 522.675z M535.747 526.284c0-1.175-0.952-2.127-2.128-2.127 c-1.175 0-2.127 0.952-2.127 2.127c0 1.176 0.952 2.128 2.127 2.128C534.795 528.412 535.747 527.459 535.747 526.284z M535.747 486.163c0-1.176-0.952-2.128-2.128-2.128c-1.175 0-2.127 0.952-2.127 2.128c0 1.175 0.952 2.128 2.127 2.128 C534.795 488.291 535.747 487.337 535.747 486.163z M519.873 511.713c0.06 0.084 0.069 0.194 0.025 0.288s-0.134 0.158-0.237 0.169 c-0.425 0.045-0.856 0.067-1.284 0.067c-6.771 0-12.279-5.509-12.279-12.281c0-6.771 5.509-12.28 12.279-12.28 c6.771 0 12.279 5.511 12.279 12.28c0 4.032-1.982 7.81-5.306 10.107c-0.104 0.071-0.242 0.068-0.345-0.009l-7.837-5.93 c-0.035-0.026-0.072-0.048-0.109-0.067c-0.062-0.034-0.106-0.091-0.132-0.152c-0.041 0.021-0.09 0.038-0.14 0.033 c-0.02-0.001-0.041-0.001-0.063-0.006c-0.344-0.067-0.699 0.036-0.947 0.274c-0.383 0.366-0.442 0.95-0.141 1.387L519.873 511.713z M517.284 503.518c0.354 0.11 0.723 0.164 1.093 0.164c2.053 0 3.724-1.67 3.724-3.724c0-2.053-1.671-3.724-3.724-3.724 s-3.724 1.671-3.724 3.724c0 1.472 0.864 2.804 2.209 3.402c0.094 0.021 0.171 0.089 0.205 0.179 c0.041-0.022 0.087-0.034 0.133-0.034C517.228 503.505 517.256 503.509 517.284 503.518z M519.102 511.628l-3.945-5.7 c-0.466-0.674-0.376-1.576 0.217-2.144c0.145-0.14 0.311-0.248 0.49-0.324c-1.112-0.801-1.798-2.095-1.798-3.502 c0-2.378 1.935-4.313 4.312-4.313c2.378 0 4.312 1.935 4.312 4.313c0 2.377-1.934 4.311-4.311 4.311c-0.015 0-0.031 0-0.046 0 l6.86 5.189c3.059-2.197 4.879-5.733 4.879-9.502c0-6.446-5.246-11.692-11.693-11.692c-6.446 0-11.693 5.246-11.693 11.692 c0 6.448 5.247 11.694 11.693 11.694C518.618 511.651 518.859 511.643 519.102 511.628z M531.525 516.356 c-0.193-0.192-0.407-0.352-0.636-0.479l-14.255-10.786l10.104 14.599c0.144 0.311 0.339 0.603 0.596 0.858 c1.156 1.157 3.034 1.157 4.19 0C532.684 519.389 532.684 517.514 531.525 516.356z M506.391 514.512 c-1.047 0-1.896 0.849-1.896 1.895c0 1.047 0.849 1.895 1.896 1.895c1.046 0 1.895-0.847 1.895-1.895 C508.284 515.36 507.437 514.512 506.391 514.512z" class="style10"/>
<path d="M309.952 531.432c0 0-1.129-0.956-1.751-1.575c-0.62-0.622-0.789-1.385-0.789-1.385l-0.49-5.268h-13.688 l-0.493 5.27c0 0-0.17 0.808-0.791 1.428c-0.621 0.621-1.75 1.561-1.75 1.561s-1.016 0.717 0.508 0.942 c0.873 0.13 4.767 0.223 7.895 0.223h2.954c3.192 0 7.02-0.104 7.894-0.232C310.973 532.167 309.952 531.432 309.952 531.432" class="style11"/>
<path d="M331.025 482.439h-61.946c-0.888 0-1.672 0.818-1.672 1.715v36.381c0 0.896 0.784 1.708 1.672 1.708h22.917 h1.317h13.528h1.38h22.805c0.888 0 1.566-0.813 1.566-1.708v-36.381C332.593 483.258 331.913 482.439 331.025 482.439 M329.9 519.359h-59.993v-34.035H329.9V519.359z" class="style11"/>
<path d="M94.672 484.579c0-2.078-1.683-3.761-3.76-3.761H72.336c-2.078 0-3.76 1.683-3.76 3.761v43.44 c0 2.078 1.683 3.762 3.76 3.762h18.575c2.078 0 3.76-1.684 3.76-3.762L94.672 484.579L94.672 484.579z M84.233 485.135 c0 0.328-0.265 0.596-0.595 0.596H79.61c-0.33 0-0.595-0.268-0.595-0.596v-0.039c0-0.328 0.265-0.595 0.595-0.595h4.028 c0.33 0 0.595 0.267 0.595 0.595V485.135z M81.549 529.683c-1.357 0-2.456-1.1-2.456-2.456c0-1.354 1.099-2.455 2.456-2.455 c1.356 0 2.456 1.101 2.456 2.455C84.005 528.583 82.905 529.683 81.549 529.683 M92.83 522.878H70.417v-33.465H92.83V522.878z" class="style11"/>
<rect x="219.448" y="382.472" width="161.104" height="14" class="style12"/>
<text transform="matrix(1 0 0 1 232.8506 393.127)" class="style13">&#1044;&#1072;&#1090;&#1072;-&#1094;&#1077;&#1085;&#1090;&#1088;&#1099; Cam-Net.ru</text>
<text transform="matrix(1 0 0 1 280.2764 561.627)" class="style13">&#1054;&#1085;&#1083;&#1072;&#1081;&#1085;</text>
<rect x="443.204" y="553.167" width="150.344" height="14.066" class="style12"/>
<text transform="matrix(1 0 0 1 458.0068 562.2988)" class="style14">&#1047;&#1072;&#1087;&#1080;&#1089;&#1100; &#1072;&#1088;&#1093;&#1080;&#1074;&#1072;, &#1085;&#1072; &#1089;&#1077;&#1088;&#1074;&#1077;&#1088;</text>
<rect x="6.19" y="551.131" width="151.238" height="18.138" class="style12"/>
<text transform="matrix(1 0 0 1 15.6152 560.2637)" class="style15">&#1054;&#1090;&#1087;&#1088;&#1072;&#1074;&#1082;&#1072; sms &#1091;&#1074;&#1077;&#1076;&#1086;&#1084;&#1083;&#1077;&#1085;&#1080;&#1081;</text>
<rect x="357" y="1.382" width="208.667" height="271.938" class="style12"/>
<text transform="matrix(1 0 0 1 377.0664 12.0361)" class="style13">Cam-Net.ru , &#1050;&#1072;&#1082; &#1101;&#1090;&#1086; &#1088;&#1072;&#1073;&#1086;&#1090;&#1072;&#1077;&#1090;?</text>
<text transform="matrix(1 0 0 1 357 45.6357)" class="style13">   &#1057;&#1080;&#1075;&#1085;&#1072;&#1083;&#1099; &#1089; &#1082;&#1072;&#1084;&#1077;&#1088; &#1087;&#1086;&#1089;&#1090;&#1091;&#1087;&#1072;&#1102;&#1090; &#1085;&#1072; </text>
<text transform="matrix(1 0 0 1 357 62.4365)" class="style13">&#1076;&#1072;&#1090;&#1072;-&#1094;&#1077;&#1085;&#1090;&#1088;&#1099; &#1082;&#1086;&#1084;&#1087;&#1072;&#1085;&#1080;&#1080;, &#1075;&#1076;&#1077; </text>
<text transform="matrix(1 0 0 1 357 79.2363)" class="style13">&#1086;&#1073;&#1088;&#1072;&#1073;&#1072;&#1090;&#1099;&#1074;&#1072;&#1102;&#1090;&#1089;&#1103;, &#1080; &#1087;&#1086;&#1089;&#1099;&#1083;&#1072;&#1102;&#1090;&#1089;&#1103; &#1085;&#1072; </text>
<text transform="matrix(1 0 0 1 357 96.0361)" class="style13">&#1074;&#1072;&#1096;&#1077; &#1091;&#1089;&#1090;&#1088;&#1086;&#1080;&#1089;&#1090;&#1074;&#1086; &#1074; &#1074;&#1080;&#1076;&#1077; &#1074;&#1080;&#1076;&#1077;&#1086;. </text>
<text transform="matrix(1 0 0 1 357 129.6357)" class="style13">   &#1054;&#1076;&#1085;&#1086;&#1074;&#1088;&#1077;&#1084;&#1077;&#1085;&#1085;&#1086; &#1089; &#1101;&#1090;&#1080;&#1084;, &#1080;&#1076;&#1077;&#1090; </text>
<text transform="matrix(1 0 0 1 357 146.4365)" class="style13">&#1089;&#1086;&#1093;&#1088;&#1072;&#1085;&#1077;&#1085;&#1080;&#1077; &#1074; &#1072;&#1088;&#1093;&#1080;&#1074;, &#1082;&#1086;&#1090;&#1086;&#1088;&#1099;&#1081;  100% </text>
<text transform="matrix(1 0 0 1 357 163.2363)" class="style13">&#1079;&#1072;&#1097;&#1080;&#1097;&#1077;&#1085; &#1086;&#1090; &#1087;&#1086;&#1090;&#1077;&#1088;&#1080; &#1076;&#1072;&#1085;&#1085;&#1099;&#1093;.</text>
<text transform="matrix(1 0 0 1 357 196.8359)" class="style13">   &#1042; &#1089;&#1083;&#1091;&#1095;&#1072;&#1077;, &#1074;&#1086;&#1079;&#1085;&#1080;&#1082;&#1085;&#1086;&#1074;&#1077;&#1085;&#1080;&#1103; &#1090;&#1088;&#1077;&#1074;&#1086;&#1075;&#1080;, </text>
<text transform="matrix(1 0 0 1 357 213.6357)" class="style13">&#1085;&#1072; &#1074;&#1072;&#1096; &#1084;&#1086;&#1073;&#1080;&#1083;&#1100;&#1085;&#1099;&#1081;, &#1087;&#1086;&#1089;&#1099;&#1083;&#1072;&#1077;&#1090;&#1089;&#1103; sms </text>
<text transform="matrix(1 0 0 1 357 230.4365)" class="style13">&#1089;&#1086;&#1086;&#1073;&#1097;&#1077;&#1085;&#1080;&#1077;. &#1042;&#1072;&#1084; &#1076;&#1086;&#1089;&#1090;&#1072;&#1090;&#1086;&#1095;&#1085;&#1086; &#1087;&#1088;&#1086;&#1089;&#1090;&#1086; </text>
<text transform="matrix(1 0 0 1 357 247.2363)" class="style13">&#1079;&#1072;&#1081;&#1090;&#1080; &#1085;&#1072; &#1089;&#1072;&#1081;&#1090; &#1089; &#1090;&#1077;&#1083;&#1077;&#1092;&#1086;&#1085;&#1072;, &#1080; &#1086;&#1094;&#1077;&#1085;&#1080;&#1090;&#1100; </text>
<text transform="matrix(1 0 0 1 357 264.0361)" class="style13">&#1089;&#1080;&#1090;&#1091;&#1072;&#1094;&#1080;&#1102;.</text>
</svg>
