<?xml version="1.0" encoding="utf-8"?>
<!-- Generator: Adobe Illustrator 15.0.0, SVG Export Plug-In  -->
<!DOCTYPE svg PUBLIC "-//W3C//DTD SVG 1.1//EN" "http://www.w3.org/Graphics/SVG/1.1/DTD/svg11.dtd" [
	<!ENTITY ns_flows "http://ns.adobe.com/Flows/1.0/">
]>
<svg version="1.1"
	 xmlns="http://www.w3.org/2000/svg" xmlns:xlink="http://www.w3.org/1999/xlink" xmlns:a="http://ns.adobe.com/AdobeSVGViewerExtensions/3.0/"
	 x="0px" y="0px" width="220px" height="37px" viewBox="-15.894 -3.284 220 37" enable-background="new -15.894 -3.284 220 37"
	 xml:space="preserve">
<defs>
</defs>
<rect x="23.951" y="0.487" fill="#58BC6B" width="21.438" height="24.778"/>
<rect x="21.35" y="0.058" fill="#266031" width="24.039" height="0.859"/>
<rect x="22.388" y="24.835" fill="#266031" width="23.001" height="0.859"/>
<path fill="#00A14B" d="M42.037,2.056c-1.142,0.448-2.309,0.751-3.413,1.299c-0.821,0.408,0.121,0.705,0.603,0.565
	c1.303-0.379,2.809-0.774,3.916-1.581c0.397-0.29,0.02-0.538-0.32-0.526c-1.611,0.057-3.098,0.487-4.625,0.977
	c-0.71,0.228-1.029,0.881-0.03,0.772c1.101-0.12,2.138-0.326,3.184-0.683c0.516-0.176,0.737-0.729,0.02-0.717
	c-1.866,0.03-3.887,0.47-5.671,1.003c-0.507,0.151-1.146,0.732-0.238,0.79C35.827,3.992,36.194,4,36.562,3.982
	c0.008-0.239,0.014-0.478,0.021-0.717c-0.229,0.068-0.456,0.136-0.687,0.204c-0.473,0.089-1.535,0.833-0.462,0.835
	c1.147,0.001,2.269-0.151,3.413-0.215c0.078-0.263,0.159-0.526,0.238-0.789c-1.349,0.445-2.741,0.307-4.137,0.286
	c-0.557-0.007-1.797,0.799-0.67,0.853c3.167,0.15,6.333-0.526,9.513-0.322c0.279,0.017,1.12-0.166,1.161-0.544
	c0.099-0.87-0.055-1.708-0.104-2.577c-0.028-0.522-1.313,0-1.486,0.123c-1.298,0.921-3.437,1.013-4.977,1.375
	c-0.534,0.125-1.125,0.736-0.238,0.789c0.92,0.055,1.773-0.14,2.683-0.285c0.455-0.072,0.912-0.145,1.368-0.215
	c0.854-0.133-1.192,0.52-1.37,0.493c-0.067,0.235-0.135,0.47-0.204,0.705c0.708-0.331,1.465-0.389,2.178-0.734
	c1-0.485-0.515-0.641-1.007-0.403c-0.563,0.273-1.217,0.283-1.8,0.556c-0.289,0.135-0.857,0.608-0.204,0.705
	c1.18,0.176,4.206-0.338,4.384-1.878c0.017-0.142-0.035-0.195-0.159-0.257c-1.386-0.711-3.707,0.551-5.197,0.462
	c-0.079,0.263-0.158,0.526-0.237,0.79c2.166-0.51,4.242-0.589,6.093-1.903c-0.495,0.041-0.99,0.082-1.486,0.123
	c0.044,0.793,0.201,1.57,0.11,2.368c0.389-0.181,0.776-0.363,1.163-0.544c-3.176-0.203-6.354,0.473-9.513,0.322
	c-0.224,0.285-0.447,0.568-0.67,0.853c1.708,0.024,3.357,0.13,5.001-0.413c0.437-0.144,1.186-0.842,0.237-0.789
	c-1.139,0.063-2.271,0.216-3.413,0.214c-0.152,0.279-0.307,0.558-0.462,0.835c0.586-0.11,1.015-0.224,1.57-0.441
	c0.496-0.192,0.751-0.725,0.021-0.717c-0.368,0.018-0.734,0.009-1.102-0.027c-0.079,0.263-0.158,0.526-0.237,0.789
	C37.342,3.46,39.181,3.04,40.7,3.015c0.007-0.239,0.014-0.478,0.021-0.717c-0.765,0.262-1.508,0.36-2.299,0.446
	c-0.011,0.257-0.019,0.515-0.028,0.772c1.233-0.396,2.447-0.805,3.758-0.851c-0.107-0.176-0.213-0.351-0.32-0.526
	c-0.604,0.44-2.108,0.852-2.8,1.053c0.199,0.188,0.399,0.376,0.6,0.564c0.969-0.48,2.032-0.726,3.036-1.119
	C43.755,2.212,42.748,1.778,42.037,2.056L42.037,2.056z"/>
<polygon fill="#58BC6B" points="20.965,13.476 0.455,25.266 24.362,25.266 24.362,0.588 0.438,0.588 21.647,12.876 "/>
<rect x="0.438" y="0.058" fill="#266031" width="23.924" height="0.859"/>
<rect x="10.502" y="6.709" transform="matrix(0.5026 0.8645 -0.8645 0.5026 21.9524 0.0501)" fill="#266031" width="0.861" height="24.788"/>
<rect x="-1.461" y="6.221" transform="matrix(0.8647 0.5023 -0.5023 0.8647 4.8203 -4.5915)" fill="#266031" width="24.787" height="0.859"/>
<rect x="0.455" y="24.835" fill="#266031" width="23.907" height="0.859"/>
<path fill="#009444" d="M43.696,1.686c-1.195,0.226-2.268,0.89-3.412,1.29c0.223,0.273,0.445,0.546,0.668,0.82
	c0.854-0.542,1.775-0.918,2.404-1.735c0.377-0.489-0.097-0.777-0.591-0.738c-1.397,0.111-2.997,0.477-3.97,1.555
	c-0.313,0.347-0.065,0.735,0.378,0.741c1.15,0.013,2.166-0.303,3.232-0.712c0.763-0.292,0.495-1.027-0.259-0.964
	c-1.214,0.1-2.456,0.396-3.637,0.694C37.896,2.79,37.38,3.092,36.725,3.1c-0.677,0.009-1.232-0.133-1.912-0.031
	c-0.401,0.06-1.521,0.868-0.585,1.052c1.711,0.336,3.284-0.253,4.991-0.142c1.567,0.102,3.165,0.205,4.734,0.172
	c0.317-0.007,1.067-0.323,0.922-0.764c-0.259-0.794,0.089-1.494,0.168-2.277c0.076-0.751-1.235-0.434-1.519-0.115
	c-0.574,0.646-1.608,0.732-2.057,1.531c-0.298,0.533-0.07,1.16,0.58,1.205c0.771,0.053,3.199-1.052,1.576-1.626
	C43,1.884,41.671,2.785,42.639,3.127c0.004,0.002,1.99-1.446,2.25-1.739c-0.507-0.038-1.013-0.077-1.519-0.115
	c-0.092,0.904-0.446,1.667-0.155,2.559c0.307-0.254,0.614-0.509,0.922-0.764c-1.383,0.029-2.94-0.032-4.31-0.178
	c-1.553-0.166-3.073,0.511-4.613,0.208c-0.195,0.351-0.39,0.702-0.584,1.053c1.037-0.154,1.994,0.098,3.031-0.142
	c1.432-0.332,2.819-0.864,4.304-0.987c-0.085-0.322-0.172-0.643-0.259-0.965c-0.611,0.272-1.252,0.429-1.926,0.47
	c0.128,0.247,0.253,0.494,0.379,0.74c0.597-0.661,1.591-0.798,2.424-0.864c-0.197-0.246-0.394-0.492-0.59-0.738
	c-0.546,0.707-1.377,1.022-2.111,1.489c-0.748,0.477,0.076,1.027,0.671,0.819c1.125-0.393,2.241-1.068,3.412-1.29
	C45.005,2.489,44.711,1.494,43.696,1.686L43.696,1.686z"/>
<polygon fill="#266031" points="45.275,0.073 31.223,3.912 31.223,4.803 44.529,1.167 44.529,4.336 45.389,4.336 45.389,0.933 
	45.389,0.896 45.389,0.487 "/>
<rect x="142.586" y="0.5" fill="#58BC6B" width="21.437" height="24.779"/>
<line fill="none" stroke="#266031" stroke-miterlimit="10" x1="166.625" y1="0.5" x2="142.586" y2="0.5"/>
<line fill="none" stroke="#266031" stroke-miterlimit="10" x1="165.586" y1="25.279" x2="142.586" y2="25.279"/>
<path fill="#00A14B" d="M144.953,2.735c1.074,0.42,2.188,0.695,3.225,1.209c0.446-0.25,0.891-0.5,1.337-0.751
	c-0.98-0.285-2.423-0.648-3.253-1.252c-0.369,0.246-0.739,0.492-1.11,0.737c1.344,0.047,2.593,0.457,3.859,0.863
	c0.396-0.264,0.791-0.526,1.187-0.79c-0.894-0.098-1.734-0.233-2.59-0.525c-0.336,0.267-0.67,0.534-1.004,0.801
	c1.567,0.025,3.41,0.443,4.906,0.89c0.335-0.267,0.669-0.534,1.003-0.801c-0.366,0.037-0.733,0.045-1.102,0.027
	c-0.231-0.003-1.691,0.534-1.003,0.801c0.538,0.21,0.708,0.253,1.279,0.362c0.283-0.28,0.567-0.561,0.852-0.84
	c-1.141,0.001-2.272-0.152-3.412-0.215c-0.252-0.014-1.678,0.579-1.003,0.801c1.612,0.532,3.225,0.425,4.9,0.4
	c0.225-0.284,0.447-0.568,0.671-0.852c-3.159,0.151-6.331-0.525-9.513-0.322c0.165,0.068,0.331,0.135,0.496,0.204
	c-0.09-0.801,0.06-1.571,0.104-2.368c-0.534,0.144-1.069,0.286-1.604,0.429c1.717,1.218,3.79,1.271,5.794,1.742
	c0.283-0.28,0.567-0.561,0.852-0.84c-1.835,0.11-3.967-1.178-5.703-0.288c-0.154,0.079-0.35,0.228-0.327,0.423
	c0.158,1.375,2.708,1.688,3.742,1.533c0.21-0.032,1.422-0.491,0.795-0.785c-0.647-0.303-1.341-0.332-1.988-0.645
	c-0.438-0.212-1.972,0.443-1.337,0.75c0.648,0.313,1.332,0.337,1.988,0.645c0.265-0.262,0.531-0.523,0.795-0.785
	c-0.594,0.088-2.244-0.38-2.333-1.159c-0.109,0.142-0.218,0.283-0.327,0.424c-0.698,0.357,1.132,0.419,1.369,0.457
	c0.901,0.143,1.743,0.335,2.656,0.281c0.334-0.021,1.794-0.619,0.854-0.841c-1.775-0.417-3.761-0.459-5.278-1.536
	c-0.316-0.225-1.572-0.089-1.602,0.43c-0.049,0.866-0.208,1.709-0.111,2.577c0.021,0.184,0.372,0.211,0.495,0.203
	c3.176-0.203,6.348,0.473,9.512,0.322c0.537-0.025,1.804-0.868,0.671-0.852c-1.432,0.021-2.849,0.159-4.235-0.298
	c-0.335,0.267-0.668,0.534-1.002,0.802c1.142,0.063,2.267,0.216,3.412,0.214c0.357,0,1.777-0.665,0.853-0.84
	c-0.325-0.095-0.652-0.189-0.978-0.284c-0.335,0.268-0.67,0.535-1.004,0.802c0.368,0.018,0.735,0.009,1.102-0.027
	c0.192-0.012,1.717-0.589,1.004-0.801c-1.756-0.524-3.739-0.961-5.573-0.991c-0.232-0.003-1.691,0.567-1.003,0.801
	c0.944,0.323,1.898,0.495,2.891,0.603c0.298,0.033,1.884-0.565,1.187-0.79c-1.495-0.479-2.947-0.909-4.525-0.964
	c-0.169-0.006-1.567,0.403-1.11,0.737c0.943,0.687,2.354,1.058,3.466,1.381c0.375,0.11,2.028-0.407,1.337-0.751
	c-1.036-0.514-2.151-0.789-3.226-1.208C145.837,1.807,144.318,2.487,144.953,2.735L144.953,2.735z"/>
<polygon fill="#58BC6B" points="167.248,13.489 187.757,25.279 163.851,25.279 163.851,0.601 187.773,0.601 166.564,12.89 "/>
<rect x="163.851" y="0.07" fill="#266031" width="23.923" height="0.86"/>
<rect x="164.886" y="18.686" transform="matrix(0.8646 0.5024 -0.5024 0.8646 33.6001 -86.476)" fill="#266031" width="24.788" height="0.861"/>
<rect x="176.85" y="-5.729" transform="matrix(0.5026 0.8645 -0.8645 0.5026 93.9407 -149.9477)" fill="#266031" width="0.861" height="24.787"/>
<rect x="163.851" y="24.849" fill="#266031" width="23.906" height="0.86"/>
<path fill="#009444" d="M143.65,2.709c1.172,0.222,2.292,0.899,3.412,1.29c0.47,0.164,1.894-0.479,1.144-0.956
	s-1.584-0.792-2.143-1.515c-0.355,0.297-0.712,0.594-1.067,0.892c0.943,0.074,2.068,0.274,2.735,1.013
	c0.356-0.297,0.712-0.595,1.068-0.892c-0.849,0.01-1.608-0.258-2.391-0.558c-0.265,0.352-0.53,0.703-0.795,1.055
	c1.245,0.103,2.602,0.409,3.784,0.81c1.271,0.431,2.269,0.128,3.551,0.319c0.057-0.348,0.113-0.696,0.169-1.044
	c-1.491,0.293-3.058-0.316-4.575-0.217c-1.407,0.092-2.901,0.203-4.312,0.173c0.178,0.154,0.356,0.308,0.533,0.462
	c0.288-0.884-0.076-1.664-0.167-2.56c-0.531,0.19-1.063,0.38-1.596,0.57c0.343,0.385,2.38,1.642,2.494,1.06
	c-0.235,0.194-0.469,0.388-0.703,0.582c0.061-0.021,0.122-0.043,0.184-0.064c0.973-0.344,0.73-1.354-0.269-1
	c-1.709,0.604-0.432,1.698,0.824,1.611c0.461-0.032,1.303-0.501,1.107-1.092c-0.336-1.025-1.455-1.057-2.107-1.792
	c-0.413-0.466-1.664-0.109-1.596,0.57c0.08,0.795,0.418,1.472,0.155,2.277c-0.095,0.291,0.323,0.459,0.533,0.463
	c1.559,0.033,3.187-0.013,4.734-0.178c1.713-0.182,3.299,0.474,5.028,0.134c0.66-0.13,1.018-0.918,0.168-1.044
	c-1.283-0.191-2.467-0.014-3.733-0.443c-1.101-0.373-2.441-0.59-3.602-0.686c-0.537-0.044-1.736,0.695-0.797,1.055
	c0.909,0.348,1.79,0.636,2.77,0.625c0.303-0.003,1.559-0.349,1.068-0.892c-0.902-0.999-2.366-1.303-3.659-1.405
	c-0.36-0.028-1.495,0.339-1.068,0.892c0.619,0.804,1.533,1.175,2.372,1.709c0.382-0.319,0.762-0.637,1.143-0.956
	c-1.146-0.4-2.22-1.064-3.413-1.29C144.01,1.569,142.666,2.524,143.65,2.709L143.65,2.709z"/>
<polygon fill="#266031" points="142.697,0.085 156.751,3.924 156.751,4.815 143.445,1.181 143.445,4.348 142.586,4.348 
	142.586,0.946 142.586,0.909 142.586,0.5 "/>
<rect x="31.657" y="4.403" fill="#58BC6B" stroke="#266031" stroke-miterlimit="10" width="124.69" height="26.23"/>
</svg>
