<?xml version="1.0" encoding="utf-8"?>
<!-- Generator: Adobe Illustrator 15.0.0, SVG Export Plug-In . SVG Version: 6.00 Build 0)  -->
<!DOCTYPE svg PUBLIC "-//W3C//DTD SVG 1.1//EN" "http://www.w3.org/Graphics/SVG/1.1/DTD/svg11.dtd">
<svg version="1.1" id="Layer_1" xmlns="http://www.w3.org/2000/svg" xmlns:xlink="http://www.w3.org/1999/xlink" x="0px" y="0px"
	 width="36px" height="27.333px" viewBox="0 0 36 27.333" enable-background="new 0 0 36 27.333" xml:space="preserve">
<path fill="#266031" d="M6.583,0H1.75C0.786,0,0,0.594,0,1.325v3.658c0,0.73,0.785,1.325,1.75,1.325h4.833
	c0.965,0,1.75-0.594,1.75-1.325V1.325C8.333,0.594,7.548,0,6.583,0z"/>
<path fill="#266031" d="M34.25,0H12.417c-0.965,0-1.75,0.594-1.75,1.325v3.658c0,0.73,0.785,1.325,1.75,1.325H34.25
	c0.965,0,1.75-0.594,1.75-1.325V1.325C36,0.594,35.215,0,34.25,0z"/>
<path fill="#266031" d="M6.583,10.513H1.75c-0.965,0-1.75,0.594-1.75,1.325v3.658c0,0.73,0.785,1.324,1.75,1.324h4.833
	c0.965,0,1.75-0.594,1.75-1.324v-3.658C8.333,11.107,7.548,10.513,6.583,10.513z"/>
<path fill="#266031" d="M34.25,10.513H12.417c-0.965,0-1.75,0.594-1.75,1.325v3.658c0,0.73,0.785,1.324,1.75,1.324H34.25
	c0.965,0,1.75-0.594,1.75-1.324v-3.658C36,11.107,35.215,10.513,34.25,10.513z"/>
<path fill="#266031" d="M6.583,21.025H1.75C0.785,21.025,0,21.62,0,22.35v3.658c0,0.73,0.785,1.325,1.75,1.325h4.833
	c0.965,0,1.75-0.594,1.75-1.325V22.35C8.333,21.62,7.548,21.025,6.583,21.025z"/>
<path fill="#266031" d="M34.25,21.025H12.416c-0.965,0-1.75,0.594-1.75,1.324v3.658c0,0.73,0.785,1.325,1.75,1.325h21.833
	c0.965,0,1.75-0.594,1.75-1.325V22.35C36,21.62,35.215,21.025,34.25,21.025z"/>
</svg>
