<?xml version="1.0" encoding="utf-8"?>
<!-- Generator: Adobe Illustrator 15.0.0, SVG Export Plug-In  -->
<!DOCTYPE svg PUBLIC "-//W3C//DTD SVG 1.1//EN" "http://www.w3.org/Graphics/SVG/1.1/DTD/svg11.dtd" [
	<!ENTITY ns_flows "http://ns.adobe.com/Flows/1.0/">
]>
<svg version="1.1"
	 xmlns="http://www.w3.org/2000/svg" xmlns:xlink="http://www.w3.org/1999/xlink" xmlns:a="http://ns.adobe.com/AdobeSVGViewerExtensions/3.0/"
	 x="0px" y="0px" width="26px" height="26px" viewBox="-7.127 -2.885 26 26" enable-background="new -7.127 -2.885 26 26"
	 xml:space="preserve">
<defs>
</defs>
<path fill="#333333" d="M11.438,11.846c0.395-0.405,0.399-0.914,0.077-1.437c-0.279-0.458-0.768-0.649-1.288-0.515
	C9.957,9.963,9.725,10.1,9.509,10.266c-2.19,1.473-5.188,1.431-7.369-0.068C2.032,10.124,1.921,10.054,1.804,10
	c-0.606-0.286-1.188-0.153-1.535,0.345c-0.405,0.58-0.354,1.143,0.159,1.635c0.132,0.128,0.282,0.238,0.427,0.352
	c1.171,0.916,2.538,1.289,4.055,1.448c-0.107,0.114-0.176,0.192-0.25,0.267c-1.112,1.115-2.223,2.231-3.338,3.344
	c-0.23,0.23-0.396,0.487-0.412,0.822c-0.023,0.496,0.284,0.991,0.767,1.226c0.456,0.222,0.923,0.151,1.316-0.236
	c0.874-0.861,1.743-1.728,2.598-2.609c0.214-0.22,0.33-0.269,0.574-0.014c0.832,0.871,1.698,1.712,2.549,2.566
	c0.221,0.224,0.472,0.383,0.791,0.405c0.507,0.035,1.021-0.289,1.252-0.781c0.21-0.45,0.13-0.93-0.251-1.315
	c-1.123-1.136-2.255-2.262-3.381-3.395c-0.079-0.077-0.138-0.146-0.264-0.282c0.831-0.099,1.668-0.248,2.434-0.545
	C10.104,12.918,10.833,12.468,11.438,11.846z"/>
<path fill="#333333" d="M5.834,9.901c2.732,0.01,4.967-2.182,4.98-4.886C10.828,2.247,8.631,0.007,5.894,0
	C3.161-0.007,0.941,2.201,0.926,4.94C0.911,7.649,3.128,9.893,5.834,9.901z M5.874,2.529C7.217,2.53,8.288,3.601,8.293,4.946
	C8.298,6.292,7.229,7.37,5.887,7.375C4.54,7.38,3.458,6.316,3.448,4.976C3.438,3.618,4.52,2.528,5.874,2.529z"/>
</svg>
