<?xml version="1.0" encoding="utf-8"?>
<!-- Generator: Adobe Illustrator 15.0.0, SVG Export Plug-In  -->
<!DOCTYPE svg PUBLIC "-//W3C//DTD SVG 1.1//EN" "http://www.w3.org/Graphics/SVG/1.1/DTD/svg11.dtd" [
	<!ENTITY ns_flows "http://ns.adobe.com/Flows/1.0/">
]>
<svg version="1.1"
	 xmlns="http://www.w3.org/2000/svg" xmlns:xlink="http://www.w3.org/1999/xlink" xmlns:a="http://ns.adobe.com/AdobeSVGViewerExtensions/3.0/"
	 x="0px" y="0px" width="229px" height="176px" viewBox="-18.0214844 -14.0126953 229 176"
	 enable-background="new -18.0214844 -14.0126953 229 176" xml:space="preserve">
<defs>
</defs>
<polygon fill="#5FC774" points="21.5791016,94.9394531 0.4658203,107.5449219 25.0742188,107.5449219 25.0742188,81.1650391 
	0.4492188,81.1650391 22.277832,94.3007813 "/>
<rect x="0.4492188" y="80.6005859" fill="#255E30" width="24.625" height="0.9140625"/>
<polygon fill="#255E30" points="22.0541992,93.8964844 22.4980469,94.6894531 0.4438477,108.0136719 0,107.2167969 "/>
<polygon fill="#255E30" points="0.4458008,80.5966797 22.5078125,93.9023438 22.0629883,94.6972656 0.0019531,81.3896484 "/>
<rect x="24.6489258" y="81.0595703" fill="#5FC774" width="22.065918" height="26.4833984"/>
<rect x="23.0419922" y="107.0771484" fill="#255E30" width="23.6738281" height="0.9248047"/>
<rect x="21.9741211" y="80.6005859" fill="#255E30" width="24.7416992" height="0.9140625"/>
<rect x="0.4658203" y="107.0771484" fill="#255E30" width="24.6083984" height="0.9248047"/>
<polygon fill="#255E30" points="46.5541992,80.6171875 26.2148438,84.9941406 26.2148438,86.0126953 45.4741211,81.8642578 
	45.4741211,85.4775391 46.7158203,85.4775391 46.7158203,81.5966797 46.7158203,81.5556641 46.7158203,81.0878906 "/>
<polygon fill="#5FC774" points="171.3769531,94.9902344 192.4902344,107.5917969 167.8828125,107.5917969 167.8828125,81.2167969 
	192.5078125,81.2167969 170.6796875,94.3515625 "/>
<rect x="167.8828125" y="80.6474609" fill="#255E30" width="24.625" height="0.9179688"/>
<polygon fill="#255E30" points="170.9042969,93.9472656 170.4589844,94.7412109 192.5136719,108.0625 192.9570313,107.2675781 "/>
<polygon fill="#255E30" points="192.5097656,80.6455078 170.4492188,93.9541016 170.8925781,94.7470703 192.9550781,81.4404297 "/>
<rect x="146.2402344" y="81.1083984" fill="#5FC774" width="22.0664063" height="26.4814453"/>
<rect x="146.2402344" y="107.1289063" fill="#255E30" width="23.6757813" height="0.921875"/>
<rect x="146.2402344" y="80.6474609" fill="#255E30" width="24.7421875" height="0.9179688"/>
<rect x="167.8828125" y="107.1289063" fill="#255E30" width="24.6054688" height="0.921875"/>
<polygon fill="#255E30" points="146.4023438,80.6679688 166.7402344,85.0449219 166.7402344,86.0615234 147.4824219,81.9150391 
	147.4824219,85.5283203 146.2402344,85.5283203 146.2402344,81.6494141 146.2402344,81.6044922 146.2402344,81.1347656 "/>
<polygon fill="#32773E" points="146.2402344,81.1650391 146.2402344,86.8339844 161.3574219,90.4335938 162.5449219,85.0507813 "/>
<polygon fill="#32773E" points="46.7158203,81.1171875 30.4111328,85.0019531 31.6000977,90.3828125 46.7158203,86.7841797 "/>
<path fill="#606263" d="M156.6503906,28.4091797c-1.1308594-1.3051758-2.7265625-2.0561523-4.4101563-2.1020508
	c-13.0175781-0.347168-29.4794922-14.4462891-40.3808594-19.9780273
	c-6.7265625-3.4111328-11.1679688-5.6572266-14.4912109-6.2490234C97.0175781,0.0341797,96.6821289,0,96.3408203,0
	C96,0,95.6650391,0.0341797,95.3188477,0.0869141c-3.3349609,0.5932617-7.7729492,2.8378906-14.4970703,6.2460938
	C69.9301758,11.862793,53.4570313,25.96875,40.4389648,26.3081055c-1.6777344,0.0458984-3.277832,0.8027344-4.4121094,2.1020508
	c-1.1459961,1.2978516-1.7358398,3.0297852-1.6518555,4.7919922c2.7978516,57.59375,23.1889648,93.2412109,58.9711914,113.9570313
	c0.9306641,0.5410156,1.9628906,0.8154297,2.987793,0.8154297c1.0292969,0,2.0585938-0.2744141,2.9990234-0.8154297
	c35.7744141-20.7089844,56.1640625-56.3613281,58.9628906-113.9580078
	C158.3867188,31.4389648,157.7929688,29.7080078,156.6503906,28.4091797z M151.3828125,37.6860352
	c-2.4863281,51.2631836-20.6367188,82.9916992-52.4785156,101.4272461c-0.8339844,0.4785156-1.7558594,0.7236328-2.668457,0.7236328
	c-0.9150391,0-1.8339844-0.25-2.6606445-0.7236328C61.7299805,120.6728516,43.5830078,88.9492188,41.0952148,37.6860352
	c-0.0771484-1.565918,0.4487305-3.1079102,1.4697266-4.2651367c1.0102539-1.1547852,2.434082-1.8291016,3.9301758-1.8691406
	C58.0800781,31.25,72.7387695,18.6958008,82.4331055,13.7758789c5.9829102-3.0356445,9.9379883-5.0317383,12.902832-5.5610352
	c0.3081055-0.046875,0.6069336-0.074707,0.9101563-0.074707c0.3007813,0,0.6000977,0.027832,0.9140625,0.0708008
	c2.9589844,0.5283203,6.9160156,2.5249023,12.8984375,5.559082c9.7001953,4.9248047,24.3525391,17.4750977,35.9375,17.7817383
	c1.5,0.0410156,2.921875,0.7089844,3.9257813,1.8691406C150.9394531,34.5761719,151.4707031,36.1191406,151.3828125,37.6860352z"/>
<rect x="26.2880859" y="85.6533203" fill="#5FC774" width="140.0947266" height="30.6035156"/>
<path fill="#255E30" d="M166.9882813,116.8867188H25.6801758V85.0224609h141.309082L166.9882813,116.8867188
	L166.9882813,116.8867188z M26.8959961,115.625h138.8793945V86.2841797H26.8959961V115.625z"/>
<rect x="27.7709961" y="93.3203125" fill="none" width="137.4145508" height="15.2705078"/>
<path fill="#606263" d="M100.3105469,61.0097656c0.4941406,0.4921875,0.7421875,1.1943359,0.7421875,2.109375
	c0,2.2299805-1.2167969,3.4707031-3.6503906,3.7290039V59.796875
	C98.8457031,60.1162109,99.8164063,60.5200195,100.3105469,61.0097656z M119.1894531,57.3891602
	c0,12.730957-10.1679688,18.440918-22.7104492,18.440918c-12.5439453,0-22.7109375-5.7099609-22.7109375-18.440918
	c0-10.5209961,9.9780273-19.125,17.1586914-22.0683594c-2.5297852,0.2114258-5.0629883,0.4912109-7.5488281,0.9433594
	c-0.8867188,0.159668-5.1928711,0.7128906-5.0019531,1.9116211c0.0410156,0.262207-0.453125,0.2583008-0.4941406,0
	c-0.1699219-1.0629883,2.0229492-1.5605469,2.8891602-1.7807617c2.4360352-0.6210938,4.9790039-0.9550781,7.5-1.2290039
	c0.0141602-0.0019531,0.0258789-0.0029297,0.0410156-0.0039063c-1.0288086-0.012207-2.059082-0.0629883-3.0698242-0.171875
	c-0.9282227-0.1010742-2.3339844-0.2509766-2.7402344-1.0810547c-0.1210938-0.2451172,0.3549805-0.3520508,0.4750977-0.1074219
	c0.3657227,0.7460938,2.3261719,0.8051758,3.0991211,0.8544922c0.9560547,0.0649414,1.9116211,0.0908203,2.8706055,0.0917969
	c0.8520508,0,1.7163086-0.0629883,2.5800781-0.1650391c-4.2709961-1.6088867-10.8579102-4.8500977-6.6186523-8.3891602
	c6.0209961-5.0209961,4.6040039,0.2124023,8.1459961,1.878418c3.5419922,1.6669922,13.8129883-7.7851563,11.3344727-2.1733398
	c-1.0625,2.3999023-2.6425781,4.9638672-4.1015625,7.1088867c0.234375,0.0551758,0.4570313,0.1459961,0.6523438,0.2949219
	c0.5410156,0.4121094,0.9003906,0.8984375,0.5234375,1.4770508c-0.1035156,0.1591797-0.2832031,0.2563477-0.5146484,0.3110352
	c0.7392578,0.0180664,1.3720703-0.0996094,1.6533203-0.4506836c0.0820313-0.105957,0.2705078-0.1430664,0.3867188-0.0410156
	c0.9667969,0.8520508,0.1796875,1.3569336-0.875,1.5820313C110.7207031,39.7597656,119.1894531,46.9609375,119.1894531,57.3891602z
	 M100.25,35.4589844c0.3535156,0.1269531,0.7109375,0.2578125,1.0703125,0.3969727
	c0.0273438-0.0019531,0.0546875-0.0009766,0.0839844-0.0048828c0.5351563-0.0493164,1.8046875-0.2060547,1.3964844-0.7851563
	C102.2460938,35.4770508,101.265625,35.5551758,100.25,35.4589844z M99.203125,34.5610352
	c0.2597656,0.0410156,0.5175781,0.0761719,0.78125,0.0908203c0.2695313,0.0151367,0.6347656,0.0581055,0.8945313-0.0307617
	c0.234375-0.6181641,0.0078125-1.0141602-0.6777344-1.1870117c-0.0644531-0.0141602-0.125-0.0209961-0.1855469-0.027832
	C99.7382813,33.8071289,99.4648438,34.1958008,99.203125,34.5610352z M104.1347656,62.9628906
	c0-1.4780273-0.4716797-2.644043-1.40625-3.5c-0.9375-0.8549805-2.7128906-1.5078125-5.3242188-1.953125v-6.6308594
	c1.8945313,0.2211914,2.9296875,1.1469727,3.0996094,2.78125h3.078125
	c-0.3671875-2.9511719-2.4296875-4.5458984-6.1777344-4.7832031v-2.0268555h-1.6884766v2.0268555
	c-1.9589844,0.1489258-3.5146484,0.6992188-4.6679688,1.6469727c-1.1518555,0.9482422-1.7290039,2.2001953-1.7290039,3.7539063
	c0,2.7592773,2.1333008,4.4931641,6.3959961,5.2050781v7.3642578c-2.315918-0.3242188-3.5917969-1.5839844-3.8227539-3.7802734
	H88.828125c0.2949219,3.4609375,2.5898438,5.3881836,6.8876953,5.78125v2.019043h1.6884766v-2.0429688
	c2.1074219-0.0991211,3.7558594-0.7143555,4.9453125-1.8520508
	C103.5371094,65.8378906,104.1347656,64.4990234,104.1347656,62.9628906z M92.3789063,54.0810547
	c0,0.9829102,0.3100586,1.7001953,0.925293,2.1459961c0.6157227,0.4477539,1.4199219,0.7797852,2.409668,0.9887695v-6.3618164
	C93.4902344,51.1801758,92.3789063,52.2558594,92.3789063,54.0810547z"/>
<path fill="#1C4423" d="M35.0048828,97.5888672v-9.2421875h5.6748047v9.2421875h-0.7617188v-8.5693359h-4.1513672v8.5693359
	H35.0048828z"/>
<path fill="#1C4423" d="M42.2729492,94.6630859v-1.0097656c0-0.8886719,0.2280273-1.6210938,0.6845703-2.1962891
	s1.0693359-0.8632813,1.8383789-0.8632813c0.7695313,0,1.3833008,0.2861328,1.8417969,0.8603516
	c0.4584961,0.5732422,0.6879883,1.3066406,0.6879883,2.1992188v1.0097656c0,0.9003906-0.2285156,1.6367188-0.6845703,2.2050781
	c-0.456543,0.5693359-1.0693359,0.8535156-1.8383789,0.8535156c-0.7734375,0-1.3886719-0.2841797-1.8452148-0.8535156
	C42.5009766,96.2998047,42.2729492,95.5634766,42.2729492,94.6630859z M43.034668,94.6630859
	c0,0.6855469,0.1523438,1.2558594,0.4580078,1.7128906c0.3051758,0.4570313,0.7416992,0.6855469,1.3100586,0.6855469
	c0.5551758,0,0.9873047-0.2285156,1.296875-0.6884766c0.3095703-0.4589844,0.4643555-1.0292969,0.4643555-1.7099609v-1.0097656
	c0-0.6728516-0.1547852-1.2382813-0.4643555-1.6982422c-0.3095703-0.4589844-0.7436523-0.6884766-1.3037109-0.6884766
	c-0.5634766,0-0.9980469,0.2294922-1.3032227,0.6884766c-0.3056641,0.4599609-0.4580078,1.0253906-0.4580078,1.6982422V94.6630859z"
	/>
<path fill="#1C4423" d="M48.7983398,97.5888672v-6.8681641H50.9375c0.7192383,0,1.2802734,0.1533203,1.6821289,0.4599609
	s0.6030273,0.765625,0.6030273,1.375c0,0.3505859-0.0898438,0.6601563-0.2695313,0.9257813
	c-0.1801758,0.2675781-0.4331055,0.4589844-0.7587891,0.578125c0.3764648,0.0849609,0.6782227,0.2792969,0.9042969,0.5820313
	c0.2265625,0.3027344,0.3398438,0.6523438,0.3398438,1.0458984c0,0.6210938-0.1904297,1.0927734-0.5712891,1.4169922
	c-0.3808594,0.3222656-0.9033203,0.484375-1.5678711,0.484375H48.7983398z M49.5600586,93.7802734h1.421875
	c0.4824219,0,0.8496094-0.1005859,1.1010742-0.3017578c0.2519531-0.2001953,0.3779297-0.5,0.3779297-0.8974609
	c0-0.4023438-0.1279297-0.7021484-0.3837891-0.8984375c-0.2563477-0.1972656-0.6362305-0.2949219-1.1396484-0.2949219h-1.3774414
	V93.7802734z M49.5600586,96.9482422h1.7392578c0.4399414,0,0.7797852-0.109375,1.019043-0.328125
	c0.2387695-0.21875,0.3583984-0.5332031,0.3583984-0.9453125c0-0.3818359-0.1206055-0.6835938-0.3618164-0.90625
	s-0.5795898-0.3339844-1.015625-0.3339844h-1.7392578V96.9482422z"/>
<path fill="#1C4423" d="M54.9873047,97.5888672v-6.8681641h0.7617188v2.4882813h1.559082
	c0.6586914,0,1.1728516,0.2021484,1.5424805,0.6064453s0.5546875,0.9277344,0.5546875,1.5703125
	c0,0.6523438-0.1850586,1.1816406-0.5546875,1.5908203c-0.3696289,0.4082031-0.8842773,0.6123047-1.543457,0.6123047H54.9873047z
	 M55.7490234,96.9287109h1.5615234c0.4487305,0,0.7827148-0.1445313,1.0029297-0.4345703s0.3300781-0.6533203,0.3300781-1.0888672
	c0-0.4189453-0.1113281-0.7792969-0.3330078-1.0791016c-0.2226563-0.2998047-0.5556641-0.4501953-1-0.4501953h-1.5615234V96.9287109
	z M60.6113281,97.5888672v-6.8681641h0.7617188v6.8681641H60.6113281z"/>
<path fill="#1C4423" d="M63.2836914,97.5888672v-6.8681641h0.7617188v6.2080078h2.3613281v-6.2080078h0.7617188v6.2080078h2.3486328
	v-6.2080078h0.7617188v6.8681641H63.2836914z"/>
<path fill="#1C4423" d="M71.7324219,95.7607422c0-0.6386719,0.2241211-1.1484375,0.6728516-1.5263672
	c0.4487305-0.3789063,1.0556641-0.5683594,1.8217773-0.5683594h1.199707v-0.8447266
	c0-0.4863281-0.1225586-0.8671875-0.3681641-1.1425781c-0.2456055-0.2744141-0.5883789-0.4121094-1.0283203-0.4121094
	c-0.4106445,0-0.7480469,0.1308594-1.0126953,0.3935547c-0.2641602,0.2626953-0.3964844,0.5839844-0.3964844,0.9648438
	l-0.7109375-0.0068359l-0.0126953-0.0371094c-0.0209961-0.5166016,0.1748047-0.9765625,0.5869141-1.3808594
	c0.4130859-0.4042969,0.940918-0.6064453,1.5839844-0.6064453c0.6347656,0,1.1469727,0.1933594,1.5361328,0.5810547
	c0.3891602,0.3867188,0.5839844,0.9404297,0.5839844,1.6601563v3.3701172c0,0.2822266,0.0151367,0.53125,0.0454102,0.7451172
	c0.0307617,0.2148438,0.0610352,0.4277344,0.0908203,0.6386719h-0.7836914
	c-0.0327148-0.234375-0.0600586-0.4296875-0.081543-0.5859375c-0.0219727-0.1542969-0.0327148-0.3085938-0.0327148-0.4609375
	c-0.2075195,0.3417969-0.4770508,0.625-0.8095703,0.8466797c-0.3320313,0.2226563-0.7011719,0.3330078-1.1074219,0.3330078
	c-0.5668945,0-1.0048828-0.1757813-1.3139648-0.5292969S71.7324219,96.3623047,71.7324219,95.7607422z M72.4941406,95.7861328
	c0,0.3681641,0.097168,0.6679688,0.2919922,0.9013672s0.4677734,0.3486328,0.8188477,0.3486328
	c0.4233398,0,0.7988281-0.1210938,1.1264648-0.3642578c0.328125-0.2431641,0.5600586-0.5537109,0.6953125-0.9306641v-1.484375
	h-1.21875c-0.5205078,0-0.9365234,0.1464844-1.2470703,0.4404297
	C72.6494141,94.9912109,72.4941406,95.3544922,72.4941406,95.7861328z"/>
<path fill="#1C4423" d="M77.9658203,97.5888672v-6.8681641h0.7617188v5.4013672l0.0478516,0.0068359l2.8427734-5.4082031h0.765625
	v6.8681641h-0.7617188v-5.3955078l-0.0429688-0.0068359l-2.84375,5.4023438H77.9658203z M78.5751953,88.0292969l0.0200195-0.0380859
	h0.6274414c0,0.3164063,0.0751953,0.5712891,0.2255859,0.7636719c0.1503906,0.1933594,0.3901367,0.2900391,0.7202148,0.2900391
	c0.3129883,0,0.546875-0.0986328,0.7011719-0.2958984c0.1547852-0.1972656,0.2319336-0.4492188,0.2319336-0.7578125h0.6279297
	l0.0195313,0.0380859c0.0126953,0.4736328-0.1245117,0.8603516-0.4111328,1.1582031
	c-0.2866211,0.2988281-0.6762695,0.4482422-1.1694336,0.4482422c-0.5014648,0-0.8964844-0.1494141-1.1855469-0.4482422
	C78.6943359,88.8896484,78.5581055,88.5029297,78.5751953,88.0292969z"/>
<path fill="#1C4423" d="M83.5834961,91.3876953v-0.6669922h4.7353516v0.6669922H86.300293v6.2011719h-0.7617188v-6.2011719
	H83.5834961z"/>
<path fill="#1C4423" d="M89.0615234,94.7578125v-1.1425781c0-0.8681641,0.2363281-1.5878906,0.7084961-2.1611328
	c0.4726563-0.5742188,1.0415039-0.8603516,1.706543-0.8603516c0.71875,0,1.2763672,0.2568359,1.6738281,0.7714844
	c0.3969727,0.5136719,0.5957031,1.2041016,0.5957031,2.0722656v0.7548828h-3.9228516v0.5654297
	c0,0.6601563,0.1582031,1.2089844,0.4750977,1.6474609c0.3168945,0.4375,0.7456055,0.65625,1.2861328,0.65625
	c0.3759766,0,0.7001953-0.0644531,0.9726563-0.1962891s0.5058594-0.3173828,0.7001953-0.5585938l0.3110352,0.5400391
	c-0.2070313,0.265625-0.4746094,0.4785156-0.8017578,0.6376953c-0.3276367,0.1582031-0.7216797,0.2373047-1.1821289,0.2373047
	c-0.7416992,0-1.347168-0.2773438-1.8173828-0.8339844C89.2963867,96.3310547,89.0615234,95.6210938,89.0615234,94.7578125z
	 M89.8232422,93.5322266h3.1611328v-0.2910156c0-0.5673828-0.1333008-1.0380859-0.3989258-1.4130859
	c-0.2661133-0.3740234-0.6357422-0.5615234-1.1088867-0.5615234c-0.4770508,0-0.8686523,0.2177734-1.175293,0.6542969
	C89.9951172,92.3564453,89.8359375,92.8935547,89.8232422,93.5322266z"/>
<path fill="#1C4423" d="M97.8720703,97.5888672v-6.8681641h0.7617188v3.0722656h2.8945313v-3.0722656h0.7617188v6.8681641
	h-0.7617188V94.453125h-2.8945313v3.1357422H97.8720703z"/>
<path fill="#1C4423" d="M103.8203125,95.7607422c0-0.6386719,0.2236328-1.1484375,0.671875-1.5263672
	c0.4492188-0.3789063,1.0566406-0.5683594,1.8222656-0.5683594h1.1992188v-0.8447266
	c0-0.4863281-0.1220703-0.8671875-0.3671875-1.1425781c-0.2460938-0.2744141-0.5888672-0.4121094-1.0292969-0.4121094
	c-0.4101563,0-0.7480469,0.1308594-1.0117188,0.3935547c-0.2646484,0.2626953-0.3964844,0.5839844-0.3964844,0.9648438
	l-0.7109375-0.0068359l-0.0136719-0.0371094c-0.0205078-0.5166016,0.1748047-0.9765625,0.5878906-1.3808594
	c0.4121094-0.4042969,0.9404297-0.6064453,1.5839844-0.6064453c0.6347656,0,1.1464844,0.1933594,1.5351563,0.5810547
	c0.3896484,0.3867188,0.5839844,0.9404297,0.5839844,1.6601563v3.3701172c0,0.2822266,0.015625,0.53125,0.0458984,0.7451172
	c0.0302734,0.2148438,0.0615234,0.4277344,0.0908203,0.6386719h-0.7832031
	c-0.0332031-0.234375-0.0605469-0.4296875-0.0820313-0.5859375c-0.0214844-0.1542969-0.0332031-0.3085938-0.0332031-0.4609375
	c-0.2070313,0.3417969-0.4765625,0.625-0.8085938,0.8466797c-0.3320313,0.2226563-0.7011719,0.3330078-1.1074219,0.3330078
	c-0.5673828,0-1.0058594-0.1757813-1.3144531-0.5292969S103.8203125,96.3623047,103.8203125,95.7607422z M104.5820313,95.7861328
	c0,0.3681641,0.0966797,0.6679688,0.2910156,0.9013672c0.1953125,0.2333984,0.46875,0.3486328,0.8193359,0.3486328
	c0.4228516,0,0.7988281-0.1210938,1.1269531-0.3642578c0.3271484-0.2431641,0.5595703-0.5537109,0.6943359-0.9306641v-1.484375
	h-1.21875c-0.5195313,0-0.9355469,0.1464844-1.2470703,0.4404297
	C104.7373047,94.9912109,104.5820313,95.3544922,104.5820313,95.7861328z"/>
<path fill="#1C4423" d="M109.4755859,96.9287109h0.4208984c0.2890625-0.4140625,0.5234375-0.8769531,0.7011719-1.3867188
	c0.1796875-0.5097656,0.2890625-1.2871094,0.3320313-2.3330078l0.0371094-2.4882813h3.5292969v6.2080078h0.6416016
	l-0.0693359,2.6787109h-0.6923828v-2.0185547h-4.1455078v2.0185547h-0.6914063L109.4755859,96.9287109z M110.7216797,96.9287109
	h3.0126953v-5.5097656h-1.9804688l-0.0625,1.7685547c-0.0390625,0.8974609-0.1425781,1.6503906-0.3144531,2.2568359
	C111.2060547,96.0507813,110.9882813,96.5458984,110.7216797,96.9287109z"/>
<path fill="#1C4423" d="M116.1210938,94.7578125v-1.1425781c0-0.8681641,0.2363281-1.5878906,0.7089844-2.1611328
	c0.4726563-0.5742188,1.0410156-0.8603516,1.7070313-0.8603516c0.71875,0,1.2753906,0.2568359,1.6738281,0.7714844
	c0.3964844,0.5136719,0.5957031,1.2041016,0.5957031,2.0722656v0.7548828h-3.9238281v0.5654297
	c0,0.6601563,0.1582031,1.2089844,0.4755859,1.6474609c0.3173828,0.4375,0.7451172,0.65625,1.2861328,0.65625
	c0.3759766,0,0.7001953-0.0644531,0.9726563-0.1962891s0.5058594-0.3173828,0.7001953-0.5585938l0.3115234,0.5400391
	c-0.2070313,0.265625-0.4746094,0.4785156-0.8027344,0.6376953c-0.3271484,0.1582031-0.7207031,0.2373047-1.1816406,0.2373047
	c-0.7421875,0-1.3476563-0.2773438-1.8173828-0.8339844C116.3564453,96.3310547,116.1210938,95.6210938,116.1210938,94.7578125z
	 M116.8828125,93.5322266h3.1621094v-0.2910156c0-0.5673828-0.1337891-1.0380859-0.3994141-1.4130859
	c-0.2666016-0.3740234-0.6357422-0.5615234-1.1083984-0.5615234c-0.4775391,0-0.8691406,0.2177734-1.1757813,0.6542969
	C117.0546875,92.3564453,116.8964844,92.8935547,116.8828125,93.5322266z"/>
<path fill="#1C4423" d="M121.453125,97.5888672l2.2851563-3.5859375l-2.0566406-3.2822266h0.9277344l1.7197266,3.0087891h0.7236328
	v-3.0087891h0.7617188v3.0087891h0.7304688l1.7197266-3.0087891h0.9267578l-2.0625,3.2822266l2.2910156,3.5859375h-0.9648438
	l-1.9238281-3.1611328h-0.7167969v3.1611328h-0.7617188v-3.1611328h-0.7236328l-1.9111328,3.1611328H121.453125z"/>
<path fill="#1C4423" d="M130.5498047,97.5888672v-6.8681641h0.7617188v3.0722656h2.8945313v-3.0722656h0.7617188v6.8681641
	h-0.7617188V94.453125h-2.8945313v3.1357422H130.5498047z"/>
<path fill="#1C4423" d="M136.421875,94.6630859v-1.0097656c0-0.8886719,0.2275391-1.6210938,0.6835938-2.1962891
	c0.4570313-0.5751953,1.0703125-0.8632813,1.8388672-0.8632813c0.7695313,0,1.3837891,0.2861328,1.8417969,0.8603516
	c0.4580078,0.5732422,0.6884766,1.3066406,0.6884766,2.1992188v1.0097656c0,0.9003906-0.2285156,1.6367188-0.6855469,2.2050781
	c-0.4560547,0.5693359-1.0683594,0.8535156-1.8378906,0.8535156c-0.7734375,0-1.3886719-0.2841797-1.8457031-0.8535156
	C136.6494141,96.2998047,136.421875,95.5634766,136.421875,94.6630859z M137.1835938,94.6630859
	c0,0.6855469,0.1523438,1.2558594,0.4570313,1.7128906c0.3056641,0.4570313,0.7421875,0.6855469,1.3105469,0.6855469
	c0.5546875,0,0.9873047-0.2285156,1.296875-0.6884766c0.3095703-0.4589844,0.4648438-1.0292969,0.4648438-1.7099609v-1.0097656
	c0-0.6728516-0.1552734-1.2382813-0.4648438-1.6982422c-0.3095703-0.4589844-0.7441406-0.6884766-1.3037109-0.6884766
	c-0.5634766,0-0.9980469,0.2294922-1.3037109,0.6884766c-0.3046875,0.4599609-0.4570313,1.0253906-0.4570313,1.6982422V94.6630859z"
	/>
<path fill="#1C4423" d="M142.5976563,94.6943359v-1.0664063c0-0.8847656,0.2128906-1.6113281,0.6376953-2.1806641
	c0.4257813-0.5693359,1.0341797-0.8535156,1.8251953-0.8535156c0.6386719,0,1.1669922,0.2236328,1.5839844,0.6699219
	c0.4160156,0.4462891,0.6191406,1.0332031,0.6054688,1.7607422l-0.0117188,0.0322266h-0.6796875
	c0-0.5458984-0.1425781-0.9804688-0.4287109-1.3046875c-0.2851563-0.3232422-0.6416016-0.4853516-1.0693359-0.4853516
	c-0.5917969,0-1.0234375,0.2226563-1.2949219,0.6699219c-0.2714844,0.4462891-0.40625,1.0097656-0.40625,1.6914063v1.0664063
	c0,0.6894531,0.1347656,1.2568359,0.40625,1.7011719s0.703125,0.6660156,1.2949219,0.6660156
	c0.3984375,0,0.7470703-0.1425781,1.046875-0.4277344c0.3007813-0.2861328,0.4511719-0.6806641,0.4511719-1.1835938h0.6728516
	L147.25,95.4873047c0.0136719,0.6347656-0.2011719,1.1660156-0.640625,1.59375s-0.9570313,0.640625-1.5488281,0.640625
	c-0.7910156,0-1.3994141-0.2822266-1.8251953-0.8466797C142.8105469,96.3095703,142.5976563,95.5830078,142.5976563,94.6943359z"/>
<path fill="#1C4423" d="M148.0507813,91.3876953v-0.6669922h4.734375v0.6669922h-2.0175781v6.2011719h-0.7617188v-6.2011719
	H148.0507813z"/>
<path fill="#1C4423" d="M154.0039063,97.5888672v-6.8681641h0.7617188v2.4882813h1.5595703
	c0.6591797,0,1.1728516,0.2021484,1.5419922,0.6064453c0.3701172,0.4042969,0.5546875,0.9277344,0.5546875,1.5703125
	c0,0.6523438-0.1845703,1.1816406-0.5546875,1.5908203c-0.3691406,0.4082031-0.8837891,0.6123047-1.5429688,0.6123047H154.0039063z
	 M154.765625,96.9287109h1.5625c0.4482422,0,0.7822266-0.1445313,1.0019531-0.4345703
	c0.2207031-0.2900391,0.3300781-0.6533203,0.3300781-1.0888672c0-0.4189453-0.1103516-0.7792969-0.3330078-1.0791016
	c-0.2216797-0.2998047-0.5556641-0.4501953-0.9990234-0.4501953h-1.5625V96.9287109z"/>
<path fill="#1C4423" d="M73.484375,107.4599609v-0.9902344c0-1.3251953,0.2294922-2.3925781,0.6879883-3.203125
	c0.4589844-0.8105469,1.0761719-1.2910156,1.8515625-1.4433594c0.487793-0.0976563,0.8383789-0.2285156,1.0512695-0.390625
	c0.2128906-0.1630859,0.3193359-0.3964844,0.3193359-0.7011719h0.6337891l0.0136719,0.0371094
	c0.0170898,0.5839844-0.1347656,0.9970703-0.4545898,1.2382813c-0.3193359,0.2412109-0.7905273,0.4101563-1.4135742,0.5078125
	c-0.5048828,0.0839844-0.9379883,0.3525391-1.2988281,0.8027344c-0.3613281,0.4511719-0.5791016,1.0585938-0.6542969,1.8251953
	l0.0253906,0.0322266c0.1962891-0.3007813,0.4589844-0.5419922,0.7885742-0.7246094
	c0.3295898-0.1816406,0.6884766-0.2724609,1.0766602-0.2724609c0.7338867,0,1.3208008,0.2861328,1.7602539,0.8603516
	c0.4394531,0.5732422,0.6591797,1.3105469,0.6591797,2.2119141v0.2099609c0,0.9599609-0.2314453,1.7441406-0.6938477,2.3515625
	s-1.0791016,0.9101563-1.8505859,0.9101563c-0.7626953,0-1.3706055-0.3027344-1.8232422-0.9101563
	S73.484375,108.4199219,73.484375,107.4599609z M74.2460938,107.4599609c0,0.7402344,0.1513672,1.359375,0.4536133,1.8564453
	c0.3027344,0.4970703,0.7314453,0.7451172,1.2866211,0.7451172c0.5620117,0,0.9995117-0.2480469,1.3129883-0.7451172
	c0.3129883-0.4970703,0.4697266-1.1162109,0.4697266-1.8564453V107.25c0-0.6767578-0.1567383-1.2490234-0.4697266-1.7138672
	c-0.3134766-0.4648438-0.7529297-0.6982422-1.3193359-0.6982422c-0.5507813,0-0.9775391,0.2333984-1.2802734,0.7011719
	c-0.3022461,0.4677734-0.4536133,1.0380859-0.4536133,1.7109375V107.4599609z"/>
<path fill="#1C4423" d="M79.762207,110.5888672v-6.8681641h0.7617188v5.4013672l0.0380859,0.0068359l2.8564453-5.4082031h0.7617188
	v6.8681641H83.418457v-5.3955078l-0.0380859-0.0068359l-2.8564453,5.4023438H79.762207z"/>
<path fill="#1C4423" d="M85.6845703,108.6621094l0.0126953-0.0410156h0.7109375c0,0.4082031,0.1376953,0.75,0.4125977,1.0263672
	s0.6240234,0.4140625,1.0473633,0.4140625c0.4570313,0,0.8095703-0.1210938,1.0566406-0.3652344
	c0.2480469-0.2441406,0.371582-0.5703125,0.371582-0.9765625c0-0.4492188-0.1132813-0.7773438-0.3393555-0.9833984
	c-0.2265625-0.2060547-0.5766602-0.3085938-1.0507813-0.3085938h-0.9013672v-0.6787109H87.90625
	c0.4570313,0,0.7861328-0.1035156,0.9873047-0.3115234c0.2006836-0.2080078,0.3012695-0.5058594,0.3012695-0.8955078
	c0-0.3759766-0.1079102-0.6816406-0.3237305-0.9169922c-0.2158203-0.234375-0.550293-0.3525391-1.0029297-0.3525391
	c-0.3808594,0-0.7036133,0.1240234-0.9677734,0.3720703c-0.2646484,0.2470703-0.3969727,0.5595703-0.3969727,0.9365234h-0.7236328
	l-0.0126953-0.0390625c-0.0209961-0.5664063,0.1748047-1.0292969,0.5874023-1.3896484
	c0.4130859-0.3603516,0.9174805-0.5400391,1.5136719-0.5400391c0.6582031,0,1.1708984,0.1689453,1.5375977,0.5048828
	c0.3671875,0.3369141,0.5507813,0.8154297,0.5507813,1.4384766c0,0.3300781-0.0849609,0.6279297-0.2553711,0.8945313
	s-0.4111328,0.4716797-0.722168,0.6152344c0.3554688,0.1279297,0.6240234,0.3300781,0.8061523,0.6074219
	c0.1821289,0.2783203,0.2729492,0.6230469,0.2729492,1.0332031c0,0.6259766-0.2011719,1.1152344-0.6025391,1.4677734
	c-0.4018555,0.3525391-0.9311523,0.5292969-1.5874023,0.5292969c-0.5966797,0-1.1152344-0.1767578-1.5551758-0.5292969
	S85.6635742,109.3173828,85.6845703,108.6621094z"/>
<path fill="#1C4423" d="M91.5751953,110.5888672v-6.8681641h0.7617188v3.0722656h2.8945313v-3.0722656h0.7617188v6.8681641
	h-0.7617188v-3.1357422h-2.8945313v3.1357422H91.5751953z"/>
<path fill="#1C4423" d="M97.4589844,107.7578125v-1.1425781c0-0.8681641,0.2363281-1.5878906,0.7089844-2.1611328
	c0.4726563-0.5742188,1.0410156-0.8603516,1.7070313-0.8603516c0.71875,0,1.2753906,0.2568359,1.6738281,0.7714844
	c0.3964844,0.5136719,0.5957031,1.2041016,0.5957031,2.0722656v0.7548828h-3.9238281v0.5654297
	c0,0.6601563,0.1582031,1.2089844,0.4755859,1.6474609c0.3173828,0.4375,0.7451172,0.65625,1.2861328,0.65625
	c0.3759766,0,0.7001953-0.0644531,0.9726563-0.1962891s0.5058594-0.3173828,0.7001953-0.5585938l0.3115234,0.5400391
	c-0.2070313,0.265625-0.4746094,0.4785156-0.8027344,0.6376953c-0.3271484,0.1582031-0.7207031,0.2373047-1.1816406,0.2373047
	c-0.7421875,0-1.3476563-0.2773438-1.8173828-0.8339844C97.6943359,109.3310547,97.4589844,108.6210938,97.4589844,107.7578125z
	 M98.2207031,106.5322266h3.1621094v-0.2910156c0-0.5673828-0.1337891-1.0380859-0.3994141-1.4130859
	c-0.2666016-0.3740234-0.6357422-0.5615234-1.1083984-0.5615234c-0.4775391,0-0.8691406,0.2177734-1.1757813,0.6542969
	C98.3925781,105.3564453,98.234375,105.8935547,98.2207031,106.5322266z"/>
<path fill="#1C4423" d="M103.1855469,107.6943359v-1.0664063c0-0.8847656,0.2119141-1.6113281,0.6376953-2.1806641
	c0.4248047-0.5693359,1.0332031-0.8535156,1.8251953-0.8535156c0.6386719,0,1.1660156,0.2236328,1.5830078,0.6699219
	s0.6191406,1.0332031,0.6064453,1.7607422l-0.0126953,0.0322266h-0.6787109c0-0.5458984-0.1435547-0.9804688-0.4287109-1.3046875
	c-0.2861328-0.3232422-0.6425781-0.4853516-1.0693359-0.4853516c-0.5927734,0-1.0244141,0.2226563-1.2949219,0.6699219
	c-0.2714844,0.4462891-0.40625,1.0097656-0.40625,1.6914063v1.0664063c0,0.6894531,0.1347656,1.2568359,0.40625,1.7011719
	c0.2705078,0.4443359,0.7021484,0.6660156,1.2949219,0.6660156c0.3974609,0,0.7460938-0.1425781,1.046875-0.4277344
	c0.3007813-0.2861328,0.4511719-0.6806641,0.4511719-1.1835938h0.671875l0.0195313,0.0371094
	c0.0126953,0.6347656-0.2011719,1.1660156-0.640625,1.59375c-0.4404297,0.4277344-0.9570313,0.640625-1.5488281,0.640625
	c-0.7919922,0-1.4003906-0.2822266-1.8251953-0.8466797C103.3974609,109.3095703,103.1855469,108.5830078,103.1855469,107.6943359z"
	/>
<path fill="#1C4423" d="M108.9238281,107.6943359v-1.0664063c0-0.8847656,0.2119141-1.6113281,0.6376953-2.1806641
	c0.4248047-0.5693359,1.0332031-0.8535156,1.8251953-0.8535156c0.6386719,0,1.1660156,0.2236328,1.5830078,0.6699219
	s0.6191406,1.0332031,0.6064453,1.7607422l-0.0126953,0.0322266h-0.6787109c0-0.5458984-0.1435547-0.9804688-0.4287109-1.3046875
	c-0.2861328-0.3232422-0.6425781-0.4853516-1.0693359-0.4853516c-0.5927734,0-1.0244141,0.2226563-1.2949219,0.6699219
	c-0.2714844,0.4462891-0.40625,1.0097656-0.40625,1.6914063v1.0664063c0,0.6894531,0.1347656,1.2568359,0.40625,1.7011719
	c0.2705078,0.4443359,0.7021484,0.6660156,1.2949219,0.6660156c0.3974609,0,0.7460938-0.1425781,1.046875-0.4277344
	c0.3007813-0.2861328,0.4511719-0.6806641,0.4511719-1.1835938h0.671875l0.0195313,0.0371094
	c0.0126953,0.6347656-0.2011719,1.1660156-0.640625,1.59375c-0.4404297,0.4277344-0.9570313,0.640625-1.5488281,0.640625
	c-0.7919922,0-1.4003906-0.2822266-1.8251953-0.8466797C109.1357422,109.3095703,108.9238281,108.5830078,108.9238281,107.6943359z"
	/>
<path fill="#1C4423" d="M114.7128906,108.7607422c0-0.6386719,0.2236328-1.1484375,0.671875-1.5263672
	c0.4492188-0.3789063,1.0566406-0.5683594,1.8222656-0.5683594h1.1992188v-0.8447266
	c0-0.4863281-0.1220703-0.8671875-0.3671875-1.1425781c-0.2460938-0.2744141-0.5888672-0.4121094-1.0292969-0.4121094
	c-0.4101563,0-0.7480469,0.1308594-1.0117188,0.3935547c-0.2646484,0.2626953-0.3964844,0.5839844-0.3964844,0.9648438
	l-0.7109375-0.0068359l-0.0136719-0.0371094c-0.0205078-0.5166016,0.1748047-0.9765625,0.5878906-1.3808594
	c0.4121094-0.4042969,0.9404297-0.6064453,1.5839844-0.6064453c0.6347656,0,1.1464844,0.1933594,1.5351563,0.5810547
	c0.3896484,0.3867188,0.5839844,0.9404297,0.5839844,1.6601563v3.3701172c0,0.2822266,0.015625,0.53125,0.0458984,0.7451172
	c0.0302734,0.2148438,0.0615234,0.4277344,0.0908203,0.6386719h-0.7832031
	c-0.0332031-0.234375-0.0605469-0.4296875-0.0820313-0.5859375c-0.0214844-0.1542969-0.0332031-0.3085938-0.0332031-0.4609375
	c-0.2070313,0.3417969-0.4765625,0.625-0.8085938,0.8466797c-0.3320313,0.2226563-0.7011719,0.3330078-1.1074219,0.3330078
	c-0.5673828,0-1.0058594-0.1757813-1.3144531-0.5292969S114.7128906,109.3623047,114.7128906,108.7607422z M115.4746094,108.7861328
	c0,0.3681641,0.0966797,0.6679688,0.2910156,0.9013672c0.1953125,0.2333984,0.46875,0.3486328,0.8193359,0.3486328
	c0.4228516,0,0.7988281-0.1210938,1.1269531-0.3642578c0.3271484-0.2431641,0.5595703-0.5537109,0.6943359-0.9306641v-1.484375
	h-1.21875c-0.5195313,0-0.9355469,0.1464844-1.2470703,0.4404297
	C115.6298828,107.9912109,115.4746094,108.3544922,115.4746094,108.7861328z"/>
</svg>
