<?xml version="1.0" encoding="utf-8"?>
<!-- Generator: Adobe Illustrator 15.0.0, SVG Export Plug-In  -->
<!DOCTYPE svg PUBLIC "-//W3C//DTD SVG 1.1//EN" "http://www.w3.org/Graphics/SVG/1.1/DTD/svg11.dtd" [
	<!ENTITY ns_flows "http://ns.adobe.com/Flows/1.0/">
]>
<svg version="1.1"
	 xmlns="http://www.w3.org/2000/svg" xmlns:xlink="http://www.w3.org/1999/xlink" xmlns:a="http://ns.adobe.com/AdobeSVGViewerExtensions/3.0/"
	 x="0px" y="0px" width="229px" height="176px" viewBox="-18.0214844 -14.0126953 229 176"
	 enable-background="new -18.0214844 -14.0126953 229 176" xml:space="preserve">
<defs>
</defs>
<polygon fill="#5FC774" points="21.5791016,94.9394531 0.4658203,107.5449219 25.0742188,107.5449219 25.0742188,81.1650391 
	0.4492188,81.1650391 22.277832,94.3007813 "/>
<rect x="0.4492188" y="80.6005859" fill="#255E30" width="24.625" height="0.9140625"/>
<polygon fill="#255E30" points="22.0541992,93.8964844 22.4980469,94.6894531 0.4438477,108.0136719 0,107.2167969 "/>
<polygon fill="#255E30" points="0.4458008,80.5966797 22.5078125,93.9023438 22.0629883,94.6972656 0.0019531,81.3896484 "/>
<rect x="24.6489258" y="81.0595703" fill="#5FC774" width="22.065918" height="26.4833984"/>
<rect x="23.0419922" y="107.0771484" fill="#255E30" width="23.6738281" height="0.9248047"/>
<rect x="21.9741211" y="80.6005859" fill="#255E30" width="24.7416992" height="0.9140625"/>
<rect x="0.4658203" y="107.0771484" fill="#255E30" width="24.6083984" height="0.9248047"/>
<polygon fill="#255E30" points="46.5541992,80.6171875 26.2148438,84.9941406 26.2148438,86.0126953 45.4741211,81.8642578 
	45.4741211,85.4775391 46.7158203,85.4775391 46.7158203,81.5966797 46.7158203,81.5556641 46.7158203,81.0878906 "/>
<polygon fill="#5FC774" points="171.3769531,94.9902344 192.4902344,107.5917969 167.8828125,107.5917969 167.8828125,81.2167969 
	192.5078125,81.2167969 170.6796875,94.3515625 "/>
<rect x="167.8828125" y="80.6474609" fill="#255E30" width="24.625" height="0.9179688"/>
<polygon fill="#255E30" points="170.9042969,93.9472656 170.4589844,94.7412109 192.5136719,108.0625 192.9570313,107.2675781 "/>
<polygon fill="#255E30" points="192.5097656,80.6455078 170.4492188,93.9541016 170.8925781,94.7470703 192.9550781,81.4404297 "/>
<rect x="146.2402344" y="81.1083984" fill="#5FC774" width="22.0664063" height="26.4824219"/>
<rect x="146.2402344" y="107.1289063" fill="#255E30" width="23.6757813" height="0.921875"/>
<rect x="146.2402344" y="80.6474609" fill="#255E30" width="24.7421875" height="0.9179688"/>
<rect x="167.8828125" y="107.1289063" fill="#255E30" width="24.6054688" height="0.921875"/>
<polygon fill="#255E30" points="146.4023438,80.6679688 166.7402344,85.0449219 166.7402344,86.0615234 147.4824219,81.9150391 
	147.4824219,85.5283203 146.2402344,85.5283203 146.2402344,81.6494141 146.2402344,81.6044922 146.2402344,81.1347656 "/>
<polygon fill="#32773E" points="146.2402344,81.1650391 146.2402344,86.8339844 161.3574219,90.4335938 162.5449219,85.0507813 "/>
<polygon fill="#32773E" points="46.7158203,81.1171875 30.4111328,85.0019531 31.6000977,90.3828125 46.7158203,86.7841797 "/>
<path fill="#878A8C" d="M156.6503906,28.4091797c-1.1308594-1.3051758-2.7255859-2.0561523-4.4101563-2.1020508
	c-13.0175781-0.347168-29.4785156-14.4462891-40.3808594-19.9780273
	c-6.7255859-3.4111328-11.1679688-5.6572266-14.4912109-6.2490234C97.0175781,0.0341797,96.6821289,0,96.3408203,0
	C96,0,95.6650391,0.0341797,95.3188477,0.0869141c-3.3349609,0.5932617-7.7729492,2.8378906-14.4970703,6.2460938
	C69.9301758,11.862793,53.4570313,25.96875,40.4389648,26.3081055c-1.6777344,0.0458984-3.277832,0.8027344-4.4121094,2.1020508
	c-1.1459961,1.2978516-1.7358398,3.0297852-1.6518555,4.7919922c2.7978516,57.59375,23.1889648,93.2412109,58.9711914,113.9570313
	c0.9306641,0.5410156,1.9628906,0.8154297,2.987793,0.8154297c1.0292969,0,2.0585938-0.2744141,2.9990234-0.8154297
	c35.7744141-20.7089844,56.1640625-56.3613281,58.9628906-113.9580078
	C158.3867188,31.4389648,157.7929688,29.7080078,156.6503906,28.4091797z M151.3828125,37.6860352
	c-2.4863281,51.2631836-20.6367188,82.9916992-52.4785156,101.4272461c-0.8339844,0.4785156-1.7558594,0.7236328-2.668457,0.7236328
	c-0.9150391,0-1.8339844-0.25-2.6606445-0.7236328C61.7299805,120.6728516,43.5830078,88.9492188,41.0952148,37.6860352
	c-0.0771484-1.565918,0.4487305-3.1079102,1.4697266-4.2651367c1.0102539-1.1547852,2.434082-1.8291016,3.9301758-1.8691406
	C58.0800781,31.25,72.7387695,18.6958008,82.4331055,13.7758789c5.9829102-3.0356445,9.9379883-5.0317383,12.902832-5.5610352
	c0.3081055-0.046875,0.6069336-0.074707,0.9101563-0.074707c0.3007813,0,0.6000977,0.027832,0.9140625,0.0708008
	c2.9589844,0.5283203,6.9160156,2.5249023,12.8984375,5.559082c9.7011719,4.9248047,24.3525391,17.4750977,35.9384766,17.7817383
	c1.5,0.0410156,2.921875,0.7089844,3.9257813,1.8691406C150.9394531,34.5761719,151.4707031,36.1191406,151.3828125,37.6860352z"/>
<rect x="26.2880859" y="85.6533203" fill="#5FC774" width="140.0947266" height="30.6035156"/>
<path fill="#255E30" d="M166.9882813,116.8867188H25.6801758V85.0224609h141.309082v31.8642578H166.9882813z M26.8959961,115.625
	h138.8793945V86.2841797H26.8959961V115.625z"/>
<rect x="27.7709961" y="93.3203125" fill="none" width="137.4145508" height="15.2705078"/>
<polygon fill="#878A8C" points="73.8217773,43.5834961 73.8217773,43.5385742 81.3071289,38.1469727 81.3071289,38.1645508 
	94.6591797,28.4995117 96.3623047,27.262207 98.0292969,28.5004883 125.0947266,48.0732422 126.9277344,45.2382813 
	98.0292969,24.3398438 96.3623047,23.1015625 94.6601563,24.3388672 81.3071289,34.0039063 81.3071289,29.0844727 
	73.8222656,29.0844727 73.8222656,39.4228516 66.0302734,45.0639648 67.8647461,47.8964844 "/>
<path fill="#878A8C" d="M111.4560547,53.9912109c-0.0664063-0.4550781-0.3505859-0.8491211-0.7626953-1.0488281
	c-0.4160156-0.2026367-0.8974609-0.1845703-1.2978516,0.0473633l-8.9443359,5.1943359
	c-0.0556641,0.0283203-0.1074219,0.0649414-0.1542969,0.1025391l-1.3828125,0.7988281
	c-0.4287109,0.2456055-0.6884766,0.7011719-0.6884766,1.1958008c-0.0019531,0.4902344,0.2636719,0.9482422,0.6875,1.1943359
	l7.7929688,4.5292969c0.2216797,0.1254883,0.4580078,0.1835938,0.6933594,0.1835938
	c0.4277344,0,0.8466797-0.1977539,1.1142578-0.5654297c1.9970703-2.7211914,3.0957031-6.0722656,3.0957031-9.4326172
	C111.609375,55.465332,111.5595703,54.7255859,111.4560547,53.9912109z"/>
<path fill="#878A8C" d="M85.9506836,45.8515625l8.8803711,5.1049805c0.0449219,0.0253906,0.0908203,0.0498047,0.1386719,0.0703125
	l1.4501953,0.840332c0.2158203,0.1245117,0.4511719,0.1835938,0.6884766,0.1835938s0.4785156-0.0625,0.6914063-0.1835938
	c0.4277344-0.246582,0.6865234-0.7021484,0.6865234-1.1958008v-9.0219727c0-0.7060547-0.5322266-1.2983398-1.2324219-1.3735352
	c-4.0771484-0.4360352-8.2167969,0.7670898-11.4702148,3.2880859c-0.3681641,0.2807617-0.5644531,0.7290039-0.5336914,1.1875
	C85.2939453,45.2084961,85.5532227,45.6225586,85.9506836,45.8515625z"/>
<path fill="#878A8C" d="M100.4521484,55.9179688c0.2138672,0.125,0.4492188,0.184082,0.6884766,0.184082
	c0.2373047,0,0.4794922-0.0620117,0.6894531-0.1855469l7.796875-4.5273438
	c0.6132813-0.355957,0.8564453-1.1166992,0.5693359-1.7602539c-1.6904297-3.7573242-4.7207031-6.6875-8.5332031-8.2480469
	c-0.4257813-0.175293-0.9072266-0.1279297-1.2929688,0.1303711c-0.3818359,0.2558594-0.6142578,0.6860352-0.6142578,1.1469727
	v12.0625C99.7607422,55.2172852,100.0214844,55.6733398,100.4521484,55.9179688z"/>
<path fill="#878A8C" d="M105.1904297,66.5830078l-10.4130859-6.0493164
	c-0.4277344-0.2485352-0.9511719-0.2509766-1.3837891-0.0024414c-0.4287109,0.2446289-0.6923828,0.7011719-0.6923828,1.1972656
	v9.0107422c0,0.7089844,0.5361328,1.296875,1.2392578,1.3730469c0.5556641,0.0585938,1.1171875,0.0878906,1.6582031,0.0878906
	c3.4824219,0,6.9433594-1.1796875,9.7441406-3.3256836c0.3662109-0.2832031,0.5683594-0.7246094,0.5332031-1.1865234
	C105.8457031,67.2294922,105.5908203,66.815918,105.1904297,66.5830078z"/>
<path fill="#878A8C" d="M92.2275391,50.9155273l-7.7856445-4.4755859c-0.6123047-0.3515625-1.3911133-0.184082-1.8061523,0.3881836
	c-1.9619141,2.7109375-3.0458984,6.0380859-3.0458984,9.3637695c0,0.6850586,0.0429688,1.3725586,0.1289063,2.0449219
	c0.0600586,0.4570313,0.3393555,0.855957,0.75,1.0605469c0.1962891,0.0986328,0.4082031,0.1459961,0.6181641,0.1459961
	c0.234375,0,0.4731445-0.0595703,0.6855469-0.1806641l10.453125-5.9487305
	c0.4296875-0.2436523,0.6943359-0.7001953,0.6943359-1.1943359C92.9199219,51.6206055,92.6552734,51.1625977,92.2275391,50.9155273z
	"/>
<path fill="#878A8C" d="M90.7509766,56.3959961c-0.4257813-0.2485352-0.9492188-0.2504883-1.3769531-0.0078125l-7.8613281,4.4765625
	c-0.6157227,0.3481445-0.8662109,1.1044922-0.5839844,1.7529297c1.6787109,3.8305664,4.7333984,6.8076172,8.6054688,8.3930664
	c0.1689453,0.0664063,0.3447266,0.1015625,0.5224609,0.1015625c0.2724609,0,0.5371094-0.0800781,0.7734375-0.2363281
	c0.3798828-0.2578125,0.6103516-0.6850586,0.6103516-1.1469727V57.5908203
	C91.4365234,57.097168,91.1767578,56.6411133,90.7509766,56.3959961z"/>
<path fill="#878A8C" d="M95.5976563,35.5874023c-11.362793,0-20.6054688,9.2426758-20.6054688,20.6044922
	s9.2426758,20.605957,20.6054688,20.605957c11.3642578,0,20.6054688-9.2441406,20.6054688-20.605957
	S106.9589844,35.5874023,95.5976563,35.5874023z M95.5976563,74.0322266c-9.8383789,0-17.8413086-8.0014648-17.8413086-17.840332
	c0-9.8374023,8.0053711-17.8408203,17.8413086-17.8408203c9.8398438,0,17.8427734,8.0048828,17.8427734,17.8408203
	C113.4423828,66.0307617,105.4375,74.0322266,95.5976563,74.0322266z"/>
<path fill="#1C4423" d="M39.1567383,98.4521484V88.2861328h0.7617188v4.7685547h4.1513672v-4.7685547h0.7617188v10.1660156
	h-0.7617188v-4.671875H39.918457v4.671875H39.1567383z"/>
<path fill="#1C4423" d="M46.5014648,96.4414063c0-0.703125,0.2241211-1.2626953,0.6728516-1.6796875
	s1.0556641-0.6240234,1.8217773-0.6240234h1.199707v-0.9296875c0-0.5351563-0.1225586-0.953125-0.3681641-1.2558594
	s-0.5883789-0.4550781-1.0283203-0.4550781c-0.4106445,0-0.7480469,0.1445313-1.012207,0.4335938
	c-0.2646484,0.2890625-0.3969727,0.6425781-0.3969727,1.0605469l-0.7109375-0.0058594l-0.0126953-0.0429688
	c-0.0209961-0.5673828,0.1743164-1.0732422,0.5874023-1.5175781c0.4121094-0.4453125,0.9404297-0.6679688,1.5834961-0.6679688
	c0.6347656,0,1.1469727,0.2138672,1.5361328,0.6396484s0.5839844,1.0341797,0.5839844,1.8251953v3.7089844
	c0,0.3105469,0.0151367,0.5839844,0.0454102,0.8203125c0.0307617,0.2353516,0.0610352,0.46875,0.0908203,0.7011719h-0.7836914
	c-0.0327148-0.2578125-0.0600586-0.4726563-0.081543-0.6445313c-0.0219727-0.1699219-0.0327148-0.3398438-0.0327148-0.5078125
	c-0.2075195,0.3769531-0.4770508,0.6875-0.809082,0.9326172c-0.3325195,0.2441406-0.7016602,0.3662109-1.1079102,0.3662109
	c-0.5668945,0-1.0048828-0.1943359-1.3139648-0.5830078S46.5014648,97.1025391,46.5014648,96.4414063z M47.2631836,96.4697266
	c0,0.4042969,0.097168,0.734375,0.2919922,0.9902344c0.1948242,0.2568359,0.4677734,0.3847656,0.8188477,0.3847656
	c0.4233398,0,0.7988281-0.1337891,1.1269531-0.4013672c0.3276367-0.2675781,0.5595703-0.6083984,0.6948242-1.0224609v-1.6347656
	h-1.21875c-0.5205078,0-0.9360352,0.1621094-1.2475586,0.4853516
	C47.4189453,95.5947266,47.2631836,95.9941406,47.2631836,96.4697266z"/>
<path fill="#1C4423" d="M52.4174805,95.0097656v-1.0888672c0-1.4570313,0.2294922-2.6308594,0.6879883-3.5234375
	c0.4589844-0.890625,1.0761719-1.4199219,1.8515625-1.5878906c0.487793-0.1074219,0.8383789-0.25,1.0512695-0.4296875
	s0.3193359-0.4355469,0.3193359-0.7714844h0.6337891l0.0136719,0.0419922
	c0.0170898,0.6425781-0.1347656,1.0966797-0.4545898,1.3613281c-0.3193359,0.265625-0.7905273,0.4521484-1.4135742,0.5585938
	c-0.5048828,0.0927734-0.9379883,0.3876953-1.2988281,0.8837891c-0.3613281,0.4960938-0.5791016,1.1640625-0.6542969,2.0078125
	l0.0253906,0.0341797c0.1962891-0.3310547,0.4589844-0.5957031,0.7885742-0.7958984s0.6884766-0.3007813,1.0766602-0.3007813
	c0.7338867,0,1.3208008,0.3164063,1.7602539,0.9472656s0.6591797,1.4414063,0.6591797,2.4326172v0.2304688
	c0,1.0566406-0.2314453,1.9189453-0.6938477,2.5869141s-1.0791016,1.0019531-1.8505859,1.0019531
	c-0.7626953,0-1.3706055-0.3339844-1.8232422-1.0019531S52.4174805,96.0664063,52.4174805,95.0097656z M53.1791992,95.0097656
	c0,0.8154297,0.1513672,1.4951172,0.4536133,2.0419922c0.3027344,0.546875,0.7314453,0.8203125,1.2866211,0.8203125
	c0.5620117,0,0.9995117-0.2734375,1.3129883-0.8203125c0.3129883-0.546875,0.4697266-1.2265625,0.4697266-2.0419922v-0.2304688
	c0-0.7451172-0.1567383-1.3730469-0.4697266-1.8857422c-0.3134766-0.5117188-0.7529297-0.7675781-1.3193359-0.7675781
	c-0.5507813,0-0.9775391,0.2578125-1.2802734,0.7714844c-0.3022461,0.5146484-0.4536133,1.1416016-0.4536133,1.8818359V95.0097656z"
	/>
<path fill="#1C4423" d="M58.1879883,98.4521484l0.0126953-0.7675781l0.203125-0.0078125
	c0.3808594,0,0.6538086-0.2539063,0.8188477-0.7607422s0.2475586-1.4013672,0.2475586-2.6806641v-3.3378906h3.7768555v7.5546875
	h-0.7617188v-6.8076172h-2.253418v2.5908203c0,1.484375-0.1352539,2.5585938-0.40625,3.2216797
	s-0.734375,0.9951172-1.3901367,0.9951172H58.1879883z"/>
<path fill="#1C4423" d="M65.0942383,98.4521484v-7.5546875h0.7617188v3.4277344h1.5361328v-0.2021484
	c0-0.9775391,0.2280273-1.7822266,0.6845703-2.4160156c0.456543-0.6328125,1.0693359-0.9501953,1.8383789-0.9501953
	c0.7695313,0,1.3833008,0.3164063,1.8417969,0.9472656s0.6879883,1.4375,0.6879883,2.4189453v1.1103516
	c0,0.9912109-0.2285156,1.8007813-0.6845703,2.4257813c-0.456543,0.6269531-1.0693359,0.9394531-1.8383789,0.9394531
	c-0.7734375,0-1.3886719-0.3125-1.8452148-0.9394531c-0.456543-0.625-0.6845703-1.4345703-0.6845703-2.4257813v-0.1816406H65.855957
	v3.4003906H65.0942383z M68.1538086,95.2333984c0,0.7539063,0.1523438,1.3828125,0.4580078,1.8847656
	c0.3051758,0.5029297,0.7416992,0.7539063,1.3100586,0.7539063c0.5551758,0,0.9873047-0.2519531,1.296875-0.7568359
	s0.4643555-1.1318359,0.4643555-1.8818359v-1.1103516c0-0.7402344-0.1547852-1.3623047-0.4643555-1.8681641
	c-0.3095703-0.5048828-0.7436523-0.7578125-1.3037109-0.7578125c-0.5634766,0-0.9980469,0.2529297-1.3032227,0.7578125
	c-0.3056641,0.5058594-0.4580078,1.1279297-0.4580078,1.8681641V95.2333984z"/>
<path fill="#1C4423" d="M73.2958984,97.7255859h0.4208984c0.2890625-0.4550781,0.5229492-0.9648438,0.7016602-1.5253906
	s0.2890625-1.4160156,0.3310547-2.5664063l0.0380859-2.7363281h3.5292969v6.828125h0.6411133l-0.0698242,2.9472656h-0.6918945
	v-2.2207031h-4.1450195v2.2207031H73.359375L73.2958984,97.7255859z M74.5419922,97.7255859h3.0131836v-6.0605469H75.574707
	l-0.0634766,1.9453125c-0.0380859,0.9882813-0.1425781,1.8164063-0.3134766,2.4824219
	C75.0263672,96.7607422,74.8081055,97.3046875,74.5419922,97.7255859z"/>
<path fill="#1C4423" d="M80.0185547,96.4414063c0-0.703125,0.2241211-1.2626953,0.6728516-1.6796875
	s1.0556641-0.6240234,1.8217773-0.6240234h1.199707v-0.9296875c0-0.5351563-0.1225586-0.953125-0.3681641-1.2558594
	s-0.5883789-0.4550781-1.0283203-0.4550781c-0.4106445,0-0.7480469,0.1445313-1.0126953,0.4335938
	c-0.2641602,0.2890625-0.3964844,0.6425781-0.3964844,1.0605469l-0.7109375-0.0058594l-0.0126953-0.0429688
	c-0.0209961-0.5673828,0.1748047-1.0732422,0.5869141-1.5175781c0.4130859-0.4453125,0.940918-0.6679688,1.5839844-0.6679688
	c0.6347656,0,1.1469727,0.2138672,1.5361328,0.6396484s0.5839844,1.0341797,0.5839844,1.8251953v3.7089844
	c0,0.3105469,0.0151367,0.5839844,0.0454102,0.8203125c0.0307617,0.2353516,0.0610352,0.46875,0.0908203,0.7011719h-0.7836914
	c-0.0327148-0.2578125-0.0600586-0.4726563-0.081543-0.6445313c-0.0219727-0.1699219-0.0327148-0.3398438-0.0327148-0.5078125
	c-0.2075195,0.3769531-0.4770508,0.6875-0.8095703,0.9326172c-0.3320313,0.2441406-0.7011719,0.3662109-1.1074219,0.3662109
	c-0.5668945,0-1.0048828-0.1943359-1.3139648-0.5830078S80.0185547,97.1025391,80.0185547,96.4414063z M80.7802734,96.4697266
	c0,0.4042969,0.097168,0.734375,0.2919922,0.9902344c0.1948242,0.2568359,0.4677734,0.3847656,0.8188477,0.3847656
	c0.4233398,0,0.7988281-0.1337891,1.1264648-0.4013672c0.328125-0.2675781,0.5600586-0.6083984,0.6953125-1.0224609v-1.6347656
	h-1.21875c-0.5205078,0-0.9365234,0.1621094-1.2470703,0.4853516
	C80.9355469,95.5947266,80.7802734,95.9941406,80.7802734,96.4697266z"/>
<path fill="#1C4423" d="M86.2646484,98.4521484v-7.5546875h0.7617188v5.9414063l0.0478516,0.0078125l2.8427734-5.9492188h0.765625
	v7.5546875h-0.7617188v-5.9355469l-0.0429688-0.0058594l-2.84375,5.9414063H86.2646484z M86.8740234,87.9365234l0.0200195-0.0419922
	h0.6274414c0,0.3486328,0.0751953,0.6279297,0.2255859,0.8408203s0.3901367,0.3183594,0.7202148,0.3183594
	c0.3129883,0,0.546875-0.1083984,0.7011719-0.3251953c0.1547852-0.2167969,0.2319336-0.4951172,0.2319336-0.8339844h0.6279297
	l0.0195313,0.0419922c0.0126953,0.5214844-0.1245117,0.9462891-0.4111328,1.2744141s-0.6762695,0.4921875-1.1694336,0.4921875
	c-0.5014648,0-0.8964844-0.1640625-1.1855469-0.4921875C86.9931641,88.8828125,86.8569336,88.4580078,86.8740234,87.9365234z"/>
<path fill="#1C4423" d="M91.8955078,91.6298828v-0.7324219h4.7353516v0.7324219h-2.0185547v6.8222656h-0.7617188v-6.8222656
	H91.8955078z"/>
<path fill="#1C4423" d="M97.3867188,95.3378906v-1.2568359c0-0.9541016,0.2363281-1.7460938,0.7089844-2.3769531
	s1.0410156-0.9472656,1.7060547-0.9472656c0.71875,0,1.2763672,0.2832031,1.6738281,0.8496094
	c0.3974609,0.5644531,0.5957031,1.3251953,0.5957031,2.2792969v0.8310547h-3.9228516v0.6210938
	c0,0.7255859,0.1582031,1.3300781,0.4746094,1.8115234c0.3173828,0.4824219,0.7460938,0.7226563,1.2871094,0.7226563
	c0.375,0,0.6992188-0.0722656,0.9726563-0.2158203c0.2714844-0.1445313,0.5058594-0.3486328,0.6992188-0.6142578l0.3115234,0.59375
	c-0.2070313,0.2929688-0.4746094,0.5273438-0.8017578,0.7011719c-0.328125,0.1748047-0.7216797,0.2617188-1.1816406,0.2617188
	c-0.7421875,0-1.3476563-0.3056641-1.8183594-0.9179688S97.3867188,96.2880859,97.3867188,95.3378906z M98.1484375,93.9902344
	h3.1611328v-0.3212891c0-0.6230469-0.1337891-1.1416016-0.3994141-1.5527344
	c-0.265625-0.4121094-0.6347656-0.6191406-1.1083984-0.6191406c-0.4775391,0-0.8681641,0.2402344-1.1748047,0.7197266
	S98.1611328,93.2880859,98.1484375,93.9902344z"/>
<path fill="#1C4423" d="M105.9121094,96.3330078l0.0126953-0.0449219h0.7109375
	c0,0.4482422,0.1376953,0.8242188,0.4130859,1.1289063c0.2744141,0.3037109,0.6230469,0.4550781,1.046875,0.4550781
	c0.4570313,0,0.8095703-0.1337891,1.0566406-0.4023438c0.2480469-0.2675781,0.3710938-0.6259766,0.3710938-1.0742188
	c0-0.4941406-0.1132813-0.8554688-0.3388672-1.0810547c-0.2265625-0.2255859-0.5771484-0.3388672-1.0507813-0.3388672h-0.9013672
	v-0.7480469h0.9013672c0.4570313,0,0.7861328-0.1132813,0.9873047-0.3417969s0.3007813-0.5566406,0.3007813-0.984375
	c0-0.4140625-0.1074219-0.7509766-0.3232422-1.0097656c-0.2158203-0.2578125-0.5498047-0.3867188-1.0029297-0.3867188
	c-0.3808594,0-0.703125,0.1357422-0.9677734,0.4082031s-0.3974609,0.6152344-0.3974609,1.0292969h-0.7226563l-0.0136719-0.0410156
	c-0.0205078-0.6240234,0.1757813-1.1337891,0.5878906-1.5292969c0.4130859-0.3955078,0.9179688-0.59375,1.5136719-0.59375
	c0.6582031,0,1.1708984,0.1855469,1.5371094,0.5546875c0.3671875,0.3710938,0.5507813,0.8984375,0.5507813,1.5820313
	c0,0.3632813-0.0839844,0.6914063-0.2548828,0.984375s-0.4111328,0.5195313-0.7216797,0.6777344
	c0.3554688,0.1396484,0.6230469,0.3623047,0.8056641,0.6679688c0.1826172,0.3046875,0.2724609,0.6835938,0.2724609,1.1367188
	c0,0.6875-0.2011719,1.2255859-0.6015625,1.6132813c-0.4023438,0.3886719-0.9316406,0.5820313-1.5878906,0.5820313
	c-0.5966797,0-1.1152344-0.1933594-1.5546875-0.5820313C106.1005859,97.6074219,105.890625,97.0537109,105.9121094,96.3330078z"/>
<path fill="#1C4423" d="M111.5361328,96.4414063c0-0.703125,0.2236328-1.2626953,0.6728516-1.6796875
	s1.0556641-0.6240234,1.8222656-0.6240234h1.1992188v-0.9296875c0-0.5351563-0.1230469-0.953125-0.3681641-1.2558594
	s-0.5888672-0.4550781-1.0283203-0.4550781c-0.4101563,0-0.7480469,0.1445313-1.0126953,0.4335938
	s-0.3964844,0.6425781-0.3964844,1.0605469l-0.7109375-0.0058594l-0.0126953-0.0429688
	c-0.0214844-0.5673828,0.1748047-1.0732422,0.5869141-1.5175781c0.4130859-0.4453125,0.9404297-0.6679688,1.5839844-0.6679688
	c0.6347656,0,1.1474609,0.2138672,1.5361328,0.6396484s0.5839844,1.0341797,0.5839844,1.8251953v3.7089844
	c0,0.3105469,0.015625,0.5839844,0.0449219,0.8203125c0.03125,0.2353516,0.0615234,0.46875,0.0917969,0.7011719h-0.7841797
	c-0.0322266-0.2578125-0.0595703-0.4726563-0.0810547-0.6445313c-0.0224609-0.1699219-0.0332031-0.3398438-0.0332031-0.5078125
	c-0.2070313,0.3769531-0.4765625,0.6875-0.8095703,0.9326172c-0.3320313,0.2441406-0.7011719,0.3662109-1.1074219,0.3662109
	c-0.5673828,0-1.0048828-0.1943359-1.3134766-0.5830078C111.6904297,97.6269531,111.5361328,97.1025391,111.5361328,96.4414063z
	 M112.2978516,96.4697266c0,0.4042969,0.0966797,0.734375,0.2919922,0.9902344
	c0.1953125,0.2568359,0.4677734,0.3847656,0.8183594,0.3847656c0.4238281,0,0.7988281-0.1337891,1.1269531-0.4013672
	s0.5605469-0.6083984,0.6953125-1.0224609v-1.6347656h-1.21875c-0.5205078,0-0.9365234,0.1621094-1.2470703,0.4853516
	C112.453125,95.5947266,112.2978516,95.9941406,112.2978516,96.4697266z"/>
<path fill="#1C4423" d="M120.5703125,98.4521484v-7.5546875h2.1386719c0.71875,0,1.2802734,0.1679688,1.6816406,0.5058594
	c0.4023438,0.3378906,0.6035156,0.8417969,0.6035156,1.5117188c0,0.3867188-0.0898438,0.7265625-0.2695313,1.0195313
	s-0.4335938,0.5048828-0.7587891,0.6347656c0.3759766,0.09375,0.6787109,0.3066406,0.9042969,0.640625
	c0.2265625,0.3339844,0.3398438,0.7167969,0.3398438,1.1503906c0,0.6835938-0.1904297,1.203125-0.5712891,1.5585938
	s-0.9033203,0.5332031-1.5683594,0.5332031H120.5703125z M121.3320313,94.2626953h1.421875
	c0.4824219,0,0.8496094-0.1103516,1.1005859-0.3320313c0.2519531-0.2207031,0.3779297-0.5498047,0.3779297-0.9882813
	c0-0.4414063-0.1279297-0.7714844-0.3837891-0.9873047c-0.2568359-0.2158203-0.6357422-0.3251953-1.1396484-0.3251953h-1.3769531
	V94.2626953z M121.3320313,97.7470703h1.7382813c0.4404297,0,0.7802734-0.1201172,1.0195313-0.3613281
	c0.2382813-0.2402344,0.3583984-0.5859375,0.3583984-1.0390625c0-0.4199219-0.1201172-0.7519531-0.3623047-0.9970703
	c-0.2402344-0.2451172-0.5791016-0.3681641-1.015625-0.3681641h-1.7382813V97.7470703z"/>
<path fill="#1C4423" d="M126.4726563,96.4414063c0-0.703125,0.2246094-1.2626953,0.6738281-1.6796875
	c0.4482422-0.4169922,1.0546875-0.6240234,1.8212891-0.6240234h1.2001953v-0.9296875
	c0-0.5351563-0.1230469-0.953125-0.3691406-1.2558594c-0.2451172-0.3027344-0.5878906-0.4550781-1.0273438-0.4550781
	c-0.4111328,0-0.7480469,0.1445313-1.0126953,0.4335938s-0.3974609,0.6425781-0.3974609,1.0605469l-0.7109375-0.0058594
	l-0.0117188-0.0429688c-0.0214844-0.5673828,0.1738281-1.0732422,0.5869141-1.5175781
	c0.4121094-0.4453125,0.9404297-0.6679688,1.5830078-0.6679688c0.6347656,0,1.1474609,0.2138672,1.5371094,0.6396484
	c0.3886719,0.4257813,0.5839844,1.0341797,0.5839844,1.8251953v3.7089844c0,0.3105469,0.0146484,0.5839844,0.0449219,0.8203125
	c0.03125,0.2353516,0.0605469,0.46875,0.0908203,0.7011719H130.28125c-0.0322266-0.2578125-0.0595703-0.4726563-0.0810547-0.6445313
	c-0.0224609-0.1699219-0.0322266-0.3398438-0.0322266-0.5078125c-0.2080078,0.3769531-0.4775391,0.6875-0.8095703,0.9326172
	c-0.3330078,0.2441406-0.7021484,0.3662109-1.1083984,0.3662109c-0.5664063,0-1.0039063-0.1943359-1.3134766-0.5830078
	S126.4726563,97.1025391,126.4726563,96.4414063z M127.234375,96.4697266c0,0.4042969,0.0976563,0.734375,0.2929688,0.9902344
	c0.1943359,0.2568359,0.4667969,0.3847656,0.8183594,0.3847656c0.4238281,0,0.7988281-0.1337891,1.1269531-0.4013672
	s0.5595703-0.6083984,0.6953125-1.0224609v-1.6347656h-1.21875c-0.5214844,0-0.9365234,0.1621094-1.2480469,0.4853516
	C127.390625,95.5947266,127.234375,95.9941406,127.234375,96.4697266z"/>
<path fill="#1C4423" d="M132.7197266,98.4521484v-7.5546875h0.7617188v6.828125h2.3613281v-6.828125h0.7617188v6.828125h2.3486328
	v-6.828125h0.7617188v7.5546875H132.7197266z"/>
<path fill="#1C4423" d="M141.4609375,98.4521484v-7.5546875h0.7617188v5.9414063l0.0380859,0.0078125l2.8564453-5.9492188h0.7617188
	v7.5546875h-0.7617188v-5.9355469l-0.0380859-0.0058594l-2.8564453,5.9414063H141.4609375z"/>
<path fill="#1C4423" d="M147.7265625,98.4521484v-7.5546875h0.9960938l2.1074219,6.3398438h0.0380859l2.1142578-6.3398438h0.9453125
	v7.5546875h-0.7617188v-5.8027344l-0.0380859-0.0136719l-2.0126953,5.8164063h-0.5332031l-2.0566406-5.9560547l-0.0371094,0.0068359
	v5.9492188H147.7265625z"/>
<path fill="#1C4423" d="M79.3837891,110.7255859h0.4208984c0.2890625-0.4550781,0.5229492-0.9648438,0.7016602-1.5253906
	s0.2890625-1.4160156,0.3310547-2.5664063l0.0380859-2.7363281h3.5292969v6.828125h0.6411133l-0.0698242,2.9472656h-0.6918945
	v-2.2207031h-4.1450195v2.2207031h-0.6918945L79.3837891,110.7255859z M80.6298828,110.7255859h3.0131836v-6.0605469h-1.9804688
	l-0.0634766,1.9453125c-0.0380859,0.9882813-0.1425781,1.8164063-0.3134766,2.4824219
	C81.1142578,109.7607422,80.8959961,110.3046875,80.6298828,110.7255859z"/>
<path fill="#1C4423" d="M86.0302734,108.2333984v-1.1103516c0-0.9775391,0.2280273-1.7822266,0.6845703-2.4160156
	c0.456543-0.6328125,1.0693359-0.9501953,1.8388672-0.9501953c0.769043,0,1.3828125,0.3164063,1.8413086,0.9472656
	s0.6879883,1.4375,0.6879883,2.4189453v1.1103516c0,0.9912109-0.2285156,1.8007813-0.6845703,2.4257813
	c-0.456543,0.6269531-1.0693359,0.9394531-1.8388672,0.9394531c-0.7729492,0-1.3881836-0.3125-1.8447266-0.9394531
	C86.2583008,110.0341797,86.0302734,109.2246094,86.0302734,108.2333984z M86.7919922,108.2333984
	c0,0.7539063,0.1523438,1.3828125,0.4580078,1.8847656c0.3051758,0.5029297,0.7416992,0.7539063,1.3095703,0.7539063
	c0.5556641,0,0.987793-0.2519531,1.2973633-0.7568359s0.4643555-1.1318359,0.4643555-1.8818359v-1.1103516
	c0-0.7402344-0.1547852-1.3623047-0.4643555-1.8681641c-0.3095703-0.5048828-0.7436523-0.7578125-1.3032227-0.7578125
	c-0.5639648,0-0.9985352,0.2529297-1.3037109,0.7578125c-0.3056641,0.5058594-0.4580078,1.1279297-0.4580078,1.8681641V108.2333984z
	"/>
<path fill="#1C4423" d="M92.5683594,111.4521484v-7.5546875h0.996582l2.1074219,6.3398438h0.0380859l2.1137695-6.3398438h0.9453125
	v7.5546875h-0.7617188v-5.8027344l-0.0371094-0.0136719l-2.0126953,5.8164063h-0.5332031l-2.0566406-5.9560547l-0.0380859,0.0068359
	v5.9492188H92.5683594z"/>
<path fill="#1C4423" d="M100.2431641,108.2333984v-1.1103516c0-0.9775391,0.2275391-1.7822266,0.6845703-2.4160156
	c0.4570313-0.6328125,1.0693359-0.9501953,1.8388672-0.9501953c0.7685547,0,1.3828125,0.3164063,1.8408203,0.9472656
	c0.4589844,0.6308594,0.6884766,1.4375,0.6884766,2.4189453v1.1103516c0,0.9912109-0.2285156,1.8007813-0.6845703,2.4257813
	c-0.4570313,0.6269531-1.0693359,0.9394531-1.8388672,0.9394531c-0.7724609,0-1.3876953-0.3125-1.8447266-0.9394531
	C100.4707031,110.0341797,100.2431641,109.2246094,100.2431641,108.2333984z M101.0048828,108.2333984
	c0,0.7539063,0.1523438,1.3828125,0.4580078,1.8847656c0.3046875,0.5029297,0.7421875,0.7539063,1.3095703,0.7539063
	c0.5556641,0,0.9873047-0.2519531,1.2978516-0.7568359c0.3085938-0.5048828,0.4638672-1.1318359,0.4638672-1.8818359v-1.1103516
	c0-0.7402344-0.1552734-1.3623047-0.4638672-1.8681641c-0.3105469-0.5048828-0.7441406-0.7578125-1.3037109-0.7578125
	c-0.5634766,0-0.9990234,0.2529297-1.3037109,0.7578125c-0.3056641,0.5058594-0.4580078,1.1279297-0.4580078,1.8681641V108.2333984z
	"/>
<path fill="#1C4423" d="M106.78125,111.4521484v-7.5546875h0.9960938l2.1074219,6.3398438h0.0390625l2.1132813-6.3398438h0.9453125
	v7.5546875h-0.7617188v-5.8027344l-0.0371094-0.0136719l-2.0126953,5.8164063h-0.5332031l-2.0566406-5.9560547l-0.0380859,0.0068359
	v5.9492188H106.78125z"/>
</svg>
