<?xml version="1.0" encoding="utf-8"?>
<!-- Generator: Adobe Illustrator 15.0.0, SVG Export Plug-In  -->
<!DOCTYPE svg PUBLIC "-//W3C//DTD SVG 1.1//EN" "http://www.w3.org/Graphics/SVG/1.1/DTD/svg11.dtd" [
	<!ENTITY ns_flows "http://ns.adobe.com/Flows/1.0/">
]>
<svg version="1.1"
	 xmlns="http://www.w3.org/2000/svg" xmlns:xlink="http://www.w3.org/1999/xlink" xmlns:a="http://ns.adobe.com/AdobeSVGViewerExtensions/3.0/"
	 x="0px" y="0px" width="450px" height="176px" viewBox="-20.222 -14.013 450 176" enable-background="new -20.222 -14.013 450 176"
	 xml:space="preserve">
<defs>
</defs>
<polygon fill="#5FC774" points="21.578,94.939 0.465,107.545 25.074,107.545 25.074,81.165 0.449,81.165 22.277,94.301 "/>
<rect x="0.449" y="80.601" fill="#255E30" width="24.625" height="0.914"/>
<polygon fill="#255E30" points="22.054,93.896 22.498,94.689 0.443,108.014 0,107.217 "/>
<polygon fill="#255E30" points="0.445,80.597 22.508,93.902 22.063,94.698 0.002,81.39 "/>
<rect x="24.648" y="81.06" fill="#5FC774" width="22.065" height="26.483"/>
<rect x="23.041" y="107.077" fill="#255E30" width="23.674" height="0.926"/>
<rect x="21.974" y="80.601" fill="#255E30" width="24.741" height="0.914"/>
<rect x="0.465" y="107.077" fill="#255E30" width="24.609" height="0.926"/>
<polygon fill="#255E30" points="46.554,80.618 26.215,84.995 26.215,86.013 45.474,81.862 45.474,85.478 46.715,85.478 
	46.715,81.597 46.715,81.556 46.715,81.088 "/>
<polygon fill="#5FC774" points="171.377,94.991 192.49,107.592 167.883,107.592 167.883,81.217 192.508,81.217 170.681,94.352 "/>
<rect x="167.883" y="80.646" fill="#255E30" width="24.625" height="0.918"/>
<polygon fill="#255E30" points="170.904,93.948 170.459,94.741 192.515,108.063 192.957,107.268 "/>
<polygon fill="#255E30" points="192.51,80.646 170.449,93.954 170.894,94.747 192.955,81.438 "/>
<rect x="146.24" y="81.106" fill="#5FC774" width="22.066" height="26.481"/>
<rect x="146.24" y="107.129" fill="#255E30" width="23.676" height="0.922"/>
<rect x="146.24" y="80.646" fill="#255E30" width="24.742" height="0.918"/>
<rect x="167.883" y="107.129" fill="#255E30" width="24.605" height="0.922"/>
<polygon fill="#255E30" points="146.402,80.668 166.74,85.045 166.74,86.062 147.482,81.915 147.482,85.526 146.24,85.526 
	146.24,81.647 146.24,81.604 146.24,81.135 "/>
<polygon fill="#32773E" points="146.24,81.165 146.24,86.834 161.357,90.434 162.545,85.051 "/>
<polygon fill="#32773E" points="46.715,81.118 30.41,85.002 31.601,90.383 46.715,86.784 "/>
<path fill="#878A8C" d="M156.65,28.409c-1.131-1.305-2.728-2.056-4.41-2.102c-13.018-0.347-29.479-14.446-40.381-19.978
	c-6.728-3.411-11.168-5.657-14.492-6.249C97.019,0.034,96.683,0,96.34,0C96,0,95.664,0.034,95.318,0.087
	C91.982,0.68,87.545,2.925,80.82,6.333c-10.891,5.53-27.363,19.636-40.383,19.975c-1.679,0.046-3.277,0.803-4.412,2.102
	c-1.146,1.298-1.734,3.03-1.65,4.792c2.797,57.593,23.188,93.241,58.972,113.957c0.93,0.541,1.963,0.815,2.987,0.815
	c1.029,0,2.06-0.274,2.998-0.815c35.775-20.709,56.164-56.361,58.963-113.958C158.388,31.439,157.793,29.708,156.65,28.409z
	 M151.383,37.686c-2.485,51.264-20.637,82.992-52.479,101.428c-0.834,0.479-1.756,0.723-2.67,0.723s-1.834-0.25-2.66-0.723
	C61.729,120.672,43.582,88.95,41.094,37.686c-0.075-1.566,0.449-3.108,1.472-4.265c1.01-1.155,2.434-1.829,3.93-1.869
	C58.08,31.25,72.738,18.696,82.433,13.776c5.983-3.036,9.938-5.032,12.903-5.561c0.308-0.047,0.605-0.075,0.91-0.075
	c0.301,0,0.601,0.028,0.914,0.071c2.959,0.528,6.916,2.525,12.898,5.559c9.7,4.925,24.352,17.475,35.938,17.782
	c1.5,0.041,2.922,0.709,3.926,1.869C150.939,34.576,151.472,36.119,151.383,37.686z"/>
<rect x="26.287" y="85.651" fill="#5FC774" width="140.096" height="30.604"/>
<path fill="#255E30" d="M166.988,116.887H25.681V85.021H166.99L166.988,116.887L166.988,116.887z M26.896,115.625h138.881V86.284
	H26.896V115.625z"/>
<rect x="27.771" y="93.32" fill="none" width="137.416" height="15.271"/>
<polygon fill="#878A8C" points="73.82,43.583 73.82,43.539 81.308,38.147 81.308,38.165 94.658,28.5 96.361,27.262 98.029,28.5 
	125.094,48.073 126.929,45.238 98.029,24.34 96.361,23.102 94.66,24.339 81.308,34.004 81.308,29.084 73.822,29.084 73.822,39.423 
	66.029,45.064 67.863,47.896 "/>
<path fill="#878A8C" d="M111.455,53.991c-0.065-0.455-0.35-0.849-0.762-1.049c-0.416-0.203-0.898-0.185-1.299,0.047l-8.943,5.194
	c-0.057,0.028-0.107,0.065-0.154,0.103l-1.383,0.799c-0.43,0.246-0.688,0.701-0.688,1.196c-0.002,0.49,0.264,0.948,0.688,1.194
	l7.793,4.529c0.224,0.125,0.459,0.184,0.693,0.184c0.428,0,0.848-0.198,1.115-0.565c1.995-2.721,3.096-6.072,3.096-9.433
	C111.609,55.465,111.56,54.726,111.455,53.991z"/>
<path fill="#878A8C" d="M85.949,45.852l8.881,5.105c0.045,0.025,0.092,0.05,0.139,0.07l1.451,0.84
	c0.215,0.125,0.451,0.184,0.688,0.184c0.238,0,0.479-0.063,0.69-0.184c0.429-0.247,0.688-0.702,0.688-1.196v-9.022
	c0-0.706-0.533-1.298-1.232-1.374c-4.078-0.436-8.217,0.767-11.471,3.288c-0.369,0.281-0.563,0.729-0.533,1.188
	C85.293,45.208,85.554,45.623,85.949,45.852z"/>
<path fill="#878A8C" d="M100.451,55.918c0.215,0.125,0.449,0.184,0.689,0.184c0.235,0,0.479-0.062,0.688-0.186l7.797-4.527
	c0.613-0.356,0.855-1.117,0.568-1.76c-1.689-3.757-4.721-6.688-8.533-8.248c-0.426-0.175-0.906-0.128-1.293,0.13
	c-0.381,0.256-0.613,0.688-0.613,1.147v12.063C99.76,55.217,100.021,55.673,100.451,55.918z"/>
<path fill="#878A8C" d="M105.189,66.583l-10.412-6.049c-0.428-0.249-0.951-0.251-1.385-0.002c-0.429,0.245-0.691,0.701-0.691,1.197
	v9.011c0,0.709,0.535,1.296,1.238,1.372c0.557,0.059,1.117,0.088,1.658,0.088c3.481,0,6.942-1.179,9.743-3.324
	c0.367-0.284,0.568-0.725,0.533-1.187C105.847,67.229,105.59,66.816,105.189,66.583z"/>
<path fill="#878A8C" d="M92.228,50.916l-7.785-4.476c-0.613-0.352-1.392-0.184-1.808,0.388c-1.961,2.711-3.045,6.038-3.045,9.364
	c0,0.685,0.043,1.373,0.13,2.045c0.059,0.457,0.338,0.856,0.75,1.061c0.194,0.099,0.407,0.146,0.616,0.146
	c0.234,0,0.474-0.06,0.687-0.181l10.453-5.949c0.43-0.244,0.694-0.7,0.694-1.194C92.92,51.621,92.654,51.163,92.228,50.916z"/>
<path fill="#878A8C" d="M90.75,56.396c-0.426-0.249-0.949-0.25-1.377-0.008l-7.86,4.477c-0.615,0.348-0.865,1.104-0.584,1.753
	c1.68,3.831,4.733,6.808,8.604,8.393c0.17,0.066,0.346,0.102,0.523,0.102c0.271,0,0.536-0.08,0.772-0.236
	c0.379-0.258,0.609-0.685,0.609-1.147V57.591C91.437,57.097,91.176,56.641,90.75,56.396z"/>
<path fill="#878A8C" d="M95.599,35.587c-11.363,0-20.605,9.243-20.605,20.604s9.242,20.604,20.605,20.604
	c11.362,0,20.604-9.243,20.604-20.604S106.959,35.587,95.599,35.587z M95.599,74.031c-9.841,0-17.843-8-17.843-17.839
	c0-9.837,8.007-17.841,17.843-17.841c9.84,0,17.842,8.005,17.842,17.841C113.441,66.031,105.438,74.031,95.599,74.031z"/>
<path fill="#1C4423" d="M39.156,98.452V88.286h0.762v4.771h4.15v-4.771h0.762v10.166h-0.762V93.78h-4.15v4.672H39.156z"/>
<path fill="#1C4423" d="M46.5,96.441c0-0.702,0.226-1.266,0.674-1.682c0.449-0.418,1.056-0.625,1.822-0.625h1.199v-0.93
	c0-0.535-0.123-0.953-0.369-1.256c-0.244-0.303-0.588-0.455-1.027-0.455c-0.409,0-0.748,0.146-1.012,0.436
	c-0.266,0.287-0.397,0.644-0.397,1.062l-0.711-0.007l-0.013-0.043c-0.021-0.565,0.174-1.071,0.588-1.52
	c0.412-0.443,0.939-0.668,1.582-0.668c0.636,0,1.148,0.215,1.537,0.643c0.39,0.427,0.584,1.033,0.584,1.822v3.711
	c0,0.312,0.017,0.584,0.045,0.818c0.031,0.236,0.062,0.469,0.093,0.701H50.31c-0.031-0.258-0.06-0.473-0.08-0.645
	c-0.023-0.171-0.033-0.341-0.033-0.509c-0.207,0.377-0.478,0.688-0.809,0.935c-0.334,0.244-0.703,0.364-1.109,0.364
	c-0.566,0-1.004-0.192-1.313-0.581C46.654,97.627,46.5,97.102,46.5,96.441z M47.263,96.469c0,0.404,0.098,0.734,0.293,0.99
	c0.194,0.258,0.467,0.385,0.817,0.385c0.424,0,0.799-0.133,1.127-0.4c0.328-0.267,0.562-0.608,0.695-1.022v-1.635h-1.219
	c-0.521,0-0.937,0.162-1.248,0.485C47.418,95.594,47.263,95.995,47.263,96.469z"/>
<path fill="#1C4423" d="M52.416,95.01v-1.09c0-1.457,0.23-2.631,0.689-3.523c0.459-0.891,1.076-1.42,1.852-1.588
	c0.486-0.106,0.838-0.25,1.051-0.43c0.214-0.18,0.318-0.438,0.318-0.771h0.635l0.015,0.043c0.018,0.643-0.136,1.096-0.455,1.36
	c-0.318,0.266-0.791,0.451-1.414,0.559c-0.504,0.093-0.938,0.388-1.299,0.884c-0.361,0.496-0.578,1.164-0.654,2.008l0.025,0.035
	c0.196-0.332,0.459-0.597,0.788-0.797c0.33-0.199,0.689-0.302,1.076-0.302c0.734,0,1.322,0.316,1.763,0.947
	c0.439,0.631,0.657,1.441,0.657,2.435v0.229c0,1.057-0.229,1.918-0.692,2.586s-1.08,1.002-1.853,1.002
	c-0.762,0-1.369-0.334-1.821-1.002C52.644,96.928,52.416,96.066,52.416,95.01z M53.179,95.01c0,0.814,0.151,1.494,0.454,2.041
	c0.304,0.547,0.73,0.82,1.285,0.82c0.563,0,1-0.273,1.314-0.82c0.313-0.547,0.469-1.227,0.469-2.041V94.78
	c0-0.746-0.156-1.373-0.469-1.888c-0.314-0.512-0.754-0.768-1.32-0.768c-0.551,0-0.977,0.258-1.279,0.771
	c-0.303,0.516-0.454,1.143-0.454,1.883V95.01z"/>
<path fill="#1C4423" d="M58.188,98.452l0.012-0.769l0.203-0.01c0.381,0,0.654-0.254,0.82-0.76c0.164-0.508,0.245-1.4,0.245-2.682
	v-3.338h3.777v7.555h-0.762v-6.807H60.23v2.59c0,1.483-0.135,2.559-0.406,3.223c-0.27,0.662-0.734,0.994-1.389,0.994h-0.247V98.452z
	"/>
<path fill="#1C4423" d="M65.095,98.452v-7.556h0.762v3.429h1.535v-0.201c0-0.979,0.229-1.783,0.686-2.416s1.068-0.951,1.838-0.951
	c0.771,0,1.383,0.316,1.842,0.947s0.688,1.438,0.688,2.42v1.108c0,0.992-0.229,1.802-0.684,2.427
	c-0.457,0.627-1.07,0.938-1.839,0.938c-0.772,0-1.389-0.313-1.846-0.938s-0.686-1.435-0.686-2.427v-0.184h-1.535v3.4h-0.762
	L65.095,98.452L65.095,98.452z M68.152,95.232c0,0.754,0.152,1.384,0.459,1.886c0.305,0.504,0.742,0.754,1.311,0.754
	c0.556,0,0.986-0.252,1.297-0.756c0.31-0.507,0.464-1.134,0.464-1.884v-1.108c0-0.74-0.154-1.363-0.464-1.869
	c-0.311-0.504-0.743-0.758-1.305-0.758c-0.563,0-0.998,0.254-1.303,0.758c-0.307,0.506-0.459,1.129-0.459,1.869V95.232z"/>
<path fill="#1C4423" d="M73.295,97.725h0.422c0.289-0.455,0.521-0.965,0.701-1.524c0.179-0.562,0.289-1.416,0.33-2.566l0.039-2.733
	h3.529v6.828h0.641l-0.069,2.944h-0.691v-2.221h-4.146v2.221h-0.69L73.295,97.725z M74.541,97.725h3.015v-6.061h-1.98l-0.063,1.945
	c-0.037,0.988-0.144,1.813-0.313,2.479C75.025,96.76,74.808,97.305,74.541,97.725z"/>
<path fill="#1C4423" d="M80.019,96.441c0-0.702,0.225-1.266,0.674-1.682c0.447-0.418,1.055-0.625,1.82-0.625h1.2v-0.93
	c0-0.535-0.123-0.953-0.369-1.256c-0.245-0.303-0.588-0.455-1.026-0.455c-0.412,0-0.748,0.146-1.014,0.436
	c-0.265,0.287-0.396,0.644-0.396,1.062l-0.711-0.007l-0.012-0.043c-0.021-0.565,0.174-1.071,0.586-1.52
	c0.414-0.443,0.94-0.668,1.584-0.668c0.635,0,1.146,0.215,1.537,0.643c0.389,0.427,0.584,1.033,0.584,1.822v3.711
	c0,0.312,0.014,0.584,0.045,0.818c0.03,0.236,0.061,0.469,0.09,0.701h-0.783c-0.033-0.258-0.061-0.473-0.082-0.645
	c-0.021-0.171-0.031-0.341-0.031-0.509c-0.209,0.377-0.479,0.688-0.811,0.935c-0.332,0.244-0.701,0.364-1.107,0.364
	c-0.565,0-1.004-0.192-1.313-0.581C80.172,97.627,80.019,97.102,80.019,96.441z M80.779,96.469c0,0.404,0.098,0.734,0.293,0.99
	c0.193,0.258,0.467,0.385,0.818,0.385c0.424,0,0.799-0.133,1.127-0.4c0.328-0.267,0.559-0.608,0.694-1.022v-1.635h-1.219
	c-0.521,0-0.938,0.162-1.248,0.485C80.937,95.594,80.779,95.995,80.779,96.469z"/>
<path fill="#1C4423" d="M86.265,98.452v-7.556h0.762v5.939l0.049,0.008l2.842-5.947h0.767v7.556H89.92v-5.937l-0.043-0.008
	l-2.844,5.941h-0.769L86.265,98.452L86.265,98.452z M86.873,87.937l0.021-0.041h0.629c0,0.348,0.074,0.626,0.225,0.839
	c0.151,0.214,0.392,0.318,0.721,0.318c0.313,0,0.548-0.107,0.701-0.324c0.154-0.217,0.232-0.495,0.232-0.833h0.627l0.02,0.041
	c0.015,0.521-0.125,0.946-0.409,1.274c-0.287,0.328-0.679,0.492-1.171,0.492c-0.502,0-0.896-0.164-1.186-0.492
	S86.855,88.458,86.873,87.937z"/>
<path fill="#1C4423" d="M91.896,91.629v-0.732h4.735v0.732h-2.02v6.822H93.85v-6.822H91.896z"/>
<path fill="#1C4423" d="M97.388,95.338V94.08c0-0.953,0.235-1.746,0.709-2.377c0.473-0.631,1.041-0.947,1.704-0.947
	c0.72,0,1.277,0.283,1.675,0.85c0.397,0.564,0.596,1.326,0.596,2.279v0.832H98.15v0.621c0,0.725,0.158,1.33,0.475,1.811
	c0.316,0.482,0.746,0.724,1.287,0.724c0.375,0,0.699-0.072,0.973-0.215c0.271-0.146,0.507-0.351,0.699-0.615l0.312,0.594
	c-0.207,0.296-0.476,0.527-0.802,0.701c-0.327,0.179-0.723,0.265-1.182,0.265c-0.742,0-1.348-0.308-1.818-0.918
	C97.621,97.068,97.388,96.288,97.388,95.338z M98.148,93.991h3.16v-0.322c0-0.623-0.134-1.142-0.398-1.553
	c-0.264-0.412-0.635-0.619-1.109-0.619c-0.477,0-0.866,0.239-1.174,0.721C98.32,92.695,98.16,93.288,98.148,93.991z"/>
<path fill="#1C4423" d="M105.912,96.333l0.012-0.045h0.711c0,0.448,0.14,0.823,0.414,1.129c0.273,0.306,0.623,0.455,1.048,0.455
	c0.457,0,0.809-0.133,1.057-0.402c0.248-0.268,0.371-0.625,0.371-1.073c0-0.494-0.113-0.855-0.34-1.08
	c-0.228-0.228-0.576-0.34-1.052-0.34h-0.899v-0.748h0.899c0.457,0,0.787-0.113,0.988-0.343c0.201-0.229,0.301-0.557,0.301-0.983
	c0-0.414-0.106-0.75-0.323-1.01c-0.216-0.259-0.55-0.388-1.002-0.388c-0.382,0-0.703,0.138-0.97,0.408
	c-0.264,0.272-0.396,0.614-0.396,1.028h-0.724l-0.014-0.041c-0.021-0.623,0.176-1.133,0.588-1.528s0.918-0.595,1.515-0.595
	c0.657,0,1.17,0.187,1.536,0.556c0.367,0.371,0.552,0.897,0.552,1.582c0,0.362-0.084,0.69-0.256,0.983
	c-0.171,0.293-0.41,0.521-0.722,0.679c0.355,0.141,0.623,0.362,0.806,0.668c0.184,0.305,0.272,0.685,0.272,1.137
	c0,0.688-0.201,1.228-0.602,1.613c-0.402,0.389-0.933,0.582-1.588,0.582c-0.599,0-1.115-0.193-1.556-0.582
	C106.101,97.607,105.892,97.053,105.912,96.333z"/>
<path fill="#1C4423" d="M111.535,96.441c0-0.702,0.225-1.266,0.674-1.682c0.449-0.418,1.056-0.625,1.822-0.625h1.199v-0.93
	c0-0.535-0.123-0.953-0.369-1.256c-0.244-0.303-0.588-0.455-1.027-0.455c-0.41,0-0.748,0.146-1.014,0.436
	c-0.264,0.287-0.396,0.644-0.396,1.062l-0.711-0.007l-0.012-0.043c-0.021-0.565,0.174-1.071,0.586-1.52
	c0.414-0.443,0.941-0.668,1.584-0.668c0.635,0,1.148,0.215,1.537,0.643c0.389,0.427,0.584,1.033,0.584,1.822v3.711
	c0,0.312,0.016,0.584,0.045,0.818c0.031,0.236,0.062,0.469,0.092,0.701h-0.785c-0.03-0.258-0.059-0.473-0.079-0.645
	c-0.023-0.171-0.033-0.341-0.033-0.509c-0.207,0.377-0.478,0.688-0.812,0.935c-0.332,0.244-0.7,0.364-1.106,0.364
	c-0.566,0-1.004-0.192-1.313-0.581C111.689,97.627,111.535,97.102,111.535,96.441z M112.297,96.469c0,0.404,0.099,0.734,0.293,0.99
	c0.195,0.258,0.468,0.385,0.818,0.385c0.424,0,0.799-0.133,1.127-0.4c0.328-0.267,0.562-0.608,0.695-1.022v-1.635h-1.219
	c-0.521,0-0.938,0.162-1.248,0.485C112.453,95.594,112.297,95.995,112.297,96.469z"/>
<path fill="#1C4423" d="M120.57,98.452v-7.556h2.139c0.72,0,1.279,0.168,1.683,0.506c0.402,0.339,0.604,0.843,0.604,1.513
	c0,0.387-0.09,0.728-0.27,1.021c-0.181,0.293-0.435,0.506-0.761,0.635c0.377,0.094,0.681,0.307,0.904,0.641
	c0.228,0.334,0.34,0.717,0.34,1.15c0,0.684-0.188,1.203-0.569,1.559c-0.382,0.357-0.904,0.533-1.568,0.533L120.57,98.452
	L120.57,98.452z M121.332,94.262h1.422c0.482,0,0.851-0.109,1.101-0.332c0.252-0.221,0.379-0.549,0.379-0.988
	c0-0.44-0.129-0.771-0.385-0.985c-0.257-0.217-0.636-0.326-1.14-0.326h-1.377V94.262z M121.332,97.747h1.738
	c0.438,0,0.779-0.119,1.02-0.361c0.238-0.239,0.357-0.586,0.357-1.038c0-0.421-0.119-0.753-0.361-0.996
	c-0.239-0.246-0.58-0.369-1.016-0.369h-1.738V97.747z"/>
<path fill="#1C4423" d="M126.474,96.441c0-0.702,0.225-1.266,0.674-1.682c0.446-0.418,1.055-0.625,1.819-0.625h1.201v-0.93
	c0-0.535-0.123-0.953-0.369-1.256c-0.245-0.303-0.588-0.455-1.026-0.455c-0.412,0-0.748,0.146-1.015,0.436
	c-0.264,0.287-0.396,0.644-0.396,1.062l-0.711-0.007l-0.012-0.043c-0.021-0.565,0.174-1.071,0.586-1.52
	c0.412-0.445,0.94-0.668,1.584-0.668c0.635,0,1.146,0.215,1.537,0.643c0.389,0.427,0.584,1.033,0.584,1.822v3.711
	c0,0.312,0.014,0.584,0.045,0.818c0.03,0.236,0.061,0.469,0.09,0.701h-0.783c-0.033-0.258-0.061-0.473-0.082-0.645
	c-0.021-0.171-0.031-0.341-0.031-0.509c-0.209,0.377-0.479,0.688-0.811,0.935c-0.332,0.244-0.701,0.364-1.107,0.364
	c-0.565,0-1.004-0.192-1.313-0.581C126.627,97.627,126.474,97.102,126.474,96.441z M127.234,96.469c0,0.404,0.098,0.734,0.293,0.99
	c0.193,0.258,0.467,0.385,0.818,0.385c0.424,0,0.799-0.133,1.127-0.4c0.327-0.268,0.559-0.608,0.694-1.022v-1.635h-1.219
	c-0.521,0-0.938,0.162-1.248,0.485C127.392,95.594,127.234,95.995,127.234,96.469z"/>
<path fill="#1C4423" d="M132.719,98.452v-7.556h0.763v6.828h2.36v-6.828h0.763v6.828h2.35v-6.828h0.762v7.556H132.719z"/>
<path fill="#1C4423" d="M141.461,98.452v-7.556h0.763v5.939l0.036,0.008l2.857-5.947h0.762v7.556h-0.762v-5.937l-0.039-0.008
	l-2.854,5.941h-0.763V98.452L141.461,98.452z"/>
<path fill="#1C4423" d="M147.728,98.452v-7.556h0.996l2.106,6.34h0.037l2.115-6.34h0.945v7.556h-0.763v-5.804l-0.039-0.016
	l-2.012,5.816h-0.533l-2.057-5.955l-0.037,0.006v5.949h-0.76v0.003H147.728z"/>
<path fill="#1C4423" d="M79.383,110.725h0.423c0.289-0.455,0.521-0.965,0.7-1.524c0.179-0.562,0.289-1.416,0.33-2.566l0.039-2.733
	h3.529v6.828h0.641l-0.069,2.944h-0.691v-2.221H80.14v2.221h-0.691L79.383,110.725z M80.629,110.725h3.015v-6.061h-1.98
	l-0.064,1.945c-0.037,0.988-0.144,1.814-0.313,2.48C81.113,109.76,80.896,110.305,80.629,110.725z"/>
<path fill="#1C4423" d="M86.029,108.232v-1.108c0-0.979,0.229-1.783,0.686-2.416c0.455-0.633,1.068-0.951,1.839-0.951
	c0.77,0,1.383,0.316,1.842,0.947s0.688,1.438,0.688,2.42v1.108c0,0.992-0.229,1.802-0.684,2.427c-0.457,0.627-1.07,0.938-1.84,0.938
	c-0.773,0-1.39-0.313-1.845-0.938C86.258,110.034,86.029,109.225,86.029,108.232z M86.791,108.232c0,0.754,0.152,1.384,0.459,1.886
	c0.306,0.504,0.74,0.754,1.31,0.754c0.557,0,0.987-0.252,1.297-0.756c0.311-0.507,0.465-1.134,0.465-1.884v-1.108
	c0-0.74-0.154-1.363-0.465-1.869c-0.31-0.504-0.742-0.758-1.303-0.758c-0.564,0-0.998,0.254-1.304,0.758
	c-0.307,0.506-0.459,1.129-0.459,1.869V108.232z"/>
<path fill="#1C4423" d="M92.568,111.452v-7.556h0.996l2.106,6.34h0.037l2.115-6.34h0.945v7.556h-0.763v-5.804l-0.036-0.016
	l-2.015,5.816H95.42l-2.057-5.955l-0.037,0.006v5.949h-0.76v0.003H92.568z"/>
<path fill="#1C4423" d="M100.242,108.232v-1.108c0-0.979,0.229-1.783,0.687-2.416c0.456-0.633,1.067-0.951,1.838-0.951
	c0.77,0,1.383,0.316,1.842,0.947s0.688,1.438,0.688,2.42v1.108c0,0.992-0.229,1.802-0.684,2.427c-0.457,0.627-1.07,0.938-1.84,0.938
	c-0.771,0-1.388-0.313-1.844-0.938C100.472,110.034,100.242,109.225,100.242,108.232z M101.004,108.232
	c0,0.754,0.152,1.384,0.459,1.886c0.306,0.504,0.742,0.754,1.31,0.754c0.557,0,0.987-0.252,1.299-0.756
	c0.309-0.507,0.463-1.134,0.463-1.884v-1.108c0-0.74-0.154-1.363-0.463-1.869c-0.312-0.504-0.744-0.758-1.305-0.758
	c-0.563,0-0.998,0.254-1.304,0.758c-0.307,0.506-0.459,1.129-0.459,1.869V108.232z"/>
<path fill="#1C4423" d="M106.781,111.452v-7.556h0.996l2.106,6.34h0.039l2.113-6.34h0.945v7.556h-0.762v-5.804l-0.037-0.016
	l-2.015,5.816h-0.533l-2.057-5.955l-0.037,0.006v5.949h-0.76v0.003H106.781z"/>
<polygon fill="#5FC774" points="238.176,94.939 217.063,107.545 241.67,107.545 241.67,81.165 217.045,81.165 238.874,94.301 "/>
<rect x="217.045" y="80.601" fill="#255E30" width="24.625" height="0.914"/>
<polygon fill="#255E30" points="238.651,93.896 239.098,94.689 217.04,108.014 216.599,107.217 "/>
<polygon fill="#255E30" points="217.042,80.597 239.106,93.902 238.661,94.698 216.601,81.39 "/>
<rect x="241.247" y="81.06" fill="#5FC774" width="22.066" height="26.483"/>
<rect x="239.641" y="107.077" fill="#255E30" width="23.674" height="0.926"/>
<rect x="238.571" y="80.601" fill="#255E30" width="24.742" height="0.914"/>
<rect x="217.063" y="107.077" fill="#255E30" width="24.607" height="0.926"/>
<polygon fill="#255E30" points="263.151,80.618 242.813,84.995 242.813,86.013 262.071,81.864 262.071,85.478 263.313,85.478 
	263.313,81.597 263.313,81.556 263.313,81.088 "/>
<polygon fill="#5FC774" points="387.975,94.991 409.088,107.592 384.481,107.592 384.481,81.217 409.106,81.217 387.278,94.352 "/>
<rect x="384.481" y="80.647" fill="#255E30" width="24.625" height="0.918"/>
<polygon fill="#255E30" points="387.502,93.948 387.057,94.741 409.112,108.063 409.555,107.268 "/>
<polygon fill="#255E30" points="409.108,80.646 387.047,93.954 387.491,94.747 409.553,81.44 "/>
<rect x="362.838" y="81.108" fill="#5FC774" width="22.064" height="26.481"/>
<rect x="362.838" y="107.129" fill="#255E30" width="23.676" height="0.922"/>
<rect x="362.838" y="80.647" fill="#255E30" width="24.74" height="0.918"/>
<rect x="384.481" y="107.129" fill="#255E30" width="24.605" height="0.922"/>
<polygon fill="#255E30" points="363,80.668 383.338,85.045 383.338,86.062 364.081,81.915 364.081,85.528 362.838,85.528 
	362.838,81.649 362.838,81.604 362.838,81.135 "/>
<polygon fill="#32773E" points="362.838,81.165 362.838,86.834 377.956,90.434 379.143,85.051 "/>
<polygon fill="#32773E" points="263.313,81.118 247.008,85.002 248.198,90.383 263.313,86.784 "/>
<path fill="#606268" d="M373.247,28.409c-1.131-1.305-2.727-2.056-4.408-2.102c-13.018-0.347-29.479-14.446-40.381-19.978
	c-6.729-3.411-11.17-5.657-14.494-6.249C313.616,0.034,313.28,0,312.938,0c-0.34,0-0.676,0.034-1.021,0.087
	c-3.336,0.593-7.773,2.838-14.498,6.246c-10.891,5.53-27.361,19.636-40.383,19.975c-1.678,0.046-3.277,0.803-4.412,2.102
	c-1.145,1.298-1.732,3.03-1.648,4.792c2.797,57.593,23.188,93.241,58.971,113.957c0.93,0.541,1.963,0.815,2.986,0.815
	c1.029,0,2.061-0.274,2.998-0.815c35.775-20.709,56.164-56.361,58.963-113.958C374.985,31.439,374.391,29.708,373.247,28.409z
	 M367.981,37.686c-2.486,51.264-20.637,82.992-52.48,101.428c-0.834,0.479-1.756,0.723-2.67,0.723s-1.834-0.25-2.66-0.723
	c-31.846-18.441-49.988-50.164-52.479-101.428c-0.076-1.566,0.449-3.108,1.471-4.265c1.01-1.155,2.436-1.829,3.93-1.869
	c11.586-0.302,26.244-12.856,35.939-17.776c5.982-3.036,9.938-5.032,12.902-5.561c0.309-0.047,0.605-0.075,0.91-0.075
	c0.301,0,0.602,0.028,0.914,0.071c2.959,0.528,6.916,2.525,12.898,5.559c9.701,4.925,24.352,17.475,35.938,17.782
	c1.5,0.041,2.922,0.709,3.926,1.869C367.538,34.576,368.069,36.119,367.981,37.686z"/>
<rect x="242.887" y="85.653" fill="#5FC774" width="140.096" height="30.604"/>
<path fill="#255E30" d="M383.586,116.887H242.278V85.022h141.309V116.887L383.586,116.887z M243.493,115.625h138.881V86.284H243.493
	V115.625z"/>
<rect x="244.368" y="93.32" fill="none" width="137.416" height="15.271"/>
<polygon fill="#606268" points="290.417,43.583 290.417,43.539 297.905,38.147 297.905,38.165 311.254,28.5 312.958,27.262 
	314.625,28.5 341.692,48.073 343.526,45.238 314.625,24.34 312.958,23.102 311.258,24.339 297.905,34.004 297.905,29.084 
	290.418,29.084 290.418,39.423 282.625,45.064 284.459,47.896 "/>
<path fill="#606268" d="M328.053,53.991c-0.064-0.455-0.352-0.849-0.762-1.049c-0.416-0.203-0.898-0.185-1.301,0.047l-8.941,5.194
	c-0.059,0.028-0.105,0.065-0.152,0.103l-1.385,0.799c-0.432,0.246-0.688,0.701-0.688,1.196c-0.002,0.49,0.264,0.948,0.688,1.194
	l7.793,4.529c0.223,0.125,0.459,0.184,0.693,0.184c0.428,0,0.848-0.198,1.115-0.565c1.996-2.721,3.096-6.072,3.096-9.433
	C328.208,55.465,328.157,54.726,328.053,53.991z"/>
<path fill="#606268" d="M302.545,45.852l8.883,5.105c0.045,0.025,0.094,0.05,0.141,0.07l1.449,0.84
	c0.217,0.125,0.451,0.184,0.689,0.184s0.479-0.063,0.691-0.184c0.428-0.247,0.688-0.702,0.688-1.196v-9.022
	c0-0.706-0.533-1.298-1.232-1.374c-4.078-0.436-8.217,0.767-11.471,3.288c-0.369,0.281-0.564,0.729-0.533,1.188
	C301.891,45.208,302.151,45.623,302.545,45.852z"/>
<path fill="#606268" d="M317.049,55.918c0.215,0.125,0.449,0.184,0.689,0.184c0.234,0,0.479-0.062,0.688-0.186l7.797-4.527
	c0.613-0.356,0.855-1.117,0.568-1.76c-1.689-3.757-4.721-6.688-8.533-8.248c-0.426-0.175-0.906-0.128-1.293,0.13
	c-0.381,0.256-0.613,0.688-0.613,1.147v12.063C316.358,55.217,316.62,55.673,317.049,55.918z"/>
<path fill="#606268" d="M321.788,66.583l-10.412-6.049c-0.428-0.249-0.951-0.251-1.385-0.002c-0.428,0.245-0.691,0.701-0.691,1.197
	v9.011c0,0.709,0.535,1.297,1.238,1.373c0.557,0.059,1.117,0.088,1.658,0.088c3.482,0,6.943-1.18,9.744-3.326
	c0.367-0.283,0.568-0.725,0.533-1.187C322.444,67.229,322.188,66.816,321.788,66.583z"/>
<path fill="#606268" d="M308.825,50.916l-7.785-4.476c-0.613-0.352-1.391-0.184-1.807,0.388c-1.961,2.711-3.045,6.038-3.045,9.364
	c0,0.685,0.043,1.373,0.129,2.045c0.059,0.457,0.338,0.856,0.75,1.061c0.195,0.099,0.408,0.146,0.617,0.146
	c0.232,0,0.473-0.06,0.686-0.181l10.453-5.949c0.43-0.244,0.695-0.7,0.695-1.194C309.518,51.621,309.25,51.163,308.825,50.916z"/>
<path fill="#606268" d="M307.348,56.396c-0.428-0.249-0.947-0.25-1.377-0.008l-7.859,4.477c-0.615,0.348-0.865,1.104-0.584,1.753
	c1.68,3.831,4.732,6.808,8.604,8.393c0.172,0.066,0.348,0.102,0.523,0.102c0.27,0,0.537-0.08,0.771-0.236
	c0.379-0.258,0.609-0.685,0.609-1.147V57.591C308.034,57.097,307.774,56.641,307.348,56.396z"/>
<path fill="#606268" d="M312.196,35.587c-11.363,0-20.605,9.243-20.605,20.604s9.242,20.606,20.605,20.606
	s20.605-9.245,20.605-20.606S323.557,35.587,312.196,35.587z M312.196,74.032c-9.84,0-17.842-8.001-17.842-17.84
	c0-9.837,8.006-17.841,17.842-17.841c9.84,0,17.842,8.005,17.842,17.841C330.038,66.031,322.036,74.032,312.196,74.032z"/>
<path fill="#1C4423" d="M255.752,98.452V88.286h0.766v4.771h4.146v-4.771h0.766v10.166h-0.766V93.78h-4.146v4.672H255.752z"/>
<path fill="#1C4423" d="M263.1,96.441c0-0.702,0.225-1.264,0.674-1.682c0.449-0.416,1.055-0.623,1.822-0.623h1.195v-0.93
	c0-0.535-0.123-0.953-0.369-1.256c-0.24-0.303-0.588-0.455-1.023-0.455c-0.41,0-0.748,0.145-1.012,0.434
	c-0.27,0.289-0.398,0.644-0.398,1.062l-0.711-0.007l-0.012-0.043c-0.021-0.565,0.174-1.071,0.588-1.518
	c0.412-0.445,0.938-0.668,1.582-0.668c0.635,0,1.145,0.213,1.537,0.641c0.389,0.427,0.584,1.033,0.584,1.824v3.709
	c0,0.312,0.016,0.584,0.045,0.82c0.029,0.234,0.061,0.469,0.092,0.701h-0.785c-0.031-0.258-0.059-0.473-0.08-0.645
	c-0.023-0.173-0.033-0.343-0.033-0.511c-0.207,0.377-0.477,0.688-0.809,0.935c-0.334,0.244-0.703,0.367-1.109,0.367
	c-0.566,0-1.004-0.195-1.313-0.584C263.25,97.627,263.1,97.104,263.1,96.441z M263.86,96.469c0,0.404,0.098,0.734,0.293,0.99
	c0.195,0.258,0.467,0.385,0.818,0.385c0.424,0,0.799-0.133,1.127-0.4c0.328-0.267,0.561-0.606,0.693-1.021v-1.635h-1.219
	c-0.521,0-0.938,0.162-1.248,0.483C264.018,95.594,263.86,95.995,263.86,96.469z"/>
<path fill="#1C4423" d="M269.016,95.01v-1.09c0-1.457,0.229-2.631,0.688-3.521c0.459-0.893,1.076-1.42,1.854-1.588
	c0.484-0.106,0.838-0.25,1.051-0.432c0.213-0.18,0.316-0.437,0.316-0.771h0.637l0.014,0.043c0.018,0.643-0.135,1.098-0.455,1.36
	c-0.316,0.266-0.791,0.451-1.414,0.559c-0.504,0.095-0.938,0.39-1.299,0.886s-0.578,1.164-0.654,2.008l0.025,0.033
	c0.197-0.33,0.459-0.597,0.789-0.795c0.33-0.201,0.688-0.302,1.076-0.302c0.732,0,1.32,0.314,1.762,0.947
	c0.439,0.631,0.658,1.439,0.658,2.433v0.229c0,1.057-0.23,1.92-0.693,2.588s-1.08,1.002-1.852,1.002
	c-0.764,0-1.369-0.334-1.822-1.002S269.016,96.066,269.016,95.01z M269.776,95.01c0,0.814,0.152,1.494,0.455,2.041
	c0.303,0.549,0.729,0.82,1.285,0.82c0.563,0,1-0.271,1.313-0.82c0.314-0.547,0.471-1.227,0.471-2.041V94.78
	c0-0.744-0.154-1.373-0.471-1.886c-0.313-0.514-0.754-0.77-1.318-0.77c-0.553,0-0.979,0.258-1.277,0.771
	c-0.303,0.516-0.455,1.143-0.455,1.883v0.23H269.776z"/>
<path fill="#1C4423" d="M274.786,98.452l0.012-0.769L275,97.676c0.381,0,0.654-0.254,0.82-0.762c0.164-0.506,0.246-1.4,0.246-2.68
	v-3.338h3.777v7.555h-0.764v-6.809h-2.254v2.592c0,1.481-0.135,2.559-0.406,3.221c-0.27,0.664-0.732,0.996-1.389,0.996
	L274.786,98.452L274.786,98.452z"/>
<path fill="#1C4423" d="M281.692,98.452v-7.556h0.762v3.429h1.535v-0.201c0-0.979,0.229-1.783,0.686-2.416s1.068-0.951,1.84-0.951
	c0.77,0,1.383,0.316,1.842,0.947s0.688,1.438,0.688,2.42v1.108c0,0.992-0.229,1.802-0.684,2.427
	c-0.457,0.627-1.07,0.938-1.838,0.938c-0.773,0-1.391-0.313-1.848-0.938c-0.457-0.625-0.686-1.435-0.686-2.427v-0.182h-1.535v3.4
	L281.692,98.452L281.692,98.452z M284.749,95.232c0,0.754,0.152,1.384,0.459,1.886c0.309,0.504,0.742,0.754,1.314,0.754
	c0.555,0,0.982-0.252,1.297-0.756c0.309-0.507,0.463-1.134,0.463-1.884v-1.108c0-0.74-0.154-1.363-0.463-1.869
	c-0.314-0.504-0.744-0.758-1.305-0.758c-0.564,0-0.998,0.254-1.307,0.758c-0.307,0.506-0.459,1.129-0.459,1.869V95.232z"/>
<path fill="#1C4423" d="M289.895,97.727h0.422c0.289-0.455,0.52-0.967,0.701-1.524c0.178-0.562,0.289-1.416,0.33-2.566l0.037-2.735
	h3.527v6.828h0.645l-0.07,2.946h-0.691v-2.221h-4.145v2.221h-0.691L289.895,97.727z M291.141,97.727h3.014v-6.063h-1.98
	l-0.064,1.945c-0.037,0.988-0.143,1.815-0.313,2.481C291.622,96.76,291.405,97.305,291.141,97.727z"/>
<path fill="#1C4423" d="M296.616,96.441c0-0.702,0.225-1.264,0.674-1.682c0.447-0.416,1.055-0.623,1.82-0.623h1.201v-0.93
	c0-0.535-0.123-0.953-0.369-1.256s-0.588-0.455-1.027-0.455c-0.412,0-0.748,0.145-1.014,0.434c-0.264,0.289-0.396,0.644-0.396,1.062
	l-0.711-0.007l-0.012-0.043c-0.02-0.565,0.174-1.071,0.586-1.518c0.414-0.445,0.941-0.668,1.584-0.668
	c0.635,0,1.146,0.213,1.537,0.641c0.389,0.427,0.584,1.033,0.584,1.824v3.709c0,0.312,0.014,0.584,0.045,0.82
	c0.031,0.234,0.061,0.469,0.09,0.701h-0.783c-0.033-0.258-0.061-0.473-0.082-0.645c-0.02-0.173-0.029-0.343-0.029-0.511
	c-0.209,0.377-0.48,0.688-0.813,0.935c-0.332,0.244-0.701,0.367-1.105,0.367c-0.566,0-1.004-0.195-1.314-0.584
	C296.772,97.627,296.616,97.104,296.616,96.441z M297.375,96.469c0,0.404,0.102,0.734,0.293,0.99
	c0.193,0.258,0.469,0.385,0.818,0.385c0.424,0,0.799-0.133,1.127-0.4c0.328-0.267,0.559-0.606,0.695-1.021v-1.635h-1.219
	c-0.521,0-0.938,0.162-1.248,0.483C297.532,95.594,297.375,95.995,297.375,96.469z"/>
<path fill="#1C4423" d="M302.862,98.452v-7.556h0.762v5.941l0.049,0.008l2.842-5.949h0.768v7.556h-0.764v-5.937l-0.043-0.006
	l-2.844,5.941L302.862,98.452L302.862,98.452z M303.471,87.937l0.021-0.041h0.629c0,0.35,0.074,0.628,0.225,0.841
	c0.15,0.214,0.391,0.318,0.721,0.318c0.313,0,0.547-0.109,0.701-0.326S306,88.233,306,87.896h0.627l0.02,0.041
	c0.014,0.521-0.125,0.946-0.41,1.274c-0.287,0.328-0.678,0.492-1.17,0.492c-0.502,0-0.896-0.164-1.186-0.492
	C303.588,88.883,303.454,88.458,303.471,87.937z"/>
<path fill="#1C4423" d="M308.493,91.629v-0.73h4.736v0.73h-2.021v6.822h-0.762v-6.822H308.493z"/>
<path fill="#1C4423" d="M313.985,95.338V94.08c0-0.953,0.236-1.746,0.709-2.377s1.041-0.947,1.705-0.947
	c0.719,0,1.277,0.283,1.674,0.852c0.398,0.563,0.596,1.324,0.596,2.277v0.832h-3.922v0.621c0,0.727,0.158,1.33,0.475,1.813
	c0.316,0.48,0.746,0.724,1.287,0.724c0.375,0,0.699-0.072,0.975-0.217c0.27-0.146,0.506-0.349,0.697-0.613l0.313,0.595
	c-0.207,0.293-0.477,0.526-0.801,0.7c-0.328,0.177-0.725,0.263-1.184,0.263c-0.742,0-1.348-0.308-1.816-0.918
	C314.221,97.07,313.985,96.288,313.985,95.338z M314.747,93.991h3.16v-0.322c0-0.623-0.133-1.142-0.398-1.553
	c-0.264-0.412-0.635-0.619-1.107-0.619c-0.479,0-0.867,0.239-1.176,0.721C314.918,92.699,314.758,93.288,314.747,93.991z"/>
<path fill="#1C4423" d="M322.51,96.333l0.014-0.045h0.711c0,0.448,0.139,0.823,0.414,1.129c0.271,0.306,0.621,0.455,1.047,0.455
	c0.457,0,0.809-0.133,1.057-0.402c0.248-0.268,0.371-0.625,0.371-1.071c0-0.494-0.113-0.855-0.34-1.082
	c-0.229-0.228-0.576-0.338-1.051-0.338h-0.9V94.23h0.9c0.457,0,0.785-0.113,0.986-0.345c0.201-0.229,0.303-0.557,0.303-0.981
	c0-0.414-0.107-0.752-0.324-1.01c-0.215-0.261-0.549-0.39-1.002-0.39c-0.381,0-0.703,0.138-0.971,0.408
	c-0.264,0.272-0.395,0.614-0.395,1.028h-0.723l-0.016-0.041c-0.02-0.623,0.176-1.133,0.588-1.528s0.918-0.595,1.516-0.595
	c0.656,0,1.17,0.187,1.537,0.556c0.365,0.371,0.551,0.897,0.551,1.582c0,0.362-0.084,0.69-0.256,0.983
	c-0.17,0.293-0.41,0.521-0.723,0.679c0.355,0.141,0.623,0.362,0.807,0.668c0.184,0.305,0.271,0.687,0.271,1.137
	c0,0.688-0.201,1.228-0.604,1.613c-0.4,0.389-0.932,0.582-1.588,0.582c-0.598,0-1.115-0.193-1.555-0.582
	C322.698,97.607,322.489,97.055,322.51,96.333z"/>
<path fill="#1C4423" d="M328.133,96.441c0-0.702,0.227-1.264,0.674-1.682c0.449-0.416,1.057-0.623,1.822-0.623h1.197v-0.93
	c0-0.535-0.123-0.953-0.367-1.256s-0.59-0.455-1.027-0.455c-0.408,0-0.748,0.145-1.014,0.434s-0.395,0.644-0.395,1.062l-0.713-0.007
	l-0.012-0.043c-0.02-0.565,0.174-1.071,0.586-1.518c0.414-0.445,0.939-0.668,1.584-0.668c0.637,0,1.146,0.213,1.537,0.641
	c0.391,0.427,0.584,1.033,0.584,1.824v3.709c0,0.312,0.018,0.584,0.045,0.82c0.031,0.234,0.063,0.469,0.094,0.701h-0.785
	c-0.031-0.258-0.061-0.473-0.08-0.645c-0.023-0.173-0.033-0.343-0.033-0.511c-0.207,0.377-0.477,0.688-0.811,0.935
	c-0.332,0.244-0.701,0.367-1.107,0.367c-0.566,0-1.004-0.195-1.314-0.584C328.288,97.627,328.133,97.104,328.133,96.441z
	 M328.897,96.469c0,0.404,0.098,0.734,0.293,0.99c0.193,0.258,0.467,0.385,0.816,0.385c0.424,0,0.799-0.133,1.127-0.4
	c0.328-0.267,0.563-0.606,0.693-1.021v-1.635h-1.219c-0.52,0-0.938,0.162-1.248,0.483C329.051,95.594,328.897,95.995,328.897,96.469
	z"/>
<path fill="#1C4423" d="M337.168,98.452v-7.556h2.139c0.721,0,1.279,0.168,1.684,0.506c0.402,0.339,0.604,0.843,0.604,1.513
	c0,0.387-0.09,0.729-0.27,1.021c-0.18,0.293-0.436,0.504-0.76,0.635c0.377,0.095,0.68,0.308,0.902,0.642
	c0.229,0.334,0.34,0.718,0.34,1.149c0,0.685-0.188,1.203-0.568,1.56s-0.904,0.533-1.568,0.533h-2.5v-0.002H337.168z M337.93,94.264
	h1.422c0.482,0,0.852-0.111,1.102-0.332c0.252-0.223,0.379-0.551,0.379-0.988c0-0.44-0.129-0.771-0.385-0.987
	c-0.256-0.215-0.637-0.324-1.141-0.324h-1.377V94.264L337.93,94.264z M337.93,97.747h1.738c0.439,0,0.777-0.119,1.021-0.361
	c0.236-0.237,0.355-0.586,0.355-1.036c0-0.423-0.119-0.755-0.361-0.998c-0.238-0.244-0.578-0.367-1.016-0.367h-1.738V97.747z"/>
<path fill="#1C4423" d="M343.071,96.441c0-0.702,0.225-1.264,0.674-1.682c0.447-0.416,1.055-0.623,1.82-0.623h1.201v-0.93
	c0-0.535-0.123-0.953-0.369-1.256s-0.588-0.455-1.027-0.455c-0.412,0-0.748,0.145-1.014,0.434c-0.264,0.289-0.396,0.644-0.396,1.062
	l-0.711-0.007l-0.012-0.043c-0.021-0.565,0.174-1.071,0.586-1.518c0.412-0.445,0.941-0.668,1.584-0.668
	c0.635,0,1.146,0.213,1.537,0.641c0.389,0.427,0.584,1.033,0.584,1.824v3.709c0,0.312,0.014,0.584,0.045,0.82
	c0.031,0.234,0.061,0.469,0.09,0.701h-0.783c-0.033-0.258-0.061-0.473-0.082-0.645c-0.02-0.173-0.031-0.343-0.031-0.511
	c-0.209,0.377-0.479,0.688-0.811,0.935c-0.332,0.244-0.701,0.367-1.107,0.367c-0.564,0-1.004-0.195-1.313-0.584
	C343.225,97.627,343.071,97.104,343.071,96.441z M343.833,96.469c0,0.404,0.098,0.734,0.293,0.99
	c0.191,0.258,0.467,0.385,0.816,0.385c0.424,0,0.799-0.133,1.127-0.4c0.328-0.267,0.561-0.606,0.695-1.021v-1.635h-1.219
	c-0.521,0-0.938,0.162-1.248,0.483C343.987,95.594,343.833,95.995,343.833,96.469z"/>
<path fill="#1C4423" d="M349.317,98.452v-7.556h0.762v6.828h2.361v-6.828h0.762v6.828h2.35v-6.828h0.764v7.556H349.317z"/>
<path fill="#1C4423" d="M358.059,98.452v-7.556h0.764v5.941l0.037,0.008l2.855-5.949h0.762v7.556h-0.762v-5.937l-0.039-0.006
	l-2.854,5.941L358.059,98.452L358.059,98.452z"/>
<path fill="#1C4423" d="M364.325,98.452v-7.556h0.996l2.107,6.34h0.037l2.113-6.34h0.945v7.556h-0.764v-5.804l-0.039-0.014
	l-2.012,5.816h-0.533l-2.057-5.957l-0.037,0.008v5.949L364.325,98.452L364.325,98.452z"/>
<path fill="#1C4423" d="M295.981,110.727h0.422c0.289-0.455,0.52-0.967,0.701-1.524c0.178-0.562,0.289-1.416,0.33-2.566l0.039-2.735
	H301v6.828h0.643l-0.07,2.946h-0.691v-2.221h-4.145v2.221h-0.691L295.981,110.727z M297.229,110.727h3.014v-6.063h-1.98
	l-0.064,1.945c-0.037,0.988-0.143,1.815-0.313,2.481C297.709,109.76,297.493,110.305,297.229,110.727z"/>
<path fill="#1C4423" d="M302.625,108.232v-1.108c0-0.979,0.23-1.783,0.689-2.416c0.453-0.633,1.064-0.951,1.838-0.951
	c0.77,0,1.383,0.316,1.842,0.947s0.688,1.438,0.688,2.42v1.108c0,0.992-0.229,1.802-0.684,2.427c-0.457,0.627-1.07,0.938-1.84,0.938
	c-0.773,0-1.391-0.313-1.844-0.938C302.856,110.034,302.625,109.225,302.625,108.232z M303.389,108.232
	c0,0.754,0.15,1.384,0.459,1.886c0.307,0.504,0.738,0.754,1.311,0.754c0.557,0,0.988-0.252,1.297-0.756
	c0.311-0.507,0.465-1.134,0.465-1.884v-1.108c0-0.74-0.154-1.363-0.465-1.869c-0.309-0.504-0.742-0.758-1.303-0.758
	c-0.564,0-0.998,0.254-1.305,0.758c-0.309,0.506-0.459,1.129-0.459,1.869V108.232L303.389,108.232z"/>
<path fill="#1C4423" d="M309.165,111.452v-7.556h0.996l2.107,6.34h0.037l2.115-6.34h0.945v7.556h-0.764v-5.804l-0.035-0.014
	l-2.016,5.816h-0.533l-2.059-5.957l-0.035,0.008v5.949L309.165,111.452L309.165,111.452z"/>
<path fill="#1C4423" d="M316.838,108.232v-1.108c0-0.979,0.23-1.783,0.689-2.416c0.457-0.633,1.066-0.951,1.838-0.951
	c0.77,0,1.383,0.316,1.842,0.947s0.688,1.438,0.688,2.42v1.108c0,0.992-0.229,1.802-0.684,2.427c-0.457,0.627-1.07,0.938-1.84,0.938
	c-0.771,0-1.387-0.313-1.844-0.938C317.069,110.034,316.838,109.225,316.838,108.232z M317.602,108.232
	c0,0.754,0.152,1.384,0.461,1.886c0.305,0.504,0.74,0.754,1.309,0.754c0.557,0,0.988-0.252,1.299-0.756
	c0.309-0.507,0.463-1.134,0.463-1.884v-1.108c0-0.74-0.154-1.363-0.463-1.869c-0.311-0.504-0.744-0.758-1.305-0.758
	c-0.564,0-0.998,0.254-1.303,0.758c-0.309,0.506-0.461,1.129-0.461,1.869V108.232z"/>
<path fill="#1C4423" d="M323.379,111.452v-7.556h0.996l2.105,6.34h0.039l2.113-6.34h0.945v7.556h-0.762v-5.804l-0.037-0.014
	l-2.016,5.816h-0.531l-2.059-5.957l-0.037,0.008v5.949L323.379,111.452L323.379,111.452z"/>
</svg>
