<?xml version="1.0" encoding="utf-8"?>
<!-- Generator: Adobe Illustrator 15.0.0, SVG Export Plug-In  -->
<!DOCTYPE svg PUBLIC "-//W3C//DTD SVG 1.1//EN" "http://www.w3.org/Graphics/SVG/1.1/DTD/svg11.dtd" [
	<!ENTITY ns_flows "http://ns.adobe.com/Flows/1.0/">
]>
<svg version="1.1"
	 xmlns="http://www.w3.org/2000/svg" xmlns:xlink="http://www.w3.org/1999/xlink" xmlns:a="http://ns.adobe.com/AdobeSVGViewerExtensions/3.0/"
	 x="0px" y="0px" width="199px" height="165px" viewBox="-3.0214844 -8.5136719 199 165"
	 enable-background="new -3.0214844 -8.5136719 199 165" xml:space="preserve">
<defs>
</defs>
<polygon fill="#5FC774" points="21.578125,94.9375 0.4658203,107.5419922 25.0742188,107.5419922 25.0742188,81.1630859 
	0.4492188,81.1630859 22.2788086,94.2998047 "/>
<rect x="0.4492188" y="80.5996094" fill="#255E30" width="24.625" height="0.9140625"/>
<polygon fill="#255E30" points="22.0541992,93.8945313 22.4980469,94.6875 0.4438477,108.0136719 0,107.2158203 "/>
<polygon fill="#255E30" points="0.4458008,80.5947266 22.5078125,93.9003906 22.0629883,94.6953125 0.0019531,81.3886719 "/>
<rect x="24.6489258" y="81.0585938" fill="#5FC774" width="22.0649414" height="26.4833984"/>
<rect x="23.0410156" y="107.0751953" fill="#255E30" width="23.6738281" height="0.9238281"/>
<rect x="21.9731445" y="80.5996094" fill="#255E30" width="24.7416992" height="0.9140625"/>
<rect x="0.4658203" y="107.0751953" fill="#255E30" width="24.6083984" height="0.9238281"/>
<polygon fill="#255E30" points="46.5532227,80.6162109 26.2148438,84.9931641 26.2148438,86.0107422 45.4741211,81.8613281 
	45.4741211,85.4765625 46.7148438,85.4765625 46.7148438,81.5947266 46.7148438,81.5546875 46.7148438,81.0869141 "/>
<polygon fill="#5FC774" points="171.3779297,94.9892578 192.4882813,107.5908203 167.8837891,107.5908203 167.8837891,81.2158203 
	192.5078125,81.2158203 170.6796875,94.3515625 "/>
<rect x="167.8837891" y="80.6464844" fill="#255E30" width="24.6240234" height="0.9160156"/>
<polygon fill="#255E30" points="170.9042969,93.9453125 170.4589844,94.7392578 192.5136719,108.0605469 192.9570313,107.2675781 
	"/>
<polygon fill="#255E30" points="192.5097656,80.6464844 170.4492188,93.9521484 170.8925781,94.7451172 192.9550781,81.4394531 "/>
<rect x="146.2402344" y="81.1074219" fill="#5FC774" width="22.0664063" height="26.4824219"/>
<rect x="146.2402344" y="107.1259766" fill="#255E30" width="23.6748047" height="0.9238281"/>
<rect x="146.2402344" y="80.6464844" fill="#255E30" width="24.7421875" height="0.9160156"/>
<rect x="167.8837891" y="107.1259766" fill="#255E30" width="24.6044922" height="0.9238281"/>
<polygon fill="#255E30" points="146.4023438,80.6650391 166.7402344,85.0439453 166.7402344,86.0605469 147.4824219,81.9130859 
	147.4824219,85.5253906 146.2402344,85.5253906 146.2402344,81.6464844 146.2402344,81.6035156 146.2402344,81.1337891 "/>
<polygon fill="#32773E" points="146.2402344,81.1630859 146.2402344,86.8330078 161.3574219,90.4335938 162.5458984,85.0498047 "/>
<polygon fill="#32773E" points="46.7148438,81.1162109 30.4101563,84.9990234 31.6000977,90.3818359 46.7148438,86.7822266 "/>
<path fill="#878A8C" d="M156.6503906,28.4082031c-1.1308594-1.3051758-2.7255859-2.0561523-4.4101563-2.1010742
	c-13.0175781-0.3481445-29.4785156-14.4472656-40.3808594-19.9790039c-6.7255859-3.4101563-11.1679688-5.65625-14.4921875-6.2480469
	C97.0175781,0.0341797,96.6821289,0,96.3398438,0c-0.3408203,0-0.6757813,0.0341797-1.0219727,0.0869141
	c-3.3359375,0.5932617-7.7749023,2.8378906-14.4980469,6.2460938C69.9291992,11.862793,53.4550781,25.96875,40.4370117,26.309082
	c-1.6782227,0.0449219-3.277832,0.8017578-4.4111328,2.1010742c-1.1459961,1.2988281-1.7368164,3.0297852-1.652832,4.7919922
	c2.7988281,57.5947266,23.1899414,93.2412109,58.972168,113.9550781c0.9306641,0.5410156,1.9628906,0.8154297,2.987793,0.8154297
	c1.0302734,0,2.0576172-0.2744141,2.9990234-0.8154297c35.7753906-20.7080078,56.1640625-56.3603516,58.9638672-113.9570313
	C158.3867188,31.4379883,157.7929688,29.7070313,156.6503906,28.4082031z M151.3837891,37.6850586
	c-2.4873047,51.262207-20.6367188,82.9916992-52.4794922,101.4262695c-0.8339844,0.4794922-1.7558594,0.7226563-2.6674805,0.7226563
	c-0.9150391,0-1.8339844-0.2480469-2.6606445-0.7226563C61.7319336,120.671875,43.5839844,88.9472656,41.0961914,37.6850586
	c-0.0771484-1.565918,0.4477539-3.1079102,1.46875-4.2651367c1.0102539-1.1547852,2.434082-1.828125,3.9301758-1.8691406
	c11.5839844-0.3017578,26.2436523-12.8569336,35.9379883-17.7758789c5.9819336-3.0356445,9.9379883-5.0317383,12.9018555-5.5610352
	c0.3081055-0.046875,0.6079102-0.074707,0.9101563-0.074707c0.3007813,0,0.6000977,0.027832,0.9140625,0.0708008
	c2.9589844,0.5283203,6.9160156,2.5239258,12.8994141,5.5581055c9.7011719,4.9248047,24.3525391,17.4760742,35.9375,17.7827148
	c1.5009766,0.0410156,2.9228516,0.7099609,3.9267578,1.8691406
	C150.9394531,34.5751953,151.4707031,36.1181641,151.3837891,37.6850586z"/>
<rect x="26.2871094" y="85.6503906" fill="#5FC774" width="140.0947266" height="30.6054688"/>
<path fill="#255E30" d="M166.9882813,116.8857422H25.6801758V85.0214844h141.309082v31.8642578H166.9882813z
	 M26.8950195,115.6240234h138.8803711V86.2822266H26.8950195V115.6240234z"/>
<rect x="27.6269531" y="87.6464844" fill="none" width="137.4140625" height="32.6660156"/>
<path fill="#1C4423" d="M42.3647461,94.6357422v-2.8134766c0-1.2148438,0.2509766-2.15625,0.7529297-2.8242188
	s1.1767578-1.0019531,2.0239258-1.0019531c0.8242188,0,1.4667969,0.2558594,1.9277344,0.7675781
	c0.4604492,0.5117188,0.6953125,1.2753906,0.7036133,2.2900391l-0.019043,0.0419922h-0.7045898
	c-0.0209961-0.8046875-0.1899414-1.4003906-0.5068359-1.7841797s-0.7836914-0.5751953-1.4008789-0.5751953
	c-0.6337891,0-1.1279297,0.2617188-1.4829102,0.7890625c-0.3549805,0.5253906-0.5322266,1.2841797-0.5322266,2.2753906v2.8349609
	c0,1.0107422,0.1772461,1.7783203,0.5322266,2.3037109c0.3549805,0.5273438,0.8491211,0.7890625,1.4829102,0.7890625
	c0.6171875,0,1.0839844-0.1875,1.4008789-0.5615234s0.4858398-0.9785156,0.5068359-1.8115234h0.7045898l0.019043,0.0410156
	c-0.0083008,0.9921875-0.2451172,1.75-0.7099609,2.2734375c-0.465332,0.5234375-1.1054688,0.7851563-1.9213867,0.7851563
	c-0.8515625,0-1.5273438-0.3300781-2.0268555-0.9912109C42.6147461,96.8027344,42.3647461,95.8603516,42.3647461,94.6357422z"/>
<path fill="#1C4423" d="M48.6806641,98.3085938l0.0126953-0.7675781l0.203125-0.0078125
	c0.3808594,0,0.6538086-0.2539063,0.8188477-0.7607422s0.2475586-1.4013672,0.2475586-2.6806641v-3.3378906h3.7768555v7.5546875
	h-0.7617188v-6.8076172h-2.253418v2.5908203c0,1.484375-0.1352539,2.5585938-0.40625,3.2216797
	s-0.734375,0.9951172-1.3901367,0.9951172H48.6806641z"/>
<path fill="#1C4423" d="M55.2124023,95.1943359V93.9375c0-0.9541016,0.2363281-1.7460938,0.7084961-2.3769531
	c0.4726563-0.6308594,1.0415039-0.9472656,1.706543-0.9472656c0.71875,0,1.2763672,0.2832031,1.6738281,0.8496094
	c0.3969727,0.5644531,0.5957031,1.3251953,0.5957031,2.2792969v0.8310547h-3.9228516v0.6210938
	c0,0.7255859,0.1582031,1.3300781,0.4750977,1.8115234c0.3168945,0.4824219,0.7456055,0.7226563,1.2861328,0.7226563
	c0.3759766,0,0.7001953-0.0722656,0.9726563-0.2158203c0.2724609-0.1445313,0.5058594-0.3486328,0.7001953-0.6142578
	l0.3110352,0.59375c-0.2070313,0.2929688-0.4746094,0.5273438-0.8017578,0.7011719
	c-0.3276367,0.1748047-0.7216797,0.2617188-1.1821289,0.2617188c-0.7416992,0-1.347168-0.3056641-1.8173828-0.9179688
	C55.4472656,96.9248047,55.2124023,96.1445313,55.2124023,95.1943359z M55.9741211,93.8466797h3.1611328v-0.3212891
	c0-0.6230469-0.1333008-1.1416016-0.3989258-1.5527344c-0.2661133-0.4121094-0.6357422-0.6191406-1.1088867-0.6191406
	c-0.4770508,0-0.8686523,0.2402344-1.175293,0.7197266C56.1459961,92.5527344,55.9868164,93.1445313,55.9741211,93.8466797z"/>
<path fill="#1C4423" d="M60.6904297,97.5820313h0.4208984c0.2890625-0.4550781,0.5229492-0.9648438,0.7016602-1.5253906
	s0.2890625-1.4160156,0.3310547-2.5664063l0.0380859-2.7363281h3.5292969v6.828125h0.6411133l-0.0698242,2.9472656h-0.6918945
	v-2.2207031h-4.1450195v2.2207031h-0.6918945L60.6904297,97.5820313z M61.9365234,97.5820313h3.0131836v-6.0605469h-1.9804688
	l-0.0634766,1.9453125c-0.0380859,0.9882813-0.1425781,1.8164063-0.3134766,2.4824219
	C62.4208984,96.6171875,62.2026367,97.1611328,61.9365234,97.5820313z"/>
<path fill="#1C4423" d="M67.6791992,98.3085938v-7.5546875h0.7617188v5.9414063l0.0380859,0.0078125l2.8564453-5.9492188h0.7617188
	v7.5546875h-0.7617188v-5.9355469l-0.0380859-0.0058594l-2.8564453,5.9414063H67.6791992z"/>
<path fill="#1C4423" d="M73.296875,91.4863281v-0.7324219h4.7353516v0.7324219h-2.0185547v6.8222656h-0.7617188v-6.8222656
	H73.296875z"/>
<path fill="#1C4423" d="M78.7749023,95.1943359V93.9375c0-0.9541016,0.2363281-1.7460938,0.7084961-2.3769531
	c0.4726563-0.6308594,1.0415039-0.9472656,1.706543-0.9472656c0.71875,0,1.2763672,0.2832031,1.6738281,0.8496094
	c0.3969727,0.5644531,0.5957031,1.3251953,0.5957031,2.2792969v0.8310547h-3.9228516v0.6210938
	c0,0.7255859,0.1582031,1.3300781,0.4750977,1.8115234c0.3168945,0.4824219,0.7456055,0.7226563,1.2861328,0.7226563
	c0.3759766,0,0.7001953-0.0722656,0.9726563-0.2158203c0.2724609-0.1445313,0.5058594-0.3486328,0.7001953-0.6142578
	l0.3110352,0.59375c-0.2070313,0.2929688-0.4746094,0.5273438-0.8017578,0.7011719
	c-0.3276367,0.1748047-0.7216797,0.2617188-1.1821289,0.2617188c-0.7416992,0-1.347168-0.3056641-1.8173828-0.9179688
	C79.0097656,96.9248047,78.7749023,96.1445313,78.7749023,95.1943359z M79.5366211,93.8466797h3.1611328v-0.3212891
	c0-0.6230469-0.1333008-1.1416016-0.3989258-1.5527344c-0.2661133-0.4121094-0.6357422-0.6191406-1.1088867-0.6191406
	c-0.4770508,0-0.8686523,0.2402344-1.175293,0.7197266C79.7084961,92.5527344,79.5493164,93.1445313,79.5366211,93.8466797z"/>
<path fill="#1C4423" d="M87.2744141,96.1894531l0.0126953-0.0449219h0.7109375c0,0.4482422,0.1376953,0.8242188,0.4125977,1.1289063
	c0.2749023,0.3037109,0.6240234,0.4550781,1.0473633,0.4550781c0.4570313,0,0.8095703-0.1337891,1.0566406-0.4023438
	c0.2480469-0.2675781,0.371582-0.6259766,0.371582-1.0742188c0-0.4941406-0.1132813-0.8554688-0.3393555-1.0810547
	c-0.2265625-0.2255859-0.5766602-0.3388672-1.0507813-0.3388672h-0.9013672v-0.7480469h0.9013672
	c0.4570313,0,0.7861328-0.1132813,0.9873047-0.3417969c0.2006836-0.2285156,0.3012695-0.5566406,0.3012695-0.984375
	c0-0.4140625-0.1079102-0.7509766-0.3237305-1.0097656c-0.2158203-0.2578125-0.550293-0.3867188-1.0029297-0.3867188
	c-0.3808594,0-0.7036133,0.1357422-0.9677734,0.4082031c-0.2646484,0.2724609-0.3969727,0.6152344-0.3969727,1.0292969h-0.7236328
	l-0.0126953-0.0410156c-0.0209961-0.6240234,0.1748047-1.1337891,0.5874023-1.5292969
	c0.4130859-0.3955078,0.9174805-0.59375,1.5136719-0.59375c0.6582031,0,1.1708984,0.1855469,1.5375977,0.5546875
	c0.3671875,0.3710938,0.5507813,0.8984375,0.5507813,1.5820313c0,0.3632813-0.0849609,0.6914063-0.2553711,0.984375
	s-0.4111328,0.5195313-0.722168,0.6777344c0.3554688,0.1396484,0.6240234,0.3623047,0.8061523,0.6679688
	c0.1821289,0.3046875,0.2729492,0.6835938,0.2729492,1.1367188c0,0.6875-0.2011719,1.2255859-0.6025391,1.6132813
	c-0.4018555,0.3886719-0.9311523,0.5820313-1.5874023,0.5820313c-0.5966797,0-1.1152344-0.1933594-1.5551758-0.5820313
	C87.4628906,97.4638672,87.253418,96.9101563,87.2744141,96.1894531z"/>
<path fill="#1C4423" d="M92.8857422,96.2978516c0-0.703125,0.2241211-1.2626953,0.6728516-1.6796875
	s1.0556641-0.6240234,1.8217773-0.6240234h1.199707v-0.9296875c0-0.5351563-0.1225586-0.953125-0.3681641-1.2558594
	s-0.5883789-0.4550781-1.0283203-0.4550781c-0.4106445,0-0.7480469,0.1445313-1.0126953,0.4335938
	c-0.2641602,0.2890625-0.3964844,0.6425781-0.3964844,1.0605469l-0.7109375-0.0058594l-0.0126953-0.0429688
	c-0.0209961-0.5673828,0.1748047-1.0732422,0.5869141-1.5175781c0.4130859-0.4453125,0.940918-0.6679688,1.5839844-0.6679688
	c0.6347656,0,1.1469727,0.2138672,1.5361328,0.6396484c0.3886719,0.4257813,0.5839844,1.0341797,0.5839844,1.8251953v3.7089844
	c0,0.3105469,0.015625,0.5839844,0.0449219,0.8203125c0.03125,0.2353516,0.0615234,0.46875,0.0917969,0.7011719h-0.7841797
	c-0.0327148-0.2578125-0.0600586-0.4726563-0.081543-0.6445313c-0.0219727-0.1699219-0.0327148-0.3398438-0.0327148-0.5078125
	c-0.2075195,0.3769531-0.4770508,0.6875-0.8095703,0.9326172c-0.3320313,0.2441406-0.7011719,0.3662109-1.1074219,0.3662109
	c-0.5668945,0-1.0048828-0.1943359-1.3139648-0.5830078S92.8857422,96.9589844,92.8857422,96.2978516z M93.6474609,96.3261719
	c0,0.4042969,0.097168,0.734375,0.2919922,0.9902344c0.1948242,0.2568359,0.4677734,0.3847656,0.8188477,0.3847656
	c0.4233398,0,0.7988281-0.1337891,1.1264648-0.4013672c0.328125-0.2675781,0.5600586-0.6083984,0.6953125-1.0224609v-1.6347656
	h-1.21875c-0.5205078,0-0.9365234,0.1621094-1.2470703,0.4853516
	C93.8027344,95.4511719,93.6474609,95.8505859,93.6474609,96.3261719z"/>
<path fill="#1C4423" d="M101.8925781,98.3085938v-7.5546875h0.9970703l2.1074219,6.3398438h0.0380859l2.1132813-6.3398438h0.9462891
	v7.5546875h-0.7617188v-5.8027344l-0.0380859-0.0136719l-2.0117188,5.8164063H104.75l-2.0566406-5.9560547l-0.0390625,0.0068359
	v5.9492188H101.8925781z"/>
<path fill="#1C4423" d="M109.6308594,96.2978516c0-0.703125,0.2246094-1.2626953,0.6728516-1.6796875
	s1.0556641-0.6240234,1.8212891-0.6240234h1.2001953v-0.9296875c0-0.5351563-0.1220703-0.953125-0.3681641-1.2558594
	s-0.5878906-0.4550781-1.0283203-0.4550781c-0.4111328,0-0.7480469,0.1445313-1.0126953,0.4335938
	c-0.2636719,0.2890625-0.3964844,0.6425781-0.3964844,1.0605469l-0.7109375-0.0058594l-0.0126953-0.0429688
	c-0.0205078-0.5673828,0.1748047-1.0732422,0.5869141-1.5175781c0.4130859-0.4453125,0.9414063-0.6679688,1.5839844-0.6679688
	c0.6347656,0,1.1464844,0.2138672,1.5361328,0.6396484s0.5839844,1.0341797,0.5839844,1.8251953v3.7089844
	c0,0.3105469,0.0146484,0.5839844,0.0458984,0.8203125c0.0302734,0.2353516,0.0605469,0.46875,0.0898438,0.7011719h-0.7832031
	c-0.0332031-0.2578125-0.0605469-0.4726563-0.0820313-0.6445313c-0.0214844-0.1699219-0.0322266-0.3398438-0.0322266-0.5078125
	c-0.2080078,0.3769531-0.4775391,0.6875-0.8095703,0.9326172c-0.3320313,0.2441406-0.7011719,0.3662109-1.1074219,0.3662109
	c-0.5664063,0-1.0048828-0.1943359-1.3144531-0.5830078C109.7851563,97.4833984,109.6308594,96.9589844,109.6308594,96.2978516z
	 M110.3925781,96.3261719c0,0.4042969,0.0976563,0.734375,0.2919922,0.9902344
	c0.1943359,0.2568359,0.4677734,0.3847656,0.8193359,0.3847656c0.4228516,0,0.7988281-0.1337891,1.1259766-0.4013672
	c0.328125-0.2675781,0.5595703-0.6083984,0.6953125-1.0224609v-1.6347656h-1.21875
	c-0.5205078,0-0.9365234,0.1621094-1.2470703,0.4853516C110.5478516,95.4511719,110.3925781,95.8505859,110.3925781,96.3261719z"/>
<path fill="#1C4423" d="M115.8642578,98.3085938v-7.5546875h0.7617188v6.828125h2.3613281v-6.828125h0.7617188v6.828125h2.3486328
	v-6.828125h0.7617188v7.5546875H115.8642578z"/>
<path fill="#1C4423" d="M124.5917969,98.3085938v-7.5546875h0.7617188v5.9414063l0.0390625,0.0078125l2.8554688-5.9492188h0.7617188
	v7.5546875h-0.7617188v-5.9355469l-0.0371094-0.0058594l-2.8574219,5.9414063H124.5917969z"/>
<path fill="#1C4423" d="M130.8261719,98.3085938v-7.5546875h0.7617188v3.3789063h2.8945313v-3.3789063h0.7617188v7.5546875
	h-0.7617188V94.859375h-2.8945313v3.4492188H130.8261719z"/>
<path fill="#1C4423" d="M136.6972656,95.0898438v-1.1103516c0-0.9775391,0.2285156-1.7822266,0.6845703-2.4160156
	c0.4560547-0.6328125,1.0693359-0.9501953,1.8388672-0.9501953s1.3828125,0.3164063,1.8417969,0.9472656
	c0.4580078,0.6308594,0.6875,1.4375,0.6875,2.4189453v1.1103516c0,0.9912109-0.2285156,1.8007813-0.6845703,2.4257813
	c-0.4560547,0.6269531-1.0693359,0.9394531-1.8388672,0.9394531c-0.7734375,0-1.3886719-0.3125-1.8447266-0.9394531
	C136.9257813,96.890625,136.6972656,96.0810547,136.6972656,95.0898438z M137.4589844,95.0898438
	c0,0.7539063,0.1523438,1.3828125,0.4580078,1.8847656c0.3056641,0.5029297,0.7412109,0.7539063,1.3095703,0.7539063
	c0.5556641,0,0.9882813-0.2519531,1.296875-0.7568359c0.3105469-0.5048828,0.4648438-1.1318359,0.4648438-1.8818359v-1.1103516
	c0-0.7402344-0.1542969-1.3623047-0.4648438-1.8681641c-0.3085938-0.5048828-0.7431641-0.7578125-1.3027344-0.7578125
	c-0.5644531,0-0.9980469,0.2529297-1.3037109,0.7578125c-0.3056641,0.5058594-0.4580078,1.1279297-0.4580078,1.8681641V95.0898438z"
	/>
<path fill="#1C4423" d="M143.203125,98.3085938v-7.5546875h0.7617188v5.9414063l0.0488281,0.0078125l2.8417969-5.9492188h0.765625
	v7.5546875h-0.7617188v-5.9355469l-0.0429688-0.0058594l-2.84375,5.9414063H143.203125z M143.8125,87.7929688l0.0205078-0.0419922
	h0.6279297c0,0.3486328,0.0742188,0.6279297,0.2246094,0.8408203s0.390625,0.3183594,0.7207031,0.3183594
	c0.3125,0,0.546875-0.1083984,0.7011719-0.3251953s0.2324219-0.4951172,0.2324219-0.8339844h0.6269531l0.0195313,0.0419922
	c0.0136719,0.5214844-0.1240234,0.9462891-0.4101563,1.2744141c-0.2871094,0.328125-0.6767578,0.4921875-1.1699219,0.4921875
	c-0.5019531,0-0.8964844-0.1640625-1.1855469-0.4921875S143.7958984,88.3144531,143.8125,87.7929688z"/>
<path fill="#1C4423" d="M56.0888672,112.3085938v-7.5546875h0.7617188v5.9414063l0.0380859,0.0078125l2.8564453-5.9492188h0.7617188
	v7.5546875h-0.7617188v-5.9355469l-0.0380859-0.0058594l-2.8564453,5.9414063H56.0888672z"/>
<path fill="#1C4423" d="M62.0112305,110.1894531l0.0126953-0.0449219h0.7109375
	c0,0.4482422,0.1376953,0.8242188,0.4125977,1.1289063c0.2749023,0.3037109,0.6240234,0.4550781,1.0473633,0.4550781
	c0.4570313,0,0.809082-0.1337891,1.0571289-0.4023438c0.2470703-0.2675781,0.3710938-0.6259766,0.3710938-1.0742188
	c0-0.4941406-0.1132813-0.8554688-0.3398438-1.0810547c-0.2260742-0.2255859-0.5761719-0.3388672-1.050293-0.3388672H63.331543
	v-0.7480469h0.9013672c0.4570313,0,0.7861328-0.1132813,0.9868164-0.3417969
	c0.2011719-0.2285156,0.3017578-0.5566406,0.3017578-0.984375c0-0.4140625-0.1079102-0.7509766-0.3237305-1.0097656
	c-0.2158203-0.2578125-0.550293-0.3867188-1.0029297-0.3867188c-0.3808594,0-0.7036133,0.1357422-0.9682617,0.4082031
	c-0.2641602,0.2724609-0.3964844,0.6152344-0.3964844,1.0292969h-0.7236328l-0.0126953-0.0410156
	c-0.0209961-0.6240234,0.1748047-1.1337891,0.5874023-1.5292969c0.4130859-0.3955078,0.9174805-0.59375,1.5136719-0.59375
	c0.6582031,0,1.1708984,0.1855469,1.5375977,0.5546875c0.3671875,0.3710938,0.5507813,0.8984375,0.5507813,1.5820313
	c0,0.3632813-0.0849609,0.6914063-0.2553711,0.984375s-0.4111328,0.5195313-0.722168,0.6777344
	c0.3554688,0.1396484,0.6240234,0.3623047,0.8061523,0.6679688c0.1821289,0.3046875,0.2729492,0.6835938,0.2729492,1.1367188
	c0,0.6875-0.2011719,1.2255859-0.6025391,1.6132813c-0.4018555,0.3886719-0.9311523,0.5820313-1.5874023,0.5820313
	c-0.5966797,0-1.1152344-0.1933594-1.5551758-0.5820313C62.199707,111.4638672,61.9902344,110.9101563,62.0112305,110.1894531z"/>
<path fill="#1C4423" d="M70.0283203,112.3085938l0.0126953-0.7675781l0.203125-0.0078125
	c0.3808594,0,0.6538086-0.2539063,0.8188477-0.7607422s0.2475586-1.4013672,0.2475586-2.6806641v-3.3378906h3.7768555v7.5546875
	h-0.7617188v-6.8076172h-2.253418v2.5908203c0,1.484375-0.1352539,2.5585938-0.40625,3.2216797
	s-0.734375,0.9951172-1.3901367,0.9951172H70.0283203z"/>
<path fill="#1C4423" d="M76.921875,112.3085938v-7.5546875h0.7617188v3.4277344h1.5361328v-0.2021484
	c0-0.9775391,0.2280273-1.7822266,0.6845703-2.4160156c0.456543-0.6328125,1.0693359-0.9501953,1.8388672-0.9501953
	c0.769043,0,1.3828125,0.3164063,1.8413086,0.9472656s0.6879883,1.4375,0.6879883,2.4189453v1.1103516
	c0,0.9912109-0.2285156,1.8007813-0.6845703,2.4257813c-0.456543,0.6269531-1.0693359,0.9394531-1.8388672,0.9394531
	c-0.7729492,0-1.3881836-0.3125-1.8447266-0.9394531c-0.456543-0.625-0.6845703-1.4345703-0.6845703-2.4257813v-0.1816406
	h-1.5361328v3.4003906H76.921875z M79.9814453,109.0898438c0,0.7539063,0.1523438,1.3828125,0.4580078,1.8847656
	c0.3051758,0.5029297,0.7416992,0.7539063,1.3095703,0.7539063c0.5556641,0,0.987793-0.2519531,1.2973633-0.7568359
	s0.4643555-1.1318359,0.4643555-1.8818359v-1.1103516c0-0.7402344-0.1547852-1.3623047-0.4643555-1.8681641
	c-0.3095703-0.5048828-0.7436523-0.7578125-1.3032227-0.7578125c-0.5639648,0-0.9985352,0.2529297-1.3037109,0.7578125
	c-0.3056641,0.5058594-0.4580078,1.1279297-0.4580078,1.8681641V109.0898438z"/>
<path fill="#1C4423" d="M85.4658203,108.8662109v-1.0888672c0-1.4570313,0.2294922-2.6308594,0.6879883-3.5234375
	c0.4589844-0.890625,1.0761719-1.4199219,1.8515625-1.5878906c0.487793-0.1074219,0.8383789-0.25,1.0512695-0.4296875
	s0.3193359-0.4365234,0.3193359-0.7714844h0.6337891l0.0136719,0.0419922
	c0.0170898,0.6425781-0.1347656,1.0966797-0.4545898,1.3613281c-0.3193359,0.265625-0.7905273,0.4521484-1.4135742,0.5585938
	c-0.5048828,0.0927734-0.9379883,0.3876953-1.2988281,0.8837891c-0.3613281,0.4960938-0.5791016,1.1640625-0.6542969,2.0078125
	l0.0253906,0.0341797c0.1962891-0.3310547,0.4589844-0.5957031,0.7885742-0.7958984s0.6884766-0.3007813,1.0766602-0.3007813
	c0.7338867,0,1.3208008,0.3164063,1.7602539,0.9472656s0.6591797,1.4414063,0.6591797,2.4326172v0.2304688
	c0,1.0566406-0.2314453,1.9189453-0.6938477,2.5869141s-1.0791016,1.0019531-1.8505859,1.0019531
	c-0.7626953,0-1.3706055-0.3339844-1.8232422-1.0019531S85.4658203,109.9228516,85.4658203,108.8662109z M86.2275391,108.8662109
	c0,0.8154297,0.1513672,1.4951172,0.4536133,2.0419922c0.3027344,0.546875,0.7314453,0.8203125,1.2866211,0.8203125
	c0.5620117,0,0.9995117-0.2734375,1.3129883-0.8203125c0.3129883-0.546875,0.4697266-1.2265625,0.4697266-2.0419922v-0.2304688
	c0-0.7451172-0.1567383-1.3730469-0.4697266-1.8857422c-0.3134766-0.5117188-0.7529297-0.7675781-1.3193359-0.7675781
	c-0.5507813,0-0.9775391,0.2578125-1.2802734,0.7714844c-0.3022461,0.5146484-0.4536133,1.1416016-0.4536133,1.8818359V108.8662109z
	"/>
<path fill="#1C4423" d="M91.4960938,109.0898438v-1.1103516c0-0.9775391,0.2280273-1.7822266,0.6845703-2.4160156
	c0.456543-0.6328125,1.0693359-0.9501953,1.8388672-0.9501953c0.769043,0,1.3828125,0.3164063,1.8413086,0.9472656
	s0.6879883,1.4375,0.6879883,2.4189453v1.1103516c0,0.9912109-0.2285156,1.8007813-0.6845703,2.4257813
	c-0.456543,0.6269531-1.0693359,0.9394531-1.8388672,0.9394531c-0.7729492,0-1.3881836-0.3125-1.8447266-0.9394531
	C91.7241211,110.890625,91.4960938,110.0810547,91.4960938,109.0898438z M92.2578125,109.0898438
	c0,0.7539063,0.1523438,1.3828125,0.4580078,1.8847656c0.3051758,0.5029297,0.7416992,0.7539063,1.3095703,0.7539063
	c0.5556641,0,0.987793-0.2519531,1.2973633-0.7568359s0.4643555-1.1318359,0.4643555-1.8818359v-1.1103516
	c0-0.7402344-0.1547852-1.3623047-0.4643555-1.8681641c-0.3095703-0.5048828-0.7436523-0.7578125-1.3032227-0.7578125
	c-0.5639648,0-0.9985352,0.2529297-1.3037109,0.7578125c-0.3056641,0.5058594-0.4580078,1.1279297-0.4580078,1.8681641V109.0898438z
	"/>
<path fill="#1C4423" d="M97.9960938,112.3085938v-7.5546875h3.5488281v0.7470703h-2.7871094v6.8076172H97.9960938z"/>
<path fill="#1C4423" d="M102.1660156,109.0898438v-1.1103516c0-0.9775391,0.2285156-1.7822266,0.6855469-2.4160156
	c0.4560547-0.6328125,1.0683594-0.9501953,1.8378906-0.9501953s1.3828125,0.3164063,1.8417969,0.9472656
	s0.6875,1.4375,0.6875,2.4189453v1.1103516c0,0.9912109-0.2285156,1.8007813-0.6835938,2.4257813
	c-0.4570313,0.6269531-1.0703125,0.9394531-1.8388672,0.9394531c-0.7734375,0-1.3886719-0.3125-1.8447266-0.9394531
	C102.3945313,110.890625,102.1660156,110.0810547,102.1660156,109.0898438z M102.9277344,109.0898438
	c0,0.7539063,0.1523438,1.3828125,0.4589844,1.8847656c0.3046875,0.5029297,0.7412109,0.7539063,1.3095703,0.7539063
	c0.5556641,0,0.9873047-0.2519531,1.296875-0.7568359s0.4638672-1.1318359,0.4638672-1.8818359v-1.1103516
	c0-0.7402344-0.1542969-1.3623047-0.4638672-1.8681641c-0.3095703-0.5048828-0.7431641-0.7578125-1.3037109-0.7578125
	c-0.5634766,0-0.9980469,0.2529297-1.3027344,0.7578125c-0.3066406,0.5058594-0.4589844,1.1279297-0.4589844,1.8681641V109.0898438z
	"/>
<path fill="#1C4423" d="M111.4472656,112.3085938v-7.5546875h0.9960938l2.1074219,6.3398438h0.0380859l2.1142578-6.3398438
	h0.9453125v7.5546875h-0.7617188v-5.8027344l-0.0380859-0.0136719l-2.0126953,5.8164063h-0.5332031l-2.0566406-5.9560547
	l-0.0371094,0.0068359v5.9492188H111.4472656z"/>
<path fill="#1C4423" d="M119.1210938,109.1943359V107.9375c0-0.9541016,0.2363281-1.7460938,0.7089844-2.3769531
	s1.0410156-0.9472656,1.7060547-0.9472656c0.71875,0,1.2763672,0.2832031,1.6738281,0.8496094
	c0.3974609,0.5644531,0.5957031,1.3251953,0.5957031,2.2792969v0.8310547h-3.9228516v0.6210938
	c0,0.7255859,0.1582031,1.3300781,0.4746094,1.8115234c0.3173828,0.4824219,0.7460938,0.7226563,1.2871094,0.7226563
	c0.375,0,0.6992188-0.0722656,0.9726563-0.2158203c0.2714844-0.1445313,0.5058594-0.3486328,0.6992188-0.6142578l0.3115234,0.59375
	c-0.2070313,0.2929688-0.4746094,0.5273438-0.8017578,0.7011719c-0.328125,0.1748047-0.7216797,0.2617188-1.1816406,0.2617188
	c-0.7421875,0-1.3476563-0.3056641-1.8183594-0.9179688S119.1210938,110.1445313,119.1210938,109.1943359z M119.8828125,107.8466797
	h3.1611328v-0.3212891c0-0.6230469-0.1337891-1.1416016-0.3994141-1.5527344
	c-0.265625-0.4121094-0.6347656-0.6191406-1.1083984-0.6191406c-0.4775391,0-0.8681641,0.2402344-1.1748047,0.7197266
	S119.8955078,107.1445313,119.8828125,107.8466797z"/>
<path fill="#1C4423" d="M124.8466797,109.125v-1.1738281c0-0.9726563,0.2128906-1.7714844,0.6376953-2.3984375
	c0.4257813-0.625,1.0332031-0.9394531,1.8251953-0.9394531c0.6396484,0,1.1669922,0.2460938,1.5839844,0.7373047
	s0.6181641,1.1376953,0.6064453,1.9375l-0.0136719,0.0351563h-0.6787109c0-0.6005859-0.1425781-1.0791016-0.4287109-1.4345703
	c-0.2851563-0.3564453-0.6425781-0.5351563-1.0693359-0.5351563c-0.5927734,0-1.0244141,0.2460938-1.2949219,0.7373047
	s-0.40625,1.1113281-0.40625,1.8603516V109.125c0,0.7578125,0.1357422,1.3828125,0.40625,1.8710938
	s0.7021484,0.7324219,1.2949219,0.7324219c0.3974609,0,0.7470703-0.15625,1.0478516-0.4707031
	c0.2998047-0.3144531,0.4501953-0.7480469,0.4501953-1.3027344h0.6728516L129.5,109.9980469
	c0.0117188,0.6972656-0.2011719,1.28125-0.6416016,1.7519531s-0.9560547,0.7050781-1.5488281,0.7050781
	c-0.7919922,0-1.3994141-0.3105469-1.8251953-0.9316406C125.0595703,110.9023438,124.8466797,110.1015625,124.8466797,109.125z"/>
<path fill="#1C4423" d="M130.2988281,105.4863281v-0.7324219h4.7363281v0.7324219h-2.0195313v6.8222656h-0.7617188v-6.8222656
	H130.2988281z"/>
<path fill="#1C4423" d="M135.8535156,110.2978516c0-0.703125,0.2246094-1.2626953,0.6728516-1.6796875
	s1.0556641-0.6240234,1.8212891-0.6240234h1.2001953v-0.9296875c0-0.5351563-0.1220703-0.953125-0.3681641-1.2558594
	s-0.5878906-0.4550781-1.0283203-0.4550781c-0.4111328,0-0.7480469,0.1445313-1.0126953,0.4335938
	c-0.2636719,0.2890625-0.3964844,0.6425781-0.3964844,1.0605469l-0.7109375-0.0058594l-0.0126953-0.0429688
	c-0.0205078-0.5673828,0.1748047-1.0732422,0.5869141-1.5175781c0.4130859-0.4453125,0.9414063-0.6679688,1.5839844-0.6679688
	c0.6347656,0,1.1464844,0.2138672,1.5361328,0.6396484s0.5839844,1.0341797,0.5839844,1.8251953v3.7089844
	c0,0.3105469,0.0146484,0.5839844,0.0458984,0.8203125c0.0302734,0.2353516,0.0605469,0.46875,0.0898438,0.7011719h-0.7832031
	c-0.0332031-0.2578125-0.0605469-0.4726563-0.0820313-0.6445313c-0.0214844-0.1699219-0.0322266-0.3398438-0.0322266-0.5078125
	c-0.2080078,0.3769531-0.4775391,0.6875-0.8095703,0.9326172c-0.3320313,0.2441406-0.7011719,0.3662109-1.1074219,0.3662109
	c-0.5664063,0-1.0048828-0.1943359-1.3144531-0.5830078C136.0078125,111.4833984,135.8535156,110.9589844,135.8535156,110.2978516z
	 M136.6152344,110.3261719c0,0.4042969,0.0976563,0.734375,0.2919922,0.9902344
	c0.1943359,0.2568359,0.4677734,0.3847656,0.8193359,0.3847656c0.4228516,0,0.7988281-0.1337891,1.1259766-0.4013672
	c0.328125-0.2675781,0.5595703-0.6083984,0.6953125-1.0224609v-1.6347656h-1.21875
	c-0.5205078,0-0.9365234,0.1621094-1.2470703,0.4853516C136.7705078,109.4511719,136.6152344,109.8505859,136.6152344,110.3261719z"
	/>
<path fill="#878A8C" d="M96.4790039,21.5488281c-15.184082,0-27.4941406,12.3251953-27.4941406,27.5244141
	c0,15.199707,12.3100586,27.5244141,27.4941406,27.5244141c15.1821289,0,27.4916992-12.3256836,27.4916992-27.5244141
	C123.9707031,33.8740234,111.6601563,21.5488281,96.4790039,21.5488281z M96.4790039,28.4311523
	c8.9477539,0,16.5053711,5.769043,19.3579102,13.7607422H77.1201172
	C79.9750977,34.2011719,87.5307617,28.4311523,96.4790039,28.4311523z M96.4790039,52.5141602
	c-1.8979492,0-3.4379883-1.5390625-3.4379883-3.440918c0-1.8994141,1.5380859-3.4404297,3.4379883-3.4404297
	c1.9008789,0,3.4379883,1.5400391,3.4379883,3.4404297C99.9160156,50.9760742,98.3798828,52.5141602,96.4790039,52.5141602z
	 M75.8588867,49.0732422c9.3901367,0,16.9970703,9.0576172,17.1552734,20.2939453
	C83.2939453,67.7021484,75.8588867,59.2661133,75.8588867,49.0732422z M99.9394531,69.3691406
	c0.1640625-11.2363281,7.7675781-20.2939453,17.1582031-20.2939453
	C117.0996094,59.2661133,109.6601563,67.7021484,99.9394531,69.3691406z"/>
</svg>
