<?xml version="1.0" encoding="utf-8"?>
<!-- Generator: Adobe Illustrator 15.0.0, SVG Export Plug-In  -->
<!DOCTYPE svg PUBLIC "-//W3C//DTD SVG 1.1//EN" "http://www.w3.org/Graphics/SVG/1.1/DTD/svg11.dtd" [
	<!ENTITY ns_flows "http://ns.adobe.com/Flows/1.0/">
]>
<svg version="1.1"
	 xmlns="http://www.w3.org/2000/svg" xmlns:xlink="http://www.w3.org/1999/xlink" xmlns:a="http://ns.adobe.com/AdobeSVGViewerExtensions/3.0/"
	 x="0px" y="0px" width="229px" height="176px" viewBox="-18.0214844 -14.0126953 229 176"
	 enable-background="new -18.0214844 -14.0126953 229 176" xml:space="preserve">
<defs>
</defs>
<polygon fill="#5FC774" points="21.5791016,94.9404297 0.4658203,107.5449219 25.0742188,107.5449219 25.0742188,81.1650391 
	0.4492188,81.1650391 22.2783203,94.3007813 "/>
<rect x="0.4492188" y="80.5996094" fill="#255E30" width="24.625" height="0.9140625"/>
<polygon fill="#255E30" points="22.0537109,93.8955078 22.4980469,94.6904297 0.4443359,108.0136719 0,107.2167969 "/>
<polygon fill="#255E30" points="0.4462891,80.5957031 22.5078125,93.9033203 22.0625,94.6972656 0.0019531,81.3886719 "/>
<rect x="24.6494141" y="81.0585938" fill="#5FC774" width="22.0664063" height="26.484375"/>
<rect x="23.0419922" y="107.0771484" fill="#255E30" width="23.6738281" height="0.9248047"/>
<rect x="21.9736328" y="80.5996094" fill="#255E30" width="24.7421875" height="0.9140625"/>
<rect x="0.4658203" y="107.0771484" fill="#255E30" width="24.6083984" height="0.9248047"/>
<polygon fill="#255E30" points="46.5537109,80.6171875 26.2148438,84.9941406 26.2148438,86.0117188 45.4736328,81.8642578 
	45.4736328,85.4775391 46.7158203,85.4775391 46.7158203,81.5957031 46.7158203,81.5546875 46.7158203,81.0878906 "/>
<polygon fill="#5FC774" points="171.3769531,94.9902344 192.4902344,107.5917969 167.8828125,107.5917969 167.8828125,81.2167969 
	192.5078125,81.2167969 170.6787109,94.3515625 "/>
<rect x="167.8828125" y="80.6484375" fill="#255E30" width="24.625" height="0.9169922"/>
<polygon fill="#255E30" points="170.9042969,93.9472656 170.4589844,94.7412109 192.5126953,108.0615234 192.9570313,107.2675781 
	"/>
<polygon fill="#255E30" points="192.5097656,80.6464844 170.4492188,93.9541016 170.8925781,94.7470703 192.9550781,81.4414063 "/>
<rect x="146.2402344" y="81.109375" fill="#5FC774" width="22.0664063" height="26.4824219"/>
<rect x="146.2402344" y="107.1289063" fill="#255E30" width="23.6757813" height="0.921875"/>
<rect x="146.2402344" y="80.6484375" fill="#255E30" width="24.7431641" height="0.9169922"/>
<rect x="167.8828125" y="107.1289063" fill="#255E30" width="24.6054688" height="0.921875"/>
<polygon fill="#255E30" points="146.4023438,80.6679688 166.7402344,85.0449219 166.7402344,86.0615234 147.4833984,81.9150391 
	147.4833984,85.5283203 146.2402344,85.5283203 146.2402344,81.6494141 146.2402344,81.6054688 146.2402344,81.1347656 "/>
<polygon fill="#32773E" points="146.2402344,81.1650391 146.2402344,86.8339844 161.3574219,90.4335938 162.5449219,85.0507813 "/>
<polygon fill="#32773E" points="46.7158203,81.1171875 30.4111328,85.0019531 31.5996094,90.3828125 46.7158203,86.7841797 "/>
<path fill="#606268" d="M156.6513672,28.4091797c-1.1318359-1.3046875-2.7255859-2.0556641-4.4111328-2.1015625
	c-13.0175781-0.3466797-29.4775391-14.4462891-40.3808594-19.9775391
	c-6.7246094-3.4111328-11.1679688-5.6572266-14.4912109-6.2490234C97.0166016,0.0341797,96.6816406,0,96.3408203,0
	s-0.6757813,0.0341797-1.0224609,0.0869141c-3.3349609,0.5927734-7.7734375,2.8378906-14.4970703,6.2460938
	C69.9296875,11.8632813,53.4560547,25.96875,40.4384766,26.3076172c-1.6777344,0.0458984-3.2783203,0.8027344-4.4121094,2.1015625
	c-1.1455078,1.2978516-1.7363281,3.0302734-1.6523438,4.7919922c2.7978516,57.59375,23.1894531,93.2412109,58.9707031,113.9570313
	c0.9306641,0.5410156,1.9628906,0.8164063,2.9882813,0.8164063c1.0292969,0,2.0576172-0.2753906,2.9990234-0.8164063
	c35.7753906-20.7089844,56.1640625-56.3613281,58.9628906-113.9580078
	C158.3867188,31.4394531,157.7929688,29.7080078,156.6513672,28.4091797z M151.3828125,37.6855469
	c-2.4863281,51.2626953-20.6367188,82.9921875-52.4785156,101.4267578
	c-0.8339844,0.4794922-1.7558594,0.7236328-2.6679688,0.7236328c-0.9150391,0-1.8339844-0.25-2.6611328-0.7236328
	C61.7304688,120.671875,43.5830078,88.9482422,41.0947266,37.6855469c-0.0771484-1.5664063,0.4492188-3.1083984,1.4697266-4.2646484
	c1.0097656-1.1552734,2.4335938-1.8291016,3.9296875-1.8691406C58.0791016,31.25,72.7382813,18.6953125,82.4316406,13.7753906
	c5.9833984-3.0361328,9.9384766-5.0322266,12.9033203-5.5605469c0.3076172-0.046875,0.6074219-0.0751953,0.9101563-0.0751953
	c0.3007813,0,0.5996094,0.0283203,0.9140625,0.0712891c2.9589844,0.5283203,6.9160156,2.5253906,12.8994141,5.5585938
	c9.7011719,4.9248047,24.3515625,17.4746094,35.9375,17.7822266c1.5,0.0410156,2.921875,0.7089844,3.9257813,1.8691406
	C150.9404297,34.5761719,151.4707031,36.1191406,151.3828125,37.6855469z"/>
<rect x="26.2880859" y="85.6533203" fill="#5FC774" width="140.0947266" height="30.6044922"/>
<path fill="#255E30" d="M166.9882813,116.8867188H25.6796875V85.0234375h141.3085938V116.8867188L166.9882813,116.8867188z
	 M26.8955078,115.625h138.8789063V86.2841797H26.8955078V115.625z"/>
<rect x="27.7714844" y="93.3203125" fill="none" width="137.4140625" height="15.2714844"/>
<ellipse fill="#606268" cx="96.4799805" cy="52.3530273" rx="5.121582" ry="5.3178711"/>
<path fill="#606268" d="M98.6523438,58.0341797h-4.3452148c-3.6171875,0-6.5566406,3.0556641-6.5566406,6.8095703v5.5214844
	l0.0126953,0.0839844l0.3662109,0.1201172c3.4492188,1.1191406,6.4472656,1.4931641,8.9155273,1.4931641
	c4.8144531,0,7.609375-1.4277344,7.7832031-1.5195313l0.34375-0.1816406l0.0332031,0.0029297V64.84375
	C105.2089844,61.0898438,102.2675781,58.0341797,98.6523438,58.0341797z"/>
<ellipse fill="#606268" cx="86.0249023" cy="36.8623047" rx="8.2636719" ry="8.5800781"/>
<path fill="#606268" d="M106.9316406,45.4423828c4.5625,0,8.2597656-3.84375,8.2597656-8.5810547
	c0-4.7363281-3.6972656-8.5791016-8.2597656-8.5791016s-8.2617188,3.8417969-8.2617188,8.5791016
	S102.3691406,45.4423828,106.9316406,45.4423828z"/>
<path fill="#606268" d="M92.4624023,57.1982422c-1.3105469-1.1748047-2.1445313-2.9101563-2.1445313-4.8447266
	c0-2.3730469,1.2509766-4.4443359,3.1044922-5.5488281c-1.2070313-0.5-2.5175781-0.7802734-3.8935547-0.7802734H82.519043
	c-5.8320313,0-10.5761719,4.9277344-10.5761719,10.9833984v8.9052734l0.0214844,0.1396484l0.5898438,0.1884766
	c5.4609375,1.7724609,10.2158203,2.3857422,14.1533203,2.4052734v-3.8046875
	C86.7094727,61.1542969,89.1645508,58.0556641,92.4624023,57.1982422z"/>
<path fill="#606268" d="M110.4375,46.0253906h-7.0097656c-1.375,0-2.6835938,0.2802734-3.890625,0.7802734
	c1.8535156,1.1044922,3.1054688,3.1748047,3.1054688,5.5488281c0,1.9335938-0.8339844,3.6679688-2.1445313,4.8427734
	c1.3183594,0.3427734,2.5371094,1.0429688,3.5234375,2.0683594c1.4394531,1.4931641,2.2304688,3.4765625,2.2304688,5.578125
	v3.8046875c3.9355469-0.0214844,8.6894531-0.6328125,14.1484375-2.4052734l0.59375-0.1884766l0.0195313-0.1396484v-8.9052734
	C121.0136719,50.953125,116.2695313,46.0253906,110.4375,46.0253906z"/>
<path fill="#1C4423" d="M55.7519531,95.5537109l0.019043-0.0419922h0.7045898c0,0.6474609,0.1782227,1.1826172,0.534668,1.6064453
	c0.3569336,0.4238281,0.8173828,0.6357422,1.3823242,0.6357422c0.6386719,0,1.1362305-0.1933594,1.4916992-0.5800781
	c0.3554688-0.3857422,0.5332031-0.9121094,0.5332031-1.578125c0-0.7119141-0.1665039-1.2353516-0.4990234-1.5712891
	c-0.3325195-0.3349609-0.8271484-0.5019531-1.4833984-0.5019531h-0.8959961v-0.7402344h0.8979492
	c0.6367188,0,1.1069336-0.1728516,1.4106445-0.5166016c0.3037109-0.3447266,0.4555664-0.8261719,0.4555664-1.4453125
	c0-0.6152344-0.1601563-1.1113281-0.480957-1.4912109c-0.3203125-0.3789063-0.7973633-0.5693359-1.4296875-0.5693359
	c-0.5097656,0-0.9384766,0.1933594-1.2866211,0.5800781c-0.3486328,0.3867188-0.5224609,0.8818359-0.5224609,1.4873047h-0.7236328
	l-0.0126953-0.0419922c-0.0209961-0.8193359,0.2167969-1.4853516,0.7143555-1.9970703s1.1079102-0.7685547,1.8310547-0.7685547
	c0.8251953,0,1.4765625,0.2460938,1.9550781,0.7373047c0.4780273,0.4912109,0.7172852,1.1884766,0.7172852,2.0908203
	c0,0.5029297-0.1210938,0.9580078-0.3637695,1.3652344s-0.5791016,0.7109375-1.0092773,0.9111328
	c0.4848633,0.1816406,0.8544922,0.4794922,1.1074219,0.8935547c0.253418,0.4150391,0.3798828,0.9316406,0.3798828,1.5507813
	c0,0.9121094-0.2573242,1.625-0.7714844,2.1396484s-1.1860352,0.7714844-2.0151367,0.7714844
	c-0.7236328,0-1.3491211-0.25-1.8759766-0.75C55.9897461,97.2285156,55.7348633,96.5039063,55.7519531,95.5537109z"/>
<path fill="#1C4423" d="M62.347168,96.3222656c0-0.703125,0.2241211-1.2626953,0.6728516-1.6796875
	c0.4487305-0.4160156,1.0556641-0.625,1.8217773-0.625h1.199707v-0.9287109c0-0.5351563-0.1225586-0.9541016-0.3681641-1.2568359
	c-0.2456055-0.3017578-0.5883789-0.453125-1.0283203-0.453125c-0.4106445,0-0.7480469,0.1435547-1.0126953,0.4326172
	c-0.2641602,0.2890625-0.3964844,0.6425781-0.3964844,1.0615234l-0.7109375-0.0068359l-0.0126953-0.0419922
	c-0.0209961-0.5683594,0.1748047-1.0742188,0.5869141-1.5185547c0.4130859-0.4453125,0.940918-0.6669922,1.5839844-0.6669922
	c0.6347656,0,1.1469727,0.2128906,1.5361328,0.6386719s0.5839844,1.0341797,0.5839844,1.8261719v3.7070313
	c0,0.3105469,0.0151367,0.5849609,0.0454102,0.8203125c0.0307617,0.2363281,0.0610352,0.4707031,0.0908203,0.7021484h-0.7836914
	c-0.0327148-0.2587891-0.0600586-0.4726563-0.081543-0.6435547c-0.0219727-0.1708984-0.0327148-0.3408203-0.0327148-0.5087891
	c-0.2075195,0.3769531-0.4770508,0.6884766-0.8095703,0.9326172c-0.3320313,0.2441406-0.7011719,0.3662109-1.1074219,0.3662109
	c-0.5668945,0-1.0048828-0.1943359-1.3139648-0.5830078S62.347168,96.9833984,62.347168,96.3222656z M63.1088867,96.3496094
	c0,0.4052734,0.097168,0.7363281,0.2919922,0.9921875s0.4677734,0.3837891,0.8188477,0.3837891
	c0.4233398,0,0.7988281-0.1337891,1.1264648-0.4013672c0.328125-0.2675781,0.5600586-0.6083984,0.6953125-1.0234375v-1.6337891
	h-1.21875c-0.5205078,0-0.9365234,0.1621094-1.2470703,0.4853516C63.2641602,95.4765625,63.1088867,95.875,63.1088867,96.3496094z"
	/>
<path fill="#1C4423" d="M68.5424805,98.3330078v-7.5546875h0.7617188v6.828125h2.3613281v-6.828125h0.7617188v6.828125h2.3486328
	v-6.828125h0.7617188v6.828125h0.7299805l-0.0634766,2.9677734H75.512207v-2.2412109H68.5424805z"/>
<path fill="#1C4423" d="M77.4482422,98.3330078v-7.5546875h0.7617188v5.9414063l0.0380859,0.0068359l2.8564453-5.9482422h0.7617188
	v7.5546875h-0.7617188v-5.9345703l-0.0380859-0.0078125l-2.8564453,5.9423828H77.4482422z"/>
<path fill="#1C4423" d="M83.065918,91.5107422v-0.7324219h4.7353516v0.7324219h-2.0185547v6.8222656h-0.7617188v-6.8222656
	H83.065918z"/>
<path fill="#1C4423" d="M89.0009766,98.3330078v-7.5546875h0.7617188v5.9414063l0.0380859,0.0068359l2.8564453-5.9482422h0.7617188
	v7.5546875h-0.7617188v-5.9345703l-0.0380859-0.0078125l-2.8564453,5.9423828H89.0009766z"/>
<path fill="#1C4423" d="M94.6186523,91.5107422v-0.7324219h4.7348633v0.7324219h-2.0175781v6.8222656h-0.762207v-6.8222656
	H94.6186523z"/>
<path fill="#1C4423" d="M100.0966797,95.21875v-1.2568359c0-0.9541016,0.2363281-1.7470703,0.7080078-2.3769531
	c0.4726563-0.6308594,1.0419922-0.9462891,1.7070313-0.9462891c0.71875,0,1.2763672,0.2822266,1.6738281,0.8476563
	c0.3964844,0.5664063,0.5957031,1.3261719,0.5957031,2.2802734v0.8310547h-3.9228516V95.21875
	c0,0.7265625,0.1582031,1.3300781,0.4755859,1.8125c0.3164063,0.4814453,0.7451172,0.7226563,1.2851563,0.7226563
	c0.3769531,0,0.7011719-0.0722656,0.9726563-0.2167969c0.2734375-0.1445313,0.5058594-0.3496094,0.7011719-0.6142578
	l0.3105469,0.5927734c-0.2070313,0.2939453-0.4746094,0.5273438-0.8017578,0.7021484s-0.7216797,0.2617188-1.1826172,0.2617188
	c-0.7412109,0-1.3466797-0.3056641-1.8164063-0.9179688C100.3320313,96.9492188,100.0966797,96.1679688,100.0966797,95.21875z
	 M100.8583984,93.8710938h3.1611328v-0.3212891c0-0.6230469-0.1328125-1.1416016-0.3984375-1.5537109
	c-0.2666016-0.4111328-0.6367188-0.6171875-1.109375-0.6171875c-0.4765625,0-0.8691406,0.2392578-1.1757813,0.71875
	C101.0302734,92.5771484,100.8710938,93.1679688,100.8583984,93.8710938z"/>
<path fill="#1C4423" d="M108.5771484,95.1494141v-1.1738281c0-0.9726563,0.2119141-1.7714844,0.6376953-2.3984375
	c0.4257813-0.6259766,1.0332031-0.9384766,1.8251953-0.9384766c0.6396484,0,1.1669922,0.2451172,1.5830078,0.7363281
	c0.4179688,0.4912109,0.6191406,1.1367188,0.6074219,1.9375l-0.0136719,0.0351563h-0.6787109
	c0-0.6005859-0.1435547-1.0791016-0.4287109-1.4345703c-0.2851563-0.3564453-0.6425781-0.5341797-1.0693359-0.5341797
	c-0.5927734,0-1.0244141,0.2451172-1.2949219,0.7363281s-0.40625,1.1113281-0.40625,1.8603516v1.1738281
	c0,0.7587891,0.1357422,1.3818359,0.40625,1.8710938c0.2705078,0.4882813,0.7021484,0.7333984,1.2949219,0.7333984
	c0.3974609,0,0.7470703-0.1572266,1.0478516-0.4716797c0.2998047-0.3144531,0.4501953-0.7480469,0.4501953-1.3027344h0.6728516
	l0.0195313,0.0419922c0.0117188,0.6982422-0.2011719,1.2832031-0.6416016,1.7529297
	c-0.4404297,0.4707031-0.9560547,0.7050781-1.5488281,0.7050781c-0.7919922,0-1.3994141-0.3105469-1.8251953-0.9316406
	C108.7890625,96.9257813,108.5771484,96.1269531,108.5771484,95.1494141z"/>
<path fill="#1C4423" d="M114.6640625,98.3330078v-7.5546875h2.1396484c0.7197266,0,1.2802734,0.1689453,1.6826172,0.5058594
	c0.4013672,0.3378906,0.6025391,0.8417969,0.6025391,1.5117188c0,0.3867188-0.0898438,0.7265625-0.2705078,1.0195313
	c-0.1796875,0.2929688-0.4316406,0.5048828-0.7578125,0.6357422c0.3769531,0.0927734,0.6777344,0.3066406,0.9042969,0.6396484
	c0.2265625,0.3339844,0.3398438,0.7167969,0.3398438,1.1513672c0,0.6826172-0.1904297,1.2021484-0.5712891,1.5576172
	s-0.9033203,0.5332031-1.5673828,0.5332031H114.6640625z M115.4257813,94.1435547h1.421875
	c0.4824219,0,0.8496094-0.1103516,1.1015625-0.3320313c0.2519531-0.2207031,0.3779297-0.5498047,0.3779297-0.9873047
	c0-0.4423828-0.1279297-0.7714844-0.3837891-0.9882813s-0.6367188-0.3251953-1.1396484-0.3251953h-1.3779297V94.1435547z
	 M115.4257813,97.6279297h1.7402344c0.4394531,0,0.7792969-0.1201172,1.0175781-0.3603516
	c0.2402344-0.2402344,0.359375-0.5869141,0.359375-1.0400391c0-0.4199219-0.1210938-0.7519531-0.3613281-0.9970703
	c-0.2421875-0.2451172-0.5800781-0.3681641-1.015625-0.3681641h-1.7402344V97.6279297z"/>
<path fill="#1C4423" d="M120.4785156,95.1142578v-1.1103516c0-0.9775391,0.2285156-1.7832031,0.6855469-2.4160156
	c0.4560547-0.6328125,1.0683594-0.9492188,1.8378906-0.9492188s1.3828125,0.3154297,1.8417969,0.9462891
	c0.4589844,0.6298828,0.6875,1.4365234,0.6875,2.4189453v1.1103516c0,0.9912109-0.2285156,1.7998047-0.6835938,2.4257813
	c-0.4570313,0.6269531-1.0703125,0.9394531-1.8398438,0.9394531c-0.7724609,0-1.3876953-0.3125-1.84375-0.9394531
	C120.7070313,96.9140625,120.4785156,96.1054688,120.4785156,95.1142578z M121.2402344,95.1142578
	c0,0.7539063,0.1523438,1.3828125,0.4589844,1.8847656c0.3046875,0.5029297,0.7412109,0.7548828,1.3085938,0.7548828
	c0.5566406,0,0.9882813-0.2529297,1.2978516-0.7578125s0.4638672-1.1328125,0.4638672-1.8818359v-1.1103516
	c0-0.7402344-0.1542969-1.3623047-0.4638672-1.8681641c-0.3095703-0.5048828-0.7431641-0.7568359-1.3037109-0.7568359
	c-0.5634766,0-0.9980469,0.2519531-1.3027344,0.7568359c-0.3066406,0.5058594-0.4589844,1.1279297-0.4589844,1.8681641V95.1142578z"
	/>
<path fill="#1C4423" d="M126.9863281,98.3330078v-7.5546875h0.7617188v5.9414063l0.0371094,0.0068359l2.8574219-5.9482422h0.7617188
	v7.5546875h-0.7617188v-5.9345703l-0.0390625-0.0078125l-2.8554688,5.9423828H126.9863281z"/>
<path fill="#1C4423" d="M132.6289063,98.3330078l1.9804688-3.8408203l-1.9042969-3.7138672h0.8886719l1.421875,3.0722656
	l1.4355469-3.0722656h0.8945313l-1.8984375,3.7138672l1.9746094,3.8408203h-0.8886719l-1.5039063-3.1982422l-1.5058594,3.1982422
	H132.6289063z"/>
<path fill="#1C4423" d="M76.2641602,107.890625v-1.0888672c0-1.4570313,0.2294922-2.6318359,0.6879883-3.5234375
	c0.4589844-0.890625,1.0761719-1.4208984,1.8515625-1.5878906c0.487793-0.1074219,0.8383789-0.25,1.0512695-0.4296875
	c0.2128906-0.1787109,0.3193359-0.4365234,0.3193359-0.7714844h0.6337891l0.0136719,0.0419922
	c0.0170898,0.6425781-0.1347656,1.0957031-0.4545898,1.3613281c-0.3193359,0.265625-0.7905273,0.4521484-1.4135742,0.5585938
	c-0.5048828,0.09375-0.9379883,0.3876953-1.2988281,0.8837891c-0.3613281,0.4951172-0.5791016,1.1650391-0.6542969,2.0068359
	l0.0253906,0.0351563c0.1962891-0.3300781,0.4589844-0.5957031,0.7885742-0.7958984s0.6884766-0.2998047,1.0766602-0.2998047
	c0.7338867,0,1.3208008,0.3144531,1.7602539,0.9453125s0.6591797,1.4423828,0.6591797,2.4335938v0.2304688
	c0,1.0566406-0.2314453,1.9189453-0.6938477,2.5869141s-1.0791016,1.0019531-1.8505859,1.0019531
	c-0.7626953,0-1.3706055-0.3339844-1.8232422-1.0019531S76.2641602,108.9472656,76.2641602,107.890625z M77.0258789,107.890625
	c0,0.8144531,0.1513672,1.4951172,0.4536133,2.0419922c0.3027344,0.5478516,0.7314453,0.8212891,1.2866211,0.8212891
	c0.5620117,0,0.9995117-0.2734375,1.3129883-0.8212891c0.3129883-0.546875,0.4697266-1.2275391,0.4697266-2.0419922v-0.2304688
	c0-0.7441406-0.1567383-1.3730469-0.4697266-1.8847656c-0.3134766-0.5126953-0.7529297-0.7685547-1.3193359-0.7685547
	c-0.5507813,0-0.9775391,0.2578125-1.2802734,0.7714844c-0.3022461,0.5146484-0.4536133,1.1416016-0.4536133,1.8818359V107.890625z"
	/>
<path fill="#1C4423" d="M82.0214844,111.3330078l0.0126953-0.7685547l0.203125-0.0068359
	c0.3808594,0,0.6538086-0.2529297,0.8188477-0.7607422c0.1650391-0.5068359,0.2475586-1.4013672,0.2475586-2.6816406v-3.3369141
	h3.7768555v7.5546875h-0.7617188v-6.8076172h-2.253418v2.5898438c0,1.4853516-0.1352539,2.5595703-0.40625,3.2226563
	s-0.734375,0.9951172-1.3901367,0.9951172H82.0214844z"/>
<path fill="#1C4423" d="M88.8959961,111.3330078v-7.5546875h0.7617188v5.9414063l0.0380859,0.0068359l2.8564453-5.9482422h0.7617188
	v7.5546875h-0.7617188v-5.9345703l-0.0380859-0.0078125l-2.8564453,5.9423828H88.8959961z"/>
<path fill="#1C4423" d="M94.8183594,109.2138672l0.0126953-0.0458984h0.7109375
	c0,0.4492188,0.1376953,0.8261719,0.4125977,1.1298828s0.6240234,0.4560547,1.0473633,0.4560547
	c0.4570313,0,0.8085938-0.1347656,1.0566406-0.4033203c0.2480469-0.2675781,0.3710938-0.6259766,0.3710938-1.0742188
	c0-0.4941406-0.1132813-0.8544922-0.3398438-1.0810547c-0.2255859-0.2265625-0.5761719-0.3398438-1.0498047-0.3398438h-0.9013672
	v-0.7470703h0.9013672c0.4570313,0,0.7861328-0.1132813,0.9873047-0.3417969s0.3007813-0.5566406,0.3007813-0.984375
	c0-0.4140625-0.1074219-0.7509766-0.3232422-1.0087891c-0.2158203-0.2587891-0.5498047-0.3876953-1.0029297-0.3876953
	c-0.3808594,0-0.7036133,0.1357422-0.9682617,0.4082031c-0.2641602,0.2724609-0.3964844,0.6152344-0.3964844,1.0302734h-0.7236328
	l-0.0126953-0.0419922c-0.0209961-0.6240234,0.1748047-1.1337891,0.5874023-1.5292969
	c0.4130859-0.3955078,0.9174805-0.59375,1.5136719-0.59375c0.6582031,0,1.1708984,0.1855469,1.5371094,0.5556641
	c0.3671875,0.3701172,0.5507813,0.8964844,0.5507813,1.5810547c0,0.3632813-0.0839844,0.6914063-0.2548828,0.984375
	c-0.1708984,0.2939453-0.4111328,0.5195313-0.7216797,0.6777344c0.3554688,0.1396484,0.6230469,0.3623047,0.8056641,0.6679688
	s0.2724609,0.6845703,0.2724609,1.1367188c0,0.6875-0.2011719,1.2255859-0.6015625,1.6142578
	c-0.4023438,0.3876953-0.9316406,0.5820313-1.5878906,0.5820313c-0.5966797,0-1.1152344-0.1943359-1.5551758-0.5820313
	C95.0068359,110.4882813,94.7973633,109.9345703,94.8183594,109.2138672z"/>
<path fill="#1C4423" d="M100.7089844,111.3330078v-7.5546875h0.7617188v3.3447266h0.7871094l2.0117188-3.3447266h0.9462891
	l-2.3359375,3.6376953l2.5644531,3.9169922h-0.9833984l-2.1835938-3.4423828h-0.8066406v3.4423828H100.7089844z"/>
<path fill="#1C4423" d="M106.4980469,111.3330078v-7.5546875h0.7617188v5.9414063l0.0380859,0.0068359l2.8564453-5.9482422
	h0.7617188v7.5546875h-0.7617188v-5.9345703l-0.0380859-0.0078125l-2.8564453,5.9423828H106.4980469z"/>
<path fill="#1C4423" d="M112.140625,111.3330078l1.9804688-3.8408203l-1.9042969-3.7138672h0.8886719l1.421875,3.0722656
	l1.4355469-3.0722656h0.8945313l-1.8984375,3.7138672l1.9746094,3.8408203h-0.8886719l-1.5039063-3.1982422l-1.5048828,3.1982422
	H112.140625z"/>
</svg>
