<?xml version="1.0" encoding="utf-8"?>
<!-- Generator: Adobe Illustrator 15.0.0, SVG Export Plug-In  -->
<!DOCTYPE svg PUBLIC "-//W3C//DTD SVG 1.1//EN" "http://www.w3.org/Graphics/SVG/1.1/DTD/svg11.dtd" [
	<!ENTITY ns_flows "http://ns.adobe.com/Flows/1.0/">
]>
<svg version="1.1"
	 xmlns="http://www.w3.org/2000/svg" xmlns:xlink="http://www.w3.org/1999/xlink" xmlns:a="http://ns.adobe.com/AdobeSVGViewerExtensions/3.0/"
	 x="0px" y="0px" width="199px" height="165px" viewBox="-12.5708008 -18.4580078 199 165"
	 enable-background="new -12.5708008 -18.4580078 199 165" xml:space="preserve">
<defs>
</defs>
<rect x="22.1640625" y="75.4628906" fill="#58C46E" width="19.8349609" height="22.9248047"/>
<rect x="19.7583008" y="75.0654297" fill="#255E30" width="22.2407227" height="0.7929688"/>
<rect x="20.7192383" y="97.9873047" fill="#255E30" width="21.2797852" height="0.7978516"/>
<path fill="#00A14B" d="M38.8994141,76.9130859c-1.0561523,0.4150391-2.1362305,0.6953125-3.1582031,1.2021484
	c-0.7602539,0.3789063,0.1118164,0.6533203,0.5581055,0.5224609c1.2060547-0.3515625,2.6000977-0.7167969,3.6240234-1.4628906
	c0.3657227-0.2695313,0.019043-0.4980469-0.2973633-0.4863281c-1.4907227,0.0546875-2.8657227,0.4511719-4.2797852,0.9033203
	c-0.6547852,0.2080078-0.9511719,0.8154297-0.0258789,0.7138672c1.019043-0.1113281,1.9790039-0.3007813,2.9458008-0.6318359
	c0.4770508-0.1611328,0.6811523-0.6728516,0.0180664-0.6640625c-1.7270508,0.0292969-3.5961914,0.4345703-5.2470703,0.9287109
	c-0.46875,0.140625-1.0600586,0.6777344-0.2197266,0.7304688c0.3378906,0.0341797,0.6767578,0.0410156,1.0180664,0.0253906
	c0.0068359-0.2226563,0.0126953-0.4443359,0.0175781-0.6640625c-0.2089844,0.0625-0.4199219,0.125-0.6347656,0.1884766
	c-0.4379883,0.0800781-1.4208984,0.7714844-0.4272461,0.7714844c1.0620117,0.0019531,2.0991211-0.1396484,3.1572266-0.1982422
	c0.0717773-0.2441406,0.1469727-0.4863281,0.2211914-0.7304688c-1.2480469,0.4121094-2.5361328,0.2851563-3.828125,0.265625
	c-0.5151367-0.0078125-1.6621094,0.7382813-0.6181641,0.7880859c2.9291992,0.140625,5.8579102-0.484375,8.8012695-0.2978516
	c0.2587891,0.0166016,1.0366211-0.1523438,1.0727539-0.5039063c0.0917969-0.8046875-0.0507813-1.578125-0.097168-2.3847656
	c-0.0239258-0.4804688-1.2138672,0-1.3725586,0.1162109c-1.2011719,0.8525391-3.1811523,0.9345703-4.6054688,1.2705078
	c-0.4926758,0.1171875-1.0395508,0.6826172-0.2216797,0.7294922c0.8520508,0.0537109,1.6420898-0.1279297,2.4829102-0.2626953
	c0.4208984-0.0673828,0.8427734-0.1347656,1.2661133-0.2021484c0.7900391-0.1220703-1.1040039,0.4814453-1.2680664,0.4580078
	c-0.0620117,0.2167969-0.125,0.4335938-0.1889648,0.6503906c0.6547852-0.3046875,1.355957-0.3583984,2.0151367-0.6787109
	c0.9267578-0.4482422-0.4760742-0.5927734-0.9301758-0.3740234c-0.5219727,0.2539063-1.1259766,0.2636719-1.6650391,0.515625
	c-0.269043,0.125-0.7939453,0.5625-0.1899414,0.6523438c1.0927734,0.1611328,3.8930664-0.3125,4.0571289-1.7382813
	c0.0166016-0.1308594-0.0322266-0.1806641-0.1459961-0.2363281c-1.2822266-0.6582031-3.4311523,0.5107422-4.8100586,0.4267578
	C35.8510742,77.5,35.7773438,77.7421875,35.7041016,77.9853516c2.0039063-0.4726563,3.925293-0.5449219,5.6381836-1.7578125
	c-0.4589844,0.0351563-0.9160156,0.0722656-1.3759766,0.1113281c0.0410156,0.7324219,0.1870117,1.4541016,0.1020508,2.1894531
	c0.3598633-0.1699219,0.71875-0.3359375,1.0756836-0.5019531c-2.9379883-0.1884766-5.8798828,0.4375-8.8017578,0.296875
	c-0.2060547,0.2626953-0.4140625,0.5253906-0.6181641,0.7890625c1.5791016,0.0224609,3.1049805,0.1210938,4.6259766-0.3808594
	c0.4042969-0.1328125,1.097168-0.7802734,0.2202148-0.7304688c-1.0541992,0.0566406-2.1020508,0.2001953-3.1582031,0.1982422
	c-0.1401367,0.2587891-0.2827148,0.515625-0.4267578,0.7724609c0.5419922-0.1025391,0.9379883-0.2070313,1.4516602-0.40625
	c0.4589844-0.1796875,0.6953125-0.671875,0.019043-0.6640625c-0.3408203,0.0175781-0.6787109,0.0087891-1.019043-0.0253906
	c-0.0727539,0.2441406-0.1459961,0.4882813-0.21875,0.7304688c1.3398438-0.3984375,3.0400391-0.7890625,4.4467773-0.8125
	c0.0063477-0.2226563,0.012207-0.4414063,0.019043-0.6640625c-0.7080078,0.2402344-1.3959961,0.3330078-2.1279297,0.4130859
	c-0.0107422,0.2382813-0.0180664,0.4775391-0.0258789,0.7148438c1.1430664-0.3662109,2.2661133-0.7451172,3.4770508-0.7861328
	c-0.1000977-0.1621094-0.1972656-0.3261719-0.2958984-0.4863281c-0.5610352,0.40625-1.9501953,0.7871094-2.5913086,0.9746094
	c0.1850586,0.1708984,0.3701172,0.3476563,0.5551758,0.5214844c0.8959961-0.4433594,1.8789063-0.6738281,2.8110352-1.0371094
	C40.4902344,77.0615234,39.5571289,76.6552734,38.8994141,76.9130859L38.8994141,76.9130859z"/>
<polygon fill="#58C46E" points="19.4033203,87.4794922 0.425293,98.3876953 22.5454102,98.3876953 22.5454102,75.5556641 
	0.4091797,75.5556641 20.0332031,86.9257813 "/>
<rect x="0.4091797" y="75.0654297" fill="#255E30" width="22.1362305" height="0.7929688"/>
<rect x="9.718359" y="81.2181168" transform="matrix(0.5022687 0.8647116 -0.8647116 0.5022687 85.1811295 37.3844414)" fill="#255E30" width="0.7961921" height="22.9338856"/>
<rect x="-1.351757" y="80.765358" transform="matrix(0.8646678 0.502344 -0.502344 0.8646678 42.1410522 5.9023438)" fill="#255E30" width="22.9354477" height="0.7964374"/>
<rect x="0.425293" y="97.9873047" fill="#255E30" width="22.1201172" height="0.7978516"/>
<path fill="#009345" d="M40.434082,76.5693359c-1.105957,0.2128906-2.0976563,0.8242188-3.1567383,1.1933594
	c0.2060547,0.2519531,0.4130859,0.5078125,0.6176758,0.7597656c0.7900391-0.5019531,1.6430664-0.8505859,2.2260742-1.6044922
	c0.3491211-0.4560547-0.0898438-0.7216797-0.5478516-0.6826172c-1.2929688,0.1005859-2.7729492,0.4384766-3.671875,1.4365234
	c-0.2900391,0.3212891-0.0610352,0.6806641,0.3496094,0.6865234c1.0629883,0.0126953,2.003418-0.28125,2.9902344-0.6601563
	c0.7070313-0.2705078,0.4580078-0.9501953-0.237793-0.8925781c-1.1240234,0.09375-2.2734375,0.3662109-3.3662109,0.6435547
	c-0.5678711,0.1435547-1.0458984,0.4228516-1.6518555,0.4296875c-0.6259766,0.0087891-1.1401367-0.1220703-1.7700195-0.0283203
	c-0.3710938,0.0566406-1.40625,0.8046875-0.5400391,0.9755859c1.5830078,0.3115234,3.0380859-0.234375,4.6166992-0.1318359
	c1.4492188,0.09375,2.9291992,0.1884766,4.3823242,0.1601563c0.2929688-0.0078125,0.9868164-0.3007813,0.8520508-0.7089844
	c-0.2373047-0.734375,0.0830078-1.3808594,0.1557617-2.1044922c0.0703125-0.6943359-1.1430664-0.4033203-1.4047852-0.1083984
	c-0.5302734,0.5976563-1.4882813,0.6777344-1.9023438,1.4179688c-0.2749023,0.4941406-0.0649414,1.0722656,0.5361328,1.1132813
	c0.7128906,0.0507813,2.9609375-0.9746094,1.4589844-1.5029297c-0.578125-0.2050781-1.8071289,0.6279297-0.9121094,0.9443359
	c0.003418,0.0019531,1.8413086-1.3378906,2.0820313-1.6083984c-0.46875-0.0341797-0.9370117-0.0693359-1.4047852-0.1064453
	c-0.0839844,0.8378906-0.4121094,1.5429688-0.1430664,2.3671875c0.2841797-0.2363281,0.5668945-0.4707031,0.8530273-0.7070313
	c-1.2788086,0.0263672-2.7202148-0.0273438-3.9858398-0.1640625c-1.4379883-0.1533203-2.8442383,0.4726563-4.269043,0.1923828
	c-0.1811523,0.3242188-0.3603516,0.6474609-0.5400391,0.9755859c0.9589844-0.1445313,1.84375,0.0917969,2.8037109-0.1347656
	c1.3251953-0.3066406,2.6083984-0.7988281,3.9824219-0.9121094c-0.078125-0.2978516-0.1582031-0.5947266-0.2382813-0.8916016
	c-0.5649414,0.2509766-1.1577148,0.3955078-1.7817383,0.4365234c0.1186523,0.2265625,0.2338867,0.4550781,0.3505859,0.6855469
	c0.5532227-0.6123047,1.4731445-0.7402344,2.2421875-0.8007813c-0.1831055-0.2285156-0.3637695-0.4550781-0.5449219-0.6816406
	c-0.5058594,0.6523438-1.2749023,0.9423828-1.9541016,1.3769531c-0.6918945,0.4394531,0.0698242,0.9492188,0.6210938,0.7578125
	c1.0410156-0.3632813,2.0727539-0.9882813,3.1557617-1.1943359C41.6450195,77.3134766,41.3730469,76.3955078,40.434082,76.5693359
	L40.434082,76.5693359z"/>
<polygon fill="#255E30" points="41.8959961,75.0791016 28.8930664,78.6318359 28.8930664,79.4560547 41.2050781,76.0927734 
	41.2050781,79.0244141 41.9990234,79.0244141 41.9990234,75.8759766 41.9990234,75.8417969 41.9990234,75.4628906 "/>
<rect x="131.9311523" y="75.4736328" fill="#58C46E" width="19.8339844" height="22.9277344"/>
<rect x="131.9311523" y="74.9736328" fill="#255E30" width="22.2441406" height="1"/>
<rect x="131.9311523" y="97.9013672" fill="#255E30" width="21.28125" height="1"/>
<path fill="#00A14B" d="M134.1225586,77.5429688c0.9941406,0.3896484,2.0224609,0.6416016,2.9814453,1.1181641
	c0.4140625-0.234375,0.8242188-0.4648438,1.2363281-0.6943359c-0.90625-0.2666016-2.2402344-0.6025391-3.0087891-1.1591797
	c-0.3417969,0.2275391-0.6835938,0.4550781-1.0263672,0.6816406c1.2441406,0.0449219,2.3974609,0.421875,3.5693359,0.796875
	c0.3671875-0.2402344,0.7324219-0.4863281,1.0986328-0.7304688c-0.8261719-0.0878906-1.6044922-0.2128906-2.3955078-0.4863281
	c-0.3115234,0.2480469-0.6191406,0.4960938-0.9277344,0.7441406c1.4482422,0.0224609,3.1533203,0.4101563,4.5380859,0.8212891
	c0.3095703-0.2451172,0.6191406-0.4931641,0.9287109-0.7412109c-0.3378906,0.0332031-0.6787109,0.0410156-1.0185547,0.0244141
	c-0.2167969-0.0019531-1.5654297,0.4951172-0.9296875,0.7421875c0.4970703,0.1923828,0.6552734,0.2333984,1.1835938,0.3349609
	c0.2626953-0.2597656,0.5253906-0.5195313,0.7871094-0.7783203c-1.0546875,0.0009766-2.1025391-0.140625-3.1552734-0.2001953
	c-0.234375-0.0117188-1.5537109,0.5390625-0.9287109,0.7421875c1.4902344,0.4921875,2.9814453,0.3945313,4.5332031,0.3710938
	c0.2070313-0.2626953,0.4160156-0.5253906,0.6210938-0.7890625c-2.9248047,0.1386719-5.8574219-0.4863281-8.8037109-0.296875
	c0.1542969,0.0625,0.3095703,0.1230469,0.4589844,0.1875c-0.0820313-0.7412109,0.0556641-1.453125,0.0986328-2.1894531
	c-0.4960938,0.1328125-0.9902344,0.2636719-1.484375,0.3964844c1.5888672,1.1269531,3.5087891,1.1767578,5.3613281,1.6123047
	c0.2617188-0.2587891,0.5244141-0.5185547,0.7871094-0.7783203c-1.6953125,0.1015625-3.6708984-1.0898438-5.2773438-0.2675781
	c-0.140625,0.0732422-0.3232422,0.2119141-0.3007813,0.3925781c0.1455078,1.2734375,2.5058594,1.5625,3.4609375,1.4199219
	c0.1943359-0.0302734,1.3154297-0.4550781,0.7353516-0.7275391c-0.5996094-0.2783203-1.2412109-0.3066406-1.8398438-0.5966797
	c-0.4052734-0.1982422-1.8242188,0.4101563-1.2353516,0.6933594c0.5996094,0.2929688,1.2314453,0.3115234,1.8398438,0.5986328
	c0.2441406-0.2421875,0.4902344-0.4833984,0.7333984-0.7255859c-0.5488281,0.0820313-2.0751953-0.3544922-2.1572266-1.0742188
	c-0.1025391,0.1308594-0.2011719,0.2617188-0.3037109,0.3916016c-0.6455078,0.3310547,1.046875,0.3896484,1.2666016,0.421875
	c0.8359375,0.1337891,1.6123047,0.3115234,2.4589844,0.2607422c0.3095703-0.0175781,1.6582031-0.5722656,0.7871094-0.7773438
	c-1.6435547-0.3867188-3.4794922-0.4257813-4.8837891-1.421875c-0.2929688-0.2070313-1.4550781-0.0820313-1.4814453,0.3984375
	c-0.0449219,0.7988281-0.1904297,1.5810547-0.1025391,2.3828125c0.0205078,0.1699219,0.3466797,0.1962891,0.4570313,0.1884766
	c2.9384766-0.1884766,5.875,0.4384766,8.8017578,0.3007813c0.4951172-0.0244141,1.6699219-0.8037109,0.6201172-0.7890625
	c-1.3232422,0.0205078-2.6367188,0.1474609-3.9179688-0.2763672c-0.3105469,0.2480469-0.6181641,0.4960938-0.9277344,0.7421875
	c1.0576172,0.0595703,2.0986328,0.2001953,3.15625,0.1982422c0.3300781,0,1.6445313-0.6142578,0.7890625-0.7763672
	c-0.3027344-0.0859375-0.6035156-0.1757813-0.9042969-0.2626953c-0.3105469,0.2470703-0.6210938,0.4951172-0.9296875,0.7421875
	c0.3417969,0.0185547,0.6816406,0.0068359,1.0214844-0.0244141c0.1777344-0.0126953,1.5859375-0.546875,0.9277344-0.7421875
	c-1.625-0.4853516-3.4609375-0.890625-5.15625-0.9179688c-0.2148438-0.0019531-1.5644531,0.5253906-0.9277344,0.7421875
	c0.8730469,0.296875,1.7558594,0.4589844,2.6738281,0.5576172c0.2753906,0.0302734,1.7441406-0.5224609,1.0996094-0.7294922
	c-1.3847656-0.4433594-2.7265625-0.8417969-4.1875-0.8925781c-0.15625-0.0058594-1.4511719,0.375-1.0292969,0.6826172
	c0.875,0.6357422,2.1796875,0.9794922,3.2070313,1.2783203c0.3457031,0.1035156,1.8769531-0.3789063,1.2363281-0.6943359
	c-0.9589844-0.4765625-1.9882813-0.7294922-2.984375-1.1201172
	C134.9389648,76.6826172,133.534668,77.3115234,134.1225586,77.5429688L134.1225586,77.5429688z"/>
<polygon fill="#58C46E" points="154.7514648,87.4931641 173.7260742,98.4013672 151.6069336,98.4013672 151.6069336,75.5673828 
	173.7416992,75.5673828 154.1186523,86.9384766 "/>
<rect x="151.6069336" y="75.0771484" fill="#255E30" width="22.1347656" height="0.7949219"/>
<rect x="152.5737457" y="92.293251" transform="matrix(0.8646809 0.5023214 -0.5023214 0.8646809 68.7590027 -69.8583374)" fill="#255E30" width="22.9345341" height="0.7972818"/>
<rect x="163.6212463" y="69.7066422" transform="matrix(0.5032604 0.8641348 -0.8641348 0.5032604 151.6203156 -101.4120636)" fill="#255E30" width="0.7955934" height="22.9353447"/>
<rect x="151.6069336" y="98.0019531" fill="#255E30" width="22.1191406" height="0.796875"/>
<path fill="#009345" d="M132.9174805,77.5185547c1.0839844,0.2050781,2.1210938,0.8320313,3.15625,1.1933594
	c0.4335938,0.1523438,1.7519531-0.4414063,1.0585938-0.8857422c-0.6953125-0.4404297-1.4667969-0.7314453-1.9824219-1.4023438
	c-0.3300781,0.2744141-0.6601563,0.5498047-0.9882813,0.8242188c0.8730469,0.0673828,1.9140625,0.2558594,2.5292969,0.9384766
	c0.3320313-0.2763672,0.6601563-0.5517578,0.9902344-0.8261719c-0.7851563,0.0087891-1.4863281-0.2373047-2.2128906-0.5166016
	c-0.2421875,0.3261719-0.4902344,0.6503906-0.734375,0.9775391c1.1503906,0.0957031,2.40625,0.3789063,3.5019531,0.7480469
	c1.1757813,0.3974609,2.0986328,0.1191406,3.2832031,0.2949219c0.0546875-0.3222656,0.1074219-0.6445313,0.1582031-0.9667969
	c-1.3789063,0.2724609-2.828125-0.2890625-4.2324219-0.1992188c-1.3027344,0.0859375-2.6855469,0.1875-3.9902344,0.1601563
	c0.1660156,0.1425781,0.3300781,0.2832031,0.4921875,0.4267578c0.2685547-0.8173828-0.0673828-1.5390625-0.1533203-2.3671875
	c-0.4921875,0.1757813-0.9824219,0.3525391-1.4755859,0.5263672c0.3164063,0.3574219,2.2011719,1.5205078,2.3095703,0.9804688
	c-0.2216797,0.1816406-0.4365234,0.359375-0.6523438,0.5390625c0.0556641-0.0214844,0.1132813-0.0390625,0.1699219-0.0605469
	c0.8984375-0.3183594,0.6787109-1.2519531-0.2470703-0.9257813c-1.5820313,0.5576172-0.3984375,1.5703125,0.7617188,1.4902344
	c0.4257813-0.0292969,1.2050781-0.4619141,1.0263672-1.0097656c-0.3134766-0.9472656-1.3476563-0.9785156-1.9521484-1.6572266
	c-0.3818359-0.4306641-1.5371094-0.0996094-1.4755859,0.5283203c0.0732422,0.7363281,0.3867188,1.359375,0.1455078,2.1054688
	c-0.0908203,0.2705078,0.3007813,0.4257813,0.4912109,0.4277344c1.4433594,0.0292969,2.9472656-0.0117188,4.3818359-0.1640625
	c1.5839844-0.1699219,3.0527344,0.4375,4.6513672,0.1230469c0.6103516-0.1191406,0.9423828-0.8496094,0.15625-0.9648438
	c-1.1884766-0.1777344-2.2832031-0.0126953-3.4550781-0.4091797c-1.0185547-0.3447266-2.2607422-0.5439453-3.3300781-0.6357422
	c-0.4980469-0.0410156-1.6083984,0.6425781-0.7382813,0.9775391c0.8408203,0.3193359,1.65625,0.5869141,2.5634766,0.5761719
	c0.28125-0.0029297,1.4414063-0.3222656,0.9882813-0.8261719c-0.8359375-0.9228516-2.1894531-1.2041016-3.3876953-1.2978516
	c-0.3320313-0.0263672-1.3808594,0.3125-0.9873047,0.8242188c0.5732422,0.7441406,1.4179688,1.0859375,2.1962891,1.5820313
	c0.3525391-0.296875,0.703125-0.5898438,1.0576172-0.8867188c-1.0615234-0.3691406-2.0556641-0.9824219-3.1582031-1.1914063
	C133.2495117,76.4628906,132.0053711,77.3447266,132.9174805,77.5185547L132.9174805,77.5185547z"/>
<polygon fill="#255E30" points="132.034668,75.0908203 145.0385742,78.6435547 145.0385742,79.4667969 132.7260742,76.1025391 
	132.7260742,79.0332031 131.9311523,79.0332031 131.9311523,75.8857422 131.9311523,75.8525391 131.9311523,75.4736328 "/>
<path fill="#606263" d="M141.2944336,24.5898438c-1.015625-1.1289063-2.4492188-1.7797852-3.9648438-1.8188477
	c-11.7011719-0.2998047-26.4980469-12.5048828-36.296875-17.2929688c-6.046875-2.9521484-10.0410156-4.8959961-13.03125-5.4082031
	C87.6870117,0.0288086,87.3862305,0,87.078125,0c-0.3071289,0-0.6069336,0.0288086-0.9189453,0.0751953
	c-2.9970703,0.5136719-6.987793,2.4570313-13.0307617,5.4067383c-9.7910156,4.7861328-24.5991211,16.9960938-36.300293,17.2900391
	c-1.5087891,0.0390625-2.9477539,0.6948242-3.9658203,1.8188477c-1.03125,1.1240234-1.5620117,2.6230469-1.4848633,4.1479492
	c2.5136719,49.8520508,20.8447266,80.7075195,53.0097656,98.6411133c0.8349609,0.4667969,1.7641602,0.7050781,2.6860352,0.7050781
	c0.9243164,0,1.8491211-0.2382813,2.6938477-0.7050781c32.1621094-17.9277344,50.4902344-48.7890625,53.0058594-98.6420898
	C142.8569336,27.2128906,142.3237305,25.7138672,141.2944336,24.5898438z M138.8413086,31.171875
	c-2.3398438,46.4169922-19.40625,75.1494141-49.3496094,91.8408203c-0.7851563,0.4345703-1.6503906,0.6552734-2.5092773,0.6552734
	c-0.859375,0-1.7241211-0.2216797-2.5014648-0.6552734C54.5351563,106.3154297,37.4682617,77.5888672,35.1293945,31.171875
	c-0.0732422-1.4189453,0.4208984-2.8149414,1.3808594-3.8618164c0.9477539-1.046875,2.2880859-1.65625,3.6938477-1.6928711
	C51.0991211,25.34375,64.8852539,13.9750977,74,9.5200195c5.6259766-2.7490234,9.3452148-4.5561523,12.1333008-5.0351563
	c0.2890625-0.0429688,0.5708008-0.0678711,0.8549805-0.0678711c0.2851563,0,0.5639648,0.0249023,0.8598633,0.0639648
	c2.7832031,0.4780273,6.5019531,2.2861328,12.1289063,5.0332031c9.1230469,4.4599609,22.9023438,15.8237305,33.7949219,16.1030273
	c1.4121094,0.0366211,2.7480469,0.6425781,3.6933594,1.6928711C138.4233398,28.355957,138.9213867,29.7529297,138.8413086,31.171875
	z"/>
<rect x="29.2944336" y="79.0859375" fill="#58C46E" width="115.3710938" height="24.2685547"/>
<path fill="#255E30" d="M145.1655273,103.8544922H28.7944336V78.5859375h116.3710938V103.8544922z M29.7944336,102.8544922
	h114.3710938V79.5859375H29.7944336V102.8544922z"/>
<path fill="#0E4F1D" d="M35.6337891,86.6152344c0.4921875-0.3759766,1.112793-0.6376953,1.9042969-0.6376953
	c1.2514648,0,2.1176758,0.7626953,2.1176758,2.0644531c0,1.0380859-0.6523438,1.8388672-1.4868164,2.0644531v0.0253906
	c1.0053711,0.125,1.7543945,0.9003906,1.7651367,2.1132813c0,1.7519531-1.3051758,2.453125-2.6206055,2.453125
	c-0.652832,0-1.3266602-0.1621094-1.8828125-0.5507813l0.2460938-0.8505859
	c0.3955078,0.2626953,1.0268555,0.5126953,1.6259766,0.5126953c1.0585938,0,1.6469727-0.6757813,1.6469727-1.6015625
	c0-1.2636719-1.0375977-1.6269531-1.9575195-1.6269531h-0.4277344v-0.8251953h0.4174805
	c0.9516602,0,1.7006836-0.6884766,1.7006836-1.5517578s-0.5244141-1.3378906-1.2944336-1.3378906
	c-0.5561523,0-1.1123047,0.2617188-1.5083008,0.5498047L35.6337891,86.6152344z"/>
<path fill="#0E4F1D" d="M44.7827148,93.109375c0,0.5253906,0.0214844,1.0380859,0.0751953,1.4511719h-0.8452148l-0.074707-0.7626953
	h-0.0322266c-0.2890625,0.4746094-0.8452148,0.9003906-1.5830078,0.9003906c-1.0483398,0-1.5830078-0.8632813-1.5830078-1.7392578
	c0-1.4638672,1.1123047-2.2646484,3.1123047-2.2519531v-0.1259766c0-0.4873047-0.1176758-1.4003906-1.1762695-1.3886719
	c-0.4921875,0-0.9951172,0.1630859-1.3583984,0.4511719l-0.2138672-0.7382813
	c0.4277344-0.3125,1.0585938-0.5253906,1.7114258-0.5253906c1.5830078,0,1.9677734,1.2636719,1.9677734,2.4648438V93.109375z
	 M43.8735352,91.4697266c-1.0268555-0.0253906-2.1928711,0.1875-2.1928711,1.3642578
	c0,0.7255859,0.4067383,1.0507813,0.8774414,1.0507813c0.6845703,0,1.1230469-0.5009766,1.2729492-1.0126953
	c0.0317383-0.1259766,0.0424805-0.2509766,0.0424805-0.3515625V91.4697266z"/>
<path fill="#0E4F1D" d="M47.203125,88.5048828v5.1923828h1.8076172v-5.1923828h0.9306641v5.1923828h1.7973633v-5.1923828h0.9194336
	v5.2304688l0.5351563,0.0117188l-0.0537109,2.7285156h-0.737793l-0.0322266-1.9150391h-6.097168v-6.0556641H47.203125z"/>
<path fill="#0E4F1D" d="M55.1879883,88.5048828v2.5527344c0,0.9501953-0.0214844,1.5634766-0.0644531,2.4267578l0.0322266,0.0126953
	c0.3208008-0.7382813,0.4921875-1.1640625,0.8447266-1.8642578l1.6152344-3.1279297h1.1020508v6.0556641h-0.8989258v-2.5654297
	c0-0.9882813,0.0214844-1.5009766,0.0644531-2.4892578h-0.0214844c-0.3422852,0.7880859-0.5561523,1.2763672-0.8662109,1.8896484
	c-0.4921875,0.9375-1.0698242,2.1015625-1.6152344,3.1650391h-1.0913086v-6.0556641H55.1879883z"/>
<path fill="#0E4F1D" d="M63.7163086,88.5048828v0.8632813h-1.6147461v5.1923828h-0.9414063v-5.1923828h-1.6152344v-0.8632813
	H63.7163086z"/>
<path fill="#0E4F1D" d="M65.409668,88.5048828v2.5527344c0,0.9501953-0.0214844,1.5634766-0.0644531,2.4267578l0.0322266,0.0126953
	c0.3208008-0.7382813,0.4921875-1.1640625,0.8447266-1.8642578l1.6152344-3.1279297h1.1020508v6.0556641h-0.8989258v-2.5654297
	c0-0.9882813,0.0214844-1.5009766,0.0644531-2.4892578h-0.0214844c-0.3422852,0.7880859-0.5561523,1.2763672-0.8662109,1.8896484
	c-0.4921875,0.9375-1.0698242,2.1015625-1.6152344,3.1650391h-1.0913086v-6.0556641H65.409668z"/>
<path fill="#0E4F1D" d="M73.9379883,88.5048828v0.8632813h-1.6147461v5.1923828h-0.9414063v-5.1923828h-1.6152344v-0.8632813
	H73.9379883z"/>
<path fill="#0E4F1D" d="M75.1499023,91.7333984c0.0209961,1.4882813,0.8232422,2.1015625,1.7753906,2.1015625
	c0.6738281,0,1.0908203-0.1376953,1.4331055-0.3125l0.1713867,0.7880859
	c-0.331543,0.1748047-0.9091797,0.3876953-1.7329102,0.3876953c-1.59375,0-2.5458984-1.2382813-2.5458984-3.0654297
	s0.9199219-3.2529297,2.4282227-3.2529297c1.7006836,0,2.1391602,1.7265625,2.1391602,2.8398438
	c0,0.2246094-0.0102539,0.3876953-0.0317383,0.5136719H75.1499023z M77.9091797,90.9443359
	c0.0107422-0.6875-0.2456055-1.7763672-1.3046875-1.7763672c-0.9628906,0-1.3691406,1.0126953-1.4443359,1.7763672H77.9091797z"/>
<path fill="#0E4F1D" d="M86.706543,94.3476563c-0.2460938,0.1376953-0.7915039,0.3505859-1.4868164,0.3505859
	c-1.5615234,0-2.578125-1.2382813-2.578125-3.0908203c0-1.8642578,1.0913086-3.2275391,2.78125-3.2275391
	c0.5561523,0,1.0483398,0.1621094,1.3051758,0.3251953l-0.2138672,0.8378906
	c-0.2250977-0.1376953-0.5776367-0.2880859-1.0913086-0.2880859c-1.1875,0-1.8291016,1.0390625-1.8291016,2.2900391
	c0,1.4013672,0.7700195,2.2646484,1.796875,2.2646484c0.5351563,0,0.8881836-0.1503906,1.1552734-0.2871094L86.706543,94.3476563z"
	/>
<path fill="#0E4F1D" d="M87.7788086,88.5791016c0.375-0.0742188,1.0488281-0.1367188,1.6474609-0.1367188
	c0.8769531,0,2.3105469,0.1748047,2.3105469,1.5136719c0,0.7509766-0.4921875,1.2265625-1.0800781,1.3769531v0.0244141
	c0.7597656,0.125,1.3154297,0.6132813,1.3154297,1.4892578c0,1.5888672-1.7109375,1.7890625-2.7275391,1.7890625
	c-0.5771484,0-1.1875-0.0507813-1.4658203-0.0751953V88.5791016z M88.6782227,93.8466797
	c0.2666016,0.0253906,0.4599609,0.0380859,0.7480469,0.0380859c0.6416016,0,1.5830078-0.1630859,1.5830078-1.0507813
	c0-0.8759766-0.7587891-1.0634766-1.6464844-1.0634766h-0.6845703V93.8466797z M88.6879883,91.0576172h0.7060547
	c0.6953125,0,1.4121094-0.2382813,1.4121094-0.9638672c0-0.6005859-0.4492188-0.8886719-1.390625-0.8886719
	c-0.3203125,0-0.5126953,0.0253906-0.7275391,0.0498047V91.0576172z"/>
<path fill="#0E4F1D" d="M97.8481445,91.4824219c0,2.2392578-1.3369141,3.2158203-2.578125,3.2158203
	c-1.390625,0-2.4814453-1.2011719-2.4814453-3.1152344c0-2.0146484,1.1445313-3.203125,2.5673828-3.203125
	C96.8422852,88.3798828,97.8481445,89.6435547,97.8481445,91.4824219z M93.7514648,91.5449219
	c0,1.3271484,0.6416016,2.3271484,1.5615234,2.3271484c0.8984375,0,1.5722656-0.9882813,1.5722656-2.3515625
	c0-1.0263672-0.4384766-2.3154297-1.5507813-2.3154297C94.2329102,89.2050781,93.7514648,90.40625,93.7514648,91.5449219z"/>
<path fill="#0E4F1D" d="M99.9057617,88.5048828v2.5527344c0,0.9501953-0.0214844,1.5634766-0.0644531,2.4267578l0.0322266,0.0126953
	c0.3212891-0.7382813,0.4921875-1.1640625,0.8447266-1.8642578l1.6152344-3.1279297h1.1025391v6.0556641h-0.8994141v-2.5654297
	c0-0.9882813,0.0214844-1.5009766,0.0644531-2.4892578h-0.0214844c-0.3417969,0.7880859-0.5556641,1.2763672-0.8662109,1.8896484
	c-0.4921875,0.9375-1.0693359,2.1015625-1.6152344,3.1650391h-1.0908203v-6.0556641H99.9057617z M100.5151367,86.0400391
	c0.0322266,0.5371094,0.2568359,0.9511719,0.6845703,0.9511719c0.4599609,0,0.6738281-0.4140625,0.7275391-0.9511719h0.6738281
	c-0.0537109,1.0136719-0.5986328,1.5507813-1.4228516,1.5507813c-0.9404297,0-1.3046875-0.7001953-1.3476563-1.5507813H100.5151367z
	"/>
<path fill="#0E4F1D" d="M111.5600586,86.4521484c-0.2568359,0.1132813-0.7382813,0.2128906-1.0810547,0.2753906
	c-0.8339844,0.1503906-1.4541016,0.4755859-1.8496094,1.1386719c-0.3320313,0.5380859-0.5136719,1.3515625-0.5673828,2.0019531
	h0.0322266c0.3417969-0.8886719,1.0693359-1.3632813,1.8076172-1.3632813c1.2724609,0,2.203125,1.0634766,2.203125,2.9902344
	c0,1.9765625-0.8769531,3.2158203-2.3955078,3.2158203c-1.8183594,0-2.4179688-2.0517578-2.4179688-4.0673828
	c0-1.375,0.2460938-2.5136719,0.8027344-3.3525391c0.4921875-0.8505859,1.2089844-1.2255859,2.2246094-1.4267578
	c0.4277344-0.0878906,0.9306641-0.1875,1.2832031-0.3251953L111.5600586,86.4521484z M109.7094727,89.3173828
	c-0.5566406,0-0.9521484,0.3378906-1.1767578,0.8261719c-0.1708984,0.3632813-0.2568359,0.8007813-0.2568359,1.2890625
	c0,1.0009766,0.4277344,2.4521484,1.4550781,2.4521484c1.0478516,0,1.421875-1.1884766,1.421875-2.3144531
	C111.152832,90.5947266,110.8217773,89.3173828,109.7094727,89.3173828z"/>
<path fill="#0E4F1D" d="M114.1625977,88.5048828v2.5527344c0,0.9501953-0.0214844,1.5634766-0.0644531,2.4267578
	l0.0322266,0.0126953c0.3212891-0.7382813,0.4921875-1.1640625,0.8447266-1.8642578l1.6152344-3.1279297h1.1025391v6.0556641
	h-0.8994141v-2.5654297c0-0.9882813,0.0214844-1.5009766,0.0644531-2.4892578h-0.0214844
	c-0.3417969,0.7880859-0.5556641,1.2763672-0.8662109,1.8896484c-0.4921875,0.9375-1.0693359,2.1015625-1.6152344,3.1650391
	h-1.0908203v-6.0556641H114.1625977z"/>
<path fill="#0E4F1D" d="M119.6538086,91.0439453h0.4492188c0.7919922,0,1.3261719-0.4248047,1.3261719-0.9882813
	c0-0.5371094-0.4169922-0.8876953-1.0048828-0.8876953c-0.4179688,0-0.8886719,0.1748047-1.2519531,0.4375l-0.2353516-0.6748047
	c0.5244141-0.3759766,1.1230469-0.5507813,1.7226563-0.5507813c0.7910156,0,1.7539063,0.4121094,1.7539063,1.5888672
	c0,0.7509766-0.5888672,1.2382813-1.1660156,1.3759766v0.0253906c0.7705078,0.0878906,1.4121094,0.625,1.4121094,1.5136719
	c0,1.3007813-1.1445313,1.8017578-2.2353516,1.8017578c-0.5996094,0-1.2197266-0.1875-1.6796875-0.4873047l0.2460938-0.7519531
	c0.3740234,0.2509766,0.8876953,0.4257813,1.3691406,0.4257813c0.7802734,0,1.2724609-0.4375,1.2724609-1.0380859
	c0-0.8134766-0.7275391-1.0380859-1.5078125-1.0380859h-0.4599609L119.6538086,91.0439453z"/>
<path fill="#0E4F1D" d="M124.7475586,88.5048828v2.4394531h2.4501953v-2.4394531h0.9404297v6.0556641h-0.9404297v-2.7402344
	h-2.4501953v2.7402344h-0.9414063v-6.0556641H124.7475586z"/>
<path fill="#0E4F1D" d="M130.206543,91.7333984c0.0214844,1.4882813,0.8232422,2.1015625,1.7753906,2.1015625
	c0.6738281,0,1.0908203-0.1376953,1.4335938-0.3125l0.1708984,0.7880859
	c-0.3310547,0.1748047-0.9091797,0.3876953-1.7324219,0.3876953c-1.59375,0-2.5458984-1.2382813-2.5458984-3.0654297
	s0.9199219-3.2529297,2.4277344-3.2529297c1.7011719,0,2.1396484,1.7265625,2.1396484,2.8398438
	c0,0.2246094-0.0107422,0.3876953-0.0322266,0.5136719H130.206543z M132.9663086,90.9443359
	c0.0107422-0.6875-0.2460938-1.7763672-1.3046875-1.7763672c-0.9628906,0-1.3691406,1.0126953-1.4443359,1.7763672H132.9663086z"/>
<path fill="#0E4F1D" d="M138.7348633,94.3476563c-0.2460938,0.1376953-0.7910156,0.3505859-1.4863281,0.3505859
	c-1.5615234,0-2.578125-1.2382813-2.578125-3.0908203c0-1.8642578,1.0908203-3.2275391,2.78125-3.2275391
	c0.5556641,0,1.0478516,0.1621094,1.3046875,0.3251953l-0.2138672,0.8378906
	c-0.2246094-0.1376953-0.5771484-0.2880859-1.0908203-0.2880859c-1.1875,0-1.8291016,1.0390625-1.8291016,2.2900391
	c0,1.4013672,0.7695313,2.2646484,1.796875,2.2646484c0.5351563,0,0.8876953-0.1503906,1.1552734-0.2871094L138.7348633,94.3476563z
	"/>
<path fill="#606263" d="M91.003418,57.5219727c0.4941406,0.4921875,0.7421875,1.1938477,0.7421875,2.1088867
	c0,2.2299805-1.2167969,3.4711914-3.6503906,3.7280273V56.309082C89.5385742,56.6279297,90.5092773,57.03125,91.003418,57.5219727z
	 M109.8823242,53.8999023c0,12.7319336-10.1679688,18.4418945-22.7099609,18.4418945
	c-12.5439453,0-22.7109375-5.7099609-22.7109375-18.4418945c0-10.5209961,9.9775391-19.1240234,17.159668-22.0678711
	c-2.5307617,0.2109375-5.0629883,0.4912109-7.5488281,0.9428711c-0.887207,0.1601563-5.1938477,0.7138672-5.0019531,1.9121094
	c0.0410156,0.262207-0.453125,0.2587891-0.4941406,0c-0.1699219-1.0629883,2.0229492-1.5600586,2.8881836-1.7807617
	c2.4360352-0.6210938,4.9799805-0.9550781,7.5-1.2294922c0.0136719-0.0019531,0.0268555-0.0029297,0.0410156-0.0039063
	c-1.0292969-0.0117188-2.0581055-0.0629883-3.0703125-0.171875c-0.9277344-0.1000977-2.3339844-0.2509766-2.7397461-1.0810547
	c-0.1210938-0.2451172,0.3549805-0.3520508,0.4741211-0.1079102c0.3666992,0.7460938,2.3266602,0.8051758,3.0986328,0.8549805
	c0.9560547,0.0649414,1.9121094,0.0908203,2.8710938,0.0917969c0.8520508,0,1.7158203-0.0639648,2.5800781-0.1650391
	c-4.2700195-1.6088867-10.8579102-4.8496094-6.6191406-8.3886719c6.0219727-5.0200195,4.6049805,0.2119141,8.1459961,1.8779297
	C87.2880859,26.25,97.559082,16.7978516,95.0795898,22.4101563c-1.0605469,2.4008789-2.640625,4.9638672-4.0996094,7.1098633
	c0.2363281,0.0541992,0.4570313,0.1459961,0.6542969,0.2949219c0.5410156,0.4111328,0.9003906,0.8979492,0.5234375,1.4760742
	c-0.1044922,0.1591797-0.2832031,0.2558594-0.5146484,0.3110352c0.7402344,0.0170898,1.3730469-0.1000977,1.6542969-0.4511719
	c0.0820313-0.1069336,0.2705078-0.1430664,0.3867188-0.0410156c0.9658203,0.8510742,0.1787109,1.3569336-0.875,1.5810547
	C101.4135742,36.2719727,109.8823242,43.4731445,109.8823242,53.8999023z M90.9428711,31.9711914
	c0.3544922,0.1269531,0.7109375,0.2578125,1.0703125,0.3969727c0.0273438-0.0019531,0.0546875-0.0009766,0.0839844-0.0043945
	c0.5351563-0.0498047,1.8046875-0.206543,1.3984375-0.7856445C92.9389648,31.9887695,91.9584961,32.065918,90.9428711,31.9711914z
	 M89.8959961,31.0717773c0.2597656,0.0419922,0.5175781,0.0761719,0.78125,0.0913086
	c0.2695313,0.0146484,0.6347656,0.0581055,0.8945313-0.03125c0.234375-0.6176758,0.0078125-1.0136719-0.6777344-1.1860352
	c-0.0644531-0.0146484-0.125-0.0209961-0.1855469-0.0288086C90.4311523,30.3188477,90.1577148,30.7080078,89.8959961,31.0717773z
	 M94.8276367,59.4750977c0-1.4780273-0.4716797-2.644043-1.40625-3.5009766
	c-0.9394531-0.8549805-2.7128906-1.5073242-5.3242188-1.953125v-6.6298828
	c1.8925781,0.2207031,2.9277344,1.1469727,3.0976563,2.7807617h3.078125
	c-0.3671875-2.9506836-2.4277344-4.5458984-6.1757813-4.7827148v-2.0283203h-1.6899414v2.0283203
	c-1.9589844,0.1489258-3.5151367,0.6987305-4.6679688,1.6469727c-1.152832,0.9487305-1.7290039,2.199707-1.7290039,3.7539063
	c0,2.7587891,2.1328125,4.4931641,6.3969727,5.2050781v7.3637695c-2.3168945-0.3237305-3.5917969-1.5839844-3.8232422-3.7797852
	H79.519043c0.2949219,3.4609375,2.590332,5.3876953,6.8881836,5.78125v2.0185547h1.6899414v-2.0429688
	c2.1074219-0.0986328,3.7539063-0.7138672,4.9453125-1.8510742C94.2299805,62.3491211,94.8276367,61.0107422,94.8276367,59.4750977z
	 M83.0722656,50.5927734c0,0.9833984,0.309082,1.7001953,0.9248047,2.1464844
	c0.6162109,0.4487305,1.4199219,0.7797852,2.4101563,0.9897461v-6.362793
	C84.1831055,47.690918,83.0722656,48.7680664,83.0722656,50.5927734z"/>
</svg>
