<?xml version="1.0" encoding="utf-8"?>
<!-- Generator: Adobe Illustrator 15.0.0, SVG Export Plug-In  -->
<!DOCTYPE svg PUBLIC "-//W3C//DTD SVG 1.1//EN" "http://www.w3.org/Graphics/SVG/1.1/DTD/svg11.dtd" [
	<!ENTITY ns_flows "http://ns.adobe.com/Flows/1.0/">
]>
<svg version="1.1"
	 xmlns="http://www.w3.org/2000/svg" xmlns:xlink="http://www.w3.org/1999/xlink" xmlns:a="http://ns.adobe.com/AdobeSVGViewerExtensions/3.0/"
	 x="0px" y="0px" width="229px" height="176px" viewBox="-18.021 -14.013 229 176" enable-background="new -18.021 -14.013 229 176"
	 xml:space="preserve">
<defs>
</defs>
<polygon fill="#5FC774" points="21.579,94.939 0.466,107.545 25.074,107.545 25.074,81.165 0.449,81.165 22.278,94.301 "/>
<rect x="0.449" y="80.601" fill="#255E30" width="24.625" height="0.914"/>
<polygon fill="#255E30" points="22.054,93.896 22.498,94.689 0.444,108.014 0,107.217 "/>
<polygon fill="#255E30" points="0.446,80.597 22.508,93.902 22.063,94.697 0.002,81.39 "/>
<rect x="24.649" y="81.06" fill="#5FC774" width="22.066" height="26.483"/>
<rect x="23.042" y="107.077" fill="#255E30" width="23.674" height="0.925"/>
<rect x="21.974" y="80.601" fill="#255E30" width="24.742" height="0.914"/>
<rect x="0.466" y="107.077" fill="#255E30" width="24.608" height="0.925"/>
<polygon fill="#255E30" points="46.554,80.617 26.215,84.994 26.215,86.013 45.474,81.864 45.474,85.478 46.716,85.478 
	46.716,81.597 46.716,81.556 46.716,81.088 "/>
<polygon fill="#5FC774" points="171.377,94.99 192.49,107.592 167.883,107.592 167.883,81.217 192.508,81.217 170.68,94.352 "/>
<rect x="167.883" y="80.647" fill="#255E30" width="24.625" height="0.918"/>
<polygon fill="#255E30" points="170.904,93.947 170.459,94.741 192.514,108.063 192.957,107.268 "/>
<polygon fill="#255E30" points="192.51,80.646 170.449,93.954 170.893,94.747 192.955,81.44 "/>
<rect x="146.24" y="81.108" fill="#5FC774" width="22.066" height="26.482"/>
<rect x="146.24" y="107.129" fill="#255E30" width="23.676" height="0.922"/>
<rect x="146.24" y="80.647" fill="#255E30" width="24.742" height="0.918"/>
<rect x="167.883" y="107.129" fill="#255E30" width="24.605" height="0.922"/>
<polygon fill="#255E30" points="146.402,80.668 166.74,85.045 166.74,86.062 147.482,81.915 147.482,85.528 146.24,85.528 
	146.24,81.649 146.24,81.604 146.24,81.135 "/>
<polygon fill="#32773E" points="146.24,81.165 146.24,86.834 161.357,90.434 162.545,85.051 "/>
<polygon fill="#32773E" points="46.716,81.117 30.411,85.002 31.6,90.383 46.716,86.784 "/>
<path fill="#878A8C" d="M156.65,28.409c-1.131-1.305-2.726-2.056-4.41-2.102c-13.018-0.347-29.479-14.446-40.381-19.978
	c-6.726-3.411-11.168-5.657-14.491-6.249C97.018,0.034,96.682,0,96.341,0C96,0,95.665,0.034,95.319,0.087
	c-3.335,0.593-7.773,2.838-14.497,6.246c-10.892,5.53-27.365,19.636-40.383,19.975c-1.678,0.046-3.278,0.803-4.412,2.102
	c-1.146,1.298-1.736,3.03-1.652,4.792c2.798,57.594,23.189,93.241,58.971,113.957c0.931,0.541,1.963,0.815,2.988,0.815
	c1.029,0,2.059-0.274,2.999-0.815c35.774-20.709,56.164-56.361,58.963-113.958C158.387,31.439,157.793,29.708,156.65,28.409z
	 M151.383,37.686c-2.486,51.263-20.637,82.992-52.479,101.427c-0.834,0.479-1.756,0.724-2.668,0.724
	c-0.915,0-1.834-0.25-2.661-0.724c-31.845-18.44-49.992-50.164-52.48-101.427c-0.077-1.566,0.449-3.108,1.47-4.265
	c1.01-1.155,2.434-1.829,3.93-1.869C58.08,31.25,72.739,18.696,82.433,13.776c5.983-3.036,9.938-5.032,12.903-5.561
	c0.308-0.047,0.607-0.075,0.91-0.075c0.301,0,0.6,0.028,0.914,0.071c2.959,0.528,6.916,2.525,12.898,5.559
	c9.701,4.925,24.353,17.475,35.938,17.782c1.5,0.041,2.922,0.709,3.926,1.869C150.939,34.576,151.471,36.119,151.383,37.686z"/>
<rect x="26.288" y="85.653" fill="#5FC774" width="140.095" height="30.604"/>
<path fill="#255E30" d="M166.988,116.887H25.68V85.022h141.309L166.988,116.887L166.988,116.887z M26.896,115.625h138.879V86.284
	H26.896V115.625z"/>
<rect x="27.771" y="93.32" fill="none" width="137.415" height="15.271"/>
<polygon fill="#878A8C" points="73.822,43.583 73.822,43.539 81.307,38.147 81.307,38.165 94.659,28.5 96.362,27.262 98.029,28.5 
	125.095,48.073 126.928,45.238 98.029,24.34 96.362,23.102 94.66,24.339 81.307,34.004 81.307,29.084 73.822,29.084 73.822,39.423 
	66.03,45.064 67.865,47.896 "/>
<path fill="#878A8C" d="M111.456,53.991c-0.066-0.455-0.351-0.849-0.763-1.049c-0.416-0.203-0.897-0.185-1.298,0.047l-8.944,5.194
	c-0.056,0.028-0.107,0.065-0.154,0.103l-1.383,0.799c-0.429,0.246-0.688,0.701-0.688,1.196c-0.002,0.49,0.264,0.948,0.688,1.194
	l7.793,4.529c0.222,0.125,0.458,0.184,0.693,0.184c0.428,0,0.847-0.198,1.114-0.565c1.997-2.721,3.096-6.072,3.096-9.433
	C111.609,55.465,111.56,54.726,111.456,53.991z"/>
<path fill="#878A8C" d="M85.951,45.852l8.88,5.105c0.045,0.025,0.091,0.05,0.139,0.07l1.45,0.84
	c0.216,0.125,0.451,0.184,0.688,0.184s0.479-0.063,0.691-0.184c0.428-0.247,0.687-0.702,0.687-1.196v-9.022
	c0-0.706-0.532-1.298-1.232-1.374c-4.077-0.436-8.217,0.767-11.47,3.288c-0.368,0.281-0.564,0.729-0.534,1.188
	C85.294,45.208,85.553,45.623,85.951,45.852z"/>
<path fill="#878A8C" d="M100.452,55.918c0.214,0.125,0.449,0.184,0.688,0.184c0.237,0,0.479-0.062,0.689-0.186l7.797-4.527
	c0.613-0.356,0.856-1.117,0.569-1.76c-1.69-3.757-4.721-6.688-8.533-8.248c-0.426-0.175-0.907-0.128-1.293,0.13
	c-0.382,0.256-0.614,0.686-0.614,1.147v12.063C99.761,55.217,100.021,55.673,100.452,55.918z"/>
<path fill="#878A8C" d="M105.19,66.583l-10.413-6.049c-0.428-0.249-0.951-0.251-1.384-0.002c-0.429,0.245-0.692,0.701-0.692,1.197
	v9.011c0,0.709,0.536,1.297,1.239,1.373c0.556,0.059,1.117,0.088,1.658,0.088c3.482,0,6.943-1.18,9.744-3.326
	c0.366-0.283,0.568-0.725,0.533-1.187C105.846,67.229,105.591,66.816,105.19,66.583z"/>
<path fill="#878A8C" d="M92.228,50.916l-7.786-4.476c-0.612-0.352-1.391-0.184-1.806,0.388c-1.962,2.711-3.046,6.038-3.046,9.364
	c0,0.685,0.043,1.373,0.129,2.045c0.06,0.457,0.339,0.856,0.75,1.061c0.196,0.099,0.408,0.146,0.618,0.146
	c0.234,0,0.473-0.06,0.686-0.181l10.453-5.949c0.43-0.244,0.694-0.7,0.694-1.194C92.92,51.621,92.655,51.163,92.228,50.916z"/>
<path fill="#878A8C" d="M90.751,56.396c-0.426-0.249-0.949-0.25-1.377-0.008l-7.861,4.477c-0.616,0.348-0.866,1.104-0.584,1.753
	c1.679,3.831,4.733,6.808,8.605,8.393c0.169,0.066,0.345,0.102,0.522,0.102c0.272,0,0.537-0.08,0.773-0.236
	c0.38-0.258,0.61-0.685,0.61-1.147V57.591C91.437,57.097,91.177,56.641,90.751,56.396z"/>
<path fill="#878A8C" d="M95.598,35.587c-11.363,0-20.605,9.243-20.605,20.604s9.243,20.606,20.605,20.606
	c11.364,0,20.605-9.244,20.605-20.606S106.959,35.587,95.598,35.587z M95.598,74.032c-9.838,0-17.841-8.001-17.841-17.84
	c0-9.837,8.005-17.841,17.841-17.841c9.84,0,17.843,8.005,17.843,17.841C113.442,66.031,105.438,74.032,95.598,74.032z"/>
<path fill="#1C4423" d="M39.157,98.452V88.286h0.762v4.769h4.151v-4.769h0.762v10.166H44.07V93.78h-4.151v4.672H39.157z"/>
<path fill="#1C4423" d="M46.501,96.441c0-0.703,0.224-1.263,0.673-1.68s1.056-0.624,1.822-0.624h1.2v-0.93
	c0-0.535-0.123-0.953-0.368-1.256s-0.588-0.455-1.028-0.455c-0.411,0-0.748,0.145-1.012,0.434c-0.265,0.289-0.397,0.643-0.397,1.061
	l-0.711-0.006l-0.013-0.043c-0.021-0.567,0.174-1.073,0.587-1.518c0.412-0.445,0.94-0.668,1.583-0.668
	c0.635,0,1.147,0.214,1.536,0.64s0.584,1.034,0.584,1.825v3.709c0,0.311,0.015,0.584,0.045,0.82
	c0.031,0.235,0.061,0.469,0.091,0.701H50.31c-0.033-0.258-0.06-0.473-0.082-0.645c-0.022-0.17-0.033-0.34-0.033-0.508
	c-0.208,0.377-0.477,0.688-0.809,0.933c-0.333,0.244-0.702,0.366-1.108,0.366c-0.567,0-1.005-0.194-1.314-0.583
	S46.501,97.103,46.501,96.441z M47.263,96.47c0,0.404,0.097,0.734,0.292,0.99c0.195,0.257,0.468,0.385,0.819,0.385
	c0.423,0,0.799-0.134,1.127-0.401c0.328-0.268,0.56-0.608,0.695-1.022v-1.635h-1.219c-0.521,0-0.936,0.162-1.248,0.485
	C47.419,95.595,47.263,95.994,47.263,96.47z"/>
<path fill="#1C4423" d="M52.417,95.01v-1.089c0-1.457,0.229-2.631,0.688-3.523c0.459-0.891,1.076-1.42,1.852-1.588
	c0.488-0.107,0.838-0.25,1.051-0.43s0.319-0.436,0.319-0.771h0.634l0.014,0.042c0.017,0.643-0.135,1.097-0.455,1.361
	c-0.319,0.266-0.791,0.452-1.414,0.559c-0.505,0.093-0.938,0.388-1.299,0.884c-0.361,0.496-0.579,1.164-0.654,2.008l0.025,0.034
	c0.196-0.331,0.459-0.596,0.789-0.796s0.688-0.301,1.077-0.301c0.734,0,1.321,0.316,1.76,0.947s0.659,1.441,0.659,2.433v0.23
	c0,1.057-0.231,1.919-0.694,2.587s-1.079,1.002-1.851,1.002c-0.763,0-1.371-0.334-1.823-1.002S52.417,96.066,52.417,95.01z
	 M53.179,95.01c0,0.815,0.151,1.495,0.454,2.042c0.303,0.547,0.731,0.82,1.287,0.82c0.562,0,1-0.273,1.313-0.82
	c0.313-0.547,0.47-1.227,0.47-2.042v-0.23c0-0.745-0.157-1.373-0.47-1.886c-0.313-0.512-0.753-0.768-1.319-0.768
	c-0.551,0-0.978,0.258-1.28,0.771c-0.302,0.515-0.454,1.142-0.454,1.882V95.01z"/>
<path fill="#1C4423" d="M58.188,98.452l0.013-0.768l0.203-0.008c0.381,0,0.654-0.254,0.819-0.761s0.248-1.401,0.248-2.681v-3.338
	h3.777v7.555h-0.762v-6.808h-2.253v2.591c0,1.484-0.135,2.559-0.406,3.222s-0.734,0.995-1.39,0.995H58.188z"/>
<path fill="#1C4423" d="M65.094,98.452v-7.555h0.762v3.428h1.536v-0.202c0-0.978,0.228-1.782,0.685-2.416
	c0.457-0.633,1.069-0.95,1.838-0.95c0.77,0,1.383,0.316,1.842,0.947s0.688,1.438,0.688,2.419v1.11c0,0.991-0.229,1.801-0.685,2.426
	c-0.457,0.627-1.069,0.939-1.838,0.939c-0.773,0-1.389-0.313-1.845-0.939c-0.457-0.625-0.685-1.435-0.685-2.426v-0.182h-1.536v3.4
	H65.094z M68.154,95.233c0,0.754,0.152,1.383,0.458,1.885c0.305,0.503,0.742,0.754,1.31,0.754c0.555,0,0.987-0.252,1.297-0.757
	s0.464-1.132,0.464-1.882v-1.11c0-0.74-0.155-1.362-0.464-1.868c-0.31-0.505-0.744-0.758-1.304-0.758
	c-0.563,0-0.998,0.253-1.303,0.758c-0.306,0.506-0.458,1.128-0.458,1.868V95.233z"/>
<path fill="#1C4423" d="M73.296,97.726h0.421c0.289-0.455,0.523-0.965,0.702-1.525s0.289-1.416,0.331-2.566l0.038-2.736h3.529v6.828
	h0.641l-0.07,2.947h-0.692v-2.221h-4.145v2.221h-0.692L73.296,97.726z M74.542,97.726h3.013v-6.061h-1.98l-0.063,1.945
	c-0.038,0.988-0.143,1.816-0.313,2.482C75.026,96.761,74.808,97.305,74.542,97.726z"/>
<path fill="#1C4423" d="M80.019,96.441c0-0.703,0.224-1.263,0.673-1.68s1.056-0.624,1.822-0.624h1.2v-0.93
	c0-0.535-0.123-0.953-0.368-1.256s-0.588-0.455-1.028-0.455c-0.411,0-0.748,0.145-1.013,0.434c-0.264,0.289-0.396,0.643-0.396,1.061
	l-0.711-0.006l-0.013-0.043c-0.021-0.567,0.175-1.073,0.587-1.518c0.413-0.445,0.941-0.668,1.584-0.668
	c0.635,0,1.147,0.214,1.536,0.64s0.584,1.034,0.584,1.825v3.709c0,0.311,0.015,0.584,0.045,0.82
	c0.031,0.235,0.061,0.469,0.091,0.701h-0.784c-0.033-0.258-0.06-0.473-0.082-0.645c-0.022-0.17-0.033-0.34-0.033-0.508
	c-0.208,0.377-0.477,0.688-0.81,0.933c-0.332,0.244-0.701,0.366-1.107,0.366c-0.567,0-1.005-0.194-1.314-0.583
	S80.019,97.103,80.019,96.441z M80.78,96.47c0,0.404,0.097,0.734,0.292,0.99c0.195,0.257,0.468,0.385,0.819,0.385
	c0.423,0,0.799-0.134,1.126-0.401c0.328-0.268,0.56-0.608,0.695-1.022v-1.635h-1.219c-0.521,0-0.937,0.162-1.247,0.485
	C80.936,95.595,80.78,95.994,80.78,96.47z"/>
<path fill="#1C4423" d="M86.265,98.452v-7.555h0.762v5.941l0.048,0.008l2.843-5.949h0.766v7.555h-0.762v-5.936l-0.043-0.006
	l-2.844,5.941H86.265z M86.874,87.937l0.02-0.042h0.627c0,0.349,0.075,0.628,0.226,0.841s0.39,0.318,0.72,0.318
	c0.313,0,0.547-0.108,0.701-0.325c0.155-0.217,0.232-0.495,0.232-0.834h0.628l0.02,0.042c0.013,0.521-0.125,0.946-0.411,1.274
	s-0.676,0.492-1.169,0.492c-0.501,0-0.896-0.164-1.186-0.492C86.993,88.883,86.857,88.458,86.874,87.937z"/>
<path fill="#1C4423" d="M91.896,91.63v-0.732h4.735v0.732h-2.019v6.822h-0.762V91.63H91.896z"/>
<path fill="#1C4423" d="M97.387,95.338v-1.257c0-0.954,0.236-1.746,0.709-2.377s1.041-0.947,1.706-0.947
	c0.719,0,1.276,0.283,1.674,0.85c0.397,0.564,0.596,1.325,0.596,2.279v0.831h-3.923v0.621c0,0.726,0.158,1.33,0.475,1.812
	c0.317,0.482,0.746,0.723,1.287,0.723c0.375,0,0.699-0.072,0.973-0.216c0.271-0.145,0.506-0.349,0.699-0.614l0.312,0.594
	c-0.207,0.293-0.475,0.527-0.802,0.701c-0.328,0.175-0.722,0.262-1.182,0.262c-0.742,0-1.348-0.306-1.818-0.918
	S97.387,96.288,97.387,95.338z M98.148,93.99h3.161v-0.321c0-0.623-0.134-1.142-0.399-1.553c-0.266-0.412-0.635-0.619-1.108-0.619
	c-0.478,0-0.868,0.24-1.175,0.72S98.161,93.288,98.148,93.99z"/>
<path fill="#1C4423" d="M105.912,96.333l0.013-0.045h0.711c0,0.448,0.138,0.824,0.413,1.129c0.274,0.304,0.623,0.455,1.047,0.455
	c0.457,0,0.81-0.134,1.057-0.402c0.248-0.268,0.371-0.626,0.371-1.074c0-0.494-0.113-0.855-0.339-1.081
	c-0.227-0.226-0.577-0.339-1.051-0.339h-0.901v-0.748h0.901c0.457,0,0.786-0.113,0.987-0.342s0.301-0.557,0.301-0.984
	c0-0.414-0.107-0.751-0.323-1.01c-0.216-0.258-0.55-0.387-1.003-0.387c-0.381,0-0.703,0.136-0.968,0.408s-0.397,0.615-0.397,1.029
	h-0.723l-0.014-0.041c-0.021-0.624,0.176-1.134,0.588-1.529c0.413-0.396,0.918-0.594,1.514-0.594c0.658,0,1.171,0.186,1.537,0.555
	c0.367,0.371,0.551,0.898,0.551,1.582c0,0.363-0.084,0.691-0.255,0.984s-0.411,0.52-0.722,0.678c0.355,0.14,0.623,0.362,0.806,0.668
	c0.183,0.305,0.272,0.684,0.272,1.137c0,0.688-0.201,1.226-0.602,1.613c-0.402,0.389-0.932,0.582-1.588,0.582
	c-0.597,0-1.115-0.193-1.555-0.582C106.101,97.607,105.891,97.054,105.912,96.333z"/>
<path fill="#1C4423" d="M111.536,96.441c0-0.703,0.224-1.263,0.673-1.68s1.056-0.624,1.822-0.624h1.199v-0.93
	c0-0.535-0.123-0.953-0.368-1.256s-0.589-0.455-1.028-0.455c-0.41,0-0.748,0.145-1.013,0.434s-0.396,0.643-0.396,1.061l-0.711-0.006
	l-0.013-0.043c-0.021-0.567,0.175-1.073,0.587-1.518c0.413-0.445,0.94-0.668,1.584-0.668c0.635,0,1.147,0.214,1.536,0.64
	s0.584,1.034,0.584,1.825v3.709c0,0.311,0.016,0.584,0.045,0.82c0.031,0.235,0.062,0.469,0.092,0.701h-0.784
	c-0.032-0.258-0.06-0.473-0.081-0.645c-0.022-0.17-0.033-0.34-0.033-0.508c-0.207,0.377-0.477,0.688-0.81,0.933
	c-0.332,0.244-0.701,0.366-1.107,0.366c-0.567,0-1.005-0.194-1.313-0.583C111.69,97.627,111.536,97.103,111.536,96.441z
	 M112.298,96.47c0,0.404,0.097,0.734,0.292,0.99c0.195,0.257,0.468,0.385,0.818,0.385c0.424,0,0.799-0.134,1.127-0.401
	s0.561-0.608,0.695-1.022v-1.635h-1.219c-0.521,0-0.937,0.162-1.247,0.485C112.453,95.595,112.298,95.994,112.298,96.47z"/>
<path fill="#1C4423" d="M120.57,98.452v-7.555h2.139c0.719,0,1.28,0.168,1.682,0.506c0.402,0.338,0.604,0.842,0.604,1.512
	c0,0.387-0.09,0.727-0.27,1.02s-0.434,0.505-0.759,0.635c0.376,0.094,0.679,0.307,0.904,0.641c0.227,0.334,0.34,0.717,0.34,1.15
	c0,0.684-0.19,1.203-0.571,1.559s-0.903,0.533-1.568,0.533H120.57z M121.332,94.263h1.422c0.482,0,0.85-0.11,1.101-0.332
	c0.252-0.221,0.378-0.55,0.378-0.988c0-0.441-0.128-0.771-0.384-0.987c-0.257-0.216-0.636-0.325-1.14-0.325h-1.377V94.263z
	 M121.332,97.747h1.738c0.44,0,0.78-0.12,1.02-0.361c0.238-0.24,0.358-0.586,0.358-1.039c0-0.42-0.12-0.752-0.362-0.997
	c-0.24-0.245-0.579-0.368-1.016-0.368h-1.738V97.747z"/>
<path fill="#1C4423" d="M126.473,96.441c0-0.703,0.225-1.263,0.674-1.68c0.448-0.417,1.055-0.624,1.821-0.624h1.2v-0.93
	c0-0.535-0.123-0.953-0.369-1.256c-0.245-0.303-0.588-0.455-1.027-0.455c-0.411,0-0.748,0.145-1.013,0.434s-0.397,0.643-0.397,1.061
	l-0.711-0.006l-0.012-0.043c-0.021-0.567,0.174-1.073,0.587-1.518c0.412-0.445,0.94-0.668,1.583-0.668
	c0.635,0,1.147,0.214,1.537,0.64c0.389,0.426,0.584,1.034,0.584,1.825v3.709c0,0.311,0.015,0.584,0.045,0.82
	c0.031,0.235,0.061,0.469,0.091,0.701h-0.784c-0.032-0.258-0.06-0.473-0.081-0.645c-0.022-0.17-0.032-0.34-0.032-0.508
	c-0.208,0.377-0.478,0.688-0.81,0.933c-0.333,0.244-0.702,0.366-1.108,0.366c-0.566,0-1.004-0.194-1.313-0.583
	S126.473,97.103,126.473,96.441z M127.234,96.47c0,0.404,0.098,0.734,0.293,0.99c0.194,0.257,0.467,0.385,0.818,0.385
	c0.424,0,0.799-0.134,1.127-0.401s0.56-0.608,0.695-1.022v-1.635h-1.219c-0.521,0-0.937,0.162-1.248,0.485
	C127.391,95.595,127.234,95.994,127.234,96.47z"/>
<path fill="#1C4423" d="M132.72,98.452v-7.555h0.762v6.828h2.361v-6.828h0.762v6.828h2.349v-6.828h0.762v7.555H132.72z"/>
<path fill="#1C4423" d="M141.461,98.452v-7.555h0.762v5.941l0.038,0.008l2.856-5.949h0.762v7.555h-0.762v-5.936l-0.038-0.006
	l-2.856,5.941H141.461z"/>
<path fill="#1C4423" d="M147.727,98.452v-7.555h0.996l2.107,6.34h0.038l2.114-6.34h0.945v7.555h-0.762v-5.803l-0.038-0.014
	l-2.013,5.816h-0.533l-2.057-5.956l-0.037,0.007v5.949H147.727z"/>
<path fill="#1C4423" d="M79.384,110.726h0.421c0.289-0.455,0.523-0.965,0.702-1.525s0.289-1.416,0.331-2.566l0.038-2.736h3.529
	v6.828h0.641l-0.07,2.947h-0.692v-2.221h-4.145v2.221h-0.692L79.384,110.726z M80.63,110.726h3.013v-6.061h-1.98l-0.063,1.945
	c-0.038,0.988-0.143,1.816-0.313,2.482C81.114,109.761,80.896,110.305,80.63,110.726z"/>
<path fill="#1C4423" d="M86.03,108.233v-1.11c0-0.978,0.228-1.782,0.685-2.416c0.457-0.633,1.069-0.95,1.839-0.95
	c0.769,0,1.383,0.316,1.841,0.947s0.688,1.438,0.688,2.419v1.11c0,0.991-0.229,1.801-0.685,2.426
	c-0.457,0.627-1.069,0.939-1.839,0.939c-0.773,0-1.388-0.313-1.845-0.939C86.258,110.034,86.03,109.225,86.03,108.233z
	 M86.792,108.233c0,0.754,0.152,1.383,0.458,1.885c0.305,0.503,0.742,0.754,1.31,0.754c0.556,0,0.988-0.252,1.297-0.757
	s0.464-1.132,0.464-1.882v-1.11c0-0.74-0.155-1.362-0.464-1.868c-0.31-0.505-0.744-0.758-1.303-0.758
	c-0.564,0-0.999,0.253-1.304,0.758c-0.306,0.506-0.458,1.128-0.458,1.868V108.233z"/>
<path fill="#1C4423" d="M92.568,111.452v-7.555h0.997l2.107,6.34h0.038l2.114-6.34h0.945v7.555h-0.762v-5.803l-0.037-0.014
	l-2.013,5.816h-0.533l-2.057-5.956l-0.038,0.007v5.949H92.568z"/>
<path fill="#1C4423" d="M100.243,108.233v-1.11c0-0.978,0.228-1.782,0.685-2.416c0.457-0.633,1.069-0.95,1.839-0.95
	c0.769,0,1.383,0.316,1.841,0.947c0.459,0.631,0.688,1.438,0.688,2.419v1.11c0,0.991-0.229,1.801-0.685,2.426
	c-0.457,0.627-1.069,0.939-1.839,0.939c-0.772,0-1.388-0.313-1.845-0.939C100.471,110.034,100.243,109.225,100.243,108.233z
	 M101.005,108.233c0,0.754,0.152,1.383,0.458,1.885c0.305,0.503,0.742,0.754,1.31,0.754c0.556,0,0.987-0.252,1.298-0.757
	c0.309-0.505,0.464-1.132,0.464-1.882v-1.11c0-0.74-0.155-1.362-0.464-1.868c-0.311-0.505-0.744-0.758-1.304-0.758
	c-0.563,0-0.999,0.253-1.304,0.758c-0.306,0.506-0.458,1.128-0.458,1.868V108.233z"/>
<path fill="#1C4423" d="M106.781,111.452v-7.555h0.996l2.107,6.34h0.039l2.113-6.34h0.945v7.555h-0.762v-5.803l-0.037-0.014
	l-2.013,5.816h-0.533l-2.057-5.956l-0.038,0.007v5.949H106.781z"/>
</svg>
