<?xml version="1.0" encoding="utf-8"?>
<!-- Generator: Adobe Illustrator 15.0.0, SVG Export Plug-In  -->
<!DOCTYPE svg PUBLIC "-//W3C//DTD SVG 1.1//EN" "http://www.w3.org/Graphics/SVG/1.1/DTD/svg11.dtd" [
	<!ENTITY ns_flows "http://ns.adobe.com/Flows/1.0/">
]>
<svg version="1.1"
	 xmlns="http://www.w3.org/2000/svg" xmlns:xlink="http://www.w3.org/1999/xlink" xmlns:a="http://ns.adobe.com/AdobeSVGViewerExtensions/3.0/"
	 x="0px" y="0px" width="215px" height="153px" viewBox="-158.878 0 215 153" enable-background="new -158.878 0 215 153"
	 xml:space="preserve">
<defs>
</defs>
<polygon display="none" fill="none" points="44.369,36.279 44.938,34.063 43.285,33.669 41.459,34.538 42.587,36.846 "/>
<polygon display="none" fill="none" points="49.327,41.757 47.024,41.757 45.413,43.496 45.149,45.235 46.374,45.889 "/>
<polygon display="none" fill="none" points="51.149,41.191 51.149,39.756 50.544,39.756 50.544,38.931 47.81,38.931 45.804,39.756 
	45.413,40.757 46.979,41.191 "/>
<polygon display="none" fill="none" points="51.894,39.537 51.894,41.191 53.327,40.844 "/>
<polygon display="none" fill="none" points="39.169,23.582 39.169,22.496 36.675,22.496 36.543,23.018 35.021,23.018 35.021,23.147 
	35.021,24.539 38.453,24.539 "/>
<polygon display="none" fill="none" points="56.46,45.412 56.46,44.063 53.81,43.281 53.634,43.281 53.634,44.537 54.241,45.412 "/>
<path display="none" fill="none" d="M135.593,48.887l-0.348-3.219l-1.869,1.02l-1.002,3.933l-2.695-2.87l-0.108-2.711l-2.605-2.241
	L126,41.841h-3.017l0.955,2.693l3.631,2.026l0.636,0.669l-0.788,0.394l0.036,2.133l-1.771,0.738l-1.516-0.332l-0.945-1.339
	l2.457,0.131l0.662-0.893l-5.447-3.675l-0.408-1.563l-2.217,2.001l-2.244-0.459l-3.414,4.437l-0.668,1.739l-2.188,0.197
	l-3.234,0.019l-1.932-0.904l-0.564-3.839l0.692-1.829l3.285-0.719l3.589,0.719l0.436-1.984l-1.52-0.361l0.521-3.088l3.604-0.566
	l2.524-3.564l2.605-0.438l2.351,0.346h0.868l-0.478-3.345l-2.86,1.154l-1.006-2.502l-1.66-0.23l-0.31-1.717l1.353-1.474l3.22-1.26
	l0.831-1.482c-12.299-10.83-28.413-17.42-46.057-17.42c-15.309,0-29.469,4.968-40.988,13.36l3.52-0.027l1.564,0.869l2.955,0.638
	l0.229,1.161l4.699,0.174l-0.64-1.507l-4.17-0.123l0.983-0.925l-0.344-1.104h-3.771l4.113-3.074h3.941l1.854,2.551l3.076,0.176
	l1.854-1.801l1.395,0.697l-2.555,2.495c0,0-3.532,0.06-3.361,0.06c0.176,0,0.292,2.434,0.292,2.434l4.287-0.12l0.462-1.157
	l2.954-0.175l0.348-1.739l-1.737-0.293l0.578-1.563l1.332-0.403l4.637,0.23l-2.555,2.32l0.411,1.794l2.669,0.407l-0.176-3.246
	l2.553-1.336l4.521-0.522l6.552,2.902v2.492l2.087,0.522l-1.045,1.971h-2.953l-0.875,2.259l-6.76-1.594l5.313-2.831l-2.025-1.719
	l-4.581,0.579l-0.399,0.412l-0.017-0.006l-0.071,0.099l-1.314,1.371l-2.182,0.183l0.176,1.088l0.764,0.316l-0.03,0.361l-1.772,0.251
	l-0.131,1.029l-1.695,0.087l-0.307-2.044l-3.043,0.925l-6.219,3.64l0.7,2.56l1.737,1.133l3.479,0.481v3.952l1.607-0.259l1.479-3.09
	l3.699-1.173v-4.739l2.06-1.554l4.971,1.173l-0.35,3.129h1.334l3.651-1.795l0.175,4.113l2.665,1.622l-0.112,2.439l-2.55,0.869
	l0.177,0.807l3.069,1.397l-0.06,1.679l-0.893,0.075c-0.004-0.028-0.011-0.047-0.011-0.047l-3.874-1.194l-0.175-1.232h-0.003
	l1.132-0.778v-1.132l-1.222-0.307l-0.301,1.044l-2.141,0.328l-0.212-0.072v0.106l-0.738,0.112l-0.604-1.22l-0.697-0.306h-1.522
	l-0.69,0.565v1.261l1.306,0.434l1.285,0.181l-0.287,0.129l-1.173,1.3l-0.521-0.65l-1.133-0.299l-3.089,2.907l0.402,0.332
	l-4.563,2.526l-4.289,4.466l-0.293,1.988l-4.303,2.828l-2.133,2.145l0.232,4.289l-2.959-1.375l0.021-2.51l-8.229,0.003l-4.258,2.16
	l-1.853,3.41l-0.729,2.705l1.195,2.623l3.357,0.41l5.338-3.566l0.467,1.766l-1.629,3.076l4.063,0.695l0.403,6.27l5.563,0.946
	l3.535-4.084l4.293,0.871l1.508,2.097l4.115-0.244l0.114-1.218l2.263,1.102l2.551,3.997l4.406,0.063l1.625,2.84l0.229,3.475
	l4.873,1.855l6.146,0.062l1.795,2.95l2.726,0.873l-0.521,2.437l-2.986,3.795l-0.87,8.396l-2.695,2.134l-3.998-0.123l-1.337,2.317
	l0.989,4.352l-4.351,5.566l-1.394,2.549l-4.146,1.995l-2.728,0.411l-0.112,1.158l1.914,0.547l-0.23,1.242l-1.713,1.65l1.041,1.309
	l2.063,0.058l-0.115,1.598l-0.548,1.563l-0.175,1.271l3.051,2.571l-0.406,1.338l-4.15-0.08l-4.131-3.604l-3.217-5.655l0.449-5.462
	l-2.436-3.25l0.982-5.508l-1.447-0.402V104.8c0,0-4.059-3.073-4.289-3.073s-2.147-0.521-2.147-0.521l-0.403-2.263l-5.275-6.61
	l0.521-2.375l0.172-3.884l3.648-2.553l-0.521-4.35l-5.33-0.4l-4.176-4.753l-2.955-0.806l-1.912-0.351l0.231-1.739l-2.438-0.347
	v0.983l-6.086-1.506l-2.451-3.75l0.996-1.816l-3.854-5.625l-0.66-4.114h-1.563l0.521,3.999l2.669,4.114l-0.291,1.626l-2.262-0.347
	l-2.779-4.743v-5.52l-2.896-1.394v-3.971C8.233,57.1,6.248,66.329,6.248,76.013c0,38.467,31.295,69.764,69.767,69.764
	c21.813,0,41.305-10.064,54.11-25.788h-2.303v-4.636l-2.662-3.584v-5.576l-2.033-2.025l-0.172-2.316l2.577-4.929l-4.896-8.642
	l0.582-5.859l-4.406-0.461l-1.623-1.621h-2.959l-1.506,1.393h-5.215l-0.175,0.461h-2.899l-6.666-7.591l0.059-5.915l1.104-0.404
	l0.408-2.263h-1.563l-0.641-2.377l7.709-5.565v-3.939l3.773-2.095l1.521,0.153h3.108l2.431-1.304l7.826-0.609v4.001l6.178,1.566
	l1.219,0.871h1.134v-2.187l3.563-0.347l3.392,2.524h5.563l0.394-0.357c-0.559-1.879-1.188-3.72-1.893-5.531l-3.637,0.063
	L135.593,48.887z M108.112,30.969l0.642-0.982l2.287-0.462l0.578,2.787l1.221,1.969l0.81,0.933l1.476,0.574l-1.386,1.655
	l-2.696,0.26h-2.028l0.23-2.405l1.686-0.349l-0.144-1.13l-1.569-0.984l-1.104-0.752L108.112,30.969L108.112,30.969z M104.345,35.322
	l1.394-2.232l1.882-0.435l1.337,0.582l-0.12,1.507l-2.865,2.03h-1.625L104.345,35.322L104.345,35.322z M66.44,43.902l-1.453,0.123
	l0.078-1.008l0.649-0.809l0.871,0.686L66.44,43.902z M71.534,42.121l-0.992,0.084l-0.199,0.96l-0.766,0.475l-1.229,0.103
	c-0.039-0.287-0.067-0.506-0.067-0.506h-0.476v-1.032h1.998l0.412-1.063l0.795-0.017l0.908,0.188L71.534,42.121z"/>
<path display="none" fill="none" d="M39.108,27.8c0,0,0.133-1.521,0-1.521c-0.131,0-1.651,0.26-1.651,0.26l-2.437,0.694l0.654,0.782
	L39.108,27.8z"/>
<polygon display="none" fill="none" points="56.112,42.205 55.044,41.542 54.415,42.205 55.259,42.908 "/>
<path display="none" fill="none" d="M50.724,44.063l1.301-0.242l1.043-0.673v-1.391h-2.344
	C50.724,41.976,50.724,44.063,50.724,44.063z"/>
<polygon display="none" fill="none" points="50.724,45.278 49.677,45.37 49.327,46.889 51.544,46.889 52.546,45.889 52.546,44.537 
	50.938,44.756 "/>
<path display="none" fill="none" d="M17.099,38.725c-0.988,1.555-1.92,3.148-2.785,4.783l2.896-3.517L17.099,38.725z"/>
<path display="none" d="M152.015,75.232c-0.021-2.223-0.135-4.43-0.349-6.603c-0.702-7.246-2.434-14.189-5.032-20.699
	c-0.193-0.486-0.372-0.976-0.574-1.455c-3.459-8.169-8.313-15.607-14.258-22.028c-0.388-0.418-0.783-0.83-1.182-1.238
	c-1.128-1.167-2.273-2.304-3.473-3.396C113.636,7.51,95.685,0,76.015,0c-19.84,0-37.918,7.645-51.469,20.136
	c-3.154,2.911-6.061,6.089-8.689,9.49C5.927,42.47,0,58.56,0,76.017c0,41.917,34.104,76.019,76.021,76.019
	c29.486,0,55.084-16.882,67.687-41.479c2.691-5.259,4.794-10.867,6.204-16.742c0.359-1.487,0.672-2.986,0.94-4.508
	c0.763-4.316,1.185-8.754,1.185-13.289C152.032,75.754,152.015,75.495,152.015,75.232z M137.706,44.85l0.441-0.495
	c0.576,1.122,1.119,2.264,1.634,3.42l-0.722-0.027l-1.354,0.188L137.706,44.85L137.706,44.85z M126.72,31.586l0.014-3.396
	c1.195,1.266,2.346,2.57,3.445,3.921l-1.371,2.038l-4.787-0.043l-0.299-0.998L126.72,31.586z M35.021,23.147v-0.128h1.521
	l0.132-0.521h2.491v1.088l-0.717,0.958h-3.434v-1.396L35.021,23.147L35.021,23.147z M37.456,26.539c0,0,1.521-0.26,1.652-0.26
	c0.133,0,0,1.521,0,1.521l-3.436,0.215l-0.654-0.782L37.456,26.539z M142.549,56.716h-5.563l-3.39-2.524l-3.565,0.347v2.177h-1.13
	l-1.217-0.87l-6.18-1.567v-4.001l-7.826,0.61l-2.428,1.303h-3.107l-1.526-0.152l-3.772,2.094v3.944l-7.714,5.565l0.642,2.375h1.563
	l-0.407,2.264l-1.101,0.404L95.772,74.6l6.662,7.591h2.899l0.179-0.461h5.215l1.502-1.394h2.963l1.621,1.622l4.406,0.461l-0.58,5.86
	l4.896,8.641l-2.58,4.927l0.179,2.319l2.028,2.024v5.576l2.659,3.584v4.637h2.303c-12.804,15.728-32.3,25.795-54.105,25.795
	c-38.469,0-69.765-31.297-69.765-69.765c0-9.684,1.99-18.913,5.57-27.302v-2.177l2.493-3.031c0.865-1.635,1.794-3.23,2.787-4.783
	l0.109,1.266l-2.896,3.517c-0.896,1.695-1.734,3.428-2.493,5.207v3.971l2.896,1.394v5.52l2.778,4.743l2.261,0.347l0.293-1.626
	l-2.668-4.114l-0.521-3.999h1.563l0.66,4.114l3.854,5.625l-0.997,1.816l2.451,3.75l6.088,1.506v-0.983l2.437,0.347l-0.229,1.739
	l1.912,0.351l2.955,0.806l4.174,4.753l5.332,0.4l0.521,4.35l-3.648,2.553l-0.174,3.881l-0.521,2.375l5.276,6.611l0.402,2.262
	c0,0,1.914,0.52,2.147,0.52c0.231,0,4.29,3.074,4.29,3.074v11.943l1.447,0.402l-0.984,5.508l2.438,3.25l-0.451,5.462l3.217,5.655
	l4.132,3.604l4.151,0.08l0.406-1.338l-3.052-2.571l0.175-1.271l0.549-1.563l0.114-1.598l-2.063-0.058l-1.041-1.309l1.713-1.65
	l0.23-1.242l-1.912-0.547l0.112-1.158l2.728-0.411l4.146-1.99l1.394-2.554l4.349-5.566l-0.987-4.352l1.336-2.317l3.999,0.123
	l2.694-2.134l0.871-8.395l2.986-3.795l0.52-2.437L85.849,91.7l-1.795-2.95l-6.146-0.061l-4.873-1.856l-0.229-3.476l-1.625-2.838
	l-4.406-0.064l-2.545-3.997l-2.262-1.105l-0.115,1.218l-4.115,0.245l-1.508-2.098l-4.293-0.873l-3.535,4.086l-5.563-0.94
	l-0.403-6.274l-4.063-0.694l1.629-3.076l-0.466-1.766l-5.337,3.566l-3.359-0.409l-1.195-2.623l0.729-2.705l1.853-3.411l4.262-2.157
	l8.229-0.003l-0.021,2.51l2.959,1.375l-0.233-4.29l2.133-2.144l4.303-2.828l0.293-1.988l4.289-4.465l4.563-2.527l-0.403-0.331
	l3.09-2.907l1.133,0.3l0.52,0.65l1.174-1.301l0.287-0.128l-1.285-0.181l-1.306-0.434V37.5l0.69-0.566h1.521l0.698,0.307l0.604,1.219
	l0.737-0.112v-0.107l0.212,0.072l2.141-0.329l0.301-1.044l1.222,0.307v1.131l-1.131,0.778h0.003l0.165,1.241l3.875,1.195
	c0,0,0.002,0.016,0.009,0.046l0.891-0.075l0.062-1.679l-3.071-1.397l-0.174-0.808l2.549-0.868l0.11-2.438l-2.662-1.623l-0.176-4.112
	l-3.651,1.794h-1.332l0.352-3.13l-4.973-1.172l-2.058,1.555v4.74l-3.698,1.173l-1.482,3.089l-1.605,0.259v-3.951l-3.479-0.482
	l-1.736-1.131l-0.701-2.562l6.219-3.638l3.043-0.926l0.307,2.045l1.695-0.088l0.131-1.027l1.773-0.254l0.03-0.36l-0.765-0.316
	l-0.176-1.087l2.181-0.185l1.315-1.37l0.071-0.101l0.017,0.006l0.399-0.413l4.58-0.579l2.026,1.719l-5.313,2.831l6.761,1.594
	l0.875-2.259h2.953l1.045-1.97l-2.088-0.522v-2.493l-6.551-2.901l-4.521,0.522l-2.551,1.334l0.174,3.246l-2.668-0.407l-0.412-1.795
	l2.556-2.319l-4.638-0.232l-1.332,0.403l-0.578,1.563l1.736,0.295l-0.346,1.737l-2.954,0.175l-0.462,1.158l-4.287,0.119
	c0,0-0.119-2.433-0.292-2.433c-0.171,0,3.36-0.058,3.36-0.058l2.556-2.496l-1.396-0.698l-1.854,1.802l-3.076-0.175l-1.854-2.551
	h-3.946l-4.114,3.073h3.771l0.345,1.104l-0.979,0.906l4.174,0.116l0.64,1.507l-4.7-0.176l-0.229-1.159l-2.953-0.638l-1.564-0.869
	l-3.52,0.027C46.556,11.218,60.715,6.253,76.022,6.253c17.644,0,33.758,6.594,46.059,17.429l-0.83,1.48l-3.22,1.261l-1.353,1.472
	l0.309,1.717l1.66,0.231l1.006,2.502l2.861-1.154l0.477,3.345h-0.868l-2.351-0.347l-2.604,0.438l-2.524,3.563l-3.605,0.566
	l-0.521,3.09l1.521,0.359l-0.437,1.986l-3.588-0.72l-3.285,0.72l-0.693,1.829l0.564,3.838l1.933,0.904l3.233-0.018l2.188-0.197
	l0.669-1.739l3.413-4.437l2.245,0.459l2.217-2l0.408,1.563l5.446,3.673l-0.662,0.895l-2.457-0.131l0.945,1.337l1.51,0.331
	l1.771-0.737l-0.036-2.133l0.789-0.394l-0.637-0.668l-3.631-2.026l-0.957-2.692h3.02l0.965,0.956l2.604,2.242l0.11,2.71l2.694,2.871
	l1.002-3.933l1.868-1.02l0.35,3.218l1.825,2l3.634-0.063c0.701,1.811,1.338,3.653,1.888,5.531L142.549,56.716z M41.459,34.538
	l1.826-0.869l1.647,0.394l-0.567,2.217l-1.781,0.566L41.459,34.538z M51.149,39.756v1.435h-4.17l-1.563-0.434l0.392-1.001
	l2.004-0.827h2.74v0.827H51.149z M53.067,41.757v1.391l-1.043,0.673l-1.301,0.242c0,0,0-2.087,0-2.306H53.067z M51.894,41.191
	v-1.653l1.436,1.307L51.894,41.191z M52.546,44.537v1.354l-0.998,1h-2.217l0.348-1.519l1.047-0.091l0.217-0.523L52.546,44.537z
	 M47.024,41.757h2.304l-2.953,4.132l-1.222-0.654l0.264-1.739L47.024,41.757z M56.46,44.063v1.35h-2.217l-0.607-0.875v-1.256h0.176
	L56.46,44.063z M54.415,42.205l0.631-0.663l1.064,0.663l-0.854,0.704L54.415,42.205z M143.679,60.237l0.222-0.256
	c0.096,0.394,0.188,0.788,0.272,1.188L143.679,60.237z"/>
<path display="none" d="M11.821,46.539v2.175c0.759-1.776,1.598-3.508,2.494-5.207L11.821,46.539z"/>
</svg>
