<?xml version="1.0" encoding="utf-8"?>
<!-- Generator: Adobe Illustrator 15.0.0, SVG Export Plug-In  -->
<!DOCTYPE svg PUBLIC "-//W3C//DTD SVG 1.1//EN" "http://www.w3.org/Graphics/SVG/1.1/DTD/svg11.dtd" [
	<!ENTITY ns_flows "http://ns.adobe.com/Flows/1.0/">
]>
<svg version="1.1"
	 xmlns="http://www.w3.org/2000/svg" xmlns:xlink="http://www.w3.org/1999/xlink" xmlns:a="http://ns.adobe.com/AdobeSVGViewerExtensions/3.0/"
	 x="0px" y="0px" width="166px" height="166px" viewBox="0 0 166 166" enable-background="new 0 0 166 166" xml:space="preserve">
<defs>
</defs>
<polygon display="none" fill="none" points="59.562,36.279 60.131,34.063 58.478,33.669 56.651,34.538 57.779,36.846 "/>
<polygon display="none" fill="none" points="64.52,41.757 62.217,41.757 60.605,43.496 60.343,45.235 61.566,45.889 "/>
<polygon display="none" fill="none" points="66.343,41.191 66.343,39.756 65.736,39.756 65.736,38.931 63.001,38.931 60.996,39.756 
	60.605,40.757 62.172,41.191 "/>
<polygon display="none" fill="none" points="67.085,39.537 67.085,41.191 68.52,40.844 "/>
<path display="none" fill="none" d="M159.365,61.168c-0.086-0.397-0.18-0.791-0.274-1.188l-0.22,0.256L159.365,61.168z"/>
<polygon display="none" fill="none" points="54.361,23.582 54.361,22.496 51.867,22.496 51.735,23.018 50.213,23.018 50.213,23.147 
	50.213,24.539 53.646,24.539 "/>
<polygon display="none" fill="none" points="71.652,45.412 71.652,44.063 69.001,43.281 68.826,43.281 68.826,44.537 69.434,45.412 
	"/>
<path display="none" fill="none" d="M150.785,48.887l-0.348-3.219l-1.869,1.02l-1.002,3.933l-2.695-2.87l-0.109-2.711l-2.604-2.241
	l-0.966-0.958h-3.017l0.955,2.693l3.632,2.026l0.635,0.669l-0.787,0.394l0.035,2.133l-1.771,0.738l-1.515-0.332l-0.946-1.339
	l2.458,0.131l0.662-0.893l-5.447-3.675l-0.408-1.563l-2.217,2.001l-2.245-0.459l-3.413,4.437l-0.669,1.739l-2.187,0.197
	l-3.234,0.019l-1.932-0.904l-0.565-3.839l0.693-1.829l3.284-0.719l3.59,0.719l0.436-1.984l-1.52-0.361l0.521-3.088l3.604-0.566
	l2.524-3.564l2.604-0.438l2.351,0.346h0.868l-0.478-3.345l-2.86,1.154l-1.005-2.502l-1.661-0.23l-0.31-1.717l1.354-1.474l3.219-1.26
	l0.832-1.482c-12.299-10.83-28.414-17.42-46.057-17.42c-15.309,0-29.469,4.968-40.988,13.36l3.519-0.027l1.565,0.869l2.955,0.638
	l0.229,1.161l4.699,0.174l-0.64-1.507l-4.17-0.123l0.984-0.925l-0.344-1.104h-3.771l4.114-3.074h3.942l1.854,2.551l3.076,0.176
	l1.854-1.801l1.395,0.697l-2.555,2.495c0,0-3.532,0.06-3.361,0.06c0.176,0,0.292,2.434,0.292,2.434l4.287-0.12l0.462-1.157
	l2.954-0.175l0.348-1.739l-1.738-0.293l0.578-1.563l1.332-0.403l4.637,0.23l-2.555,2.32l0.412,1.794l2.668,0.407l-0.175-3.246
	l2.552-1.336l4.521-0.522l6.553,2.902v2.492l2.086,0.522l-1.045,1.971h-2.953l-0.875,2.259l-6.759-1.594l5.313-2.831l-2.024-1.719
	l-4.582,0.579l-0.4,0.412l-0.016-0.006l-0.071,0.099l-1.315,1.371l-2.181,0.183l0.175,1.088l0.764,0.316l-0.03,0.361l-1.773,0.251
	l-0.131,1.029l-1.695,0.087l-0.307-2.044l-3.042,0.925l-6.219,3.64l0.7,2.56l1.737,1.133l3.479,0.481v3.952l1.607-0.259l1.48-3.09
	l3.699-1.173v-4.739l2.059-1.554l4.971,1.173l-0.35,3.129h1.334l3.651-1.795l0.176,4.113l2.664,1.622l-0.112,2.439l-2.549,0.869
	l0.176,0.807l3.069,1.397l-0.059,1.679l-0.894,0.075c-0.003-0.028-0.011-0.047-0.011-0.047l-3.873-1.194l-0.176-1.232l0,0
	l1.131-0.778v-1.132L88.3,36.927l-0.301,1.044l-2.14,0.328l-0.213-0.072v0.106l-0.737,0.112l-0.604-1.22l-0.697-0.306h-1.521
	l-0.691,0.565v1.261l1.306,0.434l1.285,0.181l-0.287,0.129l-1.173,1.3l-0.52-0.65l-1.133-0.299l-3.089,2.907l0.402,0.332
	l-4.563,2.526l-4.289,4.466l-0.294,1.988l-4.302,2.828l-2.133,2.146l0.233,4.289l-2.959-1.375l0.021-2.51l-8.229,0.003l-4.257,2.16
	l-1.853,3.41l-0.73,2.705l1.196,2.623l3.358,0.41l5.337-3.566l0.467,1.766l-1.629,3.076l4.062,0.695l0.404,6.271l5.563,0.946
	l3.535-4.085l4.294,0.871l1.507,2.097l4.115-0.244l0.115-1.218l2.262,1.102l2.551,3.997l4.406,0.064l1.625,2.839l0.229,3.475
	l4.873,1.856l6.146,0.061l1.795,2.95l2.726,0.873l-0.521,2.437l-2.985,3.795l-0.871,8.396l-2.695,2.134l-3.998-0.123l-1.336,2.318
	l0.988,4.351l-4.351,5.565l-1.394,2.55l-4.146,1.995l-2.727,0.412l-0.113,1.158l1.915,0.545l-0.231,1.242l-1.713,1.651l1.041,1.308
	l2.063,0.059l-0.115,1.598l-0.548,1.563l-0.175,1.271l3.051,2.571l-0.406,1.338l-4.151-0.08l-4.13-3.604l-3.218-5.654l0.45-5.463
	l-2.436-3.248l0.983-5.51l-1.447-0.403V104.8c0,0-4.059-3.073-4.29-3.073c-0.23,0-2.147-0.521-2.147-0.521l-0.403-2.263l-5.276-6.61
	l0.521-2.375l0.173-3.884l3.648-2.553l-0.522-4.35l-5.33-0.4l-4.175-4.754l-2.956-0.806l-1.912-0.351l0.232-1.739l-2.438-0.347
	v0.983l-6.087-1.506l-2.451-3.75l0.997-1.816l-3.854-5.625l-0.66-4.114H32.06l0.521,3.999l2.668,4.114l-0.291,1.626l-2.261-0.347
	l-2.78-4.743v-5.52l-2.896-1.394v-3.971c-3.594,8.389-5.579,17.618-5.579,27.302c0,38.467,31.295,69.764,69.767,69.764
	c21.813,0,41.305-10.064,54.109-25.788h-2.303v-4.636l-2.662-3.584v-5.576l-2.033-2.025l-0.172-2.316l2.578-4.929l-4.897-8.642
	l0.583-5.859l-4.406-0.461l-1.624-1.621h-2.959l-1.506,1.392h-5.215l-0.175,0.461h-2.899l-6.666-7.591l0.06-5.915l1.103-0.404
	l0.409-2.263h-1.563l-0.642-2.377l7.709-5.565v-3.939l3.774-2.095l1.521,0.153h3.107l2.432-1.304l7.826-0.609v4.001l6.177,1.566
	l1.22,0.871h1.133v-2.187l3.563-0.347l3.392,2.524h5.564l0.393-0.357c-0.558-1.879-1.187-3.72-1.892-5.531l-3.638,0.063
	L150.785,48.887z M123.305,30.969l0.643-0.982l2.287-0.462l0.578,2.787l1.221,1.969l0.809,0.933l1.477,0.574l-1.387,1.655
	l-2.695,0.26h-2.029l0.23-2.405l1.687-0.349l-0.144-1.13l-1.569-0.984l-1.104-0.752L123.305,30.969L123.305,30.969z M119.537,35.322
	l1.393-2.232l1.883-0.435l1.336,0.582l-0.119,1.507l-2.866,2.03h-1.624L119.537,35.322L119.537,35.322z M81.633,43.902l-1.453,0.123
	l0.078-1.008l0.65-0.809l0.871,0.686L81.633,43.902z M86.727,42.121l-0.992,0.084l-0.198,0.96L84.77,43.64l-1.228,0.103
	c-0.04-0.287-0.068-0.506-0.068-0.506h-0.475v-1.032h1.998l0.412-1.063l0.794-0.017l0.908,0.188L86.727,42.121z"/>
<path display="none" fill="none" d="M152.898,44.85v3.083l1.354-0.188l0.721,0.027c-0.514-1.156-1.057-2.295-1.633-3.42
	L152.898,44.85z"/>
<path display="none" fill="none" d="M54.302,27.8c0,0,0.132-1.521,0-1.521c-0.132,0-1.652,0.26-1.652,0.26l-2.437,0.694l0.654,0.782
	L54.302,27.8z"/>
<polygon display="none" fill="none" points="71.305,42.205 70.236,41.542 69.607,42.205 70.451,42.908 "/>
<path display="none" fill="none" d="M65.916,44.063l1.301-0.242l1.043-0.673v-1.391h-2.344
	C65.916,41.976,65.916,44.063,65.916,44.063z"/>
<path display="none" fill="none" d="M161.893,47.933l-0.229-1.286l-0.416-0.169c0.202,0.479,0.385,0.969,0.578,1.455H161.893
	L161.893,47.933z"/>
<polygon display="none" fill="none" points="65.916,45.278 64.868,45.37 64.52,46.889 66.736,46.889 67.738,45.889 67.738,44.537 
	66.131,44.756 "/>
<path display="none" fill="none" d="M32.291,38.725c-0.989,1.555-1.92,3.148-2.786,4.783l2.896-3.517L32.291,38.725z"/>
<path display="none" fill="none" d="M138.916,33.105l0.303,0.997l4.788,0.044l1.368-2.038c-1.1-1.352-2.254-2.655-3.443-3.921
	l-0.017,3.396L138.916,33.105z"/>
<polygon display="none" points="125.977,33.815 126.12,34.945 124.432,35.295 124.203,37.699 126.232,37.699 128.93,37.44 
	130.314,35.785 128.84,35.211 128.031,34.278 126.811,32.309 126.232,29.522 123.945,29.987 123.305,30.969 123.305,32.078 
	124.404,32.831 "/>
<polygon display="none" points="124.027,34.741 124.146,33.234 122.811,32.655 120.93,33.09 119.537,35.322 119.537,36.771 
	121.161,36.771 "/>
<path display="none" d="M85.413,41.142l-0.412,1.063h-1.999v1.032h0.476c0,0,0.028,0.219,0.068,0.506l1.228-0.103l0.768-0.475
	l0.199-0.96l0.99-0.084l0.392-0.808l-0.91-0.188L85.413,41.142z"/>
<polygon display="none" points="80.261,43.014 80.183,44.025 81.633,43.902 81.783,42.89 80.911,42.205 "/>
<path display="none" d="M167.207,75.232c-0.023-2.223-0.135-4.43-0.35-6.603c-0.701-7.246-2.434-14.189-5.031-20.699
	c-0.195-0.486-0.372-0.976-0.574-1.455c-3.459-8.169-8.314-15.607-14.259-22.028c-0.388-0.418-0.784-0.83-1.183-1.238
	c-1.127-1.167-2.273-2.304-3.473-3.396C128.828,7.51,110.877,0,91.207,0c-19.84,0-37.918,7.645-51.469,20.136
	c-3.155,2.911-6.061,6.089-8.689,9.49C21.119,42.47,15.191,58.56,15.191,76.017c0,41.917,34.104,76.019,76.02,76.019
	c29.487,0,55.084-16.882,67.688-41.479c2.69-5.259,4.793-10.867,6.203-16.742c0.359-1.487,0.672-2.986,0.94-4.508
	c0.763-4.316,1.185-8.754,1.185-13.289C167.225,75.754,167.207,75.495,167.207,75.232z M152.898,44.85l0.441-0.495
	c0.576,1.122,1.119,2.264,1.633,3.42l-0.721-0.027l-1.354,0.188V44.85L152.898,44.85z M141.912,31.586l0.013-3.396
	c1.196,1.266,2.347,2.57,3.446,3.921L144,34.149l-4.787-0.043l-0.299-0.998L141.912,31.586z M50.213,23.147v-0.128h1.522
	l0.132-0.521h2.491v1.088l-0.717,0.958h-3.433v-1.396L50.213,23.147L50.213,23.147z M52.648,26.539c0,0,1.521-0.26,1.652-0.26
	c0.133,0,0,1.521,0,1.521l-3.435,0.215l-0.654-0.782L52.648,26.539z M157.741,56.716h-5.563l-3.389-2.524l-3.566,0.347v2.177h-1.13
	l-1.216-0.87l-6.18-1.567v-4.001l-7.826,0.61l-2.428,1.303h-3.108l-1.526-0.152l-3.771,2.094v3.944l-7.714,5.565l0.642,2.375h1.563
	l-0.407,2.264l-1.101,0.404l-0.056,5.915l6.662,7.591h2.899l0.179-0.461h5.215l1.502-1.393h2.963l1.621,1.622l4.406,0.461
	l-0.58,5.86l4.896,8.641l-2.58,4.927l0.179,2.319l2.028,2.024v5.576l2.66,3.584v4.637h2.303
	c-12.805,15.728-32.301,25.795-54.106,25.795c-38.469,0-69.764-31.297-69.764-69.765c0-9.684,1.99-18.913,5.57-27.302v-2.177
	l2.493-3.031c0.865-1.635,1.794-3.23,2.787-4.783l0.11,1.266l-2.896,3.517c-0.896,1.695-1.734,3.428-2.493,5.207v3.971l2.896,1.394
	v5.52l2.779,4.743l2.261,0.347l0.292-1.626l-2.668-4.114l-0.521-3.999h1.563l0.66,4.114l3.854,5.625l-0.997,1.816l2.452,3.75
	l6.087,1.506v-0.983l2.437,0.347l-0.23,1.739l1.912,0.351l2.956,0.806l4.174,4.754l5.331,0.4l0.522,4.35l-3.649,2.553l-0.173,3.881
	l-0.521,2.375l5.277,6.611l0.402,2.262c0,0,1.914,0.52,2.147,0.52c0.232,0,4.29,3.074,4.29,3.074v11.943l1.448,0.402l-0.985,5.509
	l2.437,3.249L73,131.366l3.217,5.655l4.131,3.604l4.152,0.08l0.406-1.338l-3.052-2.571l0.175-1.271l0.549-1.563l0.114-1.598
	l-2.063-0.058l-1.042-1.309l1.713-1.65l0.231-1.242l-1.913-0.547l0.113-1.158l2.727-0.411l4.146-1.99l1.394-2.554l4.349-5.566
	l-0.986-4.352l1.336-2.317l3.998,0.123l2.695-2.134l0.87-8.395l2.986-3.795l0.521-2.437L101.04,91.7l-1.795-2.95L93.1,88.689
	l-4.873-1.856l-0.229-3.475l-1.625-2.839l-4.406-0.064l-2.545-3.997l-2.262-1.105l-0.115,1.218l-4.115,0.245l-1.507-2.098
	l-4.294-0.873l-3.535,4.086l-5.563-0.94l-0.404-6.274l-4.062-0.694l1.629-3.076l-0.466-1.766l-5.337,3.566l-3.359-0.409
	l-1.196-2.623l0.73-2.705l1.853-3.411l4.261-2.157l8.229-0.003l-0.021,2.51l2.959,1.375l-0.233-4.29l2.133-2.144l4.302-2.828
	l0.294-1.988l4.289-4.465l4.563-2.527l-0.403-0.331l3.089-2.907l1.133,0.3l0.52,0.65l1.173-1.301l0.287-0.128l-1.285-0.181
	l-1.305-0.434V37.5l0.69-0.566h1.522l0.697,0.307l0.604,1.219l0.737-0.112v-0.107l0.213,0.072l2.14-0.329l0.302-1.044l1.221,0.307
	v1.131l-1.131,0.778h0.004l0.164,1.241l3.875,1.195c0,0,0.002,0.016,0.009,0.046l0.891-0.075l0.062-1.679l-3.07-1.397l-0.174-0.808
	l2.548-0.868l0.11-2.438L90.15,32.75l-0.176-4.112l-3.652,1.794H84.99l0.352-3.13L80.37,26.13l-2.058,1.555v4.74l-3.699,1.173
	l-1.482,3.089l-1.605,0.259v-3.951l-3.479-0.482l-1.736-1.131L65.61,28.82l6.218-3.638l3.043-0.926l0.307,2.045l1.695-0.088
	l0.131-1.027l1.773-0.254l0.031-0.36l-0.765-0.316l-0.176-1.087l2.181-0.185l1.315-1.37l0.072-0.101l0.016,0.006l0.4-0.413
	l4.581-0.579l2.025,1.719l-5.313,2.831l6.76,1.594l0.875-2.259h2.953l1.045-1.97l-2.088-0.522v-2.493l-6.551-2.901l-4.521,0.522
	l-2.552,1.334l0.174,3.246l-2.667-0.407l-0.412-1.795l2.555-2.319l-4.637-0.232l-1.332,0.403l-0.578,1.563l1.736,0.295l-0.346,1.737
	l-2.954,0.175l-0.462,1.158l-4.287,0.119c0,0-0.119-2.433-0.292-2.433c-0.171,0,3.36-0.058,3.36-0.058l2.556-2.496l-1.395-0.698
	l-1.854,1.802l-3.076-0.175l-1.854-2.551h-3.946l-4.115,3.073h3.771l0.345,1.104l-0.979,0.906l4.174,0.116l0.64,1.507l-4.7-0.176
	l-0.229-1.159l-2.953-0.638l-1.565-0.869l-3.519,0.027C61.74,11.218,75.9,6.253,91.208,6.253c17.644,0,33.758,6.594,46.06,17.429
	l-0.83,1.48l-3.221,1.261l-1.354,1.472l0.31,1.717l1.661,0.231l1.005,2.502l2.861-1.154l0.478,3.345h-0.869l-2.351-0.347
	l-2.604,0.438l-2.524,3.563l-3.604,0.566l-0.521,3.09l1.52,0.359l-0.436,1.986l-3.589-0.72l-3.285,0.72l-0.692,1.829l0.564,3.838
	l1.932,0.904l3.234-0.018l2.188-0.197l0.668-1.739l3.414-4.437l2.244,0.459l2.217-2l0.408,1.563l5.447,3.673l-0.662,0.895
	l-2.458-0.131l0.946,1.337l1.509,0.331l1.771-0.737l-0.035-2.133l0.789-0.394l-0.638-0.668l-3.63-2.026l-0.957-2.692h3.02
	l0.965,0.956l2.604,2.242l0.11,2.71l2.694,2.871l1.002-3.933l1.869-1.02l0.349,3.218l1.825,2l3.635-0.063
	c0.701,1.811,1.337,3.653,1.887,5.531L157.741,56.716z M56.651,34.538l1.826-0.869l1.648,0.394l-0.568,2.217l-1.781,0.566
	L56.651,34.538z M66.343,39.756v1.435h-4.171l-1.563-0.434l0.392-1.001l2.004-0.827h2.739v0.827H66.343z M68.26,41.757v1.391
	l-1.043,0.673l-1.301,0.242c0,0,0-2.087,0-2.306H68.26z M67.085,41.191v-1.653l1.436,1.307L67.085,41.191z M67.738,44.537v1.354
	l-0.998,1h-2.217l0.348-1.519l1.047-0.091l0.216-0.523L67.738,44.537z M62.217,41.757h2.304l-2.953,4.132l-1.222-0.654l0.264-1.739
	L62.217,41.757z M71.652,44.063v1.35h-2.217l-0.607-0.875v-1.256h0.176L71.652,44.063z M69.607,42.205l0.631-0.663l1.065,0.663
	l-0.854,0.704L69.607,42.205z M158.871,60.237l0.22-0.256c0.097,0.394,0.188,0.788,0.274,1.188L158.871,60.237z"/>
<path display="none" d="M27.014,46.539v2.175c0.759-1.776,1.598-3.508,2.494-5.207L27.014,46.539z"/>
<path fill="#333333" d="M165.98,82.144c-0.028-2.428-0.146-4.837-0.383-7.211c-0.767-7.91-2.654-15.491-5.492-22.6
	c-0.215-0.53-0.408-1.064-0.629-1.588c-3.775-8.92-9.08-17.041-15.567-24.052c-0.425-0.456-0.854-0.906-1.29-1.351
	c-1.23-1.274-2.482-2.516-3.791-3.708C124.077,8.2,104.475,0,82.998,0c-21.662,0-41.4,8.347-56.194,21.985
	c-3.446,3.179-6.616,6.647-9.489,10.361C6.474,46.373,0,63.941,0,83.001c0,45.769,37.236,83.001,83.002,83.001
	c32.197,0,60.145-18.434,73.9-45.289c2.941-5.742,5.236-11.865,6.777-18.281c0.391-1.623,0.732-3.261,1.026-4.92
	c0.832-4.715,1.293-9.559,1.293-14.511C165.998,82.714,165.98,82.431,165.98,82.144z M150.357,48.972l0.483-0.539
	c0.63,1.225,1.222,2.471,1.781,3.733l-0.785-0.03l-1.479,0.205V48.972z M138.361,34.489l0.013-3.708
	c1.308,1.383,2.563,2.806,3.765,4.28l-1.496,2.226l-5.227-0.047l-0.328-1.09L138.361,34.489z M38.239,25.275v-0.142h1.663
	l0.143-0.57h2.721v1.188l-0.781,1.045h-3.748v-1.522L38.239,25.275L38.239,25.275z M40.898,28.979c0,0,1.662-0.284,1.805-0.284
	c0.145,0,0,1.66,0,1.66l-3.75,0.235l-0.713-0.853L40.898,28.979z M155.645,61.927h-6.074l-3.698-2.756l-3.896,0.379v2.377h-1.233
	l-1.327-0.949l-6.746-1.711v-4.37l-8.546,0.667l-2.651,1.423h-3.394l-1.667-0.167l-4.119,2.288v4.306l-8.424,6.076l0.701,2.594
	h1.707l-0.445,2.472l-1.203,0.441l-0.059,6.459l7.272,8.288h3.167l0.193-0.503h5.693l1.641-1.521h3.234l1.771,1.77l4.811,0.504
	l-0.633,6.396l5.344,9.435l-2.818,5.378l0.193,2.533l2.215,2.211v6.086l2.904,3.916v5.061h2.514
	c-13.979,17.174-35.266,28.163-59.075,28.163c-42.003,0-76.172-34.172-76.172-76.172c0-10.573,2.173-20.651,6.083-29.811v-2.374
	l2.723-3.311c0.945-1.784,1.96-3.526,3.043-5.222l0.121,1.382l-3.16,3.84c-0.979,1.852-1.895,3.743-2.724,5.686v4.337l3.163,1.521
	v6.026l3.035,5.177l2.468,0.38l0.319-1.774l-2.914-4.492L18.412,60h1.707l0.721,4.492l4.208,6.141l-1.089,1.983l2.678,4.094
	l6.646,1.645v-1.073l2.659,0.379l-0.251,1.899l2.088,0.383l3.228,0.88l4.558,5.188l5.819,0.438l0.571,4.748l-3.984,2.787
	l-0.188,4.24l-0.57,2.594l5.763,7.219l0.44,2.469c0,0,2.09,0.568,2.346,0.568c0.254,0,4.685,3.357,4.685,3.357v13.039l1.581,0.439
	l-1.076,6.015l2.658,3.548l-0.49,5.965l3.512,6.172l4.51,3.938l4.533,0.084l0.445-1.459l-3.333-2.809l0.19-1.39l0.601-1.707
	l0.124-1.744l-2.252-0.063l-1.138-1.429l1.87-1.804l0.252-1.356l-2.09-0.595l0.124-1.264l2.978-0.451l4.524-2.174l1.521-2.789
	l4.749-6.078l-1.079-4.748l1.458-2.53l4.367,0.134l2.943-2.33l0.95-9.167l3.261-4.144l0.563-2.661l-2.972-0.953l-1.961-3.22
	l-6.707-0.067l-5.322-2.026l-0.252-3.795l-1.773-3.101l-4.811-0.07l-2.779-4.363l-2.469-1.206l-0.127,1.33l-4.492,0.268
	l-1.646-2.291l-4.688-0.953l-3.86,4.461l-6.075-1.025l-0.441-6.852l-4.435-0.759l1.778-3.358l-0.509-1.928l-5.828,3.893
	l-3.667-0.446l-1.306-2.863l0.798-2.953l2.022-3.725l4.652-2.355l8.983-0.002l-0.022,2.738l3.23,1.503l-0.256-4.684l2.328-2.341
	l4.697-3.087l0.32-2.171l4.683-4.874l4.981-2.76l-0.439-0.36l3.372-3.176l1.237,0.328l0.566,0.709l1.28-1.42l0.314-0.141
	l-1.403-0.197L72.28,42.31v-1.365l0.755-0.619h1.662l0.763,0.335l0.658,1.331l0.807-0.121v-0.116l0.23,0.079l2.337-0.359l0.328-1.14
	l1.334,0.335v1.236l-1.236,0.849h0.004l0.181,1.355l4.231,1.306c0,0,0.002,0.017,0.009,0.05l0.972-0.081l0.066-1.834l-3.353-1.526
	l-0.19-0.882l2.783-0.947l0.121-2.662l-2.907-1.771l-0.192-4.489l-3.986,1.959h-1.455l0.385-3.418l-5.43-1.279l-2.247,1.697v5.175
	l-4.038,1.28l-1.619,3.373l-1.754,0.282V36.03l-3.797-0.526l-1.896-1.236l-0.767-2.797l6.788-3.972l3.322-1.013l0.336,2.234
	l1.85-0.097l0.143-1.122l1.938-0.277l0.034-0.393l-0.835-0.346l-0.191-1.188l2.381-0.202l1.438-1.496l0.078-0.109l0.017,0.007
	l0.438-0.449l5.001-0.633l2.214,1.877l-5.801,3.091l7.381,1.739l0.955-2.466h3.227l1.14-2.151l-2.279-0.57v-2.723l-7.151-3.171
	l-4.936,0.57l-2.787,1.457l0.19,3.544l-2.913-0.444l-0.449-1.96l2.788-2.532l-5.062-0.253l-1.455,0.44l-0.631,1.707l1.897,0.322
	l-0.379,1.896L60.5,22.98l-0.505,1.264l-4.682,0.13c0,0-0.13-2.657-0.317-2.657s3.67-0.063,3.67-0.063l2.789-2.726l-1.521-0.763
	l-2.026,1.967l-3.357-0.191l-2.025-2.786H48.22l-4.493,3.354h4.117l0.376,1.205l-1.068,0.993l4.558,0.127l0.697,1.646l-5.133-0.192
	l-0.25-1.265l-3.225-0.697l-1.709-0.948l-3.842,0.03C50.821,12.25,66.281,6.828,82.996,6.828c19.266,0,36.857,7.2,50.289,19.03
	l-0.906,1.616l-3.516,1.377l-1.478,1.606l0.339,1.875l1.812,0.251l1.098,2.732l3.126-1.26l0.521,3.652h-0.95l-2.565-0.38
	l-2.845,0.479l-2.756,3.89l-3.938,0.618l-0.569,3.375l1.659,0.392l-0.475,2.167l-3.92-0.786l-3.587,0.786l-0.757,1.998l0.617,4.19
	l2.109,0.987l3.53-0.02l2.388-0.216l0.731-1.898l3.724-4.844l2.455,0.501l2.42-2.183l0.443,1.706l5.947,4.012l-0.721,0.976
	l-2.686-0.144l1.033,1.461l1.647,0.361l1.933-0.806l-0.041-2.328l0.863-0.431l-0.695-0.729l-3.963-2.212l-1.045-2.939h3.295
	l1.054,1.044l2.842,2.448l0.123,2.958l2.942,3.134l1.094-4.293l2.041-1.114l0.379,3.516l1.994,2.183L154,55.498
	c0.77,1.978,1.461,3.987,2.061,6.04L155.645,61.927z M45.271,37.713l1.993-0.949l1.801,0.431l-0.62,2.42l-1.946,0.619L45.271,37.713
	z M55.85,43.409v1.566h-4.553l-1.707-0.472l0.428-1.094l2.188-0.903h2.991v0.903H55.85z M57.944,45.594v1.521l-1.14,0.735
	l-1.42,0.264c0,0,0-2.278,0-2.519H57.944z M56.661,44.975v-1.804l1.567,1.427L56.661,44.975z M57.374,48.631v1.479l-1.089,1.092
	h-2.42l0.379-1.659l1.143-0.1l0.235-0.571L57.374,48.631z M51.347,45.594h2.513l-3.223,4.512l-1.332-0.713l0.285-1.899
	L51.347,45.594z M61.648,48.112v1.474h-2.42l-0.664-0.955v-1.372h0.191L61.648,48.112z M59.415,46.083l0.688-0.724l1.165,0.724
	l-0.933,0.769L59.415,46.083z M156.878,65.771l0.239-0.28c0.104,0.429,0.207,0.86,0.302,1.297L156.878,65.771z"/>
</svg>
