<?xml version="1.0" encoding="utf-8"?>
<!-- Generator: Adobe Illustrator 15.0.0, SVG Export Plug-In  -->
<!DOCTYPE svg PUBLIC "-//W3C//DTD SVG 1.1//EN" "http://www.w3.org/Graphics/SVG/1.1/DTD/svg11.dtd" [
	<!ENTITY ns_flows "http://ns.adobe.com/Flows/1.0/">
]>
<svg version="1.1"
	 xmlns="http://www.w3.org/2000/svg" xmlns:xlink="http://www.w3.org/1999/xlink" xmlns:a="http://ns.adobe.com/AdobeSVGViewerExtensions/3.0/"
	 x="0px" y="0px" width="600px" height="300px" viewBox="-63.668 -53.043 600 300" enable-background="new -63.668 -53.043 600 300"
	 xml:space="preserve">
<defs>
</defs>
<polygon fill="#454545" points="37.469,18.531 42.401,18.531 42.401,14.678 46.207,14.678 46.207,9.687 42.401,9.687 42.401,5.835 
	37.469,5.835 37.469,9.687 33.663,9.687 33.663,14.678 37.469,14.678 "/>
<path fill="#454545" d="M0,54.006h79.87v-3.763h-4.469c0.094-0.283,0.147-0.587,0.147-0.904V16.105c0-1.575-1.263-2.852-2.819-2.852
	H57.037v35.373c0,0.567-0.102,1.11-0.28,1.617h-1.841c0.094-0.283,0.147-0.587,0.147-0.904V3.695c0-1.575-1.263-2.852-2.819-2.852
	H27.625c-1.557,0-2.819,1.277-2.819,2.852v45.644c0,0.317,0.053,0.621,0.147,0.904h-1.839c-0.18-0.507-0.281-1.05-0.281-1.617
	V13.253H7.518c-1.557,0-2.818,1.277-2.818,2.852v33.234c0,0.317,0.053,0.621,0.146,0.904H0V54.006z M67.843,20.384h4.04v4.09h-4.04
	V20.384z M67.843,27.326h4.04v4.089h-4.04V27.326z M67.843,34.505h4.04v4.089h-4.04V34.505z M61.548,20.384h4.04v4.09h-4.04V20.384z
	 M61.548,27.326h4.04v4.089h-4.04V27.326z M61.548,34.505h4.04v4.089h-4.04V34.505z M46.207,50.054H34.344V35.077h11.863V50.054z
	 M39.935,2.125c5.489,0,9.937,4.503,9.937,10.057c0,5.554-4.448,10.056-9.937,10.056c-5.487,0-9.936-4.502-9.936-10.056
	C29.999,6.628,34.448,2.125,39.935,2.125z M15.411,20.384h4.041v4.09h-4.041V20.384z M15.411,27.326h4.041v4.089h-4.041V27.326z
	 M15.411,34.505h4.041v4.089h-4.041V34.505z M9.114,20.384h4.041v4.09H9.114V20.384z M9.114,27.326h4.041v4.089H9.114V27.326z
	 M9.114,34.505h4.041v4.089H9.114V34.505z"/>
<path fill="#454545" d="M117.489,26.579c0,0,1.724,3.176,5.479,0l22.448-18.991l21.046,18.874c4.35,3.136,5.978,0,5.978,0
	l-27.024-24.48L117.489,26.579z"/>
<polygon fill="#454545" points="165.952,7.542 160.538,7.542 160.562,14.108 165.952,18.682 "/>
<path fill="#454545" d="M145.248,11.163L124.96,28.162v21.277c0,0-0.047,1.228,1.152,1.228c0.691,0,3.71-0.005,6.755-0.008V39.641
	c0-2.913,2.361-5.275,5.275-5.275c2.913,0,5.275,2.362,5.275,5.275v10.974h5.924c0,0,2.118,0,4.688,0c3.486,0,7.812,0,8.871,0
	c1.524,0,1.455-1.528,1.455-1.528V28.162L145.248,11.163z M160.538,43.39h-10.956v-7.562h10.956V43.39z"/>
<rect x="120.475" y="49.937" fill="#454545" width="47.792" height="4.066"/>
<path fill="#454545" d="M291.271,54.006v-4.014h-2.291v-15.88l-2.089-12.521h-19.896l6.463,4.834v7.662l-4.172-3.089v1.523h-1.241
	v17.466h-1.287V30.844h1.238v-2.102l4.173,3.087v-4.366l-20.531-15.354h0.456v-0.002V6.285c0.881,0.461,2.92,1.241,4.631-0.256
	c2.254-1.971,4.648,0,4.648,0V0.813c0,0-2.958-1.83-4.648,0c-1.318,1.431-3.661,0.632-4.631,0.209V0.808h-0.882v11.3h0.423
	l-18.729,15.354v4.366l2.968-2.464v1.742h1.396v18.88h-1.362V32.781h-1.392v-0.964l-2.967,2.463v-7.816l5.94-4.871h-20.58
	l-2.088,12.522v15.877h-1.017v4.014H291.271z M279.098,36.664h6.918v3.785h-6.918V36.664z M279.098,42.713h6.918v3.788h-6.918
	V42.713z M269.306,36.664h6.92v3.785h-6.92V36.664z M269.306,42.713h6.92v3.788h-6.92V42.713z M251.433,49.943h-6.021v-11.17h6.021
	V49.943z M257.959,49.943h-6.02v-11.17h6.02V49.943z M262.987,49.986h-1.522V32.706h-19.656v17.281h-1.379v-18.88h1.324v-0.889
	h20.373v0.626h0.86V49.986z M249.104,25.305c0-1.511,1.228-2.742,2.741-2.742c1.516,0,2.742,1.231,2.742,2.742
	c0,1.512-1.227,2.742-2.742,2.742C250.331,28.047,249.104,26.817,249.104,25.305z M236.549,28.804l14.855-12.335l16.327,12.077
	h-1.647l-14.505-10.674l-14.006,10.933H236.549z M226.87,37.06h6.92v3.783h-6.92V37.06z M226.87,43.106h6.919v3.786h-6.919V43.106z
	 M217.078,37.06h6.92v3.783h-6.92V37.06z M217.078,43.106h6.92v3.786h-6.92V43.106z"/>
<rect x="346.177" y="44.519" fill="#454545" width="5.408" height="4.666"/>
<rect x="352.814" y="44.519" fill="#454545" width="5.409" height="4.666"/>
<rect x="339.538" y="44.519" fill="#454545" width="5.409" height="4.666"/>
<rect x="346.177" y="38.119" fill="#454545" width="5.408" height="4.666"/>
<rect x="339.538" y="38.119" fill="#454545" width="5.409" height="4.666"/>
<rect x="352.814" y="38.119" fill="#454545" width="5.409" height="4.666"/>
<rect x="346.177" y="31.719" fill="#454545" width="5.408" height="4.667"/>
<rect x="339.538" y="31.719" fill="#454545" width="5.409" height="4.667"/>
<rect x="359.452" y="44.519" fill="#454545" width="5.409" height="4.666"/>
<path fill="#454545" d="M376.081,49.468V13.682l-24.496-11.12l-23.138,11.12v35.786h-2.992v0.86v3.153h53.104h0.918v-3.153v-0.86
	H376.081z M367.506,50.328h-30.483V20.54h30.483V50.328z"/>
<path fill="#454545" d="M469.416,49.992V21.525h-22.734V2.038h-22.736v47.955h-3.249v0.765v3.249h51.968v-3.249v-0.765H469.416z
	 M427.192,5.286h6.496v6.496h-6.496V5.286z M427.192,15.029h6.496v6.496h-6.496V15.029z M427.192,24.773h6.496v6.496h-6.496V24.773z
	 M427.192,34.516h6.496v6.497h-6.496V34.516z M434.943,50.643h-3.839v-6.653h3.839V50.643z M439.284,50.643h-3.839v-6.653h3.839
	V50.643z M443.433,41.013h-6.496v-6.497h6.496V41.013z M443.433,31.27h-6.496v-6.496h6.496V31.27z M443.433,21.525h-6.496v-6.496
	h6.496V21.525z M443.433,11.782h-6.496V5.286h6.496V11.782z M456.425,41.013h-6.497v-6.497h6.497V41.013z M456.425,31.27h-6.497
	v-6.496h6.497V31.27z M466.169,41.013h-6.496v-6.497h6.496V41.013z M466.169,31.27h-6.496v-6.496h6.496V31.27z"/>
<path fill="#454545" d="M44.158,54.006h-0.845c0,1.862-1.516,3.378-3.378,3.378s-3.378-1.516-3.378-3.378h-0.845
	c0,2.184,1.672,3.965,3.801,4.181v17.728h0.845V58.187C42.486,57.971,44.158,56.189,44.158,54.006z"/>
<path fill="#454545" d="M148.594,54.003h-0.845c0,1.863-1.515,3.379-3.378,3.379s-3.378-1.516-3.378-3.379h-0.845
	c0,2.185,1.672,3.965,3.801,4.181v17.728h0.845V58.184C146.921,57.968,148.594,56.188,148.594,54.003z"/>
<path fill="#454545" d="M256.081,54.006h-0.846c0,1.862-1.516,3.378-3.379,3.378c-1.862,0-3.377-1.516-3.377-3.378h-0.846
	c0,2.184,1.673,3.965,3.8,4.181v17.728h0.846V58.187C254.407,57.971,256.081,56.189,256.081,54.006z"/>
<path fill="#454545" d="M357.038,53.481h-0.846c0,1.862-1.516,3.378-3.379,3.378c-1.861,0-3.377-1.516-3.377-3.378h-0.845
	c0,2.184,1.672,3.965,3.8,4.18v17.728h0.845V57.661C355.365,57.446,357.038,55.665,357.038,53.481z"/>
<path fill="#454545" d="M450.903,54.006h-0.845c0,1.862-1.517,3.378-3.379,3.378s-3.377-1.516-3.377-3.378h-0.846
	c0,2.184,1.672,3.965,3.8,4.18v17.728h0.846V58.186C449.23,57.971,450.903,56.189,450.903,54.006z"/>
</svg>
