<?xml version="1.0" encoding="utf-8"?>
<!-- Generator: Adobe Illustrator 15.0.0, SVG Export Plug-In  -->
<!DOCTYPE svg PUBLIC "-//W3C//DTD SVG 1.1//EN" "http://www.w3.org/Graphics/SVG/1.1/DTD/svg11.dtd" [
	<!ENTITY ns_flows "http://ns.adobe.com/Flows/1.0/">
]>
<svg version="1.1"
	 xmlns="http://www.w3.org/2000/svg" xmlns:xlink="http://www.w3.org/1999/xlink" xmlns:a="http://ns.adobe.com/AdobeSVGViewerExtensions/3.0/"
	 x="0px" y="0px" width="600px" height="300px" viewBox="-63.668 -93.377 600 300" enable-background="new -63.668 -93.377 600 300"
	 xml:space="preserve">
<defs>
</defs>
<polygon fill="#333333" points="37.469,18.532 42.4,18.532 42.4,14.678 46.207,14.678 46.207,9.688 42.4,9.688 42.4,5.835 
	37.469,5.835 37.469,9.688 33.663,9.688 33.663,14.678 37.469,14.678 "/>
<path fill="#333333" d="M0,54.007h79.87v-3.763H75.4c0.095-0.283,0.147-0.587,0.147-0.904V16.105c0-1.575-1.263-2.852-2.819-2.852
	H57.037v35.374c0,0.566-0.103,1.109-0.28,1.617h-1.841c0.094-0.283,0.146-0.587,0.146-0.904V3.695c0-1.575-1.263-2.852-2.818-2.852
	H27.625c-1.558,0-2.819,1.277-2.819,2.852V49.34c0,0.317,0.053,0.621,0.147,0.904h-1.84c-0.18-0.508-0.28-1.051-0.28-1.617V13.253
	H7.518c-1.557,0-2.817,1.277-2.817,2.852V49.34c0,0.317,0.053,0.621,0.146,0.904H0V54.007z M67.843,20.384h4.04v4.09h-4.04V20.384z
	 M67.843,27.327h4.04v4.089h-4.04V27.327z M67.843,34.505h4.04v4.089h-4.04V34.505z M61.548,20.384h4.04v4.09h-4.04V20.384z
	 M61.548,27.327h4.04v4.089h-4.04V27.327z M61.548,34.505h4.04v4.089h-4.04V34.505z M46.207,50.055H34.344V35.078h11.863V50.055z
	 M39.935,2.125c5.489,0,9.938,4.503,9.938,10.057c0,5.554-4.448,10.056-9.938,10.056c-5.486,0-9.936-4.502-9.936-10.056
	C29.999,6.628,34.448,2.125,39.935,2.125z M15.411,20.384h4.041v4.09h-4.041V20.384z M15.411,27.327h4.041v4.089h-4.041V27.327z
	 M15.411,34.505h4.041v4.089h-4.041V34.505z M9.113,20.384h4.041v4.09H9.113V20.384z M9.113,27.327h4.041v4.089H9.113V27.327z
	 M9.113,34.505h4.041v4.089H9.113V34.505z"/>
<path fill="#333333" d="M117.488,26.58c0,0,1.725,3.176,5.479,0l22.448-18.991l21.046,18.874c4.35,3.136,5.978,0,5.978,0
	l-27.023-24.48L117.488,26.58z"/>
<polygon fill="#333333" points="165.952,7.542 160.538,7.542 160.562,14.108 165.952,18.683 "/>
<path fill="#333333" d="M145.248,11.164L124.96,28.163v21.277c0,0-0.047,1.229,1.151,1.229c0.691,0,3.71-0.005,6.756-0.008V39.642
	c0-2.913,2.36-5.275,5.274-5.275c2.913,0,5.275,2.362,5.275,5.275v10.975h5.924c0,0,2.118,0,4.688,0c3.486,0,7.813,0,8.871,0
	c1.524,0,1.455-1.528,1.455-1.528V28.163L145.248,11.164z M160.538,43.391h-10.956v-7.562h10.956V43.391z"/>
<rect x="120.475" y="49.938" fill="#333333" width="47.792" height="4.066"/>
<path fill="#333333" d="M291.271,54.007v-4.014h-2.291V34.112l-2.09-12.521h-19.896l6.463,4.834v7.662l-4.172-3.089v1.523h-1.24
	v17.466h-1.287V30.844h1.238v-2.102l4.172,3.087v-4.366l-20.53-15.354h0.456v-0.002V6.286c0.881,0.461,2.92,1.241,4.631-0.256
	c2.254-1.971,4.648,0,4.648,0V0.813c0,0-2.959-1.83-4.648,0c-1.318,1.431-3.661,0.632-4.631,0.209V0.809h-0.883v11.3h0.424
	l-18.729,15.354v4.366l2.968-2.464v1.742h1.396v18.88h-1.361V32.782h-1.393v-0.964l-2.967,2.463v-7.816l5.939-4.871h-20.579
	l-2.088,12.522v15.877h-1.018v4.014H291.271z M279.098,36.665h6.918v3.786h-6.918V36.665z M279.098,42.714h6.918v3.788h-6.918
	V42.714z M269.307,36.665h6.92v3.786h-6.92V36.665z M269.307,42.714h6.92v3.788h-6.92V42.714z M251.433,49.943h-6.021v-11.17h6.021
	V49.943z M257.959,49.943h-6.021v-11.17h6.021V49.943z M262.986,49.986h-1.521v-17.28h-19.656v17.281h-1.379v-18.88h1.324v-0.889
	h20.373v0.626h0.859V49.986L262.986,49.986z M249.104,25.306c0-1.511,1.229-2.742,2.741-2.742c1.516,0,2.741,1.231,2.741,2.742
	c0,1.512-1.227,2.742-2.741,2.742S249.104,26.817,249.104,25.306z M236.549,28.805l14.854-12.335l16.327,12.077h-1.646
	l-14.506-10.674l-14.006,10.933L236.549,28.805L236.549,28.805z M226.87,37.061h6.92v3.783h-6.92V37.061z M226.87,43.106h6.919
	v3.786h-6.919V43.106z M217.078,37.061h6.92v3.783h-6.92V37.061z M217.078,43.106h6.92v3.786h-6.92V43.106z"/>
<rect x="346.176" y="44.52" fill="#333333" width="5.408" height="4.666"/>
<rect x="352.814" y="44.52" fill="#333333" width="5.408" height="4.666"/>
<rect x="339.537" y="44.52" fill="#333333" width="5.41" height="4.666"/>
<rect x="346.176" y="38.12" fill="#333333" width="5.408" height="4.667"/>
<rect x="339.537" y="38.12" fill="#333333" width="5.41" height="4.667"/>
<rect x="352.814" y="38.12" fill="#333333" width="5.408" height="4.667"/>
<rect x="346.176" y="31.719" fill="#333333" width="5.408" height="4.667"/>
<rect x="339.537" y="31.719" fill="#333333" width="5.41" height="4.667"/>
<rect x="359.451" y="44.52" fill="#333333" width="5.41" height="4.666"/>
<path fill="#333333" d="M376.08,49.469V13.683l-24.496-11.12l-23.137,11.12v35.786h-2.992v0.86v3.152h53.104h0.918v-3.152v-0.86
	H376.08z M367.506,50.329h-30.482V20.541h30.482V50.329z"/>
<path fill="#333333" d="M469.416,49.993V21.525h-22.734V2.039h-22.736v47.956h-3.248v0.765v3.249h51.967v-3.249v-0.765
	L469.416,49.993L469.416,49.993z M427.191,5.287h6.496v6.496h-6.496V5.287z M427.191,15.029h6.496v6.496h-6.496V15.029z
	 M427.191,24.773h6.496v6.496h-6.496V24.773z M427.191,34.517h6.496v6.497h-6.496V34.517z M434.943,50.644h-3.84v-6.652h3.84V50.644
	z M439.283,50.644h-3.838v-6.652h3.838V50.644z M443.432,41.014h-6.494v-6.497h6.494V41.014z M443.432,31.271h-6.494v-6.496h6.494
	V31.271z M443.432,21.525h-6.494v-6.496h6.494V21.525z M443.432,11.783h-6.494V5.287h6.494V11.783z M456.424,41.014h-6.496v-6.497
	h6.496V41.014z M456.424,31.271h-6.496v-6.496h6.496V31.271z M466.168,41.014h-6.496v-6.497h6.496V41.014z M466.168,31.271h-6.496
	v-6.496h6.496V31.271z"/>
<path fill="#333333" d="M44.158,54.007h-0.846c0,1.862-1.516,3.377-3.378,3.377c-1.861,0-3.378-1.515-3.378-3.377h-0.845
	c0,2.184,1.672,3.965,3.801,4.18v17.729h0.845V58.187C42.485,57.972,44.158,56.189,44.158,54.007z"/>
<path fill="#333333" d="M148.594,54.004h-0.845c0,1.863-1.516,3.378-3.378,3.378c-1.863,0-3.378-1.515-3.378-3.378h-0.846
	c0,2.185,1.672,3.964,3.802,4.181v17.729h0.845V58.185C146.921,57.968,148.594,56.188,148.594,54.004z"/>
<path fill="#333333" d="M256.08,54.007h-0.846c0,1.862-1.516,3.377-3.379,3.377c-1.861,0-3.377-1.515-3.377-3.377h-0.846
	c0,2.184,1.673,3.965,3.8,4.18v17.729h0.846V58.187C254.406,57.972,256.08,56.189,256.08,54.007z"/>
<path fill="#333333" d="M357.037,53.481h-0.846c0,1.862-1.516,3.378-3.379,3.378c-1.861,0-3.377-1.516-3.377-3.378h-0.846
	c0,2.185,1.672,3.965,3.801,4.18V75.39h0.846V57.662C355.365,57.447,357.037,55.666,357.037,53.481z"/>
<path fill="#333333" d="M450.902,54.007h-0.846c0,1.862-1.516,3.377-3.379,3.377c-1.861,0-3.377-1.515-3.377-3.377h-0.846
	c0,2.184,1.672,3.965,3.801,4.18v17.729h0.846V58.187C449.23,57.972,450.902,56.189,450.902,54.007z"/>
</svg>
