<?xml version="1.0" encoding="utf-8"?>
<!-- Generator: Adobe Illustrator 15.0.0, SVG Export Plug-In  -->
<!DOCTYPE svg PUBLIC "-//W3C//DTD SVG 1.1//EN" "http://www.w3.org/Graphics/SVG/1.1/DTD/svg11.dtd" [
	<!ENTITY ns_flows "http://ns.adobe.com/Flows/1.0/">
]>
<svg version="1.1"
	 xmlns="http://www.w3.org/2000/svg" xmlns:xlink="http://www.w3.org/1999/xlink" xmlns:a="http://ns.adobe.com/AdobeSVGViewerExtensions/3.0/"
	 x="0px" y="0px" width="500px" height="500px" viewBox="-79.844 -3.263 500 500" enable-background="new -79.844 -3.263 500 500"
	 xml:space="preserve">
<defs>
</defs>
<path fill="#679352" d="M237.703,314.029c-30.563,23.814-55.479,53.227-80.686,82.352c-10.786-11.428-20.596-23.559-26.917-38.184
	c-7.154-16.676-34.342,7.584-27.895,22.598c8.817,20.388,24.519,36.966,39.977,52.584c6.305,6.416,17.138-0.832,21.491-5.793
	c27.652-31.397,53.448-64.442,86.637-90.305C266.235,324.894,256.68,299.242,237.703,314.029z"/>
<path fill="#919191" d="M325.684,35.399H249.33c-5.357-5.895-13.04-9.679-21.632-9.679h-29.412v-4.984
	C198.286,9.946,183.834,0,170.156,0c-13.678,0-28.13,9.946-28.13,20.736v4.984h-29.413c-8.592,0-16.273,3.784-21.632,9.679H14.594
	C6.495,35.399,0,41.953,0,50.018v428.829c0,8.049,6.479,14.627,14.594,14.627h311.091c8.08,0,14.625-6.527,14.625-14.627V50.018
	C340.311,41.953,333.766,35.399,325.684,35.399z M311.026,464.238H29.205V64.636H71.49v0.003h13.47
	c3.971,11.538,14.772,19.892,27.668,19.892h57.528h57.527c12.896,0,23.697-8.354,27.668-19.892h13.471v-0.003h42.204V464.238
	L311.026,464.238z"/>
<rect x="56.519" y="114.818" fill="#919191" width="227.273" height="22.729"/>
<rect x="56.519" y="164.818" fill="#919191" width="227.273" height="22.729"/>
<rect x="56.519" y="214.818" fill="#919191" width="227.273" height="22.729"/>
<rect x="56.519" y="264.818" fill="#919191" width="227.273" height="22.729"/>
</svg>
