<?xml version="1.0" encoding="utf-8"?>
<!-- Generator: Adobe Illustrator 15.0.0, SVG Export Plug-In  -->
<!DOCTYPE svg PUBLIC "-//W3C//DTD SVG 1.1//EN" "http://www.w3.org/Graphics/SVG/1.1/DTD/svg11.dtd" [
	<!ENTITY ns_flows "http://ns.adobe.com/Flows/1.0/">
]>
<svg version="1.1"
	 xmlns="http://www.w3.org/2000/svg" xmlns:xlink="http://www.w3.org/1999/xlink" xmlns:a="http://ns.adobe.com/AdobeSVGViewerExtensions/3.0/"
	 x="0px" y="0px" width="26px" height="26px" viewBox="-2.021 -5.434 26 26" enable-background="new -2.021 -5.434 26 26"
	 xml:space="preserve">
<defs>
</defs>
<path fill="#333333" d="M17.568,2.357c-0.013-0.005-0.027-0.022-0.041-0.035c-0.821-0.732-1.786-1.081-2.895-1.04l-0.034-0.073
	c0.008-0.008,0.014-0.008,0.021-0.008c1.006-0.221,1.347-0.191,1.522-0.436c0.063-0.198-0.014-0.307-0.231-0.335
	c-0.508,0.063-0.973,0.165-1.39,0.323c0.527-0.323,0.733-0.547,0.616-0.665c-0.464-0.284-1.112,0.217-1.168,0.185
	c-0.281,0.184-0.527,0.383-0.739,0.595c-0.446,0.472-0.547,0.656-0.819,1.052l-0.013,0.033c-0.705,1.089-1.454,2.183-1.749,3.301
	L10.54,5.335l-0.021,0.021c-0.424-0.507-1.612-2.104-2.583-2.515C6.872,2.319,4.306,1.848,3.219,1.515
	c-0.006,1.157,0.588,2.08,1.774,2.751v0.021c-1.304-0.199-1.132-0.07-1.211,0.171c0.074,1.074,0.876,1.815,2.394,2.225L6.17,6.703
	C5.574,6.668,4.51,6.582,4.698,7.279C5.197,8.208,6.079,8.653,7.36,8.62C7.105,8.744,6.908,8.878,6.777,9.031
	C6.545,9.264,6.47,9.538,6.545,9.851c0.273,0.473,0.768,0.69,1.493,0.657l0,0l0.041,0.048c-0.007,0.006-0.013,0.014-0.02,0.021
	c-1.254,1.231-2.765,1.785-4.54,1.669L3.489,12.26C2.409,12.254,1.251,11.762,0,10.776c1.258,1.726,2.931,2.97,4.998,3.752
	c2.368,0.747,4.737,0.8,7.098,0.163h0.04c2.293-0.631,4.239-1.925,5.839-3.879c0.739-1.029,1.204-2.008,1.391-2.946
	c1.195,0.041,2.061-0.288,2.592-0.986l-0.013-0.021c-0.396,0.136-1.18,0.096-2.335-0.129V6.606c0-0.005,0-0.005,0.008,0
	c1.266-0.136,2.014-0.525,2.253-1.169c-0.883,0.329-1.753,0.335-2.616,0.029C19.1,4.327,18.541,3.293,17.568,2.357z"/>
</svg>
