<?xml version="1.0" encoding="utf-8"?>
<!-- Generator: Adobe Illustrator 15.0.0, SVG Export Plug-In  -->
<!DOCTYPE svg PUBLIC "-//W3C//DTD SVG 1.1//EN" "http://www.w3.org/Graphics/SVG/1.1/DTD/svg11.dtd" [
	<!ENTITY ns_flows "http://ns.adobe.com/Flows/1.0/">
]>
<svg version="1.1"
	 xmlns="http://www.w3.org/2000/svg" xmlns:xlink="http://www.w3.org/1999/xlink" xmlns:a="http://ns.adobe.com/AdobeSVGViewerExtensions/3.0/"
	 x="0px" y="0px" width="286px" height="161px" viewBox="0 -0.104 286 161" enable-background="new 0 -0.104 286 161"
	 xml:space="preserve">
<defs>
</defs>
<rect fill="#FFFFFF" width="286" height="160.791"/>
<rect x="22.975" y="102.386" fill="none" width="240.049" height="12.732"/>
<path fill="#1B1819" d="M146.446,27.08c0-1.314-0.992-2.415-2.296-2.557c-7.588-0.81-15.294,1.43-21.348,6.122
	c-0.686,0.523-1.052,1.355-0.994,2.209c0.082,0.851,0.565,1.62,1.305,2.047l16.527,9.501c0.086,0.049,0.169,0.092,0.258,0.131
	l2.702,1.564c0.399,0.23,0.839,0.342,1.28,0.342c0.442,0,0.89-0.115,1.287-0.342c0.796-0.459,1.28-1.307,1.28-2.226V27.08H146.446z"
	/>
<path fill="#1B1819" d="M150.103,53.642c0.401,0.23,0.838,0.341,1.284,0.341c0.44,0,0.892-0.116,1.284-0.345l14.512-8.427
	c1.142-0.662,1.595-2.078,1.06-3.276c-3.146-6.994-8.784-12.447-15.884-15.353c-0.793-0.327-1.69-0.237-2.408,0.242
	c-0.71,0.477-1.141,1.278-1.141,2.135v22.452C148.817,52.336,149.302,53.184,150.103,53.642z"/>
<path fill="#1B1819" d="M134.795,44.328l-14.488-8.33c-1.141-0.653-2.591-0.343-3.363,0.723c-3.651,5.047-5.668,11.237-5.668,17.431
	c0,1.272,0.081,2.553,0.24,3.805c0.111,0.852,0.632,1.592,1.396,1.975c0.364,0.183,0.759,0.271,1.149,0.271
	c0.437,0,0.882-0.114,1.277-0.336l19.453-11.071c0.801-0.455,1.294-1.305,1.294-2.224C136.084,45.64,135.591,44.788,134.795,44.328z
	"/>
<path fill="#1B1819" d="M132.045,54.526c-0.792-0.46-1.764-0.466-2.561-0.012l-14.632,8.33c-1.146,0.649-1.611,2.058-1.088,3.264
	c3.125,7.127,8.812,12.671,16.019,15.615c0.315,0.127,0.642,0.19,0.971,0.19c0.507,0,1.002-0.146,1.439-0.436
	c0.708-0.476,1.136-1.278,1.136-2.131V56.751C133.322,55.833,132.839,54.985,132.045,54.526z"/>
<polygon fill="#1B1819" points="173.838,72.928 168.463,78.303 163.089,72.928 161.481,74.535 166.856,79.911 161.481,85.286 
	163.089,86.893 168.463,81.518 173.838,86.893 175.447,85.286 170.071,79.911 175.447,74.535 "/>
<path fill="#1B1819" d="M176.82,67.684c1.626-4.217,2.601-8.747,2.601-13.533c0-21.149-17.204-38.353-38.352-38.353
	c-21.149,0-38.352,17.203-38.352,38.353c0,21.146,17.203,38.353,38.352,38.353c5.625,0,10.929-1.281,15.741-3.474
	c2.711,3.462,6.922,5.697,11.656,5.697c8.17,0,14.818-6.647,14.818-14.818C183.282,74.836,180.72,70.355,176.82,67.684z
	 M168.463,92.457c-6.919,0-12.546-5.628-12.546-12.545c0-2.401,0.68-4.732,1.963-6.742l-0.029-0.315l-0.967-0.548l-17.345-10.076
	c-0.794-0.461-1.769-0.467-2.574-0.004c-0.797,0.459-1.288,1.307-1.288,2.229v16.772c0,1.316,0.997,2.415,2.306,2.557
	c1.035,0.111,2.078,0.164,3.088,0.164c4.365,0,8.669-1.092,12.625-2.974c0.088,1.204,0.307,2.368,0.665,3.476
	c-4.08,1.817-8.548,2.912-13.293,2.912c-18.312,0-33.207-14.901-33.207-33.208c0-18.313,14.899-33.21,33.207-33.21
	c18.316,0,33.21,14.899,33.21,33.21c0.002,4.031-0.815,7.848-2.16,11.415c-1.119-0.286-2.286-0.452-3.494-0.467
	c1.415-3.486,2.245-7.197,2.245-10.952c0-1.353-0.095-2.729-0.285-4.093c-0.123-0.848-0.653-1.581-1.422-1.956
	c-0.772-0.375-1.672-0.342-2.414,0.088l-16.65,9.668c-0.101,0.056-0.195,0.123-0.285,0.194l-2.574,1.485
	c-0.797,0.457-1.281,1.305-1.281,2.224c-0.004,0.917,0.488,1.767,1.279,2.226l10.538,6.124l1.554,1.019l0.009-0.015l0.093,0.088
	c2.385-2.475,5.593-3.838,9.031-3.838c6.918,0,12.545,5.628,12.545,12.547C181.01,86.828,175.38,92.457,168.463,92.457z"/>
<path fill="#1B1819" d="M48.501,115.229v-3.064c0-1.327,0.301-2.341,0.904-3.044c0.603-0.704,1.434-1.056,2.494-1.056
	c1.077,0,1.927,0.352,2.548,1.059c0.621,0.705,0.932,1.72,0.932,3.041v3.064c0,1.327-0.31,2.339-0.929,3.037
	c-0.619,0.698-1.467,1.048-2.545,1.048c-1.06,0-1.893-0.35-2.498-1.048S48.501,116.556,48.501,115.229z M49.402,115.229
	c0,1.097,0.215,1.917,0.645,2.463c0.43,0.546,1.05,0.818,1.859,0.818c0.83,0,1.466-0.272,1.909-0.818s0.664-1.366,0.664-2.463
	v-3.087c0-1.082-0.223-1.895-0.667-2.44s-1.082-0.818-1.912-0.818c-0.805,0-1.422,0.272-1.853,0.818
	c-0.43,0.546-0.645,1.358-0.645,2.44V115.229z"/>
<path fill="#1B1819" d="M57.22,119.156v-8.126h0.901v7.345h2.793v-7.345h0.901v7.345h2.778v-7.345h0.901v8.126H57.22z"/>
<path fill="#1B1819" d="M67.545,119.156v-8.126h0.901v6.391l0.045,0.007l3.379-6.397h0.901v8.126h-0.901v-6.384l-0.045-0.008
	l-3.379,6.392H67.545z"/>
<path fill="#1B1819" d="M74.53,115.454v-1.171c0-1.567,0.271-2.831,0.814-3.791c0.543-0.957,1.273-1.526,2.19-1.706
	c0.577-0.117,0.992-0.271,1.244-0.463c0.252-0.193,0.378-0.469,0.378-0.829h0.75l0.016,0.044c0.02,0.691-0.159,1.179-0.538,1.465
	c-0.378,0.284-0.936,0.486-1.673,0.601c-0.597,0.1-1.109,0.417-1.537,0.949c-0.427,0.533-0.685,1.253-0.774,2.159l0.03,0.039
	c0.232-0.357,0.543-0.642,0.933-0.857c0.39-0.215,0.814-0.323,1.274-0.323c0.868,0,1.562,0.34,2.082,1.018
	c0.52,0.679,0.78,1.552,0.78,2.617v0.249c0,1.137-0.273,2.064-0.821,2.781c-0.547,0.72-1.277,1.078-2.19,1.078
	c-0.902,0-1.621-0.358-2.156-1.078C74.797,117.519,74.53,116.591,74.53,115.454z M75.431,115.454c0,0.875,0.179,1.608,0.537,2.196
	c0.357,0.589,0.865,0.882,1.521,0.882c0.665,0,1.183-0.293,1.553-0.882c0.371-0.588,0.556-1.321,0.556-2.196v-0.249
	c0-0.801-0.185-1.478-0.556-2.026c-0.371-0.552-0.891-0.827-1.561-0.827c-0.652,0-1.157,0.277-1.514,0.83
	c-0.358,0.554-0.537,1.229-0.537,2.023V115.454z"/>
<path fill="#1B1819" d="M81.957,119.156v-8.126h0.901v3.597h0.931l2.381-3.597h1.119l-2.764,3.913l3.034,4.213h-1.164l-2.583-3.702
	h-0.954v3.702H81.957z"/>
<path fill="#1B1819" d="M88.475,116.993c0-0.756,0.266-1.358,0.796-1.806c0.53-0.449,1.249-0.673,2.155-0.673h1.419v-0.999
	c0-0.576-0.145-1.026-0.436-1.352c-0.29-0.325-0.695-0.487-1.216-0.487c-0.485,0-0.885,0.155-1.198,0.465
	c-0.313,0.311-0.469,0.69-0.469,1.142l-0.841-0.008l-0.015-0.044c-0.025-0.611,0.207-1.155,0.694-1.635
	c0.489-0.477,1.113-0.717,1.874-0.717c0.751,0,1.356,0.229,1.817,0.688c0.461,0.457,0.691,1.113,0.691,1.965v3.986
	c0,0.334,0.018,0.629,0.054,0.883c0.037,0.253,0.072,0.506,0.107,0.755h-0.927c-0.039-0.279-0.071-0.509-0.097-0.692
	c-0.025-0.184-0.039-0.366-0.039-0.546c-0.245,0.404-0.564,0.738-0.958,1.002c-0.393,0.263-0.83,0.394-1.31,0.394
	c-0.671,0-1.189-0.209-1.555-0.627C88.658,118.27,88.475,117.704,88.475,116.993z M89.376,117.023c0,0.435,0.115,0.79,0.345,1.065
	c0.23,0.275,0.553,0.413,0.969,0.413c0.5,0,0.945-0.143,1.333-0.431c0.388-0.288,0.662-0.655,0.822-1.101v-1.757h-1.441
	c-0.616,0-1.108,0.174-1.476,0.521C89.56,116.083,89.376,116.513,89.376,117.023z"/>
<path fill="#1B1819" d="M99.109,119.156v-8.126h5.227v8.126h-0.901v-7.322h-3.424v7.322H99.109z"/>
<path fill="#1B1819" d="M106.063,115.694V114.5c0-1.051,0.27-1.917,0.81-2.599c0.54-0.681,1.265-1.021,2.175-1.021
	c0.91,0,1.636,0.339,2.179,1.018c0.542,0.679,0.814,1.546,0.814,2.603v1.194c0,1.065-0.27,1.936-0.811,2.608
	c-0.54,0.673-1.265,1.011-2.175,1.011c-0.915,0-1.643-0.338-2.183-1.011S106.063,116.76,106.063,115.694z M106.964,115.694
	c0,0.812,0.181,1.486,0.542,2.027c0.361,0.54,0.878,0.811,1.55,0.811c0.657,0,1.168-0.271,1.535-0.814
	c0.366-0.544,0.549-1.218,0.549-2.023V114.5c0-0.797-0.183-1.467-0.549-2.009c-0.366-0.544-0.88-0.814-1.542-0.814
	c-0.667,0-1.181,0.271-1.542,0.814c-0.361,0.542-0.542,1.212-0.542,2.009V115.694z"/>
<path fill="#1B1819" d="M112.537,118.375h0.498c0.342-0.491,0.619-1.037,0.831-1.642c0.211-0.603,0.342-1.522,0.392-2.76
	l0.045-2.943h4.175v7.345h0.759l-0.083,3.168h-0.818v-2.387h-4.904v2.387h-0.818L112.537,118.375z M114.011,118.375h3.565v-6.519
	h-2.344l-0.075,2.093c-0.045,1.062-0.168,1.952-0.371,2.67C114.584,117.336,114.325,117.921,114.011,118.375z"/>
<path fill="#1B1819" d="M120.805,119.156v-8.126h0.901v3.597h0.931l2.38-3.597h1.119l-2.764,3.913l3.034,4.213h-1.164l-2.583-3.702
	h-0.954v3.702H120.805z"/>
<path fill="#1B1819" d="M126.91,119.156l0.015-0.827l0.24-0.007c0.451,0,0.773-0.272,0.969-0.818s0.293-1.507,0.293-2.884v-3.59
	h4.468v8.126h-0.901v-7.322h-2.666v2.786c0,1.598-0.16,2.751-0.48,3.465s-0.869,1.071-1.645,1.071H126.91z"/>
<path fill="#1B1819" d="M135.066,119.156v-8.126h0.901v3.688h1.817V114.5c0-1.051,0.27-1.917,0.81-2.599
	c0.54-0.681,1.265-1.021,2.175-1.021c0.91,0,1.636,0.339,2.179,1.018c0.542,0.679,0.814,1.546,0.814,2.603v1.194
	c0,1.065-0.27,1.936-0.811,2.608c-0.54,0.673-1.265,1.011-2.175,1.011c-0.915,0-1.643-0.338-2.183-1.011s-0.81-1.543-0.81-2.608
	v-0.195h-1.817v3.657H135.066z M138.686,115.694c0,0.812,0.181,1.486,0.542,2.027c0.361,0.54,0.878,0.811,1.55,0.811
	c0.657,0,1.168-0.271,1.535-0.814c0.366-0.544,0.549-1.218,0.549-2.023V114.5c0-0.797-0.184-1.467-0.549-2.009
	c-0.366-0.544-0.88-0.814-1.542-0.814c-0.667,0-1.181,0.271-1.542,0.814c-0.361,0.542-0.542,1.212-0.542,2.009V115.694z"/>
<path fill="#1B1819" d="M145.226,113.103v-2.072h0.901v2.072c0,0.841,0.134,1.43,0.402,1.766c0.269,0.335,0.694,0.503,1.276,0.503
	c0.291-0.005,0.578-0.039,0.862-0.103c0.282-0.062,0.56-0.148,0.831-0.258v-3.98h0.901v8.126H149.5v-3.351
	c-0.281,0.111-0.563,0.196-0.848,0.26c-0.282,0.063-0.565,0.094-0.846,0.094c-0.855,0-1.499-0.234-1.932-0.705
	C145.443,114.982,145.226,114.2,145.226,113.103z"/>
<path fill="#1B1819" d="M152.135,115.806v-1.352c0-1.026,0.279-1.878,0.839-2.557c0.559-0.679,1.231-1.018,2.018-1.018
	c0.851,0,1.512,0.304,1.981,0.913c0.47,0.608,0.705,1.425,0.705,2.451v0.894h-4.643v0.668c0,0.781,0.188,1.432,0.563,1.949
	s0.883,0.777,1.521,0.777c0.445,0,0.828-0.077,1.151-0.233c0.322-0.155,0.598-0.374,0.828-0.66l0.368,0.64
	c-0.245,0.314-0.562,0.565-0.948,0.754c-0.388,0.188-0.854,0.281-1.399,0.281c-0.877,0-1.594-0.329-2.149-0.987
	S152.135,116.827,152.135,115.806z M153.036,114.357h3.741v-0.345c0-0.672-0.157-1.229-0.473-1.672s-0.752-0.664-1.313-0.664
	c-0.563,0-1.027,0.258-1.39,0.773C153.24,112.965,153.052,113.601,153.036,114.357z"/>
<path fill="#1B1819" d="M159.3,119.156v-8.126h0.901v3.634h3.424v-3.634h0.901v8.126h-0.901v-3.711h-3.424v3.711H159.3z"/>
<path fill="#1B1819" d="M166.667,119.156v-8.126h0.901v6.391l0.045,0.007l3.38-6.397h0.9v8.126h-0.9v-6.384l-0.046-0.008
	l-3.379,6.392H166.667z"/>
<path fill="#1B1819" d="M173.508,119.156l1.727-3.401c-0.46-0.155-0.815-0.437-1.065-0.841c-0.251-0.407-0.376-0.89-0.376-1.451
	c0-0.71,0.219-1.293,0.657-1.749c0.438-0.456,1.042-0.684,1.813-0.684h2.712v8.126h-0.901v-3.268h-1.916l-1.667,3.268H173.508z
	 M174.694,113.479c0,0.456,0.117,0.842,0.351,1.156c0.232,0.316,0.579,0.474,1.039,0.474h1.991v-3.289h-1.811
	c-0.525,0-0.919,0.159-1.18,0.48C174.825,112.62,174.694,113.013,174.694,113.479z"/>
<path fill="#1B1819" d="M184.382,119.156v-8.126h0.901v3.597h0.932l2.38-3.597h1.118l-2.764,3.913l3.034,4.213h-1.163l-2.584-3.702
	h-0.953v3.702H184.382z"/>
<path fill="#1B1819" d="M194.49,119.156v-8.126h0.901v3.597h0.931l2.382-3.597h1.119l-2.764,3.913l3.034,4.213h-1.165l-2.583-3.702
	h-0.954v3.702H194.49z"/>
<path fill="#1B1819" d="M201.008,116.993c0-0.756,0.266-1.358,0.797-1.806c0.53-0.449,1.249-0.673,2.155-0.673h1.419v-0.999
	c0-0.576-0.146-1.026-0.436-1.352s-0.695-0.487-1.216-0.487c-0.486,0-0.886,0.155-1.198,0.465c-0.313,0.311-0.47,0.69-0.47,1.142
	l-0.842-0.008l-0.014-0.044c-0.025-0.611,0.206-1.155,0.694-1.635c0.487-0.477,1.112-0.717,1.873-0.717
	c0.751,0,1.357,0.229,1.818,0.688c0.46,0.457,0.69,1.113,0.69,1.965v3.986c0,0.334,0.018,0.629,0.054,0.883
	c0.037,0.253,0.072,0.506,0.107,0.755h-0.928c-0.039-0.279-0.07-0.509-0.097-0.692c-0.025-0.184-0.038-0.366-0.038-0.546
	c-0.245,0.404-0.565,0.738-0.957,1.002c-0.394,0.263-0.831,0.394-1.312,0.394c-0.67,0-1.189-0.209-1.554-0.627
	C201.192,118.27,201.008,117.704,201.008,116.993z M201.91,117.023c0,0.435,0.115,0.79,0.346,1.065s0.554,0.413,0.969,0.413
	c0.5,0,0.945-0.143,1.333-0.431s0.662-0.655,0.822-1.101v-1.757h-1.441c-0.616,0-1.108,0.174-1.477,0.521
	C202.094,116.083,201.91,116.513,201.91,117.023z"/>
<path fill="#1B1819" d="M208.406,119.156v-8.126h1.18l2.493,6.818h0.044l2.501-6.818h1.12v8.126h-0.901v-6.241l-0.046-0.014
	l-2.38,6.255h-0.631l-2.434-6.405l-0.045,0.007v6.398H208.406z"/>
<path fill="#1B1819" d="M217.486,115.806v-1.352c0-1.026,0.279-1.878,0.837-2.557c0.56-0.679,1.232-1.018,2.021-1.018
	c0.85,0,1.509,0.304,1.979,0.913c0.47,0.608,0.705,1.425,0.705,2.451v0.894h-4.641v0.668c0,0.781,0.188,1.432,0.563,1.949
	s0.882,0.777,1.521,0.777c0.444,0,0.828-0.077,1.15-0.233c0.322-0.155,0.599-0.374,0.828-0.66l0.368,0.64
	c-0.245,0.314-0.561,0.565-0.949,0.754c-0.387,0.188-0.854,0.281-1.397,0.281c-0.878,0-1.594-0.329-2.15-0.987
	S217.486,116.827,217.486,115.806z M218.386,114.357h3.739v-0.345c0-0.672-0.157-1.229-0.472-1.672s-0.752-0.664-1.311-0.664
	c-0.566,0-1.029,0.258-1.391,0.773C218.59,112.965,218.401,113.601,218.386,114.357z"/>
<path fill="#1B1819" d="M224.605,122.28v-11.25h0.765l0.093,1.12c0.226-0.406,0.51-0.72,0.855-0.94
	c0.346-0.219,0.747-0.33,1.208-0.33c0.811,0,1.445,0.346,1.903,1.04c0.458,0.693,0.687,1.619,0.687,2.774v1.111
	c0,1.067-0.228,1.918-0.682,2.554c-0.456,0.636-1.085,0.954-1.886,0.954c-0.456,0-0.854-0.096-1.194-0.284
	c-0.341-0.191-0.624-0.467-0.848-0.827v4.078H224.605z M225.506,117.218c0.164,0.412,0.395,0.733,0.69,0.965
	c0.295,0.233,0.663,0.35,1.104,0.35c0.631,0,1.108-0.249,1.431-0.747c0.323-0.498,0.484-1.157,0.484-1.979v-1.111
	c0-0.885-0.163-1.607-0.488-2.166s-0.804-0.838-1.435-0.838c-0.445,0-0.814,0.133-1.107,0.399c-0.293,0.266-0.52,0.609-0.679,1.035
	V117.218z"/>
<path fill="#1B1819" d="M231.521,115.806v-1.352c0-1.026,0.279-1.878,0.838-2.557c0.56-0.679,1.232-1.018,2.02-1.018
	c0.85,0,1.51,0.304,1.979,0.913c0.47,0.608,0.705,1.425,0.705,2.451v0.894h-4.641v0.668c0,0.781,0.187,1.432,0.562,1.949
	s0.882,0.777,1.521,0.777c0.445,0,0.829-0.077,1.151-0.233c0.322-0.155,0.598-0.374,0.827-0.66l0.369,0.64
	c-0.245,0.314-0.562,0.565-0.949,0.754c-0.388,0.188-0.854,0.281-1.398,0.281c-0.877,0-1.594-0.329-2.15-0.987
	C231.799,117.668,231.521,116.827,231.521,115.806z M232.422,114.357h3.739v-0.345c0-0.672-0.157-1.229-0.473-1.672
	c-0.314-0.443-0.751-0.664-1.311-0.664c-0.564,0-1.028,0.258-1.391,0.773C232.625,112.965,232.437,113.601,232.422,114.357z"/>
</svg>
