<?xml version="1.0" encoding="utf-8"?>
<!-- Generator: Adobe Illustrator 15.0.0, SVG Export Plug-In  -->
<!DOCTYPE svg PUBLIC "-//W3C//DTD SVG 1.1//EN" "http://www.w3.org/Graphics/SVG/1.1/DTD/svg11.dtd" [
	<!ENTITY ns_flows "http://ns.adobe.com/Flows/1.0/">
]>
<svg version="1.1"
	 xmlns="http://www.w3.org/2000/svg" xmlns:xlink="http://www.w3.org/1999/xlink" xmlns:a="http://ns.adobe.com/AdobeSVGViewerExtensions/3.0/"
	 x="0px" y="0px" width="26px" height="26px" viewBox="-2.583 -5.795 26 26" enable-background="new -2.583 -5.795 26 26"
	 xml:space="preserve">
<defs>
</defs>
<path fill="#333333" d="M18.472,6.024c0.297-0.465,0.532-0.837,0.705-1.116c1.252-2.017,1.793-3.304,1.629-3.866L20.74,0.912
	c-0.045-0.079-0.156-0.15-0.337-0.217c-0.182-0.065-0.412-0.076-0.694-0.032l-3.124,0.026c-0.072-0.01-0.146-0.007-0.219,0.006
	c-0.072,0.014-0.118,0.026-0.14,0.04c-0.021,0.012-0.039,0.023-0.054,0.032l-0.042,0.04c-0.038,0.025-0.077,0.073-0.12,0.138
	c-0.044,0.066-0.08,0.143-0.106,0.23c-0.343,1.059-0.73,2.045-1.164,2.957c-0.267,0.542-0.514,1.015-0.737,1.413
	c-0.222,0.398-0.412,0.693-0.563,0.879c-0.152,0.189-0.289,0.34-0.412,0.452c-0.122,0.116-0.217,0.163-0.284,0.146
	c-0.063-0.018-0.125-0.036-0.184-0.053c-0.102-0.079-0.182-0.185-0.243-0.323c-0.063-0.134-0.104-0.305-0.125-0.511
	c-0.02-0.207-0.034-0.384-0.038-0.534c-0.003-0.149-0.002-0.358,0.006-0.63c0.007-0.272,0.013-0.455,0.013-0.552
	c0-0.333,0.003-0.695,0.014-1.085c0.013-0.39,0.021-0.698,0.028-0.927c0.007-0.228,0.01-0.469,0.01-0.722s-0.012-0.453-0.038-0.598
	c-0.024-0.144-0.063-0.286-0.113-0.421c-0.05-0.136-0.125-0.241-0.224-0.316c-0.097-0.074-0.219-0.133-0.361-0.177
	c-0.384-0.105-0.871-0.162-1.464-0.171C8.679-0.015,7.814,0.09,7.43,0.318C7.278,0.417,7.14,0.548,7.017,0.715
	C6.888,0.908,6.87,1.012,6.964,1.03c0.434,0.079,0.741,0.267,0.921,0.565l0.066,0.157c0.051,0.115,0.101,0.317,0.15,0.605
	c0.051,0.29,0.085,0.609,0.099,0.96c0.036,0.639,0.036,1.187,0,1.642c-0.037,0.456-0.07,0.812-0.104,1.064
	c-0.033,0.253-0.08,0.461-0.146,0.617c-0.065,0.16-0.11,0.254-0.131,0.29C7.799,6.967,7.78,6.989,7.768,6.998
	C7.672,7.041,7.576,7.062,7.473,7.062c-0.101,0-0.223-0.06-0.368-0.184C6.96,6.757,6.81,6.588,6.655,6.372
	C6.5,6.159,6.324,5.858,6.128,5.472C5.934,5.086,5.73,4.631,5.521,4.106L5.348,3.724C5.239,3.479,5.09,3.123,4.903,2.654
	c-0.187-0.469-0.354-0.923-0.5-1.36C4.346,1.109,4.26,0.968,4.143,0.872L4.09,0.832C4.054,0.797,3.996,0.761,3.915,0.72
	C3.836,0.681,3.754,0.653,3.666,0.636L0.694,0.661c-0.304,0-0.51,0.084-0.618,0.25L0.033,0.99C0.011,1.035,0,1.105,0,1.2
	c0,0.097,0.022,0.216,0.065,0.355C0.5,2.791,0.972,3.982,1.481,5.13C1.991,6.278,2.433,7.205,2.81,7.905
	c0.376,0.701,0.76,1.362,1.149,1.986c0.392,0.622,0.649,1.02,0.776,1.196c0.127,0.175,0.226,0.307,0.298,0.395l0.271,0.314
	c0.173,0.208,0.43,0.46,0.766,0.755c0.336,0.294,0.708,0.585,1.117,0.867c0.409,0.286,0.883,0.519,1.427,0.697
	c0.542,0.182,1.07,0.253,1.583,0.218h1.247c0.256-0.026,0.445-0.125,0.576-0.29l0.043-0.064c0.03-0.055,0.057-0.135,0.083-0.245
	c0.023-0.106,0.038-0.228,0.038-0.359c-0.008-0.375,0.016-0.716,0.07-1.019c0.054-0.305,0.115-0.529,0.184-0.683
	s0.148-0.282,0.234-0.389c0.085-0.104,0.148-0.168,0.185-0.19c0.036-0.021,0.066-0.037,0.086-0.046
	c0.173-0.066,0.376-0.002,0.614,0.203c0.232,0.206,0.454,0.462,0.661,0.761c0.206,0.306,0.453,0.642,0.742,1.021
	c0.29,0.376,0.544,0.655,0.761,0.84l0.216,0.159c0.146,0.104,0.334,0.2,0.564,0.286c0.23,0.09,0.434,0.11,0.608,0.068l2.776-0.054
	c0.274,0,0.488-0.056,0.64-0.166c0.153-0.106,0.241-0.228,0.271-0.359c0.029-0.131,0.032-0.28,0.005-0.446
	c-0.022-0.166-0.05-0.282-0.075-0.35c-0.024-0.064-0.049-0.121-0.07-0.163c-0.362-0.792-1.052-1.757-2.073-2.905l-0.02-0.026
	L18.55,9.906l-0.01-0.015h-0.011c-0.463-0.535-0.757-0.893-0.879-1.077c-0.224-0.353-0.275-0.706-0.151-1.065
	C17.583,7.476,17.908,6.902,18.472,6.024z"/>
</svg>
