<?xml version="1.0" encoding="utf-8"?>
<!-- Generator: Adobe Illustrator 15.0.0, SVG Export Plug-In  -->
<!DOCTYPE svg PUBLIC "-//W3C//DTD SVG 1.1//EN" "http://www.w3.org/Graphics/SVG/1.1/DTD/svg11.dtd" [
	<!ENTITY ns_flows "http://ns.adobe.com/Flows/1.0/">
]>
<svg version="1.1"
	 xmlns="http://www.w3.org/2000/svg" xmlns:xlink="http://www.w3.org/1999/xlink" xmlns:a="http://ns.adobe.com/AdobeSVGViewerExtensions/3.0/"
	 x="0px" y="0px" width="70px" height="60px" viewBox="-5.06 -12.54 70 60" enable-background="new -5.06 -12.54 70 60"
	 xml:space="preserve">
<defs>
</defs>
<path fill="#266031" d="M59.566,13.431c-0.177-0.196-0.415-0.301-0.69-0.301c-0.424,0-0.811,0.247-0.854,0.275
	c-0.114,0.078-0.18,0.214-0.159,0.353c0.275,2.051-0.306,2.433-0.771,2.741c-0.28,0.183-0.598,0.393-0.66,0.845
	c-0.035,0.267,0.02,0.483,0.154,0.645c0.094,0.104,0.268,0.23,0.571,0.23c0.378,0,0.821-0.197,0.978-0.27
	c0.328-0.069,1.445-0.475,1.721-2.805C59.948,14.32,59.856,13.758,59.566,13.431z"/>
<path fill="#266031" d="M57.499,13.922c-0.117-0.063-0.261-0.06-0.373,0.011c-0.004,0.002-0.512,0.305-1.418,0.305
	c-0.168,0-0.34-0.01-0.517-0.031c-0.187-0.022-0.353,0.095-0.396,0.273c-0.217,0.856-0.76,2.043-1.219,2.043
	c-0.193,0-0.443-0.215-0.703-0.601c-0.093-0.134-0.259-0.193-0.41-0.146c-0.152,0.047-0.26,0.188-0.26,0.35
	c0,0.926,0.348,2.494,1.647,2.494c0.635,0,1.381-0.395,2.272-1.201c0.629-0.566,1.557-1.967,1.557-3.179
	C57.686,14.11,57.61,13.987,57.499,13.922z"/>
<path fill="#266031" d="M33.747,2.945c0.145,0.078,15.666,8.326,19.229,10.189c1.114,0.583,2.118,0.877,2.979,0.877
	c1.573,0,2.148-0.981,2.172-1.021c0.051-0.085,0.063-0.188,0.029-0.281c-0.021-0.095-0.09-0.175-0.176-0.221L34.771,0.045
	c-0.108-0.062-0.242-0.06-0.353,0.002L33.19,0.745c-0.523,0.297-0.627,0.652-0.618,0.897C32.595,2.346,33.554,2.853,33.747,2.945z"
	/>
<path fill="#266031" d="M53.11,14.095c0.084-0.081,0.126-0.197,0.107-0.312c-0.016-0.116-0.084-0.217-0.188-0.271L33.956,3.236
	c-0.179-0.094-0.396-0.031-0.492,0.145l-0.655,1.188c-0.089,0.159-0.048,0.359,0.104,0.469c2.276,1.708,2.229,3.891,2.229,3.914
	c-0.008,0.14,0.068,0.269,0.189,0.334l15.965,8.474c0.054,0.028,0.109,0.042,0.17,0.042c0.082,0,0.166-0.028,0.23-0.083
	c0.113-0.095,0.156-0.246,0.116-0.388C51.352,15.802,53.093,14.114,53.11,14.095z"/>
<path fill="#266031" d="M44.499,14.766c0.018-0.144-0.063-0.281-0.187-0.35l-5.363-2.908c-0.153-0.084-0.347-0.044-0.46,0.093
	c-0.05,0.062-1.22,1.538-1.008,3.211c0.113,0.898,0.6,1.674,1.441,2.304c0.617,0.459,1.256,0.691,1.908,0.691
	C42.923,17.807,44.452,15.375,44.499,14.766z M40.7,16.246c-0.699,0-1.264-0.567-1.264-1.266c0-0.699,0.564-1.264,1.264-1.264
	c0.698,0,1.266,0.565,1.266,1.264C41.966,15.678,41.398,16.246,40.7,16.246z"/>
<circle fill="#266031" cx="40.7" cy="14.98" r="0.536"/>
<path fill="#266031" d="M41.966,18.256c0-0.203-0.162-0.365-0.366-0.365h-1.802c-0.15,0-0.284,0.092-0.34,0.232
	c-0.026,0.071-0.736,1.772-3.221,1.772h-5.611v-1.272c0-0.197-0.158-0.358-0.355-0.366l-1.722-0.039
	c-0.089,0-0.192,0.034-0.261,0.104c-0.07,0.066-0.11,0.162-0.11,0.263v1.599c-0.059-0.074-0.11-0.154-0.171-0.229v-2.509
	c0-0.201-0.163-0.365-0.366-0.365h-2.025c-0.202,0-0.365,0.163-0.365,0.365v0.542c-0.698-0.258-1.449-0.407-2.234-0.407
	c-1.808,0-3.544,0.769-4.763,2.104l1.347,1.228c0.874-0.96,2.119-1.511,3.416-1.511c2.546,0,4.619,2.07,4.619,4.617
	c0,0.608-0.115,1.196-0.344,1.752l1.687,0.691c0.319-0.773,0.479-1.598,0.479-2.443c0-0.203-0.013-0.404-0.03-0.605h0.885
	c0.099,0,0.19-0.039,0.26-0.105c0.067-0.07,0.106-0.164,0.104-0.265l-0.01-0.868l5.83,0.012
	C39.019,22.181,41.966,21.156,41.966,18.256z"/>
<path fill="#266031" d="M54.6,19.537c-0.238,0.136-0.519,0.229-0.796,0.22c-0.121,0.029-0.254,0.024-0.377-0.012
	c-0.002,0-0.004,0.003-0.006,0.003c-0.066,0-0.135-0.018-0.197-0.051l-5.191-2.755c0.153,0.133,0.311,0.272,0.46,0.413
	c0.286,0.232,0.572,0.465,0.841,0.717c0.131,0.111,0.258,0.23,0.385,0.353c0.013,0.007,0.021,0.015,0.023,0.021
	c0.016,0.007,0.024,0.012,0.037,0.02c0.118,0.098,0.229,0.197,0.332,0.305c0.08,0.071,0.165,0.139,0.243,0.215
	c0.012,0.012,0.021,0.021,0.026,0.037c1.522,1.356,2.479,3.336,2.442,5.531c-0.06,3.948-3.319,7.165-7.271,7.165h-0.146
	l-33.471,0.128c-4.961-0.085-8.933-4.188-8.859-9.148c0.077-4.896,4.116-8.875,9.008-8.875l0.143,0.001
	c1.167,0.018,2.305,0.26,3.391,0.72l1.493,0.635l0.555-1.525c1.806-4.935,6.535-8.25,11.771-8.25l0.198,0.002
	c1.118,0.017,2.202,0.186,3.229,0.476c0.026-0.009,0.053-0.012,0.08-0.009c0.01-0.001,0.014-0.005,0.021-0.01
	c-0.006-0.02-0.01-0.037-0.012-0.055c-0.22-0.216-0.455-0.428-0.729-0.635c-0.068-0.051-0.106-0.122-0.132-0.197
	c-0.047-0.043-0.094-0.084-0.141-0.129c-0.021-0.023-0.033-0.047-0.045-0.071c-0.014-0.018-0.025-0.033-0.04-0.049
	c-0.014-0.014-0.021-0.024-0.034-0.039l0,0c-0.01-0.012-0.021-0.022-0.027-0.034c-0.075-0.115-0.088-0.268-0.018-0.394l0.682-1.237
	c0.013-0.019,0.025-0.032,0.039-0.047c0-0.001,0.002-0.002,0.002-0.004c0.002-0.004,0.006-0.007,0.007-0.013
	c0.003,0,0.003-0.002,0.003-0.003c0,0,0.002-0.002,0.002-0.004c0.036-0.079,0.081-0.151,0.124-0.227V2.672
	c-0.003-0.004-0.004-0.009-0.008-0.014c-0.954-0.199-1.937-0.317-2.948-0.333l-0.249-0.001c-6.016,0-11.491,3.508-14.073,8.869
	c-1.004-0.283-2.036-0.434-3.089-0.45l-0.19-0.002c-6.564,0-11.987,5.342-12.088,11.908c-0.105,6.668,5.236,12.174,11.906,12.276
	h0.016l33.468-0.133h0.167c5.618,0,10.264-4.573,10.353-10.194c0.023-1.58-0.313-3.086-0.926-4.436
	C54.827,19.98,54.704,19.765,54.6,19.537z"/>
</svg>
